<svg xmlns="http://www.w3.org/2000/svg" width="1220" height="450" viewBox="0 0 1220 450">
<rect width="100%" height="100%" fill="white"/>
<text x="610" y="25" text-anchor="middle" font-family="Arial, Noto Sans CJK SC, Microsoft YaHei, sans-serif" font-size="18">E3 recovered state-adaptive stiffness p_k(theta)</text>
<line x1="74" y1="390" x2="1186" y2="390" stroke="#333" stroke-width="1"/>
<line x1="74" y1="40" x2="74" y2="390" stroke="#333" stroke-width="1"/>
<text x="630" y="435" text-anchor="middle" font-family="Arial, Noto Sans CJK SC, Microsoft YaHei, sans-serif" font-size="13">theta</text>
<text transform="translate(18,215) rotate(-90)" text-anchor="middle" font-family="Arial, Noto Sans CJK SC, Microsoft YaHei, sans-serif" font-size="13">p_k(theta)</text>
<line x1="74.00" y1="390" x2="74.00" y2="395" stroke="#333"/>
<text x="74.00" y="411" text-anchor="middle" font-family="Arial" font-size="11">-2.4</text>
<line x1="296.40" y1="390" x2="296.40" y2="395" stroke="#333"/>
<text x="296.40" y="411" text-anchor="middle" font-family="Arial" font-size="11">-1.4</text>
<line x1="518.80" y1="390" x2="518.80" y2="395" stroke="#333"/>
<text x="518.80" y="411" text-anchor="middle" font-family="Arial" font-size="11">-0.5</text>
<line x1="741.20" y1="390" x2="741.20" y2="395" stroke="#333"/>
<text x="741.20" y="411" text-anchor="middle" font-family="Arial" font-size="11">0.5</text>
<line x1="963.60" y1="390" x2="963.60" y2="395" stroke="#333"/>
<text x="963.60" y="411" text-anchor="middle" font-family="Arial" font-size="11">1.4</text>
<line x1="1186.00" y1="390" x2="1186.00" y2="395" stroke="#333"/>
<text x="1186.00" y="411" text-anchor="middle" font-family="Arial" font-size="11">2.4</text>
<line x1="69" y1="390.00" x2="74" y2="390.00" stroke="#333"/>
<text x="66" y="394.00" text-anchor="end" font-family="Arial" font-size="11">0.22</text>
<line x1="69" y1="302.50" x2="74" y2="302.50" stroke="#333"/>
<text x="66" y="306.50" text-anchor="end" font-family="Arial" font-size="11">0.43</text>
<line x1="69" y1="215.00" x2="74" y2="215.00" stroke="#333"/>
<text x="66" y="219.00" text-anchor="end" font-family="Arial" font-size="11">0.64</text>
<line x1="69" y1="127.50" x2="74" y2="127.50" stroke="#333"/>
<text x="66" y="131.50" text-anchor="end" font-family="Arial" font-size="11">0.85</text>
<line x1="69" y1="40.00" x2="74" y2="40.00" stroke="#333"/>
<text x="66" y="44.00" text-anchor="end" font-family="Arial" font-size="11">1.06</text>
<polyline points="74.00,365.04 75.39,363.97 76.78,362.90 78.17,361.83 79.56,360.76 80.95,359.69 82.34,358.62 83.73,357.55 85.12,356.47 86.51,355.40 87.90,354.32 89.29,353.24 90.68,352.16 92.07,351.09 93.46,350.01 94.85,348.93 96.24,347.85 97.63,346.76 99.02,345.68 100.41,344.60 101.80,343.51 103.19,342.43 104.58,341.34 105.97,340.26 107.36,339.17 108.75,338.08 110.14,336.99 111.53,335.91 112.92,334.82 114.31,333.73 115.70,332.64 117.09,331.55 118.48,330.46 119.87,329.36 121.26,328.27 122.65,327.18 124.04,326.09 125.43,324.99 126.82,323.90 128.21,322.81 129.60,321.71 130.99,320.62 132.38,319.53 133.77,318.43 135.16,317.34 136.55,316.24 137.94,315.15 139.33,314.05 140.72,312.95 142.11,311.86 143.50,310.76 144.89,309.67 146.28,308.57 147.67,307.47 149.06,306.38 150.45,305.28 151.84,304.19 153.23,303.09 154.62,302.00 156.01,300.90 157.40,299.80 158.79,298.71 160.18,297.61 161.57,296.52 162.96,295.42 164.35,294.33 165.74,293.24 167.13,292.14 168.52,291.05 169.91,289.95 171.30,288.86 172.69,287.77 174.08,286.68 175.47,285.58 176.86,284.49 178.25,283.40 179.64,282.31 181.03,281.22 182.42,280.13 183.81,279.04 185.20,277.95 186.59,276.87 187.98,275.78 189.37,274.69 190.76,273.61 192.15,272.52 193.54,271.44 194.93,270.35 196.32,269.27 197.71,268.19 199.10,267.11 200.49,266.02 201.88,264.94 203.27,263.86 204.66,262.79 206.05,261.71 207.44,260.63 208.83,259.56 210.22,258.48 211.61,257.41 213.00,256.34 214.39,255.26 215.78,254.19 217.17,253.12 218.56,252.05 219.95,250.99 221.34,249.92 222.73,248.85 224.12,247.79 225.51,246.73 226.90,245.67 228.29,244.61 229.68,243.55 231.07,242.49 232.46,241.43 233.85,240.38 235.24,239.32 236.63,238.27 238.02,237.22 239.41,236.17 240.80,235.12 242.19,234.07 243.58,233.03 244.97,231.98 246.36,230.94 247.75,229.90 249.14,228.86 250.53,227.82 251.92,226.78 253.31,225.75 254.70,224.71 256.09,223.68 257.48,222.65 258.87,221.62 260.26,220.60 261.65,219.57 263.04,218.55 264.43,217.53 265.82,216.51 267.21,215.49 268.60,214.48 269.99,213.46 271.38,212.45 272.77,211.44 274.16,210.43 275.55,209.42 276.94,208.42 278.33,207.42 279.72,206.42 281.11,205.42 282.50,204.42 283.89,203.43 285.28,202.44 286.67,201.45 288.06,200.46 289.45,199.47 290.84,198.49 292.23,197.51 293.62,196.53 295.01,195.55 296.40,194.57 297.79,193.60 299.18,192.63 300.57,191.66 301.96,190.70 303.35,189.73 304.74,188.77 306.13,187.81 307.52,186.86 308.91,185.90 310.30,184.95 311.69,184.00 313.08,183.06 314.47,182.11 315.86,181.17 317.25,180.23 318.64,179.30 320.03,178.36 321.42,177.43 322.81,176.50 324.20,175.58 325.59,174.66 326.98,173.74 328.37,172.82 329.76,171.90 331.15,170.99 332.54,170.08 333.93,169.17 335.32,168.27 336.71,167.37 338.10,166.47 339.49,165.57 340.88,164.68 342.27,163.79 343.66,162.91 345.05,162.02 346.44,161.14 347.83,160.26 349.22,159.39 350.61,158.52 352.00,157.65 353.39,156.78 354.78,155.92 356.17,155.06 357.56,154.20 358.95,153.35 360.34,152.50 361.73,151.65 363.12,150.80 364.51,149.96 365.90,149.13 367.29,148.29 368.68,147.46 370.07,146.63 371.46,145.81 372.85,144.98 374.24,144.17 375.63,143.35 377.02,142.54 378.41,141.73 379.80,140.93 381.19,140.12 382.58,139.33 383.97,138.53 385.36,137.74 386.75,136.95 388.14,136.17 389.53,135.39 390.92,134.61 392.31,133.84 393.70,133.06 395.09,132.30 396.48,131.53 397.87,130.78 399.26,130.02 400.65,129.27 402.04,128.52 403.43,127.77 404.82,127.03 406.21,126.29 407.60,125.56 408.99,124.83 410.38,124.10 411.77,123.38 413.16,122.66 414.55,121.94 415.94,121.23 417.33,120.52 418.72,119.82 420.11,119.12 421.50,118.42 422.89,117.73 424.28,117.04 425.67,116.36 427.06,115.68 428.45,115.00 429.84,114.33 431.23,113.66 432.62,112.99 434.01,112.33 435.40,111.67 436.79,111.02 438.18,110.37 439.57,109.73 440.96,109.09 442.35,108.45 443.74,107.82 445.13,107.19 446.52,106.56 447.91,105.94 449.30,105.33 450.69,104.71 452.08,104.11 453.47,103.50 454.86,102.90 456.25,102.31 457.64,101.72 459.03,101.13 460.42,100.55 461.81,99.97 463.20,99.39 464.59,98.82 465.98,98.26 467.37,97.69 468.76,97.14 470.15,96.58 471.54,96.04 472.93,95.49 474.32,94.95 475.71,94.42 477.10,93.88 478.49,93.36 479.88,92.83 481.27,92.32 482.66,91.80 484.05,91.29 485.44,90.79 486.83,90.29 488.22,89.79 489.61,89.30 491.00,88.81 492.39,88.33 493.78,87.85 495.17,87.38 496.56,86.91 497.95,86.45 499.34,85.99 500.73,85.53 502.12,85.08 503.51,84.64 504.90,84.19 506.29,83.76 507.68,83.33 509.07,82.90 510.46,82.47 511.85,82.06 513.24,81.64 514.63,81.23 516.02,80.83 517.41,80.43 518.80,80.03 520.19,79.64 521.58,79.26 522.97,78.88 524.36,78.50 525.75,78.13 527.14,77.76 528.53,77.40 529.92,77.04 531.31,76.69 532.70,76.34 534.09,76.00 535.48,75.66 536.87,75.33 538.26,75.00 539.65,74.67 541.04,74.35 542.43,74.04 543.82,73.73 545.21,73.42 546.60,73.12 547.99,72.83 549.38,72.54 550.77,72.25 552.16,71.97 553.55,71.70 554.94,71.43 556.33,71.16 557.72,70.90 559.11,70.64 560.50,70.39 561.89,70.14 563.28,69.90 564.67,69.67 566.06,69.43 567.45,69.21 568.84,68.99 570.23,68.77 571.62,68.56 573.01,68.35 574.40,68.15 575.79,67.95 577.18,67.76 578.57,67.57 579.96,67.39 581.35,67.21 582.74,67.04 584.13,66.87 585.52,66.71 586.91,66.55 588.30,66.40 589.69,66.25 591.08,66.10 592.47,65.97 593.86,65.83 595.25,65.71 596.64,65.58 598.03,65.47 599.42,65.35 600.81,65.25 602.20,65.14 603.59,65.04 604.98,64.95 606.37,64.86 607.76,64.78 609.15,64.70 610.54,64.63 611.93,64.56 613.32,64.50 614.71,64.44 616.10,64.39 617.49,64.34 618.88,64.30 620.27,64.26 621.66,64.23 623.05,64.20 624.44,64.18 625.83,64.16 627.22,64.15 628.61,64.14 630.00,64.14 631.39,64.14 632.78,64.15 634.17,64.16 635.56,64.18 636.95,64.20 638.34,64.23 639.73,64.26 641.12,64.30 642.51,64.34 643.90,64.39 645.29,64.44 646.68,64.50 648.07,64.56 649.46,64.63 650.85,64.70 652.24,64.78 653.63,64.86 655.02,64.95 656.41,65.04 657.80,65.14 659.19,65.25 660.58,65.35 661.97,65.47 663.36,65.58 664.75,65.71 666.14,65.83 667.53,65.97 668.92,66.10 670.31,66.25 671.70,66.40 673.09,66.55 674.48,66.71 675.87,66.87 677.26,67.04 678.65,67.21 680.04,67.39 681.43,67.57 682.82,67.76 684.21,67.95 685.60,68.15 686.99,68.35 688.38,68.56 689.77,68.77 691.16,68.99 692.55,69.21 693.94,69.43 695.33,69.67 696.72,69.90 698.11,70.14 699.50,70.39 700.89,70.64 702.28,70.90 703.67,71.16 705.06,71.43 706.45,71.70 707.84,71.97 709.23,72.25 710.62,72.54 712.01,72.83 713.40,73.12 714.79,73.42 716.18,73.73 717.57,74.04 718.96,74.35 720.35,74.67 721.74,75.00 723.13,75.33 724.52,75.66 725.91,76.00 727.30,76.34 728.69,76.69 730.08,77.04 731.47,77.40 732.86,77.76 734.25,78.13 735.64,78.50 737.03,78.88 738.42,79.26 739.81,79.64 741.20,80.03 742.59,80.43 743.98,80.83 745.37,81.23 746.76,81.64 748.15,82.06 749.54,82.47 750.93,82.90 752.32,83.33 753.71,83.76 755.10,84.19 756.49,84.64 757.88,85.08 759.27,85.53 760.66,85.99 762.05,86.45 763.44,86.91 764.83,87.38 766.22,87.85 767.61,88.33 769.00,88.81 770.39,89.30 771.78,89.79 773.17,90.29 774.56,90.79 775.95,91.29 777.34,91.80 778.73,92.32 780.12,92.83 781.51,93.36 782.90,93.88 784.29,94.42 785.68,94.95 787.07,95.49 788.46,96.04 789.85,96.58 791.24,97.14 792.63,97.69 794.02,98.26 795.41,98.82 796.80,99.39 798.19,99.97 799.58,100.55 800.97,101.13 802.36,101.72 803.75,102.31 805.14,102.90 806.53,103.50 807.92,104.11 809.31,104.71 810.70,105.33 812.09,105.94 813.48,106.56 814.87,107.19 816.26,107.82 817.65,108.45 819.04,109.09 820.43,109.73 821.82,110.37 823.21,111.02 824.60,111.67 825.99,112.33 827.38,112.99 828.77,113.66 830.16,114.33 831.55,115.00 832.94,115.68 834.33,116.36 835.72,117.04 837.11,117.73 838.50,118.42 839.89,119.12 841.28,119.82 842.67,120.52 844.06,121.23 845.45,121.94 846.84,122.66 848.23,123.38 849.62,124.10 851.01,124.83 852.40,125.56 853.79,126.29 855.18,127.03 856.57,127.77 857.96,128.52 859.35,129.27 860.74,130.02 862.13,130.78 863.52,131.53 864.91,132.30 866.30,133.06 867.69,133.84 869.08,134.61 870.47,135.39 871.86,136.17 873.25,136.95 874.64,137.74 876.03,138.53 877.42,139.33 878.81,140.12 880.20,140.93 881.59,141.73 882.98,142.54 884.37,143.35 885.76,144.17 887.15,144.98 888.54,145.81 889.93,146.63 891.32,147.46 892.71,148.29 894.10,149.13 895.49,149.96 896.88,150.80 898.27,151.65 899.66,152.50 901.05,153.35 902.44,154.20 903.83,155.06 905.22,155.92 906.61,156.78 908.00,157.65 909.39,158.52 910.78,159.39 912.17,160.26 913.56,161.14 914.95,162.02 916.34,162.91 917.73,163.79 919.12,164.68 920.51,165.57 921.90,166.47 923.29,167.37 924.68,168.27 926.07,169.17 927.46,170.08 928.85,170.99 930.24,171.90 931.63,172.82 933.02,173.74 934.41,174.66 935.80,175.58 937.19,176.50 938.58,177.43 939.97,178.36 941.36,179.30 942.75,180.23 944.14,181.17 945.53,182.11 946.92,183.06 948.31,184.00 949.70,184.95 951.09,185.90 952.48,186.86 953.87,187.81 955.26,188.77 956.65,189.73 958.04,190.70 959.43,191.66 960.82,192.63 962.21,193.60 963.60,194.57 964.99,195.55 966.38,196.53 967.77,197.51 969.16,198.49 970.55,199.47 971.94,200.46 973.33,201.45 974.72,202.44 976.11,203.43 977.50,204.42 978.89,205.42 980.28,206.42 981.67,207.42 983.06,208.42 984.45,209.42 985.84,210.43 987.23,211.44 988.62,212.45 990.01,213.46 991.40,214.48 992.79,215.49 994.18,216.51 995.57,217.53 996.96,218.55 998.35,219.57 999.74,220.60 1001.13,221.62 1002.52,222.65 1003.91,223.68 1005.30,224.71 1006.69,225.75 1008.08,226.78 1009.47,227.82 1010.86,228.86 1012.25,229.90 1013.64,230.94 1015.03,231.98 1016.42,233.03 1017.81,234.07 1019.20,235.12 1020.59,236.17 1021.98,237.22 1023.37,238.27 1024.76,239.32 1026.15,240.38 1027.54,241.43 1028.93,242.49 1030.32,243.55 1031.71,244.61 1033.10,245.67 1034.49,246.73 1035.88,247.79 1037.27,248.85 1038.66,249.92 1040.05,250.99 1041.44,252.05 1042.83,253.12 1044.22,254.19 1045.61,255.26 1047.00,256.34 1048.39,257.41 1049.78,258.48 1051.17,259.56 1052.56,260.63 1053.95,261.71 1055.34,262.79 1056.73,263.86 1058.12,264.94 1059.51,266.02 1060.90,267.11 1062.29,268.19 1063.68,269.27 1065.07,270.35 1066.46,271.44 1067.85,272.52 1069.24,273.61 1070.63,274.69 1072.02,275.78 1073.41,276.87 1074.80,277.95 1076.19,279.04 1077.58,280.13 1078.97,281.22 1080.36,282.31 1081.75,283.40 1083.14,284.49 1084.53,285.58 1085.92,286.68 1087.31,287.77 1088.70,288.86 1090.09,289.95 1091.48,291.05 1092.87,292.14 1094.26,293.24 1095.65,294.33 1097.04,295.42 1098.43,296.52 1099.82,297.61 1101.21,298.71 1102.60,299.80 1103.99,300.90 1105.38,302.00 1106.77,303.09 1108.16,304.19 1109.55,305.28 1110.94,306.38 1112.33,307.47 1113.72,308.57 1115.11,309.67 1116.50,310.76 1117.89,311.86 1119.28,312.95 1120.67,314.05 1122.06,315.15 1123.45,316.24 1124.84,317.34 1126.23,318.43 1127.62,319.53 1129.01,320.62 1130.40,321.71 1131.79,322.81 1133.18,323.90 1134.57,324.99 1135.96,326.09 1137.35,327.18 1138.74,328.27 1140.13,329.36 1141.52,330.46 1142.91,331.55 1144.30,332.64 1145.69,333.73 1147.08,334.82 1148.47,335.91 1149.86,336.99 1151.25,338.08 1152.64,339.17 1154.03,340.26 1155.42,341.34 1156.81,342.43 1158.20,343.51 1159.59,344.60 1160.98,345.68 1162.37,346.76 1163.76,347.85 1165.15,348.93 1166.54,350.01 1167.93,351.09 1169.32,352.16 1170.71,353.24 1172.10,354.32 1173.49,355.40 1174.88,356.47 1176.27,357.55 1177.66,358.62 1179.05,359.69 1180.44,360.76 1181.83,361.83 1183.22,362.90 1184.61,363.97 1186.00,365.04" fill="none" stroke="#4D4D4D" stroke-width="3.2" stroke-opacity="0.55"/>
<polyline points="74.00,109.17 75.39,109.17 76.78,109.17 78.17,109.17 79.56,109.17 80.95,109.17 82.34,109.17 83.73,109.17 85.12,109.17 86.51,109.17 87.90,109.17 89.29,109.17 90.68,109.17 92.07,109.17 93.46,109.17 94.85,109.17 96.24,109.17 97.63,109.17 99.02,109.17 100.41,109.17 101.80,109.17 103.19,109.17 104.58,109.17 105.97,109.17 107.36,109.17 108.75,109.17 110.14,109.17 111.53,109.17 112.92,109.17 114.31,109.17 115.70,109.17 117.09,109.17 118.48,109.17 119.87,109.17 121.26,109.17 122.65,109.17 124.04,109.17 125.43,109.17 126.82,109.17 128.21,109.17 129.60,109.17 130.99,109.17 132.38,109.17 133.77,109.17 135.16,109.17 136.55,109.17 137.94,109.17 139.33,109.17 140.72,109.17 142.11,109.17 143.50,109.17 144.89,109.17 146.28,109.17 147.67,109.17 149.06,109.17 150.45,109.17 151.84,109.17 153.23,109.17 154.62,109.17 156.01,109.17 157.40,109.17 158.79,109.17 160.18,109.17 161.57,109.17 162.96,109.17 164.35,109.17 165.74,109.17 167.13,109.17 168.52,109.17 169.91,109.17 171.30,109.17 172.69,109.17 174.08,109.17 175.47,109.17 176.86,109.17 178.25,109.17 179.64,109.17 181.03,109.17 182.42,109.17 183.81,109.17 185.20,109.17 186.59,109.17 187.98,109.17 189.37,109.17 190.76,109.17 192.15,109.17 193.54,109.17 194.93,109.17 196.32,109.17 197.71,109.17 199.10,109.17 200.49,109.17 201.88,109.17 203.27,109.17 204.66,109.17 206.05,109.17 207.44,109.17 208.83,109.17 210.22,109.17 211.61,109.17 213.00,109.17 214.39,109.17 215.78,109.17 217.17,109.17 218.56,109.17 219.95,109.17 221.34,109.17 222.73,109.17 224.12,109.17 225.51,109.17 226.90,109.17 228.29,109.17 229.68,109.17 231.07,109.17 232.46,109.17 233.85,109.17 235.24,109.17 236.63,109.17 238.02,109.17 239.41,109.17 240.80,109.17 242.19,109.17 243.58,109.17 244.97,109.17 246.36,109.17 247.75,109.17 249.14,109.17 250.53,109.17 251.92,109.17 253.31,109.17 254.70,109.17 256.09,109.17 257.48,109.17 258.87,109.17 260.26,109.17 261.65,109.17 263.04,109.17 264.43,109.17 265.82,109.17 267.21,109.17 268.60,109.17 269.99,109.17 271.38,109.17 272.77,109.17 274.16,109.17 275.55,109.17 276.94,109.17 278.33,109.17 279.72,109.17 281.11,109.17 282.50,109.17 283.89,109.17 285.28,109.17 286.67,109.17 288.06,109.17 289.45,109.17 290.84,109.17 292.23,109.17 293.62,109.17 295.01,109.17 296.40,109.17 297.79,109.17 299.18,109.17 300.57,109.17 301.96,109.17 303.35,109.17 304.74,109.17 306.13,109.17 307.52,109.17 308.91,109.17 310.30,109.17 311.69,109.17 313.08,109.17 314.47,109.17 315.86,109.17 317.25,109.17 318.64,109.17 320.03,109.17 321.42,109.17 322.81,109.17 324.20,109.17 325.59,109.17 326.98,109.17 328.37,109.17 329.76,109.17 331.15,109.17 332.54,109.17 333.93,109.17 335.32,109.17 336.71,109.17 338.10,109.17 339.49,109.17 340.88,109.17 342.27,109.17 343.66,109.17 345.05,109.17 346.44,109.17 347.83,109.17 349.22,109.17 350.61,109.17 352.00,109.17 353.39,109.17 354.78,109.17 356.17,109.17 357.56,109.17 358.95,109.17 360.34,109.17 361.73,109.17 363.12,109.17 364.51,109.17 365.90,109.17 367.29,109.17 368.68,109.17 370.07,109.17 371.46,109.17 372.85,109.17 374.24,109.17 375.63,109.17 377.02,109.17 378.41,109.17 379.80,109.17 381.19,109.17 382.58,109.17 383.97,109.17 385.36,109.17 386.75,109.17 388.14,109.17 389.53,109.17 390.92,109.17 392.31,109.17 393.70,109.17 395.09,109.17 396.48,109.17 397.87,109.17 399.26,109.17 400.65,109.17 402.04,109.17 403.43,109.17 404.82,109.17 406.21,109.17 407.60,109.17 408.99,109.17 410.38,109.17 411.77,109.17 413.16,109.17 414.55,109.17 415.94,109.17 417.33,109.17 418.72,109.17 420.11,109.17 421.50,109.17 422.89,109.17 424.28,109.17 425.67,109.17 427.06,109.17 428.45,109.17 429.84,109.17 431.23,109.17 432.62,109.17 434.01,109.17 435.40,109.17 436.79,109.17 438.18,109.17 439.57,109.17 440.96,109.17 442.35,109.17 443.74,109.17 445.13,109.17 446.52,109.17 447.91,109.17 449.30,109.17 450.69,109.17 452.08,109.17 453.47,109.17 454.86,109.17 456.25,109.17 457.64,109.17 459.03,109.17 460.42,109.17 461.81,109.17 463.20,109.17 464.59,109.17 465.98,109.17 467.37,109.17 468.76,85.07 470.15,85.07 471.54,85.07 472.93,85.07 474.32,85.07 475.71,85.07 477.10,85.07 478.49,85.07 479.88,85.07 481.27,85.07 482.66,85.07 484.05,85.07 485.44,85.07 486.83,85.07 488.22,85.07 489.61,85.07 491.00,85.07 492.39,85.07 493.78,85.07 495.17,85.07 496.56,85.07 497.95,85.07 499.34,85.07 500.73,85.07 502.12,85.07 503.51,85.07 504.90,85.07 506.29,85.07 507.68,85.07 509.07,85.07 510.46,85.07 511.85,85.07 513.24,85.07 514.63,85.07 516.02,85.07 517.41,85.07 518.80,85.07 520.19,85.07 521.58,85.07 522.97,85.07 524.36,85.07 525.75,85.07 527.14,85.07 528.53,85.07 529.92,85.07 531.31,85.07 532.70,85.07 534.09,85.07 535.48,85.07 536.87,85.07 538.26,85.07 539.65,85.07 541.04,85.07 542.43,85.07 543.82,85.07 545.21,85.07 546.60,85.07 547.99,85.07 549.38,69.43 550.77,69.43 552.16,69.43 553.55,69.43 554.94,69.43 556.33,69.43 557.72,69.43 559.11,69.43 560.50,69.43 561.89,69.43 563.28,69.43 564.67,69.43 566.06,69.43 567.45,69.43 568.84,69.43 570.23,69.43 571.62,69.43 573.01,69.43 574.40,69.43 575.79,69.43 577.18,69.43 578.57,69.43 579.96,69.43 581.35,69.43 582.74,69.43 584.13,69.43 585.52,69.43 586.91,69.43 588.30,69.43 589.69,69.43 591.08,69.43 592.47,69.43 593.86,69.43 595.25,69.43 596.64,69.43 598.03,69.43 599.42,69.43 600.81,69.43 602.20,69.43 603.59,69.43 604.98,69.43 606.37,69.43 607.76,69.43 609.15,69.43 610.54,69.43 611.93,69.43 613.32,69.43 614.71,69.43 616.10,69.43 617.49,69.43 618.88,69.43 620.27,69.43 621.66,69.43 623.05,69.43 624.44,69.43 625.83,69.43 627.22,69.43 628.61,69.43 630.00,69.43 631.39,69.43 632.78,69.43 634.17,69.43 635.56,69.43 636.95,69.43 638.34,69.43 639.73,69.43 641.12,69.43 642.51,69.43 643.90,69.43 645.29,69.43 646.68,69.43 648.07,69.43 649.46,69.43 650.85,69.43 652.24,69.43 653.63,69.43 655.02,69.43 656.41,69.43 657.80,69.43 659.19,69.43 660.58,69.43 661.97,69.43 663.36,69.43 664.75,69.43 666.14,69.43 667.53,69.43 668.92,69.43 670.31,69.43 671.70,69.43 673.09,69.43 674.48,69.43 675.87,69.43 677.26,69.43 678.65,69.43 680.04,69.43 681.43,69.43 682.82,69.43 684.21,69.43 685.60,69.43 686.99,69.43 688.38,69.43 689.77,69.43 691.16,69.43 692.55,69.43 693.94,69.43 695.33,69.43 696.72,69.43 698.11,69.43 699.50,69.43 700.89,69.43 702.28,69.43 703.67,69.43 705.06,69.43 706.45,69.43 707.84,69.43 709.23,69.43 710.62,69.43 712.01,85.07 713.40,85.07 714.79,85.07 716.18,85.07 717.57,85.07 718.96,85.07 720.35,85.07 721.74,85.07 723.13,85.07 724.52,85.07 725.91,85.07 727.30,85.07 728.69,85.07 730.08,85.07 731.47,85.07 732.86,85.07 734.25,85.07 735.64,85.07 737.03,85.07 738.42,85.07 739.81,85.07 741.20,85.07 742.59,85.07 743.98,85.07 745.37,85.07 746.76,85.07 748.15,85.07 749.54,85.07 750.93,85.07 752.32,85.07 753.71,85.07 755.10,85.07 756.49,85.07 757.88,85.07 759.27,85.07 760.66,85.07 762.05,85.07 763.44,85.07 764.83,85.07 766.22,85.07 767.61,85.07 769.00,85.07 770.39,85.07 771.78,85.07 773.17,85.07 774.56,85.07 775.95,85.07 777.34,85.07 778.73,85.07 780.12,85.07 781.51,85.07 782.90,85.07 784.29,85.07 785.68,85.07 787.07,85.07 788.46,85.07 789.85,85.07 791.24,85.07 792.63,109.17 794.02,109.17 795.41,109.17 796.80,109.17 798.19,109.17 799.58,109.17 800.97,109.17 802.36,109.17 803.75,109.17 805.14,109.17 806.53,109.17 807.92,109.17 809.31,109.17 810.70,109.17 812.09,109.17 813.48,109.17 814.87,109.17 816.26,109.17 817.65,109.17 819.04,109.17 820.43,109.17 821.82,109.17 823.21,109.17 824.60,109.17 825.99,109.17 827.38,109.17 828.77,109.17 830.16,109.17 831.55,109.17 832.94,109.17 834.33,109.17 835.72,109.17 837.11,109.17 838.50,109.17 839.89,109.17 841.28,109.17 842.67,109.17 844.06,109.17 845.45,109.17 846.84,109.17 848.23,109.17 849.62,109.17 851.01,109.17 852.40,109.17 853.79,109.17 855.18,109.17 856.57,109.17 857.96,109.17 859.35,109.17 860.74,109.17 862.13,109.17 863.52,109.17 864.91,109.17 866.30,109.17 867.69,109.17 869.08,109.17 870.47,109.17 871.86,109.17 873.25,109.17 874.64,109.17 876.03,109.17 877.42,109.17 878.81,109.17 880.20,109.17 881.59,109.17 882.98,109.17 884.37,109.17 885.76,109.17 887.15,109.17 888.54,109.17 889.93,109.17 891.32,109.17 892.71,109.17 894.10,109.17 895.49,109.17 896.88,109.17 898.27,109.17 899.66,109.17 901.05,109.17 902.44,109.17 903.83,109.17 905.22,109.17 906.61,109.17 908.00,109.17 909.39,109.17 910.78,109.17 912.17,109.17 913.56,109.17 914.95,109.17 916.34,109.17 917.73,109.17 919.12,109.17 920.51,109.17 921.90,109.17 923.29,109.17 924.68,109.17 926.07,109.17 927.46,109.17 928.85,109.17 930.24,109.17 931.63,109.17 933.02,109.17 934.41,109.17 935.80,109.17 937.19,109.17 938.58,109.17 939.97,109.17 941.36,109.17 942.75,109.17 944.14,109.17 945.53,109.17 946.92,109.17 948.31,109.17 949.70,109.17 951.09,109.17 952.48,109.17 953.87,109.17 955.26,109.17 956.65,109.17 958.04,109.17 959.43,109.17 960.82,109.17 962.21,109.17 963.60,109.17 964.99,109.17 966.38,109.17 967.77,109.17 969.16,109.17 970.55,109.17 971.94,109.17 973.33,109.17 974.72,109.17 976.11,109.17 977.50,109.17 978.89,109.17 980.28,109.17 981.67,109.17 983.06,109.17 984.45,109.17 985.84,109.17 987.23,109.17 988.62,109.17 990.01,109.17 991.40,109.17 992.79,109.17 994.18,109.17 995.57,109.17 996.96,109.17 998.35,109.17 999.74,109.17 1001.13,109.17 1002.52,109.17 1003.91,109.17 1005.30,109.17 1006.69,109.17 1008.08,109.17 1009.47,109.17 1010.86,109.17 1012.25,109.17 1013.64,109.17 1015.03,109.17 1016.42,109.17 1017.81,109.17 1019.20,109.17 1020.59,109.17 1021.98,109.17 1023.37,109.17 1024.76,109.17 1026.15,109.17 1027.54,109.17 1028.93,109.17 1030.32,109.17 1031.71,109.17 1033.10,109.17 1034.49,109.17 1035.88,109.17 1037.27,109.17 1038.66,109.17 1040.05,109.17 1041.44,109.17 1042.83,109.17 1044.22,109.17 1045.61,109.17 1047.00,109.17 1048.39,109.17 1049.78,109.17 1051.17,109.17 1052.56,109.17 1053.95,109.17 1055.34,109.17 1056.73,109.17 1058.12,109.17 1059.51,109.17 1060.90,109.17 1062.29,109.17 1063.68,109.17 1065.07,109.17 1066.46,109.17 1067.85,109.17 1069.24,109.17 1070.63,109.17 1072.02,109.17 1073.41,109.17 1074.80,109.17 1076.19,109.17 1077.58,109.17 1078.97,109.17 1080.36,109.17 1081.75,109.17 1083.14,109.17 1084.53,109.17 1085.92,109.17 1087.31,109.17 1088.70,109.17 1090.09,109.17 1091.48,109.17 1092.87,109.17 1094.26,109.17 1095.65,109.17 1097.04,109.17 1098.43,109.17 1099.82,109.17 1101.21,109.17 1102.60,109.17 1103.99,109.17 1105.38,109.17 1106.77,109.17 1108.16,109.17 1109.55,109.17 1110.94,109.17 1112.33,109.17 1113.72,109.17 1115.11,109.17 1116.50,109.17 1117.89,109.17 1119.28,109.17 1120.67,109.17 1122.06,109.17 1123.45,109.17 1124.84,109.17 1126.23,109.17 1127.62,109.17 1129.01,109.17 1130.40,109.17 1131.79,109.17 1133.18,109.17 1134.57,109.17 1135.96,109.17 1137.35,109.17 1138.74,109.17 1140.13,109.17 1141.52,109.17 1142.91,109.17 1144.30,109.17 1145.69,109.17 1147.08,109.17 1148.47,109.17 1149.86,109.17 1151.25,109.17 1152.64,109.17 1154.03,109.17 1155.42,109.17 1156.81,109.17 1158.20,109.17 1159.59,109.17 1160.98,109.17 1162.37,109.17 1163.76,109.17 1165.15,109.17 1166.54,109.17 1167.93,109.17 1169.32,109.17 1170.71,109.17 1172.10,109.17 1173.49,109.17 1174.88,109.17 1176.27,109.17 1177.66,109.17 1179.05,109.17 1180.44,109.17 1181.83,109.17 1183.22,109.17 1184.61,109.17 1186.00,109.17" fill="none" stroke="#56B4E9" stroke-width="2.4" stroke-opacity="0.95" stroke-dasharray="5 4"/>
<polyline points="74.00,365.86 75.39,364.78 76.78,363.69 78.17,362.61 79.56,361.52 80.95,360.43 82.34,359.34 83.73,358.25 85.12,357.16 86.51,356.07 87.90,354.98 89.29,353.89 90.68,352.80 92.07,351.71 93.46,350.61 94.85,349.52 96.24,348.42 97.63,347.33 99.02,346.23 100.41,345.14 101.80,344.04 103.19,342.94 104.58,341.85 105.97,340.75 107.36,339.65 108.75,338.55 110.14,337.45 111.53,336.35 112.92,335.25 114.31,334.15 115.70,333.05 117.09,331.95 118.48,330.85 119.87,329.75 121.26,328.65 122.65,327.55 124.04,326.45 125.43,325.35 126.82,324.25 128.21,323.14 129.60,322.04 130.99,320.94 132.38,319.84 133.77,318.73 135.16,317.63 136.55,316.53 137.94,315.43 139.33,314.32 140.72,313.22 142.11,312.12 143.50,311.02 144.89,309.91 146.28,308.81 147.67,307.71 149.06,306.61 150.45,305.51 151.84,304.40 153.23,303.30 154.62,302.20 156.01,301.10 157.40,300.00 158.79,298.90 160.18,297.80 161.57,296.70 162.96,295.60 164.35,294.50 165.74,293.40 167.13,292.30 168.52,291.21 169.91,290.11 171.30,289.01 172.69,287.91 174.08,286.82 175.47,285.72 176.86,284.63 178.25,283.53 179.64,282.44 181.03,281.34 182.42,280.25 183.81,279.16 185.20,278.07 186.59,276.98 187.98,275.89 189.37,274.80 190.76,273.71 192.15,272.62 193.54,271.53 194.93,270.44 196.32,269.36 197.71,268.27 199.10,267.19 200.49,266.11 201.88,265.02 203.27,263.94 204.66,262.86 206.05,261.78 207.44,260.70 208.83,259.62 210.22,258.55 211.61,257.47 213.00,256.40 214.39,255.32 215.78,254.25 217.17,253.18 218.56,252.11 219.95,251.04 221.34,249.97 222.73,248.90 224.12,247.84 225.51,246.77 226.90,245.71 228.29,244.65 229.68,243.59 231.07,242.53 232.46,241.47 233.85,240.41 235.24,239.36 236.63,238.30 238.02,237.25 239.41,236.20 240.80,235.15 242.19,234.10 243.58,233.06 244.97,232.01 246.36,230.97 247.75,229.92 249.14,228.88 250.53,227.84 251.92,226.81 253.31,225.77 254.70,224.74 256.09,223.70 257.48,222.67 258.87,221.64 260.26,220.62 261.65,219.59 263.04,218.57 264.43,217.55 265.82,216.53 267.21,215.51 268.60,214.49 269.99,213.48 271.38,212.46 272.77,211.45 274.16,210.44 275.55,209.44 276.94,208.43 278.33,207.43 279.72,206.43 281.11,205.43 282.50,204.43 283.89,203.44 285.28,202.44 286.67,201.45 288.06,200.47 289.45,199.48 290.84,198.50 292.23,197.51 293.62,196.53 295.01,195.56 296.40,194.58 297.79,193.61 299.18,192.64 300.57,191.67 301.96,190.70 303.35,189.74 304.74,188.78 306.13,187.82 307.52,186.86 308.91,185.91 310.30,184.96 311.69,184.01 313.08,183.06 314.47,182.12 315.86,181.18 317.25,180.24 318.64,179.30 320.03,178.37 321.42,177.44 322.81,176.51 324.20,175.58 325.59,174.66 326.98,173.74 328.37,172.82 329.76,171.90 331.15,170.99 332.54,170.08 333.93,169.18 335.32,168.27 336.71,167.37 338.10,166.47 339.49,165.58 340.88,164.68 342.27,163.79 343.66,162.91 345.05,162.02 346.44,161.14 347.83,160.26 349.22,159.39 350.61,158.52 352.00,157.65 353.39,156.78 354.78,155.92 356.17,155.06 357.56,154.20 358.95,153.35 360.34,152.50 361.73,151.65 363.12,150.80 364.51,149.96 365.90,149.13 367.29,148.29 368.68,147.46 370.07,146.63 371.46,145.81 372.85,144.98 374.24,144.17 375.63,143.35 377.02,142.54 378.41,141.73 379.80,140.93 381.19,140.12 382.58,139.33 383.97,138.53 385.36,137.74 386.75,136.95 388.14,136.17 389.53,135.39 390.92,134.61 392.31,133.84 393.70,133.06 395.09,132.30 396.48,131.53 397.87,130.78 399.26,130.02 400.65,129.27 402.04,128.52 403.43,127.77 404.82,127.03 406.21,126.29 407.60,125.56 408.99,124.83 410.38,124.10 411.77,123.38 413.16,122.66 414.55,121.94 415.94,121.23 417.33,120.52 418.72,119.82 420.11,119.12 421.50,118.42 422.89,117.73 424.28,117.04 425.67,116.36 427.06,115.68 428.45,115.00 429.84,114.33 431.23,113.66 432.62,112.99 434.01,112.33 435.40,111.67 436.79,111.02 438.18,110.37 439.57,109.73 440.96,109.09 442.35,108.45 443.74,107.82 445.13,107.19 446.52,106.56 447.91,105.94 449.30,105.33 450.69,104.71 452.08,104.11 453.47,103.50 454.86,102.90 456.25,102.31 457.64,101.72 459.03,101.13 460.42,100.55 461.81,99.97 463.20,99.39 464.59,98.82 465.98,98.26 467.37,97.69 468.76,97.14 470.15,96.58 471.54,96.04 472.93,95.49 474.32,94.95 475.71,94.42 477.10,93.88 478.49,93.36 479.88,92.83 481.27,92.32 482.66,91.80 484.05,91.29 485.44,90.79 486.83,90.29 488.22,89.79 489.61,89.30 491.00,88.81 492.39,88.33 493.78,87.85 495.17,87.38 496.56,86.91 497.95,86.45 499.34,85.99 500.73,85.53 502.12,85.08 503.51,84.64 504.90,84.19 506.29,83.76 507.68,83.33 509.07,82.90 510.46,82.47 511.85,82.06 513.24,81.64 514.63,81.23 516.02,80.83 517.41,80.43 518.80,80.03 520.19,79.64 521.58,79.26 522.97,78.88 524.36,78.50 525.75,78.13 527.14,77.76 528.53,77.40 529.92,77.04 531.31,76.69 532.70,76.34 534.09,76.00 535.48,75.66 536.87,75.33 538.26,75.00 539.65,74.67 541.04,74.35 542.43,74.04 543.82,73.73 545.21,73.42 546.60,73.12 547.99,72.83 549.38,72.54 550.77,72.25 552.16,71.97 553.55,71.70 554.94,71.43 556.33,71.16 557.72,70.90 559.11,70.64 560.50,70.39 561.89,70.14 563.28,69.90 564.67,69.67 566.06,69.43 567.45,69.21 568.84,68.99 570.23,68.77 571.62,68.56 573.01,68.35 574.40,68.15 575.79,67.95 577.18,67.76 578.57,67.57 579.96,67.39 581.35,67.21 582.74,67.04 584.13,66.87 585.52,66.71 586.91,66.55 588.30,66.40 589.69,66.25 591.08,66.10 592.47,65.97 593.86,65.83 595.25,65.71 596.64,65.58 598.03,65.47 599.42,65.35 600.81,65.25 602.20,65.14 603.59,65.04 604.98,64.95 606.37,64.86 607.76,64.78 609.15,64.70 610.54,64.63 611.93,64.56 613.32,64.50 614.71,64.44 616.10,64.39 617.49,64.34 618.88,64.30 620.27,64.26 621.66,64.23 623.05,64.20 624.44,64.18 625.83,64.16 627.22,64.15 628.61,64.14 630.00,64.14 631.39,64.14 632.78,64.15 634.17,64.16 635.56,64.18 636.95,64.20 638.34,64.23 639.73,64.26 641.12,64.30 642.51,64.34 643.90,64.39 645.29,64.44 646.68,64.50 648.07,64.56 649.46,64.63 650.85,64.70 652.24,64.78 653.63,64.86 655.02,64.95 656.41,65.04 657.80,65.14 659.19,65.25 660.58,65.35 661.97,65.47 663.36,65.58 664.75,65.71 666.14,65.83 667.53,65.97 668.92,66.10 670.31,66.25 671.70,66.40 673.09,66.55 674.48,66.71 675.87,66.87 677.26,67.04 678.65,67.21 680.04,67.39 681.43,67.57 682.82,67.76 684.21,67.95 685.60,68.15 686.99,68.35 688.38,68.56 689.77,68.77 691.16,68.99 692.55,69.21 693.94,69.43 695.33,69.67 696.72,69.90 698.11,70.14 699.50,70.39 700.89,70.64 702.28,70.90 703.67,71.16 705.06,71.43 706.45,71.70 707.84,71.97 709.23,72.25 710.62,72.54 712.01,72.83 713.40,73.12 714.79,73.42 716.18,73.73 717.57,74.04 718.96,74.35 720.35,74.67 721.74,75.00 723.13,75.33 724.52,75.66 725.91,76.00 727.30,76.34 728.69,76.69 730.08,77.04 731.47,77.40 732.86,77.76 734.25,78.13 735.64,78.50 737.03,78.88 738.42,79.26 739.81,79.64 741.20,80.03 742.59,80.43 743.98,80.83 745.37,81.23 746.76,81.64 748.15,82.06 749.54,82.47 750.93,82.90 752.32,83.33 753.71,83.76 755.10,84.19 756.49,84.64 757.88,85.08 759.27,85.53 760.66,85.99 762.05,86.45 763.44,86.91 764.83,87.38 766.22,87.85 767.61,88.33 769.00,88.81 770.39,89.30 771.78,89.79 773.17,90.29 774.56,90.79 775.95,91.29 777.34,91.80 778.73,92.32 780.12,92.83 781.51,93.36 782.90,93.88 784.29,94.42 785.68,94.95 787.07,95.49 788.46,96.04 789.85,96.58 791.24,97.14 792.63,97.69 794.02,98.26 795.41,98.82 796.80,99.39 798.19,99.97 799.58,100.55 800.97,101.13 802.36,101.72 803.75,102.31 805.14,102.90 806.53,103.50 807.92,104.11 809.31,104.71 810.70,105.33 812.09,105.94 813.48,106.56 814.87,107.19 816.26,107.82 817.65,108.45 819.04,109.09 820.43,109.73 821.82,110.37 823.21,111.02 824.60,111.67 825.99,112.33 827.38,112.99 828.77,113.66 830.16,114.33 831.55,115.00 832.94,115.68 834.33,116.36 835.72,117.04 837.11,117.73 838.50,118.42 839.89,119.12 841.28,119.82 842.67,120.52 844.06,121.23 845.45,121.94 846.84,122.66 848.23,123.38 849.62,124.10 851.01,124.83 852.40,125.56 853.79,126.29 855.18,127.03 856.57,127.77 857.96,128.52 859.35,129.27 860.74,130.02 862.13,130.78 863.52,131.53 864.91,132.30 866.30,133.06 867.69,133.84 869.08,134.61 870.47,135.39 871.86,136.17 873.25,136.95 874.64,137.74 876.03,138.53 877.42,139.33 878.81,140.12 880.20,140.93 881.59,141.73 882.98,142.54 884.37,143.35 885.76,144.17 887.15,144.98 888.54,145.81 889.93,146.63 891.32,147.46 892.71,148.29 894.10,149.13 895.49,149.96 896.88,150.80 898.27,151.65 899.66,152.50 901.05,153.35 902.44,154.20 903.83,155.06 905.22,155.92 906.61,156.78 908.00,157.65 909.39,158.52 910.78,159.39 912.17,160.26 913.56,161.14 914.95,162.02 916.34,162.91 917.73,163.79 919.12,164.68 920.51,165.58 921.90,166.47 923.29,167.37 924.68,168.27 926.07,169.18 927.46,170.08 928.85,170.99 930.24,171.90 931.63,172.82 933.02,173.74 934.41,174.66 935.80,175.58 937.19,176.51 938.58,177.44 939.97,178.37 941.36,179.30 942.75,180.24 944.14,181.18 945.53,182.12 946.92,183.06 948.31,184.01 949.70,184.96 951.09,185.91 952.48,186.86 953.87,187.82 955.26,188.78 956.65,189.74 958.04,190.70 959.43,191.67 960.82,192.64 962.21,193.61 963.60,194.58 964.99,195.56 966.38,196.53 967.77,197.51 969.16,198.50 970.55,199.48 971.94,200.47 973.33,201.45 974.72,202.44 976.11,203.44 977.50,204.43 978.89,205.43 980.28,206.43 981.67,207.43 983.06,208.43 984.45,209.44 985.84,210.44 987.23,211.45 988.62,212.46 990.01,213.48 991.40,214.49 992.79,215.51 994.18,216.53 995.57,217.55 996.96,218.57 998.35,219.59 999.74,220.62 1001.13,221.64 1002.52,222.67 1003.91,223.70 1005.30,224.74 1006.69,225.77 1008.08,226.81 1009.47,227.84 1010.86,228.88 1012.25,229.92 1013.64,230.97 1015.03,232.01 1016.42,233.06 1017.81,234.10 1019.20,235.15 1020.59,236.20 1021.98,237.25 1023.37,238.30 1024.76,239.36 1026.15,240.41 1027.54,241.47 1028.93,242.53 1030.32,243.59 1031.71,244.65 1033.10,245.71 1034.49,246.77 1035.88,247.84 1037.27,248.90 1038.66,249.97 1040.05,251.04 1041.44,252.11 1042.83,253.18 1044.22,254.25 1045.61,255.32 1047.00,256.40 1048.39,257.47 1049.78,258.55 1051.17,259.62 1052.56,260.70 1053.95,261.78 1055.34,262.86 1056.73,263.94 1058.12,265.02 1059.51,266.11 1060.90,267.19 1062.29,268.27 1063.68,269.36 1065.07,270.44 1066.46,271.53 1067.85,272.62 1069.24,273.71 1070.63,274.80 1072.02,275.89 1073.41,276.98 1074.80,278.07 1076.19,279.16 1077.58,280.25 1078.97,281.34 1080.36,282.44 1081.75,283.53 1083.14,284.63 1084.53,285.72 1085.92,286.82 1087.31,287.91 1088.70,289.01 1090.09,290.11 1091.48,291.21 1092.87,292.30 1094.26,293.40 1095.65,294.50 1097.04,295.60 1098.43,296.70 1099.82,297.80 1101.21,298.90 1102.60,300.00 1103.99,301.10 1105.38,302.20 1106.77,303.30 1108.16,304.40 1109.55,305.51 1110.94,306.61 1112.33,307.71 1113.72,308.81 1115.11,309.91 1116.50,311.02 1117.89,312.12 1119.28,313.22 1120.67,314.32 1122.06,315.43 1123.45,316.53 1124.84,317.63 1126.23,318.73 1127.62,319.84 1129.01,320.94 1130.40,322.04 1131.79,323.14 1133.18,324.25 1134.57,325.35 1135.96,326.45 1137.35,327.55 1138.74,328.65 1140.13,329.75 1141.52,330.85 1142.91,331.95 1144.30,333.05 1145.69,334.15 1147.08,335.25 1148.47,336.35 1149.86,337.45 1151.25,338.55 1152.64,339.65 1154.03,340.75 1155.42,341.85 1156.81,342.94 1158.20,344.04 1159.59,345.14 1160.98,346.23 1162.37,347.33 1163.76,348.42 1165.15,349.52 1166.54,350.61 1167.93,351.71 1169.32,352.80 1170.71,353.89 1172.10,354.98 1173.49,356.07 1174.88,357.16 1176.27,358.25 1177.66,359.34 1179.05,360.43 1180.44,361.52 1181.83,362.61 1183.22,363.69 1184.61,364.78 1186.00,365.86" fill="none" stroke="#009E73" stroke-width="2.8" stroke-opacity="1.0" stroke-dasharray="12 5"/>
<line x1="86" y1="50" x2="108" y2="50" stroke="#4D4D4D" stroke-width="3.2" stroke-opacity="0.55"/>
<text x="114" y="54" font-family="Arial, Noto Sans CJK SC, Microsoft YaHei, sans-serif" font-size="12">Reference equivalent stiffness sin(theta)/theta</text>
<line x1="86" y1="68" x2="108" y2="68" stroke="#56B4E9" stroke-width="2.4" stroke-opacity="0.95" stroke-dasharray="5 4"/>
<text x="114" y="72" font-family="Arial, Noto Sans CJK SC, Microsoft YaHei, sans-serif" font-size="12">Piecewise gain-scheduled stiffness model</text>
<line x1="86" y1="86" x2="108" y2="86" stroke="#009E73" stroke-width="2.8" stroke-opacity="1.0" stroke-dasharray="12 5"/>
<text x="114" y="90" font-family="Arial, Noto Sans CJK SC, Microsoft YaHei, sans-serif" font-size="12">Slot-constrained coefficient SINDy model</text>
</svg>