<svg xmlns="http://www.w3.org/2000/svg" width="1200" height="430" viewBox="0 0 1200 430">
<rect width="100%" height="100%" fill="white"/>
<text x="600" y="24" text-anchor="middle" font-family="Arial" font-size="18">E1c noisy-state robustness</text>
<line x1="70" y1="372" x2="1170" y2="372" stroke="#333" stroke-width="1"/>
<line x1="70" y1="38" x2="70" y2="372" stroke="#333" stroke-width="1"/>
<text x="620" y="416" text-anchor="middle" font-family="Arial" font-size="13">relative state-noise level</text>
<text transform="translate(18,205) rotate(-90)" text-anchor="middle" font-family="Arial" font-size="13">metric value</text>
<line x1="70.00" y1="372" x2="70.00" y2="377" stroke="#333"/>
<text x="70.00" y="392" text-anchor="middle" font-family="Arial" font-size="11">0.0</text>
<line x1="290.00" y1="372" x2="290.00" y2="377" stroke="#333"/>
<text x="290.00" y="392" text-anchor="middle" font-family="Arial" font-size="11">0.0</text>
<line x1="510.00" y1="372" x2="510.00" y2="377" stroke="#333"/>
<text x="510.00" y="392" text-anchor="middle" font-family="Arial" font-size="11">0.0</text>
<line x1="730.00" y1="372" x2="730.00" y2="377" stroke="#333"/>
<text x="730.00" y="392" text-anchor="middle" font-family="Arial" font-size="11">0.0</text>
<line x1="950.00" y1="372" x2="950.00" y2="377" stroke="#333"/>
<text x="950.00" y="392" text-anchor="middle" font-family="Arial" font-size="11">0.0</text>
<line x1="1170.00" y1="372" x2="1170.00" y2="377" stroke="#333"/>
<text x="1170.00" y="392" text-anchor="middle" font-family="Arial" font-size="11">0.1</text>
<line x1="65" y1="372.00" x2="70" y2="372.00" stroke="#333"/>
<text x="62" y="376.00" text-anchor="end" font-family="Arial" font-size="11">-0.08</text>
<line x1="65" y1="288.50" x2="70" y2="288.50" stroke="#333"/>
<text x="62" y="292.50" text-anchor="end" font-family="Arial" font-size="11">0.21</text>
<line x1="65" y1="205.00" x2="70" y2="205.00" stroke="#333"/>
<text x="62" y="209.00" text-anchor="end" font-family="Arial" font-size="11">0.50</text>
<line x1="65" y1="121.50" x2="70" y2="121.50" stroke="#333"/>
<text x="62" y="125.50" text-anchor="end" font-family="Arial" font-size="11">0.79</text>
<line x1="65" y1="38.00" x2="70" y2="38.00" stroke="#333"/>
<text x="62" y="42.00" text-anchor="end" font-family="Arial" font-size="11">1.08</text>
<polyline points="70.00,348.97 180.00,348.56 290.00,347.95 730.00,343.64 1170.00,336.31" fill="none" stroke="#009E73" stroke-width="2.8" stroke-opacity="1.0" stroke-dasharray="12 5"/>
<polyline points="70.00,348.97 180.00,348.05 290.00,346.65 730.00,332.38 1170.00,306.86" fill="none" stroke="#0072B2" stroke-width="2.4" stroke-opacity="0.95" stroke-dasharray="2 4"/>
<polyline points="70.00,61.03 180.00,168.53 290.00,206.92 730.00,249.15 1170.00,252.99" fill="none" stroke="#E69F00" stroke-width="2.4" stroke-opacity="0.95"/>
<polyline points="70.00,61.03 180.00,61.03 290.00,61.03 730.00,61.03 1170.00,61.03" fill="none" stroke="#CC79A7" stroke-width="2.4" stroke-opacity="0.95" stroke-dasharray="10 3 2 3"/>
<line x1="82" y1="48" x2="104" y2="48" stroke="#009E73" stroke-width="2.8" stroke-opacity="1.0" stroke-dasharray="12 5"/>
<text x="110" y="52" font-family="Arial" font-size="12">B3 coefficient-function grid NRMSE</text>
<line x1="82" y1="66" x2="104" y2="66" stroke="#0072B2" stroke-width="2.4" stroke-opacity="0.95" stroke-dasharray="2 4"/>
<text x="110" y="70" font-family="Arial" font-size="12">B3 interpolation rollout NRMSE</text>
<line x1="82" y1="84" x2="104" y2="84" stroke="#E69F00" stroke-width="2.4" stroke-opacity="0.95"/>
<text x="110" y="88" font-family="Arial" font-size="12">B3 support precision</text>
<line x1="82" y1="102" x2="104" y2="102" stroke="#CC79A7" stroke-width="2.4" stroke-opacity="0.95" stroke-dasharray="10 3 2 3"/>
<text x="110" y="106" font-family="Arial" font-size="12">B3 support recall</text>
</svg>