<svg xmlns="http://www.w3.org/2000/svg" width="1120" height="450" viewBox="0 0 1120 450">
  <rect width="1120" height="450" fill="#ffffff"/>
  <text x="82" y="34" font-family="Noto Sans CJK SC, DejaVu Sans, Arial" font-size="20" fill="#111827">BATT-4a 恢复的 R0 函数剖面</text>
  <text x="82.0" y="57" font-family="Noto Sans CJK SC, DejaVu Sans, Arial" font-size="14" fill="#111827">R0 随 SOC 变化</text>
  <text x="610.0" y="57" font-family="Noto Sans CJK SC, DejaVu Sans, Arial" font-size="14" fill="#111827">R0 随 |I| 变化</text>
  <rect x="82.0" y="70.0" width="430.0" height="280.0" fill="#ffffff" stroke="#d1d5db"/>
  <rect x="610.0" y="70.0" width="430.0" height="280.0" fill="#ffffff" stroke="#d1d5db"/>
  <line x1="82.0" y1="350.0" x2="512.0" y2="350.0" stroke="#6b7280"/>
  <line x1="82.0" y1="70.0" x2="82.0" y2="350.0" stroke="#6b7280"/>
  <line x1="610.0" y1="350.0" x2="1040.0" y2="350.0" stroke="#6b7280"/>
  <line x1="610.0" y1="70.0" x2="610.0" y2="350.0" stroke="#6b7280"/>
  <text x="25" y="210.0" transform="rotate(-90 25 210.0)" text-anchor="middle" font-family="Noto Sans CJK SC, DejaVu Sans, Arial" font-size="13" fill="#374151">R0 (欧姆)</text>
  <text x="297.0" y="372" text-anchor="middle" font-family="Noto Sans CJK SC, DejaVu Sans, Arial" font-size="13" fill="#374151">SOC</text>
  <text x="825.0" y="372" text-anchor="middle" font-family="Noto Sans CJK SC, DejaVu Sans, Arial" font-size="13" fill="#374151">|I| (A)</text>
  <polyline points="82.00,82.53 84.70,83.00 87.41,83.46 90.11,83.92 92.82,84.38 95.52,84.84 98.23,85.29 100.93,85.75 103.64,86.20 106.34,86.65 109.04,87.10 111.75,87.55 114.45,88.00 117.16,88.44 119.86,88.89 122.57,89.33 125.27,89.78 127.97,90.22 130.68,90.65 133.38,91.09 136.09,91.53 138.79,91.96 141.50,92.40 144.20,92.83 146.91,93.26 149.61,93.69 152.31,94.12 155.02,94.55 157.72,94.97 160.43,95.39 163.13,95.82 165.84,96.24 168.54,96.66 171.25,97.08 173.95,97.49 176.65,97.91 179.36,98.32 182.06,98.73 184.77,99.15 187.47,99.56 190.18,99.96 192.88,100.37 195.58,100.78 198.29,101.18 200.99,101.58 203.70,101.99 206.40,102.39 209.11,102.78 211.81,103.18 214.52,103.58 217.22,103.97 219.92,104.37 222.63,104.76 225.33,105.15 228.04,105.54 230.74,105.92 233.45,106.31 236.15,106.69 238.86,107.08 241.56,107.46 244.26,107.84 246.97,108.22 249.67,108.60 252.38,108.97 255.08,109.35 257.79,109.72 260.49,110.09 263.19,110.46 265.90,110.83 268.60,111.20 271.31,111.57 274.01,111.93 276.72,112.30 279.42,112.66 282.13,113.02 284.83,113.38 287.53,113.74 290.24,114.09 292.94,114.45 295.65,114.80 298.35,115.16 301.06,115.51 303.76,115.86 306.47,116.20 309.17,116.55 311.87,116.90 314.58,117.24 317.28,117.58 319.99,117.93 322.69,118.27 325.40,118.60 328.10,118.94 330.81,119.28 333.51,119.61 336.21,119.94 338.92,120.28 341.62,120.61 344.33,120.93 347.03,121.26 349.74,121.59 352.44,121.91 355.14,122.23 357.85,122.56 360.55,122.88 363.26,123.20 365.96,123.51 368.67,123.83 371.37,124.14 374.08,124.46 376.78,124.77 379.48,125.08 382.19,125.39 384.89,125.70 387.60,126.00 390.30,126.31 393.01,126.61 395.71,126.91 398.42,127.21 401.12,127.51 403.82,127.81 406.53,128.11 409.23,128.40 411.94,128.70 414.64,128.99 417.35,129.28 420.05,129.57 422.75,129.86 425.46,130.14 428.16,130.43 430.87,130.71 433.57,131.00 436.28,131.28 438.98,131.56 441.69,131.84 444.39,132.11 447.09,132.39 449.80,132.66 452.50,132.93 455.21,133.21 457.91,133.48 460.62,133.74 463.32,134.01 466.03,134.28 468.73,134.54 471.43,134.80 474.14,135.07 476.84,135.33 479.55,135.58 482.25,135.84 484.96,136.10 487.66,136.35 490.36,136.61 493.07,136.86 495.77,137.11 498.48,137.36 501.18,137.60 503.89,137.85 506.59,138.09 509.30,138.34 512.00,138.58" fill="none" stroke="#2563eb" stroke-width="2"/><polyline points="82.00,300.45 84.70,300.85 87.41,301.23 90.11,301.62 92.82,302.01 95.52,302.39 98.23,302.78 100.93,303.16 103.64,303.54 106.34,303.92 109.04,304.30 111.75,304.67 114.45,305.05 117.16,305.42 119.86,305.80 122.57,306.17 125.27,306.54 127.97,306.91 130.68,307.27 133.38,307.64 136.09,308.00 138.79,308.36 141.50,308.73 144.20,309.09 146.91,309.44 149.61,309.80 152.31,310.16 155.02,310.51 157.72,310.86 160.43,311.22 163.13,311.57 165.84,311.91 168.54,312.26 171.25,312.61 173.95,312.95 176.65,313.30 179.36,313.64 182.06,313.98 184.77,314.32 187.47,314.65 190.18,314.99 192.88,315.32 195.58,315.66 198.29,315.99 200.99,316.32 203.70,316.65 206.40,316.98 209.11,317.30 211.81,317.63 214.52,317.95 217.22,318.27 219.92,318.59 222.63,318.91 225.33,319.23 228.04,319.55 230.74,319.86 233.45,320.18 236.15,320.49 238.86,320.80 241.56,321.11 244.26,321.42 246.97,321.72 249.67,322.03 252.38,322.33 255.08,322.64 257.79,322.94 260.49,323.24 263.19,323.54 265.90,323.83 268.60,324.13 271.31,324.42 274.01,324.71 276.72,325.01 279.42,325.30 282.13,325.58 284.83,325.87 287.53,326.16 290.24,326.44 292.94,326.72 295.65,327.01 298.35,327.29 301.06,327.56 303.76,327.84 306.47,328.12 309.17,328.39 311.87,328.67 314.58,328.94 317.28,329.21 319.99,329.48 322.69,329.74 325.40,330.01 328.10,330.27 330.81,330.54 333.51,330.80 336.21,331.06 338.92,331.32 341.62,331.58 344.33,331.83 347.03,332.09 349.74,332.34 352.44,332.59 355.14,332.84 357.85,333.09 360.55,333.34 363.26,333.59 365.96,333.83 368.67,334.08 371.37,334.32 374.08,334.56 376.78,334.80 379.48,335.04 382.19,335.28 384.89,335.51 387.60,335.74 390.30,335.98 393.01,336.21 395.71,336.44 398.42,336.67 401.12,336.89 403.82,337.12 406.53,337.34 409.23,337.57 411.94,337.79 414.64,338.01 417.35,338.23 420.05,338.44 422.75,338.66 425.46,338.87 428.16,339.09 430.87,339.30 433.57,339.51 436.28,339.72 438.98,339.92 441.69,340.13 444.39,340.33 447.09,340.54 449.80,340.74 452.50,340.94 455.21,341.14 457.91,341.34 460.62,341.53 463.32,341.73 466.03,341.92 468.73,342.11 471.43,342.30 474.14,342.49 476.84,342.68 479.55,342.87 482.25,343.05 484.96,343.23 487.66,343.42 490.36,343.60 493.07,343.78 495.77,343.95 498.48,344.13 501.18,344.31 503.89,344.48 506.59,344.65 509.30,344.82 512.00,344.99" fill="none" stroke="#dc2626" stroke-width="2"/><polyline points="82.00,290.63 84.70,290.99 87.41,291.35 90.11,291.71 92.82,292.07 95.52,292.42 98.23,292.78 100.93,293.13 103.64,293.48 106.34,293.83 109.04,294.18 111.75,294.53 114.45,294.88 117.16,295.22 119.86,295.56 122.57,295.91 125.27,296.25 127.97,296.59 130.68,296.92 133.38,297.26 136.09,297.60 138.79,297.93 141.50,298.26 144.20,298.59 146.91,298.92 149.61,299.25 152.31,299.58 155.02,299.90 157.72,300.23 160.43,300.55 163.13,300.87 165.84,301.19 168.54,301.51 171.25,301.82 173.95,302.14 176.65,302.45 179.36,302.77 182.06,303.08 184.77,303.39 187.47,303.70 190.18,304.00 192.88,304.31 195.58,304.61 198.29,304.92 200.99,305.22 203.70,305.52 206.40,305.82 209.11,306.12 211.81,306.41 214.52,306.71 217.22,307.00 219.92,307.29 222.63,307.58 225.33,307.87 228.04,308.16 230.74,308.44 233.45,308.73 236.15,309.01 238.86,309.29 241.56,309.57 244.26,309.85 246.97,310.13 249.67,310.41 252.38,310.68 255.08,310.96 257.79,311.23 260.49,311.50 263.19,311.77 265.90,312.04 268.60,312.30 271.31,312.57 274.01,312.83 276.72,313.09 279.42,313.35 282.13,313.61 284.83,313.87 287.53,314.13 290.24,314.38 292.94,314.64 295.65,314.89 298.35,315.14 301.06,315.39 303.76,315.64 306.47,315.89 309.17,316.13 311.87,316.38 314.58,316.62 317.28,316.86 319.99,317.10 322.69,317.34 325.40,317.58 328.10,317.81 330.81,318.05 333.51,318.28 336.21,318.51 338.92,318.74 341.62,318.97 344.33,319.20 347.03,319.42 349.74,319.65 352.44,319.87 355.14,320.09 357.85,320.31 360.55,320.53 363.26,320.75 365.96,320.97 368.67,321.18 371.37,321.39 374.08,321.61 376.78,321.82 379.48,322.03 382.19,322.23 384.89,322.44 387.60,322.65 390.30,322.85 393.01,323.05 395.71,323.25 398.42,323.45 401.12,323.65 403.82,323.85 406.53,324.04 409.23,324.24 411.94,324.43 414.64,324.62 417.35,324.81 420.05,325.00 422.75,325.18 425.46,325.37 428.16,325.55 430.87,325.74 433.57,325.92 436.28,326.10 438.98,326.27 441.69,326.45 444.39,326.63 447.09,326.80 449.80,326.97 452.50,327.15 455.21,327.32 457.91,327.48 460.62,327.65 463.32,327.82 466.03,327.98 468.73,328.14 471.43,328.31 474.14,328.47 476.84,328.62 479.55,328.78 482.25,328.94 484.96,329.09 487.66,329.25 490.36,329.40 493.07,329.55 495.77,329.70 498.48,329.84 501.18,329.99 503.89,330.14 506.59,330.28 509.30,330.42 512.00,330.56" fill="none" stroke="#059669" stroke-width="2"/><polyline points="610.00,323.52 612.70,323.94 615.41,324.33 618.11,324.69 620.82,325.03 623.52,325.35 626.23,325.63 628.93,325.90 631.64,326.14 634.34,326.35 637.04,326.54 639.75,326.70 642.45,326.84 645.16,326.96 647.86,327.05 650.57,327.11 653.27,327.15 655.97,327.16 658.68,327.15 661.38,327.11 664.09,327.05 666.79,326.97 669.50,326.86 672.20,326.72 674.91,326.56 677.61,326.37 680.31,326.16 683.02,325.92 685.72,325.66 688.43,325.38 691.13,325.06 693.84,324.73 696.54,324.37 699.25,323.98 701.95,323.57 704.65,323.13 707.36,322.67 710.06,322.18 712.77,321.67 715.47,321.13 718.18,320.57 720.88,319.98 723.58,319.37 726.29,318.74 728.99,318.07 731.70,317.39 734.40,316.67 737.11,315.94 739.81,315.18 742.52,314.39 745.22,313.58 747.92,312.74 750.63,311.88 753.33,310.99 756.04,310.08 758.74,309.14 761.45,308.18 764.15,307.19 766.86,306.18 769.56,305.14 772.26,304.08 774.97,302.99 777.67,301.88 780.38,300.74 783.08,299.58 785.79,298.39 788.49,297.18 791.19,295.94 793.90,294.68 796.60,293.39 799.31,292.08 802.01,290.74 804.72,289.38 807.42,287.99 810.13,286.58 812.83,285.14 815.53,283.67 818.24,282.19 820.94,280.67 823.65,279.14 826.35,277.57 829.06,275.98 831.76,274.37 834.47,272.73 837.17,271.07 839.87,269.38 842.58,267.67 845.28,265.93 847.99,264.17 850.69,262.38 853.40,260.57 856.10,258.73 858.81,256.86 861.51,254.98 864.21,253.06 866.92,251.12 869.62,249.16 872.33,247.17 875.03,245.16 877.74,243.12 880.44,241.06 883.14,238.97 885.85,236.85 888.55,234.72 891.26,232.55 893.96,230.36 896.67,228.15 899.37,225.91 902.08,223.65 904.78,221.36 907.48,219.04 910.19,216.71 912.89,214.34 915.60,211.95 918.30,209.54 921.01,207.10 923.71,204.64 926.42,202.15 929.12,199.63 931.82,197.09 934.53,194.53 937.23,191.94 939.94,189.33 942.64,186.69 945.35,184.02 948.05,181.33 950.75,178.62 953.46,175.88 956.16,173.12 958.87,170.33 961.57,167.51 964.28,164.67 966.98,161.81 969.69,158.92 972.39,156.00 975.09,153.06 977.80,150.10 980.50,147.11 983.21,144.10 985.91,141.06 988.62,137.99 991.32,134.90 994.03,131.79 996.73,128.65 999.43,125.48 1002.14,122.29 1004.84,119.08 1007.55,115.84 1010.25,112.57 1012.96,109.28 1015.66,105.97 1018.36,102.63 1021.07,99.26 1023.77,95.87 1026.48,92.46 1029.18,89.02 1031.89,85.55 1034.59,82.06 1037.30,78.55 1040.00,75.01" fill="none" stroke="#7c3aed" stroke-width="2"/>
  <rect x="82" y="370" width="18" height="11" fill="#2563eb"/><text x="108" y="380" font-family="Noto Sans CJK SC, DejaVu Sans, Arial" font-size="12" fill="#111827">T=-25 C, |I|=1 A</text><rect x="82" y="392" width="18" height="11" fill="#dc2626"/><text x="108" y="402" font-family="Noto Sans CJK SC, DejaVu Sans, Arial" font-size="12" fill="#111827">T=25 C, |I|=1 A</text><rect x="82" y="414" width="18" height="11" fill="#059669"/><text x="108" y="424" font-family="Noto Sans CJK SC, DejaVu Sans, Arial" font-size="12" fill="#111827">T=45 C, |I|=1 A</text><rect x="610" y="370" width="18" height="11" fill="#7c3aed"/><text x="636" y="380" font-family="Noto Sans CJK SC, DejaVu Sans, Arial" font-size="12" fill="#111827">SOC=0.5, T=25 C</text>
</svg>
