<svg xmlns="http://www.w3.org/2000/svg" width="1260" height="460" viewBox="0 0 1260 460">
  <rect width="1260" height="460" fill="#ffffff"/>
  <text x="86" y="36" font-family="Noto Sans CJK SC, DejaVu Sans, Arial" font-size="20" fill="#111827">BATT-4a R0 coefficient-slot RMSE comparison</text>
  <rect x="86.0" y="70.0" width="820.0" height="320.0" fill="#ffffff" stroke="#d1d5db"/>
  <line x1="86.0" y1="390.0" x2="906.0" y2="390.0" stroke="#6b7280"/>
  <line x1="86.0" y1="70.0" x2="86.0" y2="390.0" stroke="#6b7280"/>
  <text x="25" y="230.0" transform="rotate(-90 25 230.0)" text-anchor="middle" font-family="Noto Sans CJK SC, DejaVu Sans, Arial" font-size="13" fill="#374151">RMSE (mV)</text>
  <rect x="135.50" y="350.83" width="18.00" height="39.17" fill="#6b7280"/><rect x="157.50" y="355.17" width="18.00" height="34.83" fill="#2563eb"/><rect x="179.50" y="355.70" width="18.00" height="34.30" fill="#7c3aed"/><rect x="201.50" y="363.29" width="18.00" height="26.71" fill="#dc2626"/><rect x="223.50" y="363.28" width="18.00" height="26.72" fill="#f97316"/><text x="188.50" y="420" text-anchor="middle" font-family="Noto Sans CJK SC, DejaVu Sans, Arial" font-size="12" fill="#374151">Train</text><rect x="340.50" y="330.23" width="18.00" height="59.77" fill="#6b7280"/><rect x="362.50" y="337.37" width="18.00" height="52.63" fill="#2563eb"/><rect x="384.50" y="338.13" width="18.00" height="51.87" fill="#7c3aed"/><rect x="406.50" y="344.27" width="18.00" height="45.73" fill="#dc2626"/><rect x="428.50" y="344.27" width="18.00" height="45.73" fill="#f97316"/><text x="393.50" y="420" text-anchor="middle" font-family="Noto Sans CJK SC, DejaVu Sans, Arial" font-size="12" fill="#374151">Held-out T</text><rect x="545.50" y="372.22" width="18.00" height="17.78" fill="#6b7280"/><rect x="567.50" y="362.77" width="18.00" height="27.23" fill="#2563eb"/><rect x="589.50" y="367.01" width="18.00" height="22.99" fill="#7c3aed"/><rect x="611.50" y="206.21" width="18.00" height="183.79" fill="#dc2626"/><rect x="633.50" y="206.15" width="18.00" height="183.85" fill="#f97316"/><text x="598.50" y="420" text-anchor="middle" font-family="Noto Sans CJK SC, DejaVu Sans, Arial" font-size="12" fill="#374151">High amp.</text><rect x="750.50" y="104.41" width="18.00" height="285.59" fill="#6b7280"/><rect x="772.50" y="104.69" width="18.00" height="285.31" fill="#2563eb"/><rect x="794.50" y="104.97" width="18.00" height="285.03" fill="#7c3aed"/><rect x="816.50" y="104.29" width="18.00" height="285.71" fill="#dc2626"/><rect x="838.50" y="104.29" width="18.00" height="285.71" fill="#f97316"/><text x="803.50" y="420" text-anchor="middle" font-family="Noto Sans CJK SC, DejaVu Sans, Arial" font-size="12" fill="#374151">Cell transfer</text>
  <rect x="928" y="74" width="17" height="11" fill="#6b7280"/><text x="953" y="84" font-family="Noto Sans CJK SC, DejaVu Sans, Arial" font-size="11" fill="#111827">BATT-3c discharge OCV only</text><rect x="928" y="99" width="17" height="11" fill="#2563eb"/><text x="953" y="109" font-family="Noto Sans CJK SC, DejaVu Sans, Arial" font-size="11" fill="#111827">BATT-3c constant ohmic</text><rect x="928" y="124" width="17" height="11" fill="#7c3aed"/><text x="953" y="134" font-family="Noto Sans CJK SC, DejaVu Sans, Arial" font-size="11" fill="#111827">BATT-3c constant ECM</text><rect x="928" y="149" width="17" height="11" fill="#dc2626"/><text x="953" y="159" font-family="Noto Sans CJK SC, DejaVu Sans, Arial" font-size="11" fill="#111827">BATT-4a R0 slot STLSQ threshold 0.005</text><rect x="928" y="174" width="17" height="11" fill="#f97316"/><text x="953" y="184" font-family="Noto Sans CJK SC, DejaVu Sans, Arial" font-size="11" fill="#111827">BATT-4a R0 slot dense</text>
</svg>
