<svg xmlns="http://www.w3.org/2000/svg" width="1220" height="450" viewBox="0 0 1220 450">
<rect width="100%" height="100%" fill="white"/>
<text x="610" y="26" text-anchor="middle" font-family="Arial, Noto Sans CJK SC, Microsoft YaHei, sans-serif" font-size="18">E4 恢复的速度自适应阻尼 p(v)</text>
<line x1="76" y1="388" x2="1186" y2="388" stroke="#333" stroke-width="1"/>
<line x1="76" y1="42" x2="76" y2="388" stroke="#333" stroke-width="1"/>
<text x="631" y="434" text-anchor="middle" font-family="Arial, Noto Sans CJK SC, Microsoft YaHei, sans-serif" font-size="13">速度 v</text>
<text transform="translate(18,215) rotate(-90)" text-anchor="middle" font-family="Arial, Noto Sans CJK SC, Microsoft YaHei, sans-serif" font-size="13">阻尼系数 p(v)</text>
<line x1="76.00" y1="388" x2="76.00" y2="393" stroke="#333"/>
<text x="76.00" y="409" text-anchor="middle" font-family="Arial" font-size="11">-1.6</text>
<line x1="298.00" y1="388" x2="298.00" y2="393" stroke="#333"/>
<text x="298.00" y="409" text-anchor="middle" font-family="Arial" font-size="11">-0.9</text>
<line x1="520.00" y1="388" x2="520.00" y2="393" stroke="#333"/>
<text x="520.00" y="409" text-anchor="middle" font-family="Arial" font-size="11">-0.3</text>
<line x1="742.00" y1="388" x2="742.00" y2="393" stroke="#333"/>
<text x="742.00" y="409" text-anchor="middle" font-family="Arial" font-size="11">0.3</text>
<line x1="964.00" y1="388" x2="964.00" y2="393" stroke="#333"/>
<text x="964.00" y="409" text-anchor="middle" font-family="Arial" font-size="11">0.9</text>
<line x1="1186.00" y1="388" x2="1186.00" y2="393" stroke="#333"/>
<text x="1186.00" y="409" text-anchor="middle" font-family="Arial" font-size="11">1.6</text>
<line x1="71" y1="388.00" x2="76" y2="388.00" stroke="#333"/>
<text x="68" y="392.00" text-anchor="end" font-family="Arial" font-size="11">0.01</text>
<line x1="71" y1="301.50" x2="76" y2="301.50" stroke="#333"/>
<text x="68" y="305.50" text-anchor="end" font-family="Arial" font-size="11">0.26</text>
<line x1="71" y1="215.00" x2="76" y2="215.00" stroke="#333"/>
<text x="68" y="219.00" text-anchor="end" font-family="Arial" font-size="11">0.51</text>
<line x1="71" y1="128.50" x2="76" y2="128.50" stroke="#333"/>
<text x="68" y="132.50" text-anchor="end" font-family="Arial" font-size="11">0.75</text>
<line x1="71" y1="42.00" x2="76" y2="42.00" stroke="#333"/>
<text x="68" y="46.00" text-anchor="end" font-family="Arial" font-size="11">1.00</text>
<polyline points="76.00,65.86 77.39,66.61 78.77,67.35 80.16,68.10 81.55,68.84 82.94,69.59 84.33,70.34 85.71,71.08 87.10,71.83 88.49,72.57 89.88,73.32 91.26,74.06 92.65,74.81 94.04,75.56 95.42,76.30 96.81,77.05 98.20,77.79 99.59,78.54 100.97,79.28 102.36,80.03 103.75,80.78 105.14,81.52 106.53,82.27 107.91,83.01 109.30,83.76 110.69,84.50 112.07,85.25 113.46,86.00 114.85,86.74 116.24,87.49 117.62,88.23 119.01,88.98 120.40,89.72 121.79,90.47 123.18,91.22 124.56,91.96 125.95,92.71 127.34,93.45 128.72,94.20 130.11,94.94 131.50,95.69 132.89,96.44 134.27,97.18 135.66,97.93 137.05,98.67 138.44,99.42 139.82,100.16 141.21,100.91 142.60,101.66 143.99,102.40 145.38,103.15 146.76,103.89 148.15,104.64 149.54,105.38 150.92,106.13 152.31,106.88 153.70,107.62 155.09,108.37 156.47,109.11 157.86,109.86 159.25,110.60 160.64,111.35 162.03,112.09 163.41,112.84 164.80,113.59 166.19,114.33 167.57,115.08 168.96,115.82 170.35,116.57 171.74,117.31 173.12,118.06 174.51,118.81 175.90,119.55 177.29,120.30 178.68,121.04 180.06,121.79 181.45,122.53 182.84,123.28 184.23,124.03 185.61,124.77 187.00,125.52 188.39,126.26 189.77,127.01 191.16,127.75 192.55,128.50 193.94,129.25 195.33,129.99 196.71,130.74 198.10,131.48 199.49,132.23 200.88,132.97 202.26,133.72 203.65,134.47 205.04,135.21 206.42,135.96 207.81,136.70 209.20,137.45 210.59,138.19 211.98,138.94 213.36,139.69 214.75,140.43 216.14,141.18 217.53,141.92 218.91,142.67 220.30,143.41 221.69,144.16 223.07,144.91 224.46,145.65 225.85,146.40 227.24,147.14 228.62,147.89 230.01,148.63 231.40,149.38 232.79,150.12 234.18,150.87 235.56,151.62 236.95,152.36 238.34,153.11 239.72,153.85 241.11,154.60 242.50,155.34 243.89,156.09 245.28,156.84 246.66,157.58 248.05,158.33 249.44,159.07 250.83,159.82 252.21,160.56 253.60,161.31 254.99,162.06 256.38,162.80 257.76,163.55 259.15,164.29 260.54,165.04 261.92,165.78 263.31,166.53 264.70,167.28 266.09,168.02 267.48,168.77 268.86,169.51 270.25,170.26 271.64,171.00 273.02,171.75 274.41,172.50 275.80,173.24 277.19,173.99 278.57,174.73 279.96,175.48 281.35,176.22 282.74,176.97 284.12,177.72 285.51,178.46 286.90,179.21 288.29,179.95 289.68,180.70 291.06,181.44 292.45,182.19 293.84,182.94 295.22,183.68 296.61,184.43 298.00,185.17 299.39,185.92 300.77,186.66 302.16,187.41 303.55,188.16 304.94,188.90 306.32,189.65 307.71,190.39 309.10,191.14 310.49,191.88 311.88,192.63 313.26,193.38 314.65,194.12 316.04,194.87 317.43,195.61 318.81,196.36 320.20,197.10 321.59,197.85 322.97,198.59 324.36,199.34 325.75,200.09 327.14,200.83 328.52,201.58 329.91,202.32 331.30,203.07 332.69,203.81 334.07,204.56 335.46,205.31 336.85,206.05 338.24,206.80 339.62,207.54 341.01,208.29 342.40,209.03 343.79,209.78 345.18,210.53 346.56,211.27 347.95,212.02 349.34,212.76 350.73,213.51 352.11,214.25 353.50,215.00 354.89,215.75 356.27,216.49 357.66,217.24 359.05,217.98 360.44,218.73 361.82,219.47 363.21,220.22 364.60,220.97 365.99,221.71 367.38,222.46 368.76,223.20 370.15,223.95 371.54,224.69 372.93,225.44 374.31,226.19 375.70,226.93 377.09,227.68 378.48,228.42 379.86,229.17 381.25,229.91 382.64,230.66 384.02,231.41 385.41,232.15 386.80,232.90 388.19,233.64 389.57,234.39 390.96,235.13 392.35,235.88 393.74,236.63 395.12,237.37 396.51,238.12 397.90,238.86 399.29,239.61 400.67,240.35 402.06,241.10 403.45,241.84 404.84,242.59 406.22,243.34 407.61,244.08 409.00,244.83 410.39,245.57 411.77,246.32 413.16,247.06 414.55,247.81 415.94,248.56 417.32,249.30 418.71,250.05 420.10,250.79 421.49,251.54 422.88,252.28 424.26,253.03 425.65,253.78 427.04,254.52 428.43,255.27 429.81,256.01 431.20,256.76 432.59,257.50 433.98,258.25 435.36,259.00 436.75,259.74 438.14,260.49 439.53,261.23 440.91,261.98 442.30,262.72 443.69,263.47 445.08,264.22 446.46,264.96 447.85,265.71 449.24,266.45 450.62,267.20 452.01,267.94 453.40,268.69 454.79,269.44 456.17,270.18 457.56,270.93 458.95,271.67 460.34,272.42 461.72,273.16 463.11,273.91 464.50,274.66 465.89,275.40 467.27,276.15 468.66,276.89 470.05,277.64 471.44,278.38 472.82,279.13 474.21,279.88 475.60,280.62 476.99,281.37 478.38,282.11 479.76,282.86 481.15,283.60 482.54,284.35 483.93,285.09 485.31,285.84 486.70,286.59 488.09,287.33 489.48,288.08 490.86,288.82 492.25,289.57 493.64,290.31 495.02,291.06 496.41,291.81 497.80,292.55 499.19,293.30 500.57,294.04 501.96,294.79 503.35,295.53 504.74,296.28 506.12,297.03 507.51,297.77 508.90,298.52 510.29,299.26 511.68,300.01 513.06,300.75 514.45,301.50 515.84,302.25 517.23,302.99 518.61,303.74 520.00,304.48 521.39,305.23 522.77,305.97 524.16,306.72 525.55,307.47 526.94,308.21 528.33,308.96 529.71,309.70 531.10,310.45 532.49,311.19 533.88,311.94 535.26,312.69 536.65,313.43 538.04,314.18 539.42,314.92 540.81,315.67 542.20,316.41 543.59,317.16 544.97,317.91 546.36,318.65 547.75,319.40 549.14,320.14 550.52,320.89 551.91,321.63 553.30,322.38 554.69,323.13 556.07,323.87 557.46,324.62 558.85,325.36 560.24,326.11 561.62,326.85 563.01,327.60 564.40,328.34 565.79,329.09 567.17,329.84 568.56,330.58 569.95,331.33 571.34,332.07 572.73,332.82 574.11,333.56 575.50,334.31 576.89,335.06 578.27,335.80 579.66,336.55 581.05,337.29 582.44,338.04 583.83,338.78 585.21,339.53 586.60,340.28 587.99,341.02 589.38,341.77 590.76,342.51 592.15,343.26 593.54,344.00 594.92,344.75 596.31,345.50 597.70,346.24 599.09,346.99 600.48,347.73 601.86,348.48 603.25,349.22 604.64,349.97 606.02,350.72 607.41,351.46 608.80,352.21 610.19,352.95 611.57,353.70 612.96,354.44 614.35,355.19 615.74,355.94 617.12,356.68 618.51,357.43 619.90,358.17 621.29,358.92 622.67,359.66 624.06,360.41 625.45,361.16 626.84,361.90 628.22,362.65 629.61,363.39 631.00,364.14 632.39,363.39 633.77,362.65 635.16,361.90 636.55,361.16 637.94,360.41 639.32,359.66 640.71,358.92 642.10,358.17 643.49,357.43 644.88,356.68 646.26,355.94 647.65,355.19 649.04,354.44 650.42,353.70 651.81,352.95 653.20,352.21 654.59,351.46 655.97,350.72 657.36,349.97 658.75,349.22 660.14,348.48 661.52,347.73 662.91,346.99 664.30,346.24 665.69,345.50 667.07,344.75 668.46,344.00 669.85,343.26 671.24,342.51 672.62,341.77 674.01,341.02 675.40,340.28 676.79,339.53 678.17,338.78 679.56,338.04 680.95,337.29 682.34,336.55 683.73,335.80 685.11,335.06 686.50,334.31 687.89,333.56 689.27,332.82 690.66,332.07 692.05,331.33 693.44,330.58 694.83,329.84 696.21,329.09 697.60,328.34 698.99,327.60 700.38,326.85 701.76,326.11 703.15,325.36 704.54,324.62 705.92,323.87 707.31,323.13 708.70,322.38 710.09,321.63 711.48,320.89 712.86,320.14 714.25,319.40 715.64,318.65 717.02,317.91 718.41,317.16 719.80,316.41 721.19,315.67 722.58,314.92 723.96,314.18 725.35,313.43 726.74,312.69 728.12,311.94 729.51,311.19 730.90,310.45 732.29,309.70 733.67,308.96 735.06,308.21 736.45,307.47 737.84,306.72 739.22,305.97 740.61,305.23 742.00,304.48 743.39,303.74 744.78,302.99 746.16,302.25 747.55,301.50 748.94,300.75 750.33,300.01 751.71,299.26 753.10,298.52 754.49,297.77 755.87,297.03 757.26,296.28 758.65,295.53 760.04,294.79 761.42,294.04 762.81,293.30 764.20,292.55 765.59,291.81 766.98,291.06 768.36,290.31 769.75,289.57 771.14,288.82 772.52,288.08 773.91,287.33 775.30,286.59 776.69,285.84 778.07,285.09 779.46,284.35 780.85,283.60 782.24,282.86 783.62,282.11 785.01,281.37 786.40,280.62 787.79,279.88 789.17,279.13 790.56,278.38 791.95,277.64 793.34,276.89 794.72,276.15 796.11,275.40 797.50,274.66 798.89,273.91 800.27,273.16 801.66,272.42 803.05,271.67 804.44,270.93 805.82,270.18 807.21,269.44 808.60,268.69 809.99,267.94 811.38,267.20 812.76,266.45 814.15,265.71 815.54,264.96 816.92,264.22 818.31,263.47 819.70,262.72 821.09,261.98 822.48,261.23 823.86,260.49 825.25,259.74 826.64,259.00 828.02,258.25 829.41,257.50 830.80,256.76 832.19,256.01 833.57,255.27 834.96,254.52 836.35,253.78 837.74,253.03 839.12,252.28 840.51,251.54 841.90,250.79 843.29,250.05 844.67,249.30 846.06,248.56 847.45,247.81 848.84,247.06 850.22,246.32 851.61,245.57 853.00,244.83 854.39,244.08 855.77,243.34 857.16,242.59 858.55,241.84 859.94,241.10 861.32,240.35 862.71,239.61 864.10,238.86 865.49,238.12 866.87,237.37 868.26,236.63 869.65,235.88 871.04,235.13 872.43,234.39 873.81,233.64 875.20,232.90 876.59,232.15 877.97,231.41 879.36,230.66 880.75,229.91 882.14,229.17 883.53,228.42 884.91,227.68 886.30,226.93 887.69,226.19 889.08,225.44 890.46,224.69 891.85,223.95 893.24,223.20 894.62,222.46 896.01,221.71 897.40,220.97 898.79,220.22 900.18,219.47 901.56,218.73 902.95,217.98 904.34,217.24 905.72,216.49 907.11,215.75 908.50,215.00 909.89,214.25 911.27,213.51 912.66,212.76 914.05,212.02 915.44,211.27 916.83,210.53 918.21,209.78 919.60,209.03 920.99,208.29 922.38,207.54 923.76,206.80 925.15,206.05 926.54,205.31 927.92,204.56 929.31,203.81 930.70,203.07 932.09,202.32 933.48,201.58 934.86,200.83 936.25,200.09 937.64,199.34 939.02,198.59 940.41,197.85 941.80,197.10 943.19,196.36 944.57,195.61 945.96,194.87 947.35,194.12 948.74,193.38 950.12,192.63 951.51,191.88 952.90,191.14 954.29,190.39 955.67,189.65 957.06,188.90 958.45,188.16 959.84,187.41 961.22,186.66 962.61,185.92 964.00,185.17 965.39,184.43 966.77,183.68 968.16,182.94 969.55,182.19 970.94,181.44 972.33,180.70 973.71,179.95 975.10,179.21 976.49,178.46 977.87,177.72 979.26,176.97 980.65,176.22 982.04,175.48 983.42,174.73 984.81,173.99 986.20,173.24 987.59,172.50 988.98,171.75 990.36,171.00 991.75,170.26 993.14,169.51 994.52,168.77 995.91,168.02 997.30,167.28 998.69,166.53 1000.08,165.78 1001.46,165.04 1002.85,164.29 1004.24,163.55 1005.62,162.80 1007.01,162.06 1008.40,161.31 1009.79,160.56 1011.17,159.82 1012.56,159.07 1013.95,158.33 1015.34,157.58 1016.73,156.84 1018.11,156.09 1019.50,155.34 1020.89,154.60 1022.27,153.85 1023.66,153.11 1025.05,152.36 1026.44,151.62 1027.82,150.87 1029.21,150.12 1030.60,149.38 1031.99,148.63 1033.38,147.89 1034.76,147.14 1036.15,146.40 1037.54,145.65 1038.92,144.91 1040.31,144.16 1041.70,143.41 1043.09,142.67 1044.47,141.92 1045.86,141.18 1047.25,140.43 1048.64,139.69 1050.03,138.94 1051.41,138.19 1052.80,137.45 1054.19,136.70 1055.57,135.96 1056.96,135.21 1058.35,134.47 1059.74,133.72 1061.12,132.97 1062.51,132.23 1063.90,131.48 1065.29,130.74 1066.67,129.99 1068.06,129.25 1069.45,128.50 1070.84,127.75 1072.22,127.01 1073.61,126.26 1075.00,125.52 1076.39,124.77 1077.78,124.03 1079.16,123.28 1080.55,122.53 1081.94,121.79 1083.32,121.04 1084.71,120.30 1086.10,119.55 1087.49,118.81 1088.88,118.06 1090.26,117.31 1091.65,116.57 1093.04,115.82 1094.42,115.08 1095.81,114.33 1097.20,113.59 1098.59,112.84 1099.97,112.09 1101.36,111.35 1102.75,110.60 1104.14,109.86 1105.52,109.11 1106.91,108.37 1108.30,107.62 1109.69,106.88 1111.08,106.13 1112.46,105.38 1113.85,104.64 1115.24,103.89 1116.62,103.15 1118.01,102.40 1119.40,101.66 1120.79,100.91 1122.17,100.16 1123.56,99.42 1124.95,98.67 1126.34,97.93 1127.72,97.18 1129.11,96.44 1130.50,95.69 1131.89,94.94 1133.28,94.20 1134.66,93.45 1136.05,92.71 1137.44,91.96 1138.82,91.22 1140.21,90.47 1141.60,89.72 1142.99,88.98 1144.38,88.23 1145.76,87.49 1147.15,86.74 1148.54,86.00 1149.92,85.25 1151.31,84.50 1152.70,83.76 1154.09,83.01 1155.47,82.27 1156.86,81.52 1158.25,80.78 1159.64,80.03 1161.03,79.28 1162.41,78.54 1163.80,77.79 1165.19,77.05 1166.57,76.30 1167.96,75.56 1169.35,74.81 1170.74,74.06 1172.12,73.32 1173.51,72.57 1174.90,71.83 1176.29,71.08 1177.67,70.34 1179.06,69.59 1180.45,68.84 1181.84,68.10 1183.22,67.35 1184.61,66.61 1186.00,65.86" fill="none" stroke="#4D4D4D" stroke-width="3.2" stroke-opacity="0.55"/>
<polyline points="76.00,213.25 77.39,213.25 78.77,213.25 80.16,213.25 81.55,213.25 82.94,213.25 84.33,213.25 85.71,213.25 87.10,213.25 88.49,213.25 89.88,213.25 91.26,213.25 92.65,213.25 94.04,213.25 95.42,213.25 96.81,213.25 98.20,213.25 99.59,213.25 100.97,213.25 102.36,213.25 103.75,213.25 105.14,213.25 106.53,213.25 107.91,213.25 109.30,213.25 110.69,213.25 112.07,213.25 113.46,213.25 114.85,213.25 116.24,213.25 117.62,213.25 119.01,213.25 120.40,213.25 121.79,213.25 123.18,213.25 124.56,213.25 125.95,213.25 127.34,213.25 128.72,213.25 130.11,213.25 131.50,213.25 132.89,213.25 134.27,213.25 135.66,213.25 137.05,213.25 138.44,213.25 139.82,213.25 141.21,213.25 142.60,213.25 143.99,213.25 145.38,213.25 146.76,213.25 148.15,213.25 149.54,213.25 150.92,213.25 152.31,213.25 153.70,213.25 155.09,213.25 156.47,213.25 157.86,213.25 159.25,213.25 160.64,213.25 162.03,213.25 163.41,213.25 164.80,213.25 166.19,213.25 167.57,213.25 168.96,213.25 170.35,213.25 171.74,213.25 173.12,213.25 174.51,213.25 175.90,213.25 177.29,213.25 178.68,213.25 180.06,213.25 181.45,213.25 182.84,213.25 184.23,213.25 185.61,213.25 187.00,213.25 188.39,213.25 189.77,213.25 191.16,213.25 192.55,213.25 193.94,213.25 195.33,213.25 196.71,213.25 198.10,213.25 199.49,213.25 200.88,213.25 202.26,213.25 203.65,213.25 205.04,213.25 206.42,213.25 207.81,213.25 209.20,213.25 210.59,213.25 211.98,213.25 213.36,213.25 214.75,213.25 216.14,213.25 217.53,213.25 218.91,213.25 220.30,213.25 221.69,213.25 223.07,213.25 224.46,213.25 225.85,213.25 227.24,213.25 228.62,213.25 230.01,213.25 231.40,213.25 232.79,213.25 234.18,213.25 235.56,213.25 236.95,213.25 238.34,213.25 239.72,213.25 241.11,213.25 242.50,213.25 243.89,213.25 245.28,213.25 246.66,213.25 248.05,213.25 249.44,213.25 250.83,213.25 252.21,213.25 253.60,213.25 254.99,213.25 256.38,213.25 257.76,213.25 259.15,213.25 260.54,213.25 261.92,213.25 263.31,213.25 264.70,213.25 266.09,213.25 267.48,213.25 268.86,213.25 270.25,213.25 271.64,213.25 273.02,213.25 274.41,213.25 275.80,213.25 277.19,213.25 278.57,213.25 279.96,213.25 281.35,213.25 282.74,213.25 284.12,213.25 285.51,213.25 286.90,213.25 288.29,213.25 289.68,213.25 291.06,213.25 292.45,213.25 293.84,213.25 295.22,213.25 296.61,213.25 298.00,213.25 299.39,213.25 300.77,213.25 302.16,213.25 303.55,213.25 304.94,213.25 306.32,213.25 307.71,213.25 309.10,213.25 310.49,213.25 311.88,213.25 313.26,213.25 314.65,213.25 316.04,213.25 317.43,213.25 318.81,213.25 320.20,213.25 321.59,213.25 322.97,213.25 324.36,213.25 325.75,213.25 327.14,213.25 328.52,213.25 329.91,213.25 331.30,213.25 332.69,213.25 334.07,213.25 335.46,213.25 336.85,213.25 338.24,213.25 339.62,213.25 341.01,213.25 342.40,213.25 343.79,213.25 345.18,213.25 346.56,213.25 347.95,213.25 349.34,213.25 350.73,213.25 352.11,213.25 353.50,213.25 354.89,213.25 356.27,213.25 357.66,213.25 359.05,213.25 360.44,213.25 361.82,213.25 363.21,213.25 364.60,213.25 365.99,213.25 367.38,213.25 368.76,213.25 370.15,213.25 371.54,213.25 372.93,213.25 374.31,213.25 375.70,213.25 377.09,213.25 378.48,213.25 379.86,213.25 381.25,259.67 382.64,259.67 384.02,259.67 385.41,259.67 386.80,259.67 388.19,259.67 389.57,259.67 390.96,259.67 392.35,259.67 393.74,259.67 395.12,259.67 396.51,259.67 397.90,259.67 399.29,259.67 400.67,259.67 402.06,259.67 403.45,259.67 404.84,259.67 406.22,259.67 407.61,259.67 409.00,259.67 410.39,259.67 411.77,259.67 413.16,259.67 414.55,259.67 415.94,259.67 417.32,259.67 418.71,259.67 420.10,259.67 421.49,259.67 422.88,259.67 424.26,259.67 425.65,259.67 427.04,259.67 428.43,259.67 429.81,259.67 431.20,259.67 432.59,259.67 433.98,259.67 435.36,259.67 436.75,259.67 438.14,259.67 439.53,259.67 440.91,259.67 442.30,259.67 443.69,259.67 445.08,259.67 446.46,259.67 447.85,259.67 449.24,259.67 450.62,259.67 452.01,259.67 453.40,259.67 454.79,259.67 456.17,259.67 457.56,259.67 458.95,259.67 460.34,259.67 461.72,259.67 463.11,259.67 464.50,259.67 465.89,259.67 467.27,259.67 468.66,259.67 470.05,259.67 471.44,259.67 472.82,259.67 474.21,259.67 475.60,259.67 476.99,259.67 478.38,259.67 479.76,259.67 481.15,259.67 482.54,259.67 483.93,259.67 485.31,259.67 486.70,259.67 488.09,259.67 489.48,259.67 490.86,259.67 492.25,259.67 493.64,259.67 495.02,305.44 496.41,305.44 497.80,305.44 499.19,305.44 500.57,305.44 501.96,305.44 503.35,305.44 504.74,305.44 506.12,305.44 507.51,305.44 508.90,305.44 510.29,305.44 511.68,305.44 513.06,305.44 514.45,305.44 515.84,305.44 517.23,305.44 518.61,305.44 520.00,305.44 521.39,305.44 522.77,305.44 524.16,305.44 525.55,305.44 526.94,305.44 528.33,305.44 529.71,305.44 531.10,305.44 532.49,305.44 533.88,305.44 535.26,305.44 536.65,305.44 538.04,305.44 539.42,305.44 540.81,305.44 542.20,305.44 543.59,305.44 544.97,305.44 546.36,305.44 547.75,305.44 549.14,305.44 550.52,305.44 551.91,305.44 553.30,305.44 554.69,305.44 556.07,305.44 557.46,305.44 558.85,305.44 560.24,305.44 561.62,305.44 563.01,305.44 564.40,305.44 565.79,305.44 567.17,339.57 568.56,339.57 569.95,339.57 571.34,339.57 572.73,339.57 574.11,339.57 575.50,339.57 576.89,339.57 578.27,339.57 579.66,339.57 581.05,339.57 582.44,339.57 583.83,339.57 585.21,339.57 586.60,339.57 587.99,339.57 589.38,339.57 590.76,339.57 592.15,339.57 593.54,339.57 594.92,339.57 596.31,339.57 597.70,339.57 599.09,339.57 600.48,339.57 601.86,339.57 603.25,339.57 604.64,339.57 606.02,339.57 607.41,339.57 608.80,339.57 610.19,339.57 611.57,339.57 612.96,339.57 614.35,339.57 615.74,339.57 617.12,339.57 618.51,339.57 619.90,339.57 621.29,339.57 622.67,339.57 624.06,339.57 625.45,339.57 626.84,339.57 628.22,339.57 629.61,339.57 631.00,339.57 632.39,339.57 633.77,339.57 635.16,339.57 636.55,339.57 637.94,339.57 639.32,339.57 640.71,339.57 642.10,339.57 643.49,339.57 644.88,339.57 646.26,339.57 647.65,339.57 649.04,339.57 650.42,339.57 651.81,339.57 653.20,339.57 654.59,339.57 655.97,339.57 657.36,339.57 658.75,339.57 660.14,339.57 661.52,339.57 662.91,339.57 664.30,339.57 665.69,339.57 667.07,339.57 668.46,339.57 669.85,339.57 671.24,339.57 672.62,339.57 674.01,339.57 675.40,339.57 676.79,339.57 678.17,339.57 679.56,339.57 680.95,339.57 682.34,339.57 683.73,339.57 685.11,339.57 686.50,339.57 687.89,339.57 689.27,339.57 690.66,339.57 692.05,339.57 693.44,339.57 694.83,339.57 696.21,305.44 697.60,305.44 698.99,305.44 700.38,305.44 701.76,305.44 703.15,305.44 704.54,305.44 705.92,305.44 707.31,305.44 708.70,305.44 710.09,305.44 711.48,305.44 712.86,305.44 714.25,305.44 715.64,305.44 717.02,305.44 718.41,305.44 719.80,305.44 721.19,305.44 722.58,305.44 723.96,305.44 725.35,305.44 726.74,305.44 728.12,305.44 729.51,305.44 730.90,305.44 732.29,305.44 733.67,305.44 735.06,305.44 736.45,305.44 737.84,305.44 739.22,305.44 740.61,305.44 742.00,305.44 743.39,305.44 744.78,305.44 746.16,305.44 747.55,305.44 748.94,305.44 750.33,305.44 751.71,305.44 753.10,305.44 754.49,305.44 755.87,305.44 757.26,305.44 758.65,305.44 760.04,305.44 761.42,305.44 762.81,305.44 764.20,305.44 765.59,305.44 766.98,305.44 768.36,259.67 769.75,259.67 771.14,259.67 772.52,259.67 773.91,259.67 775.30,259.67 776.69,259.67 778.07,259.67 779.46,259.67 780.85,259.67 782.24,259.67 783.62,259.67 785.01,259.67 786.40,259.67 787.79,259.67 789.17,259.67 790.56,259.67 791.95,259.67 793.34,259.67 794.72,259.67 796.11,259.67 797.50,259.67 798.89,259.67 800.27,259.67 801.66,259.67 803.05,259.67 804.44,259.67 805.82,259.67 807.21,259.67 808.60,259.67 809.99,259.67 811.38,259.67 812.76,259.67 814.15,259.67 815.54,259.67 816.92,259.67 818.31,259.67 819.70,259.67 821.09,259.67 822.48,259.67 823.86,259.67 825.25,259.67 826.64,259.67 828.02,259.67 829.41,259.67 830.80,259.67 832.19,259.67 833.57,259.67 834.96,259.67 836.35,259.67 837.74,259.67 839.12,259.67 840.51,259.67 841.90,259.67 843.29,259.67 844.67,259.67 846.06,259.67 847.45,259.67 848.84,259.67 850.22,259.67 851.61,259.67 853.00,259.67 854.39,259.67 855.77,259.67 857.16,259.67 858.55,259.67 859.94,259.67 861.32,259.67 862.71,259.67 864.10,259.67 865.49,259.67 866.87,259.67 868.26,259.67 869.65,259.67 871.04,259.67 872.43,259.67 873.81,259.67 875.20,259.67 876.59,259.67 877.97,259.67 879.36,259.67 880.75,259.67 882.14,213.25 883.53,213.25 884.91,213.25 886.30,213.25 887.69,213.25 889.08,213.25 890.46,213.25 891.85,213.25 893.24,213.25 894.62,213.25 896.01,213.25 897.40,213.25 898.79,213.25 900.18,213.25 901.56,213.25 902.95,213.25 904.34,213.25 905.72,213.25 907.11,213.25 908.50,213.25 909.89,213.25 911.27,213.25 912.66,213.25 914.05,213.25 915.44,213.25 916.83,213.25 918.21,213.25 919.60,213.25 920.99,213.25 922.38,213.25 923.76,213.25 925.15,213.25 926.54,213.25 927.92,213.25 929.31,213.25 930.70,213.25 932.09,213.25 933.48,213.25 934.86,213.25 936.25,213.25 937.64,213.25 939.02,213.25 940.41,213.25 941.80,213.25 943.19,213.25 944.57,213.25 945.96,213.25 947.35,213.25 948.74,213.25 950.12,213.25 951.51,213.25 952.90,213.25 954.29,213.25 955.67,213.25 957.06,213.25 958.45,213.25 959.84,213.25 961.22,213.25 962.61,213.25 964.00,213.25 965.39,213.25 966.77,213.25 968.16,213.25 969.55,213.25 970.94,213.25 972.33,213.25 973.71,213.25 975.10,213.25 976.49,213.25 977.87,213.25 979.26,213.25 980.65,213.25 982.04,213.25 983.42,213.25 984.81,213.25 986.20,213.25 987.59,213.25 988.98,213.25 990.36,213.25 991.75,213.25 993.14,213.25 994.52,213.25 995.91,213.25 997.30,213.25 998.69,213.25 1000.08,213.25 1001.46,213.25 1002.85,213.25 1004.24,213.25 1005.62,213.25 1007.01,213.25 1008.40,213.25 1009.79,213.25 1011.17,213.25 1012.56,213.25 1013.95,213.25 1015.34,213.25 1016.73,213.25 1018.11,213.25 1019.50,213.25 1020.89,213.25 1022.27,213.25 1023.66,213.25 1025.05,213.25 1026.44,213.25 1027.82,213.25 1029.21,213.25 1030.60,213.25 1031.99,213.25 1033.38,213.25 1034.76,213.25 1036.15,213.25 1037.54,213.25 1038.92,213.25 1040.31,213.25 1041.70,213.25 1043.09,213.25 1044.47,213.25 1045.86,213.25 1047.25,213.25 1048.64,213.25 1050.03,213.25 1051.41,213.25 1052.80,213.25 1054.19,213.25 1055.57,213.25 1056.96,213.25 1058.35,213.25 1059.74,213.25 1061.12,213.25 1062.51,213.25 1063.90,213.25 1065.29,213.25 1066.67,213.25 1068.06,213.25 1069.45,213.25 1070.84,213.25 1072.22,213.25 1073.61,213.25 1075.00,213.25 1076.39,213.25 1077.78,213.25 1079.16,213.25 1080.55,213.25 1081.94,213.25 1083.32,213.25 1084.71,213.25 1086.10,213.25 1087.49,213.25 1088.88,213.25 1090.26,213.25 1091.65,213.25 1093.04,213.25 1094.42,213.25 1095.81,213.25 1097.20,213.25 1098.59,213.25 1099.97,213.25 1101.36,213.25 1102.75,213.25 1104.14,213.25 1105.52,213.25 1106.91,213.25 1108.30,213.25 1109.69,213.25 1111.08,213.25 1112.46,213.25 1113.85,213.25 1115.24,213.25 1116.62,213.25 1118.01,213.25 1119.40,213.25 1120.79,213.25 1122.17,213.25 1123.56,213.25 1124.95,213.25 1126.34,213.25 1127.72,213.25 1129.11,213.25 1130.50,213.25 1131.89,213.25 1133.28,213.25 1134.66,213.25 1136.05,213.25 1137.44,213.25 1138.82,213.25 1140.21,213.25 1141.60,213.25 1142.99,213.25 1144.38,213.25 1145.76,213.25 1147.15,213.25 1148.54,213.25 1149.92,213.25 1151.31,213.25 1152.70,213.25 1154.09,213.25 1155.47,213.25 1156.86,213.25 1158.25,213.25 1159.64,213.25 1161.03,213.25 1162.41,213.25 1163.80,213.25 1165.19,213.25 1166.57,213.25 1167.96,213.25 1169.35,213.25 1170.74,213.25 1172.12,213.25 1173.51,213.25 1174.90,213.25 1176.29,213.25 1177.67,213.25 1179.06,213.25 1180.45,213.25 1181.84,213.25 1183.22,213.25 1184.61,213.25 1186.00,213.25" fill="none" stroke="#56B4E9" stroke-width="2.4" stroke-opacity="0.95" stroke-dasharray="5 4"/>
<polyline points="76.00,65.86 77.39,66.61 78.77,67.35 80.16,68.10 81.55,68.84 82.94,69.59 84.33,70.34 85.71,71.08 87.10,71.83 88.49,72.57 89.88,73.32 91.26,74.06 92.65,74.81 94.04,75.56 95.42,76.30 96.81,77.05 98.20,77.79 99.59,78.54 100.97,79.28 102.36,80.03 103.75,80.78 105.14,81.52 106.53,82.27 107.91,83.01 109.30,83.76 110.69,84.50 112.07,85.25 113.46,86.00 114.85,86.74 116.24,87.49 117.62,88.23 119.01,88.98 120.40,89.72 121.79,90.47 123.18,91.22 124.56,91.96 125.95,92.71 127.34,93.45 128.72,94.20 130.11,94.94 131.50,95.69 132.89,96.44 134.27,97.18 135.66,97.93 137.05,98.67 138.44,99.42 139.82,100.16 141.21,100.91 142.60,101.66 143.99,102.40 145.38,103.15 146.76,103.89 148.15,104.64 149.54,105.38 150.92,106.13 152.31,106.88 153.70,107.62 155.09,108.37 156.47,109.11 157.86,109.86 159.25,110.60 160.64,111.35 162.03,112.09 163.41,112.84 164.80,113.59 166.19,114.33 167.57,115.08 168.96,115.82 170.35,116.57 171.74,117.31 173.12,118.06 174.51,118.81 175.90,119.55 177.29,120.30 178.68,121.04 180.06,121.79 181.45,122.53 182.84,123.28 184.23,124.03 185.61,124.77 187.00,125.52 188.39,126.26 189.77,127.01 191.16,127.75 192.55,128.50 193.94,129.25 195.33,129.99 196.71,130.74 198.10,131.48 199.49,132.23 200.88,132.97 202.26,133.72 203.65,134.47 205.04,135.21 206.42,135.96 207.81,136.70 209.20,137.45 210.59,138.19 211.98,138.94 213.36,139.69 214.75,140.43 216.14,141.18 217.53,141.92 218.91,142.67 220.30,143.41 221.69,144.16 223.07,144.91 224.46,145.65 225.85,146.40 227.24,147.14 228.62,147.89 230.01,148.63 231.40,149.38 232.79,150.13 234.18,150.87 235.56,151.62 236.95,152.36 238.34,153.11 239.72,153.85 241.11,154.60 242.50,155.34 243.89,156.09 245.28,156.84 246.66,157.58 248.05,158.33 249.44,159.07 250.83,159.82 252.21,160.56 253.60,161.31 254.99,162.06 256.38,162.80 257.76,163.55 259.15,164.29 260.54,165.04 261.92,165.78 263.31,166.53 264.70,167.28 266.09,168.02 267.48,168.77 268.86,169.51 270.25,170.26 271.64,171.00 273.02,171.75 274.41,172.50 275.80,173.24 277.19,173.99 278.57,174.73 279.96,175.48 281.35,176.22 282.74,176.97 284.12,177.72 285.51,178.46 286.90,179.21 288.29,179.95 289.68,180.70 291.06,181.44 292.45,182.19 293.84,182.94 295.22,183.68 296.61,184.43 298.00,185.17 299.39,185.92 300.77,186.66 302.16,187.41 303.55,188.16 304.94,188.90 306.32,189.65 307.71,190.39 309.10,191.14 310.49,191.88 311.88,192.63 313.26,193.38 314.65,194.12 316.04,194.87 317.43,195.61 318.81,196.36 320.20,197.10 321.59,197.85 322.97,198.59 324.36,199.34 325.75,200.09 327.14,200.83 328.52,201.58 329.91,202.32 331.30,203.07 332.69,203.81 334.07,204.56 335.46,205.31 336.85,206.05 338.24,206.80 339.62,207.54 341.01,208.29 342.40,209.03 343.79,209.78 345.18,210.53 346.56,211.27 347.95,212.02 349.34,212.76 350.73,213.51 352.11,214.25 353.50,215.00 354.89,215.75 356.27,216.49 357.66,217.24 359.05,217.98 360.44,218.73 361.82,219.47 363.21,220.22 364.60,220.97 365.99,221.71 367.38,222.46 368.76,223.20 370.15,223.95 371.54,224.69 372.93,225.44 374.31,226.19 375.70,226.93 377.09,227.68 378.48,228.42 379.86,229.17 381.25,229.91 382.64,230.66 384.02,231.41 385.41,232.15 386.80,232.90 388.19,233.64 389.57,234.39 390.96,235.13 392.35,235.88 393.74,236.63 395.12,237.37 396.51,238.12 397.90,238.86 399.29,239.61 400.67,240.35 402.06,241.10 403.45,241.84 404.84,242.59 406.22,243.34 407.61,244.08 409.00,244.83 410.39,245.57 411.77,246.32 413.16,247.06 414.55,247.81 415.94,248.56 417.32,249.30 418.71,250.05 420.10,250.79 421.49,251.54 422.88,252.28 424.26,253.03 425.65,253.78 427.04,254.52 428.43,255.27 429.81,256.01 431.20,256.76 432.59,257.50 433.98,258.25 435.36,259.00 436.75,259.74 438.14,260.49 439.53,261.23 440.91,261.98 442.30,262.72 443.69,263.47 445.08,264.22 446.46,264.96 447.85,265.71 449.24,266.45 450.62,267.20 452.01,267.94 453.40,268.69 454.79,269.44 456.17,270.18 457.56,270.93 458.95,271.67 460.34,272.42 461.72,273.16 463.11,273.91 464.50,274.66 465.89,275.40 467.27,276.15 468.66,276.89 470.05,277.64 471.44,278.38 472.82,279.13 474.21,279.88 475.60,280.62 476.99,281.37 478.38,282.11 479.76,282.86 481.15,283.60 482.54,284.35 483.93,285.09 485.31,285.84 486.70,286.59 488.09,287.33 489.48,288.08 490.86,288.82 492.25,289.57 493.64,290.31 495.02,291.06 496.41,291.81 497.80,292.55 499.19,293.30 500.57,294.04 501.96,294.79 503.35,295.53 504.74,296.28 506.12,297.03 507.51,297.77 508.90,298.52 510.29,299.26 511.68,300.01 513.06,300.75 514.45,301.50 515.84,302.25 517.23,302.99 518.61,303.74 520.00,304.48 521.39,305.23 522.77,305.97 524.16,306.72 525.55,307.47 526.94,308.21 528.33,308.96 529.71,309.70 531.10,310.45 532.49,311.19 533.88,311.94 535.26,312.69 536.65,313.43 538.04,314.18 539.42,314.92 540.81,315.67 542.20,316.41 543.59,317.16 544.97,317.91 546.36,318.65 547.75,319.40 549.14,320.14 550.52,320.89 551.91,321.63 553.30,322.38 554.69,323.13 556.07,323.87 557.46,324.62 558.85,325.36 560.24,326.11 561.62,326.85 563.01,327.60 564.40,328.34 565.79,329.09 567.17,329.84 568.56,330.58 569.95,331.33 571.34,332.07 572.73,332.82 574.11,333.56 575.50,334.31 576.89,335.06 578.27,335.80 579.66,336.55 581.05,337.29 582.44,338.04 583.83,338.78 585.21,339.53 586.60,340.28 587.99,341.02 589.38,341.77 590.76,342.51 592.15,343.26 593.54,344.00 594.92,344.75 596.31,345.50 597.70,346.24 599.09,346.99 600.48,347.73 601.86,348.48 603.25,349.22 604.64,349.97 606.02,350.72 607.41,351.46 608.80,352.21 610.19,352.95 611.57,353.70 612.96,354.44 614.35,355.19 615.74,355.94 617.12,356.68 618.51,357.43 619.90,358.17 621.29,358.92 622.67,359.66 624.06,360.41 625.45,361.16 626.84,361.90 628.22,362.65 629.61,363.39 631.00,364.14 632.39,363.39 633.77,362.65 635.16,361.90 636.55,361.16 637.94,360.41 639.32,359.66 640.71,358.92 642.10,358.17 643.49,357.43 644.88,356.68 646.26,355.94 647.65,355.19 649.04,354.44 650.42,353.70 651.81,352.95 653.20,352.21 654.59,351.46 655.97,350.72 657.36,349.97 658.75,349.22 660.14,348.48 661.52,347.73 662.91,346.99 664.30,346.24 665.69,345.50 667.07,344.75 668.46,344.00 669.85,343.26 671.24,342.51 672.62,341.77 674.01,341.02 675.40,340.28 676.79,339.53 678.17,338.78 679.56,338.04 680.95,337.29 682.34,336.55 683.73,335.80 685.11,335.06 686.50,334.31 687.89,333.56 689.27,332.82 690.66,332.07 692.05,331.33 693.44,330.58 694.83,329.84 696.21,329.09 697.60,328.34 698.99,327.60 700.38,326.85 701.76,326.11 703.15,325.36 704.54,324.62 705.92,323.87 707.31,323.13 708.70,322.38 710.09,321.63 711.48,320.89 712.86,320.14 714.25,319.40 715.64,318.65 717.02,317.91 718.41,317.16 719.80,316.41 721.19,315.67 722.58,314.92 723.96,314.18 725.35,313.43 726.74,312.69 728.12,311.94 729.51,311.19 730.90,310.45 732.29,309.70 733.67,308.96 735.06,308.21 736.45,307.47 737.84,306.72 739.22,305.97 740.61,305.23 742.00,304.48 743.39,303.74 744.78,302.99 746.16,302.25 747.55,301.50 748.94,300.75 750.33,300.01 751.71,299.26 753.10,298.52 754.49,297.77 755.87,297.03 757.26,296.28 758.65,295.53 760.04,294.79 761.42,294.04 762.81,293.30 764.20,292.55 765.59,291.81 766.98,291.06 768.36,290.31 769.75,289.57 771.14,288.82 772.52,288.08 773.91,287.33 775.30,286.59 776.69,285.84 778.07,285.09 779.46,284.35 780.85,283.60 782.24,282.86 783.62,282.11 785.01,281.37 786.40,280.62 787.79,279.88 789.17,279.13 790.56,278.38 791.95,277.64 793.34,276.89 794.72,276.15 796.11,275.40 797.50,274.66 798.89,273.91 800.27,273.16 801.66,272.42 803.05,271.67 804.44,270.93 805.82,270.18 807.21,269.44 808.60,268.69 809.99,267.94 811.38,267.20 812.76,266.45 814.15,265.71 815.54,264.96 816.92,264.22 818.31,263.47 819.70,262.72 821.09,261.98 822.48,261.23 823.86,260.49 825.25,259.74 826.64,259.00 828.02,258.25 829.41,257.50 830.80,256.76 832.19,256.01 833.57,255.27 834.96,254.52 836.35,253.78 837.74,253.03 839.12,252.28 840.51,251.54 841.90,250.79 843.29,250.05 844.67,249.30 846.06,248.56 847.45,247.81 848.84,247.06 850.22,246.32 851.61,245.57 853.00,244.83 854.39,244.08 855.77,243.34 857.16,242.59 858.55,241.84 859.94,241.10 861.32,240.35 862.71,239.61 864.10,238.86 865.49,238.12 866.87,237.37 868.26,236.63 869.65,235.88 871.04,235.13 872.43,234.39 873.81,233.64 875.20,232.90 876.59,232.15 877.97,231.41 879.36,230.66 880.75,229.91 882.14,229.17 883.53,228.42 884.91,227.68 886.30,226.93 887.69,226.19 889.08,225.44 890.46,224.69 891.85,223.95 893.24,223.20 894.62,222.46 896.01,221.71 897.40,220.97 898.79,220.22 900.18,219.47 901.56,218.73 902.95,217.98 904.34,217.24 905.72,216.49 907.11,215.75 908.50,215.00 909.89,214.25 911.27,213.51 912.66,212.76 914.05,212.02 915.44,211.27 916.83,210.53 918.21,209.78 919.60,209.03 920.99,208.29 922.38,207.54 923.76,206.80 925.15,206.05 926.54,205.31 927.92,204.56 929.31,203.81 930.70,203.07 932.09,202.32 933.48,201.58 934.86,200.83 936.25,200.09 937.64,199.34 939.02,198.59 940.41,197.85 941.80,197.10 943.19,196.36 944.57,195.61 945.96,194.87 947.35,194.12 948.74,193.38 950.12,192.63 951.51,191.88 952.90,191.14 954.29,190.39 955.67,189.65 957.06,188.90 958.45,188.16 959.84,187.41 961.22,186.66 962.61,185.92 964.00,185.17 965.39,184.43 966.77,183.68 968.16,182.94 969.55,182.19 970.94,181.44 972.33,180.70 973.71,179.95 975.10,179.21 976.49,178.46 977.87,177.72 979.26,176.97 980.65,176.22 982.04,175.48 983.42,174.73 984.81,173.99 986.20,173.24 987.59,172.50 988.98,171.75 990.36,171.00 991.75,170.26 993.14,169.51 994.52,168.77 995.91,168.02 997.30,167.28 998.69,166.53 1000.08,165.78 1001.46,165.04 1002.85,164.29 1004.24,163.55 1005.62,162.80 1007.01,162.06 1008.40,161.31 1009.79,160.56 1011.17,159.82 1012.56,159.07 1013.95,158.33 1015.34,157.58 1016.73,156.84 1018.11,156.09 1019.50,155.34 1020.89,154.60 1022.27,153.85 1023.66,153.11 1025.05,152.36 1026.44,151.62 1027.82,150.87 1029.21,150.13 1030.60,149.38 1031.99,148.63 1033.38,147.89 1034.76,147.14 1036.15,146.40 1037.54,145.65 1038.92,144.91 1040.31,144.16 1041.70,143.41 1043.09,142.67 1044.47,141.92 1045.86,141.18 1047.25,140.43 1048.64,139.69 1050.03,138.94 1051.41,138.19 1052.80,137.45 1054.19,136.70 1055.57,135.96 1056.96,135.21 1058.35,134.47 1059.74,133.72 1061.12,132.97 1062.51,132.23 1063.90,131.48 1065.29,130.74 1066.67,129.99 1068.06,129.25 1069.45,128.50 1070.84,127.75 1072.22,127.01 1073.61,126.26 1075.00,125.52 1076.39,124.77 1077.78,124.03 1079.16,123.28 1080.55,122.53 1081.94,121.79 1083.32,121.04 1084.71,120.30 1086.10,119.55 1087.49,118.81 1088.88,118.06 1090.26,117.31 1091.65,116.57 1093.04,115.82 1094.42,115.08 1095.81,114.33 1097.20,113.59 1098.59,112.84 1099.97,112.09 1101.36,111.35 1102.75,110.60 1104.14,109.86 1105.52,109.11 1106.91,108.37 1108.30,107.62 1109.69,106.88 1111.08,106.13 1112.46,105.38 1113.85,104.64 1115.24,103.89 1116.62,103.15 1118.01,102.40 1119.40,101.66 1120.79,100.91 1122.17,100.16 1123.56,99.42 1124.95,98.67 1126.34,97.93 1127.72,97.18 1129.11,96.44 1130.50,95.69 1131.89,94.94 1133.28,94.20 1134.66,93.45 1136.05,92.71 1137.44,91.96 1138.82,91.22 1140.21,90.47 1141.60,89.72 1142.99,88.98 1144.38,88.23 1145.76,87.49 1147.15,86.74 1148.54,86.00 1149.92,85.25 1151.31,84.50 1152.70,83.76 1154.09,83.01 1155.47,82.27 1156.86,81.52 1158.25,80.78 1159.64,80.03 1161.03,79.28 1162.41,78.54 1163.80,77.79 1165.19,77.05 1166.57,76.30 1167.96,75.56 1169.35,74.81 1170.74,74.06 1172.12,73.32 1173.51,72.57 1174.90,71.83 1176.29,71.08 1177.67,70.34 1179.06,69.59 1180.45,68.84 1181.84,68.10 1183.22,67.35 1184.61,66.61 1186.00,65.86" fill="none" stroke="#009E73" stroke-width="2.8" stroke-opacity="1.0" stroke-dasharray="12 5"/>
<line x1="88" y1="54" x2="110" y2="54" stroke="#4D4D4D" stroke-width="3.2" stroke-opacity="0.55"/>
<text x="116" y="58" font-family="Arial, Noto Sans CJK SC, Microsoft YaHei, sans-serif" font-size="12">参考 p(v)=c0+c1*abs(v)</text>
<line x1="88" y1="72" x2="110" y2="72" stroke="#56B4E9" stroke-width="2.4" stroke-opacity="0.95" stroke-dasharray="5 4"/>
<text x="116" y="76" font-family="Arial, Noto Sans CJK SC, Microsoft YaHei, sans-serif" font-size="12">分段查表阻尼模型</text>
<line x1="88" y1="90" x2="110" y2="90" stroke="#009E73" stroke-width="2.8" stroke-opacity="1.0" stroke-dasharray="12 5"/>
<text x="116" y="94" font-family="Arial, Noto Sans CJK SC, Microsoft YaHei, sans-serif" font-size="12">系数槽约束 SINDy 模型</text>
</svg>