<svg xmlns="http://www.w3.org/2000/svg" width="1220" height="450" viewBox="0 0 1220 450">
<rect width="100%" height="100%" fill="white"/>
<text x="610" y="26" text-anchor="middle" font-family="Arial, Noto Sans CJK SC, Microsoft YaHei, sans-serif" font-size="18">E4 high-amplitude rollout: velocity</text>
<line x1="76" y1="388" x2="1186" y2="388" stroke="#333" stroke-width="1"/>
<line x1="76" y1="42" x2="76" y2="388" stroke="#333" stroke-width="1"/>
<text x="631" y="434" text-anchor="middle" font-family="Arial, Noto Sans CJK SC, Microsoft YaHei, sans-serif" font-size="13">t</text>
<text transform="translate(18,215) rotate(-90)" text-anchor="middle" font-family="Arial, Noto Sans CJK SC, Microsoft YaHei, sans-serif" font-size="13">v</text>
<line x1="76.00" y1="388" x2="76.00" y2="393" stroke="#333"/>
<text x="76.00" y="409" text-anchor="middle" font-family="Arial" font-size="11">0.0</text>
<line x1="298.00" y1="388" x2="298.00" y2="393" stroke="#333"/>
<text x="298.00" y="409" text-anchor="middle" font-family="Arial" font-size="11">4.8</text>
<line x1="520.00" y1="388" x2="520.00" y2="393" stroke="#333"/>
<text x="520.00" y="409" text-anchor="middle" font-family="Arial" font-size="11">9.6</text>
<line x1="742.00" y1="388" x2="742.00" y2="393" stroke="#333"/>
<text x="742.00" y="409" text-anchor="middle" font-family="Arial" font-size="11">14.4</text>
<line x1="964.00" y1="388" x2="964.00" y2="393" stroke="#333"/>
<text x="964.00" y="409" text-anchor="middle" font-family="Arial" font-size="11">19.2</text>
<line x1="1186.00" y1="388" x2="1186.00" y2="393" stroke="#333"/>
<text x="1186.00" y="409" text-anchor="middle" font-family="Arial" font-size="11">24.0</text>
<line x1="71" y1="388.00" x2="76" y2="388.00" stroke="#333"/>
<text x="68" y="392.00" text-anchor="end" font-family="Arial" font-size="11">-2.54</text>
<line x1="71" y1="301.50" x2="76" y2="301.50" stroke="#333"/>
<text x="68" y="305.50" text-anchor="end" font-family="Arial" font-size="11">-1.33</text>
<line x1="71" y1="215.00" x2="76" y2="215.00" stroke="#333"/>
<text x="68" y="219.00" text-anchor="end" font-family="Arial" font-size="11">-0.12</text>
<line x1="71" y1="128.50" x2="76" y2="128.50" stroke="#333"/>
<text x="68" y="132.50" text-anchor="end" font-family="Arial" font-size="11">1.10</text>
<line x1="71" y1="42.00" x2="76" y2="42.00" stroke="#333"/>
<text x="68" y="46.00" text-anchor="end" font-family="Arial" font-size="11">2.31</text>
<polyline points="76.00,219.62 77.85,215.33 79.70,211.00 81.55,206.63 83.40,202.21 85.25,197.76 87.10,193.29 88.95,188.83 90.80,184.39 92.65,180.00 94.50,175.67 96.35,171.41 98.20,167.24 100.05,163.19 101.90,159.26 103.75,155.46 105.60,151.81 107.45,148.32 109.30,144.99 111.15,141.84 113.00,138.87 114.85,136.08 116.70,133.47 118.55,131.06 120.40,128.83 122.25,126.80 124.10,124.95 125.95,123.29 127.80,121.82 129.65,120.52 131.50,119.41 133.35,118.46 135.20,117.69 137.05,117.08 138.90,116.63 140.75,116.33 142.60,116.18 144.45,116.18 146.30,116.31 148.15,116.57 150.00,116.96 151.85,117.47 153.70,118.10 155.55,118.83 157.40,119.67 159.25,120.61 161.10,121.64 162.95,122.76 164.80,123.96 166.65,125.24 168.50,126.60 170.35,128.02 172.20,129.51 174.05,131.06 175.90,132.66 177.75,134.32 179.60,136.03 181.45,137.77 183.30,139.56 185.15,141.39 187.00,143.24 188.85,145.13 190.70,147.04 192.55,148.97 194.40,150.92 196.25,152.88 198.10,154.86 199.95,156.85 201.80,158.84 203.65,160.84 205.50,162.84 207.35,164.83 209.20,166.83 211.05,168.82 212.90,170.80 214.75,172.77 216.60,174.73 218.45,176.68 220.30,178.61 222.15,180.53 224.00,182.43 225.85,184.31 227.70,186.18 229.55,188.02 231.40,189.85 233.25,191.66 235.10,193.45 236.95,195.21 238.80,196.96 240.65,198.69 242.50,200.41 244.35,202.10 246.20,203.78 248.05,205.45 249.90,207.10 251.75,208.74 253.60,210.36 255.45,211.98 257.30,213.57 259.15,215.15 261.00,216.71 262.85,218.26 264.70,219.79 266.55,221.31 268.40,222.81 270.25,224.29 272.10,225.76 273.95,227.21 275.80,228.66 277.65,230.09 279.50,231.51 281.35,232.93 283.20,234.33 285.05,235.73 286.90,237.12 288.75,238.51 290.60,239.90 292.45,241.28 294.30,242.66 296.15,244.04 298.00,245.42 299.85,246.79 301.70,248.17 303.55,249.55 305.40,250.92 307.25,252.30 309.10,253.67 310.95,255.04 312.80,256.40 314.65,257.76 316.50,259.12 318.35,260.46 320.20,261.79 322.05,263.12 323.90,264.42 325.75,265.71 327.60,266.98 329.45,268.23 331.30,269.45 333.15,270.65 335.00,271.81 336.85,272.94 338.70,274.04 340.55,275.09 342.40,276.10 344.25,277.07 346.10,277.98 347.95,278.84 349.80,279.65 351.65,280.40 353.50,281.09 355.35,281.71 357.20,282.27 359.05,282.76 360.90,283.18 362.75,283.53 364.60,283.79 366.45,283.99 368.30,284.10 370.15,284.13 372.00,284.08 373.85,283.94 375.70,283.72 377.55,283.41 379.40,283.02 381.25,282.53 383.10,281.96 384.95,281.30 386.80,280.55 388.65,279.71 390.50,278.78 392.35,277.76 394.20,276.65 396.05,275.45 397.90,274.16 399.75,272.79 401.60,271.33 403.45,269.78 405.30,268.14 407.15,266.42 409.00,264.62 410.85,262.73 412.70,260.76 414.55,258.71 416.40,256.58 418.25,254.37 420.10,252.09 421.95,249.73 423.80,247.29 425.65,244.78 427.50,242.20 429.35,239.55 431.20,236.83 433.05,234.04 434.90,231.18 436.75,228.26 438.60,225.27 440.45,222.22 442.30,219.10 444.15,215.92 446.00,212.68 447.85,209.38 449.70,206.01 451.55,202.58 453.40,199.11 455.25,195.61 457.10,192.09 458.95,188.57 460.80,185.07 462.65,181.59 464.50,178.15 466.35,174.76 468.20,171.45 470.05,168.21 471.90,165.06 473.75,162.02 475.60,159.08 477.45,156.26 479.30,153.56 481.15,150.99 483.00,148.56 484.85,146.27 486.70,144.12 488.55,142.12 490.40,140.26 492.25,138.54 494.10,136.97 495.95,135.54 497.80,134.26 499.65,133.12 501.50,132.11 503.35,131.24 505.20,130.49 507.05,129.87 508.90,129.38 510.75,129.00 512.60,128.73 514.45,128.57 516.30,128.51 518.15,128.55 520.00,128.69 521.85,128.91 523.70,129.21 525.55,129.59 527.40,130.04 529.25,130.56 531.10,131.14 532.95,131.78 534.80,132.47 536.65,133.21 538.50,134.00 540.35,134.82 542.20,135.68 544.05,136.58 545.90,137.50 547.75,138.44 549.60,139.41 551.45,140.39 553.30,141.39 555.15,142.40 557.00,143.42 558.85,144.44 560.70,145.47 562.55,146.50 564.40,147.53 566.25,148.55 568.10,149.57 569.95,150.59 571.80,151.60 573.65,152.60 575.50,153.59 577.35,154.57 579.20,155.54 581.05,156.50 582.90,157.45 584.75,158.39 586.60,159.31 588.45,160.23 590.30,161.15 592.15,162.05 594.00,162.95 595.85,163.84 597.70,164.73 599.55,165.62 601.40,166.50 603.25,167.39 605.10,168.29 606.95,169.19 608.80,170.10 610.65,171.02 612.50,171.96 614.35,172.92 616.20,173.89 618.05,174.89 619.90,175.92 621.75,176.97 623.60,178.06 625.45,179.18 627.30,180.35 629.15,181.56 631.00,182.81 632.85,184.12 634.70,185.48 636.55,186.89 638.40,188.37 640.25,189.91 642.10,191.52 643.95,193.20 645.80,194.95 647.65,196.78 649.50,198.70 651.35,200.69 653.20,202.78 655.05,204.96 656.90,207.24 658.75,209.62 660.60,212.09 662.45,214.66 664.30,217.31 666.15,220.05 668.00,222.86 669.85,225.75 671.70,228.70 673.55,231.70 675.40,234.76 677.25,237.85 679.10,240.97 680.95,244.11 682.80,247.27 684.65,250.43 686.50,253.57 688.35,256.71 690.20,259.81 692.05,262.88 693.90,265.90 695.75,268.87 697.60,271.77 699.45,274.60 701.30,277.36 703.15,280.02 705.00,282.60 706.85,285.08 708.70,287.45 710.55,289.72 712.40,291.87 714.25,293.91 716.10,295.83 717.95,297.62 719.80,299.30 721.65,300.84 723.50,302.27 725.35,303.56 727.20,304.73 729.05,305.77 730.90,306.68 732.75,307.47 734.60,308.14 736.45,308.68 738.30,309.10 740.15,309.40 742.00,309.58 743.85,309.65 745.70,309.60 747.55,309.44 749.40,309.18 751.25,308.80 753.10,308.33 754.95,307.75 756.80,307.08 758.65,306.31 760.50,305.44 762.35,304.49 764.20,303.46 766.05,302.34 767.90,301.14 769.75,299.86 771.60,298.51 773.45,297.09 775.30,295.60 777.15,294.04 779.00,292.43 780.85,290.75 782.70,289.02 784.55,287.24 786.40,285.41 788.25,283.54 790.10,281.62 791.95,279.66 793.80,277.66 795.65,275.63 797.50,273.57 799.35,271.48 801.20,269.37 803.05,267.23 804.90,265.07 806.75,262.90 808.60,260.72 810.45,258.52 812.30,256.32 814.15,254.11 816.00,251.89 817.85,249.68 819.70,247.47 821.55,245.26 823.40,243.05 825.25,240.86 827.10,238.67 828.95,236.50 830.80,234.34 832.65,232.20 834.50,230.07 836.35,227.96 838.20,225.87 840.05,223.80 841.90,221.75 843.75,219.73 845.60,217.72 847.45,215.75 849.30,213.79 851.15,211.86 853.00,209.95 854.85,208.07 856.70,206.21 858.55,204.37 860.40,202.56 862.25,200.78 864.10,199.03 865.95,197.32 867.80,195.65 869.65,194.01 871.50,192.41 873.35,190.86 875.20,189.34 877.05,187.87 878.90,186.43 880.75,185.04 882.60,183.68 884.45,182.36 886.30,181.08 888.15,179.83 890.00,178.62 891.85,177.43 893.70,176.28 895.55,175.16 897.40,174.06 899.25,172.98 901.10,171.93 902.95,170.90 904.80,169.88 906.65,168.88 908.50,167.89 910.35,166.92 912.20,165.96 914.05,165.01 915.90,164.06 917.75,163.12 919.60,162.19 921.45,161.26 923.30,160.34 925.15,159.43 927.00,158.52 928.85,157.61 930.70,156.71 932.55,155.81 934.40,154.93 936.25,154.05 938.10,153.18 939.95,152.31 941.80,151.47 943.65,150.63 945.50,149.82 947.35,149.02 949.20,148.24 951.05,147.48 952.90,146.75 954.75,146.05 956.60,145.38 958.45,144.74 960.30,144.15 962.15,143.59 964.00,143.07 965.85,142.60 967.70,142.18 969.55,141.81 971.40,141.49 973.25,141.23 975.10,141.03 976.95,140.90 978.80,140.83 980.65,140.83 982.50,140.89 984.35,141.03 986.20,141.25 988.05,141.54 989.90,141.91 991.75,142.36 993.60,142.89 995.45,143.50 997.30,144.20 999.15,144.98 1001.00,145.85 1002.85,146.81 1004.70,147.86 1006.55,149.00 1008.40,150.22 1010.25,151.54 1012.10,152.95 1013.95,154.45 1015.80,156.03 1017.65,157.72 1019.50,159.49 1021.35,161.35 1023.20,163.30 1025.05,165.35 1026.90,167.48 1028.75,169.70 1030.60,172.02 1032.45,174.42 1034.30,176.92 1036.15,179.50 1038.00,182.17 1039.85,184.94 1041.70,187.79 1043.55,190.73 1045.40,193.76 1047.25,196.88 1049.10,200.09 1050.95,203.39 1052.80,206.78 1054.65,210.27 1056.50,213.83 1058.35,217.47 1060.20,221.15 1062.05,224.87 1063.90,228.61 1065.75,232.36 1067.60,236.09 1069.45,239.80 1071.30,243.47 1073.15,247.09 1075.00,250.64 1076.85,254.10 1078.70,257.48 1080.55,260.75 1082.40,263.91 1084.25,266.95 1086.10,269.85 1087.95,272.62 1089.80,275.25 1091.65,277.73 1093.50,280.06 1095.35,282.24 1097.20,284.26 1099.05,286.13 1100.90,287.85 1102.75,289.41 1104.60,290.82 1106.45,292.08 1108.30,293.19 1110.15,294.16 1112.00,294.99 1113.85,295.68 1115.70,296.24 1117.55,296.67 1119.40,296.98 1121.25,297.16 1123.10,297.24 1124.95,297.20 1126.80,297.06 1128.65,296.82 1130.50,296.49 1132.35,296.07 1134.20,295.56 1136.05,294.98 1137.90,294.32 1139.75,293.59 1141.60,292.79 1143.45,291.93 1145.30,291.02 1147.15,290.06 1149.00,289.05 1150.85,287.99 1152.70,286.90 1154.55,285.77 1156.40,284.61 1158.25,283.43 1160.10,282.21 1161.95,280.98 1163.80,279.73 1165.65,278.47 1167.50,277.19 1169.35,275.91 1171.20,274.62 1173.05,273.33 1174.90,272.03 1176.75,270.74 1178.60,269.45 1180.45,268.17 1182.30,266.90 1184.15,265.63 1186.00,264.37" fill="none" stroke="#4D4D4D" stroke-width="3.2" stroke-opacity="0.55"/>
<polyline points="76.00,219.62 77.85,215.33 79.70,211.00 81.55,206.62 83.40,202.21 85.25,197.76 87.10,193.29 88.95,188.80 90.80,184.29 92.65,179.78 94.50,175.27 96.35,170.77 98.20,166.29 100.05,161.83 101.90,157.39 103.75,153.00 105.60,148.65 107.45,144.34 109.30,140.10 111.15,135.92 113.00,131.81 114.85,127.79 116.70,123.84 118.55,119.99 120.40,116.23 122.25,112.58 124.10,109.03 125.95,105.60 127.80,102.29 129.65,99.11 131.50,96.05 133.35,93.12 135.20,90.33 137.05,87.69 138.90,85.18 140.75,82.82 142.60,80.61 144.45,78.56 146.30,76.65 148.15,74.90 150.00,73.31 151.85,71.87 153.70,70.59 155.55,69.46 157.40,68.49 159.25,67.67 161.10,67.01 162.95,66.50 164.80,66.14 166.65,65.93 168.50,65.86 170.35,65.94 172.20,66.15 174.05,66.50 175.90,66.99 177.75,67.60 179.60,68.33 181.45,69.19 183.30,70.16 185.15,71.24 187.00,72.43 188.85,73.71 190.70,75.10 192.55,76.57 194.40,78.12 196.25,79.76 198.10,81.47 199.95,83.25 201.80,85.09 203.65,86.99 205.50,88.94 207.35,90.94 209.20,92.99 211.05,95.07 212.90,97.18 214.75,99.32 216.60,101.48 218.45,103.67 220.30,105.86 222.15,108.07 224.00,110.29 225.85,112.51 227.70,114.73 229.55,116.94 231.40,119.15 233.25,121.35 235.10,123.55 236.95,125.73 238.80,127.89 240.65,130.04 242.50,132.17 244.35,134.29 246.20,136.39 248.05,138.46 249.90,140.52 251.75,142.56 253.60,144.58 255.45,146.59 257.30,148.57 259.15,150.54 261.00,152.50 262.85,154.44 264.70,156.37 266.55,158.28 268.40,160.19 270.25,162.09 272.10,163.99 273.95,165.88 275.80,167.78 277.65,169.67 279.50,171.57 281.35,173.47 283.20,175.38 285.05,177.30 286.90,179.23 288.75,181.18 290.60,183.14 292.45,185.12 294.30,187.12 296.15,189.15 298.00,191.19 299.85,193.26 301.70,195.35 303.55,197.47 305.40,199.62 307.25,201.80 309.10,204.00 310.95,206.23 312.80,208.49 314.65,210.77 316.50,213.08 318.35,215.42 320.20,217.78 322.05,220.16 323.90,222.56 325.75,224.98 327.60,227.42 329.45,229.87 331.30,232.34 333.15,234.81 335.00,237.28 336.85,239.76 338.70,242.23 340.55,244.70 342.40,247.15 344.25,249.59 346.10,252.01 347.95,254.40 349.80,256.77 351.65,259.10 353.50,261.39 355.35,263.63 357.20,265.82 359.05,267.96 360.90,270.04 362.75,272.05 364.60,273.98 366.45,275.84 368.30,277.62 370.15,279.31 372.00,280.90 373.85,282.40 375.70,283.80 377.55,285.08 379.40,286.26 381.25,287.31 383.10,288.25 384.95,289.06 386.80,289.74 388.65,290.29 390.50,290.70 392.35,290.98 394.20,291.11 396.05,291.11 397.90,290.95 399.75,290.66 401.60,290.21 403.45,289.61 405.30,288.87 407.15,287.98 409.00,286.94 410.85,285.75 412.70,284.41 414.55,282.93 416.40,281.30 418.25,279.53 420.10,277.63 421.95,275.58 423.80,273.41 425.65,271.10 427.50,268.67 429.35,266.12 431.20,263.45 433.05,260.67 434.90,257.79 436.75,254.80 438.60,251.72 440.45,248.54 442.30,245.29 444.15,241.95 446.00,238.55 447.85,235.08 449.70,231.56 451.55,227.98 453.40,224.36 455.25,220.71 457.10,217.02 458.95,213.32 460.80,209.59 462.65,205.86 464.50,202.13 466.35,198.41 468.20,194.69 470.05,191.00 471.90,187.33 473.75,183.70 475.60,180.10 477.45,176.55 479.30,173.05 481.15,169.61 483.00,166.23 484.85,162.91 486.70,159.67 488.55,156.51 490.40,153.42 492.25,150.42 494.10,147.51 495.95,144.69 497.80,141.97 499.65,139.34 501.50,136.82 503.35,134.39 505.20,132.07 507.05,129.86 508.90,127.75 510.75,125.75 512.60,123.86 514.45,122.07 516.30,120.39 518.15,118.82 520.00,117.36 521.85,116.00 523.70,114.74 525.55,113.58 527.40,112.53 529.25,111.57 531.10,110.71 532.95,109.94 534.80,109.27 536.65,108.68 538.50,108.17 540.35,107.75 542.20,107.40 544.05,107.13 545.90,106.94 547.75,106.81 549.60,106.74 551.45,106.74 553.30,106.79 555.15,106.90 557.00,107.06 558.85,107.27 560.70,107.52 562.55,107.82 564.40,108.15 566.25,108.52 568.10,108.93 569.95,109.36 571.80,109.82 573.65,110.31 575.50,110.82 577.35,111.36 579.20,111.92 581.05,112.49 582.90,113.09 584.75,113.70 586.60,114.33 588.45,114.98 590.30,115.64 592.15,116.32 594.00,117.02 595.85,117.74 597.70,118.47 599.55,119.22 601.40,120.00 603.25,120.80 605.10,121.62 606.95,122.46 608.80,123.34 610.65,124.25 612.50,125.18 614.35,126.16 616.20,127.17 618.05,128.22 619.90,129.32 621.75,130.46 623.60,131.65 625.45,132.89 627.30,134.19 629.15,135.55 631.00,136.96 632.85,138.45 634.70,140.00 636.55,141.61 638.40,143.31 640.25,145.07 642.10,146.92 643.95,148.85 645.80,150.86 647.65,152.95 649.50,155.13 651.35,157.40 653.20,159.75 655.05,162.20 656.90,164.74 658.75,167.37 660.60,170.09 662.45,172.91 664.30,175.81 666.15,178.81 668.00,181.90 669.85,185.08 671.70,188.34 673.55,191.70 675.40,195.13 677.25,198.65 679.10,202.24 680.95,205.91 682.80,209.65 684.65,213.46 686.50,217.33 688.35,221.26 690.20,225.25 692.05,229.29 693.90,233.37 695.75,237.49 697.60,241.64 699.45,245.83 701.30,250.03 703.15,254.25 705.00,258.48 706.85,262.71 708.70,266.93 710.55,271.15 712.40,275.35 714.25,279.52 716.10,283.66 717.95,287.76 719.80,291.82 721.65,295.83 723.50,299.77 725.35,303.65 727.20,307.46 729.05,311.18 730.90,314.82 732.75,318.37 734.60,321.82 736.45,325.17 738.30,328.41 740.15,331.53 742.00,334.53 743.85,337.40 745.70,340.15 747.55,342.76 749.40,345.23 751.25,347.56 753.10,349.75 754.95,351.79 756.80,353.67 758.65,355.41 760.50,356.99 762.35,358.41 764.20,359.67 766.05,360.78 767.90,361.73 769.75,362.52 771.60,363.15 773.45,363.63 775.30,363.95 777.15,364.11 779.00,364.13 780.85,363.99 782.70,363.70 784.55,363.27 786.40,362.70 788.25,361.99 790.10,361.15 791.95,360.17 793.80,359.07 795.65,357.85 797.50,356.51 799.35,355.06 801.20,353.50 803.05,351.85 804.90,350.09 806.75,348.25 808.60,346.32 810.45,344.32 812.30,342.24 814.15,340.09 816.00,337.88 817.85,335.61 819.70,333.30 821.55,330.94 823.40,328.54 825.25,326.10 827.10,323.64 828.95,321.16 830.80,318.66 832.65,316.14 834.50,313.62 836.35,311.09 838.20,308.57 840.05,306.04 841.90,303.53 843.75,301.03 845.60,298.55 847.45,296.08 849.30,293.63 851.15,291.21 853.00,288.82 854.85,286.45 856.70,284.11 858.55,281.81 860.40,279.54 862.25,277.30 864.10,275.09 865.95,272.92 867.80,270.79 869.65,268.69 871.50,266.62 873.35,264.58 875.20,262.58 877.05,260.62 878.90,258.68 880.75,256.77 882.60,254.89 884.45,253.03 886.30,251.20 888.15,249.39 890.00,247.60 891.85,245.82 893.70,244.07 895.55,242.32 897.40,240.59 899.25,238.87 901.10,237.15 902.95,235.44 904.80,233.73 906.65,232.02 908.50,230.31 910.35,228.59 912.20,226.87 914.05,225.14 915.90,223.40 917.75,221.66 919.60,219.90 921.45,218.12 923.30,216.34 925.15,214.54 927.00,212.73 928.85,210.91 930.70,209.07 932.55,207.21 934.40,205.35 936.25,203.47 938.10,201.58 939.95,199.68 941.80,197.78 943.65,195.87 945.50,193.95 947.35,192.04 949.20,190.12 951.05,188.22 952.90,186.31 954.75,184.42 956.60,182.55 958.45,180.69 960.30,178.86 962.15,177.05 964.00,175.27 965.85,173.53 967.70,171.83 969.55,170.17 971.40,168.57 973.25,167.01 975.10,165.52 976.95,164.09 978.80,162.73 980.65,161.45 982.50,160.24 984.35,159.12 986.20,158.08 988.05,157.14 989.90,156.30 991.75,155.56 993.60,154.93 995.45,154.41 997.30,154.00 999.15,153.71 1001.00,153.55 1002.85,153.51 1004.70,153.60 1006.55,153.82 1008.40,154.17 1010.25,154.66 1012.10,155.29 1013.95,156.06 1015.80,156.97 1017.65,158.02 1019.50,159.21 1021.35,160.55 1023.20,162.02 1025.05,163.64 1026.90,165.40 1028.75,167.30 1030.60,169.33 1032.45,171.50 1034.30,173.81 1036.15,176.24 1038.00,178.80 1039.85,181.48 1041.70,184.28 1043.55,187.20 1045.40,190.23 1047.25,193.36 1049.10,196.59 1050.95,199.92 1052.80,203.34 1054.65,206.84 1056.50,210.42 1058.35,214.08 1060.20,217.79 1062.05,221.57 1063.90,225.39 1065.75,229.26 1067.60,233.17 1069.45,237.11 1071.30,241.07 1073.15,245.05 1075.00,249.03 1076.85,253.02 1078.70,257.00 1080.55,260.97 1082.40,264.92 1084.25,268.84 1086.10,272.73 1087.95,276.57 1089.80,280.37 1091.65,284.12 1093.50,287.80 1095.35,291.43 1097.20,294.98 1099.05,298.45 1100.90,301.84 1102.75,305.14 1104.60,308.36 1106.45,311.48 1108.30,314.49 1110.15,317.41 1112.00,320.21 1113.85,322.91 1115.70,325.50 1117.55,327.97 1119.40,330.32 1121.25,332.56 1123.10,334.68 1124.95,336.67 1126.80,338.55 1128.65,340.30 1130.50,341.93 1132.35,343.44 1134.20,344.83 1136.05,346.11 1137.90,347.26 1139.75,348.30 1141.60,349.22 1143.45,350.03 1145.30,350.73 1147.15,351.33 1149.00,351.82 1150.85,352.20 1152.70,352.49 1154.55,352.69 1156.40,352.79 1158.25,352.80 1160.10,352.73 1161.95,352.58 1163.80,352.35 1165.65,352.05 1167.50,351.68 1169.35,351.24 1171.20,350.75 1173.05,350.19 1174.90,349.58 1176.75,348.91 1178.60,348.21 1180.45,347.45 1182.30,346.66 1184.15,345.83 1186.00,344.96" fill="none" stroke="#E69F00" stroke-width="2.4" stroke-opacity="0.95"/>
<polyline points="76.00,219.62 77.85,215.33 79.70,211.00 81.55,206.62 83.40,202.21 85.25,197.76 87.10,193.29 88.95,188.86 90.80,184.43 92.65,180.02 94.50,175.76 96.35,171.55 98.20,167.40 100.05,163.31 101.90,159.28 103.75,155.43 105.60,151.82 107.45,148.31 109.30,144.91 111.15,141.61 113.00,138.43 114.85,135.36 116.70,132.42 118.55,129.60 120.40,126.91 122.25,124.35 124.10,121.94 125.95,119.66 127.80,117.53 129.65,115.54 131.50,113.71 133.35,112.02 135.20,110.49 137.05,109.11 138.90,107.88 140.75,106.81 142.60,105.90 144.45,105.14 146.30,104.53 148.15,104.08 150.00,103.78 151.85,103.64 153.70,103.64 155.55,103.79 157.40,104.09 159.25,104.52 161.10,105.10 162.95,105.81 164.80,106.65 166.65,107.63 168.50,108.72 170.35,109.93 172.20,111.26 174.05,112.70 175.90,114.24 177.75,115.88 179.60,117.61 181.45,119.43 183.30,121.34 185.15,123.32 187.00,125.37 188.85,127.49 190.70,129.66 192.55,131.90 194.40,134.17 196.25,136.49 198.10,138.85 199.95,141.24 201.80,143.65 203.65,146.08 205.50,148.53 207.35,150.99 209.20,153.45 211.05,155.91 212.90,158.21 214.75,160.41 216.60,162.62 218.45,164.82 220.30,167.02 222.15,169.20 224.00,171.38 225.85,173.54 227.70,175.68 229.55,177.80 231.40,179.88 233.25,181.81 235.10,183.73 236.95,185.63 238.80,187.51 240.65,189.37 242.50,191.21 244.35,193.02 246.20,194.79 248.05,196.51 249.90,198.22 251.75,199.91 253.60,201.58 255.45,203.24 257.30,204.88 259.15,206.51 261.00,208.13 262.85,209.73 264.70,211.32 266.55,212.91 268.40,214.49 270.25,216.06 272.10,217.63 273.95,219.20 275.80,220.74 277.65,222.26 279.50,223.77 281.35,225.29 283.20,226.81 285.05,228.34 286.90,229.88 288.75,231.43 290.60,232.99 292.45,234.51 294.30,235.95 296.15,237.41 298.00,238.88 299.85,240.36 301.70,241.86 303.55,243.37 305.40,244.91 307.25,246.45 309.10,248.02 310.95,249.60 312.80,251.20 314.65,252.82 316.50,254.45 318.35,256.10 320.20,257.60 322.05,259.01 323.90,260.42 325.75,261.83 327.60,263.25 329.45,264.66 331.30,266.08 333.15,267.48 335.00,268.88 336.85,270.26 338.70,271.63 340.55,272.98 342.40,274.31 344.25,275.60 346.10,276.87 347.95,278.10 349.80,279.29 351.65,280.44 353.50,281.53 355.35,282.58 357.20,283.56 359.05,284.48 360.90,285.34 362.75,286.13 364.60,286.84 366.45,287.47 368.30,288.01 370.15,288.47 372.00,288.84 373.85,289.11 375.70,289.28 377.55,289.35 379.40,289.32 381.25,289.17 383.10,288.92 384.95,288.55 386.80,288.07 388.65,287.46 390.50,286.74 392.35,285.90 394.20,284.94 396.05,283.86 397.90,282.66 399.75,281.33 401.60,279.88 403.45,278.31 405.30,276.63 407.15,274.82 409.00,272.90 410.85,270.86 412.70,268.71 414.55,266.45 416.40,264.09 418.25,261.62 420.10,259.05 421.95,256.42 423.80,253.92 425.65,251.32 427.50,248.62 429.35,245.82 431.20,242.94 433.05,239.97 434.90,236.92 436.75,233.81 438.60,230.76 440.45,227.63 442.30,224.42 444.15,221.16 446.00,217.86 447.85,214.51 449.70,211.11 451.55,207.66 453.40,204.17 455.25,200.63 457.10,197.07 458.95,193.49 460.80,189.94 462.65,186.40 464.50,182.87 466.35,179.37 468.20,176.04 470.05,172.75 471.90,169.52 473.75,166.34 475.60,163.23 477.45,160.19 479.30,157.23 481.15,154.59 483.00,152.06 484.85,149.64 486.70,147.31 488.55,145.09 490.40,142.97 492.25,140.96 494.10,139.07 495.95,137.28 497.80,135.61 499.65,134.06 501.50,132.61 503.35,131.29 505.20,130.08 507.05,128.98 508.90,128.00 510.75,127.14 512.60,126.38 514.45,125.74 516.30,125.20 518.15,124.77 520.00,124.45 521.85,124.23 523.70,124.11 525.55,124.08 527.40,124.15 529.25,124.30 531.10,124.55 532.95,124.87 534.80,125.27 536.65,125.75 538.50,126.30 540.35,126.92 542.20,127.60 544.05,128.33 545.90,129.13 547.75,129.97 549.60,130.86 551.45,131.79 553.30,132.76 555.15,133.77 557.00,134.80 558.85,135.87 560.70,136.96 562.55,138.06 564.40,139.19 566.25,140.33 568.10,141.49 569.95,142.65 571.80,143.82 573.65,145.00 575.50,146.18 577.35,147.36 579.20,148.54 581.05,149.73 582.90,150.90 584.75,152.08 586.60,153.25 588.45,154.42 590.30,155.59 592.15,156.75 594.00,157.68 595.85,158.59 597.70,159.51 599.55,160.43 601.40,161.37 603.25,162.33 605.10,163.29 606.95,164.28 608.80,165.28 610.65,166.30 612.50,167.35 614.35,168.42 616.20,169.51 618.05,170.64 619.90,171.80 621.75,173.00 623.60,174.23 625.45,175.50 627.30,176.82 629.15,178.18 631.00,179.59 632.85,180.93 634.70,182.32 636.55,183.77 638.40,185.30 640.25,186.89 642.10,188.55 643.95,190.29 645.80,192.11 647.65,194.00 649.50,195.93 651.35,197.95 653.20,200.06 655.05,202.27 656.90,204.56 658.75,206.95 660.60,209.44 662.45,212.01 664.30,214.68 666.15,217.45 668.00,220.30 669.85,223.19 671.70,226.15 673.55,229.19 675.40,232.31 677.25,235.41 679.10,238.51 680.95,241.66 682.80,244.86 684.65,248.09 686.50,251.37 688.35,254.67 690.20,257.90 692.05,260.98 693.90,264.07 695.75,267.17 697.60,270.25 699.45,273.33 701.30,276.39 703.15,279.43 705.00,282.44 706.85,285.42 708.70,288.36 710.55,291.26 712.40,294.11 714.25,296.89 716.10,299.62 717.95,302.28 719.80,304.86 721.65,307.36 723.50,309.78 725.35,312.10 727.20,314.33 729.05,316.46 730.90,318.48 732.75,320.39 734.60,322.19 736.45,323.87 738.30,325.43 740.15,326.85 742.00,328.15 743.85,329.32 745.70,330.35 747.55,331.24 749.40,332.00 751.25,332.61 753.10,333.08 754.95,333.41 756.80,333.59 758.65,333.63 760.50,333.52 762.35,333.27 764.20,332.88 766.05,332.34 767.90,331.67 769.75,330.86 771.60,329.91 773.45,328.83 775.30,327.62 777.15,326.28 779.00,324.82 780.85,323.24 782.70,321.55 784.55,319.74 786.40,317.83 788.25,315.81 790.10,313.70 791.95,311.50 793.80,309.21 795.65,306.84 797.50,304.39 799.35,301.88 801.20,299.30 803.05,296.66 804.90,293.98 806.75,291.24 808.60,288.47 810.45,285.66 812.30,282.83 814.15,279.97 816.00,277.10 817.85,274.21 819.70,271.32 821.55,268.43 823.40,265.55 825.25,262.68 827.10,259.82 828.95,256.98 830.80,254.41 832.65,251.86 834.50,249.33 836.35,246.82 838.20,244.33 840.05,241.87 841.90,239.44 843.75,237.04 845.60,234.68 847.45,232.44 849.30,230.29 851.15,228.16 853.00,226.07 854.85,224.02 856.70,222.00 858.55,220.01 860.40,218.11 862.25,216.25 864.10,214.41 865.95,212.61 867.80,210.84 869.65,209.10 871.50,207.40 873.35,205.72 875.20,204.08 877.05,202.46 878.90,200.88 880.75,199.32 882.60,197.78 884.45,196.27 886.30,194.78 888.15,193.33 890.00,191.94 891.85,190.56 893.70,189.20 895.55,187.86 897.40,186.54 899.25,185.22 901.10,183.91 902.95,182.61 904.80,181.32 906.65,180.02 908.50,178.84 910.35,177.69 912.20,176.55 914.05,175.40 915.90,174.25 917.75,173.10 919.60,171.95 921.45,170.79 923.30,169.62 925.15,168.45 927.00,167.27 928.85,166.08 930.70,164.89 932.55,163.68 934.40,162.48 936.25,161.27 938.10,160.05 939.95,158.83 941.80,157.61 943.65,156.51 945.50,155.56 947.35,154.62 949.20,153.68 951.05,152.76 952.90,151.86 954.75,150.97 956.60,150.10 958.45,149.26 960.30,148.45 962.15,147.66 964.00,146.92 965.85,146.21 967.70,145.55 969.55,144.93 971.40,144.37 973.25,143.86 975.10,143.41 976.95,143.03 978.80,142.71 980.65,142.47 982.50,142.30 984.35,142.21 986.20,142.21 988.05,142.29 989.90,142.46 991.75,142.72 993.60,143.08 995.45,143.54 997.30,144.10 999.15,144.77 1001.00,145.54 1002.85,146.42 1004.70,147.41 1006.55,148.52 1008.40,149.73 1010.25,151.05 1012.10,152.49 1013.95,154.05 1015.80,155.71 1017.65,157.38 1019.50,159.02 1021.35,160.78 1023.20,162.66 1025.05,164.66 1026.90,166.79 1028.75,169.03 1030.60,171.38 1032.45,173.85 1034.30,176.42 1036.15,179.10 1038.00,181.76 1039.85,184.51 1041.70,187.37 1043.55,190.34 1045.40,193.41 1047.25,196.52 1049.10,199.74 1050.95,203.05 1052.80,206.45 1054.65,209.93 1056.50,213.49 1058.35,217.13 1060.20,220.81 1062.05,224.50 1063.90,228.23 1065.75,232.00 1067.60,235.70 1069.45,239.35 1071.30,242.98 1073.15,246.60 1075.00,250.20 1076.85,253.78 1078.70,257.29 1080.55,260.51 1082.40,263.67 1084.25,266.76 1086.10,269.78 1087.95,272.72 1089.80,275.57 1091.65,278.34 1093.50,281.02 1095.35,283.60 1097.20,286.08 1099.05,288.45 1100.90,290.72 1102.75,292.87 1104.60,294.91 1106.45,296.83 1108.30,298.64 1110.15,300.32 1112.00,301.88 1113.85,303.31 1115.70,304.62 1117.55,305.81 1119.40,306.87 1121.25,307.81 1123.10,308.62 1124.95,309.31 1126.80,309.88 1128.65,310.33 1130.50,310.65 1132.35,310.86 1134.20,310.96 1136.05,310.94 1137.90,310.82 1139.75,310.59 1141.60,310.25 1143.45,309.82 1145.30,309.29 1147.15,308.67 1149.00,307.97 1150.85,307.18 1152.70,306.31 1154.55,305.36 1156.40,304.34 1158.25,303.26 1160.10,302.12 1161.95,300.91 1163.80,299.66 1165.65,298.35 1167.50,297.01 1169.35,295.62 1171.20,294.19 1173.05,292.74 1174.90,291.25 1176.75,289.74 1178.60,288.21 1180.45,286.67 1182.30,285.11 1184.15,283.54 1186.00,281.96" fill="none" stroke="#56B4E9" stroke-width="2.4" stroke-opacity="0.95" stroke-dasharray="5 4"/>
<polyline points="76.00,219.62 77.85,215.33 79.70,211.00 81.55,206.63 83.40,202.21 85.25,197.76 87.10,193.29 88.95,188.83 90.80,184.39 92.65,180.00 94.50,175.67 96.35,171.41 98.20,167.24 100.05,163.19 101.90,159.26 103.75,155.46 105.60,151.81 107.45,148.32 109.30,144.99 111.15,141.84 113.00,138.87 114.85,136.08 116.70,133.47 118.55,131.06 120.40,128.83 122.25,126.80 124.10,124.95 125.95,123.29 127.80,121.82 129.65,120.52 131.50,119.41 133.35,118.46 135.20,117.69 137.05,117.08 138.90,116.63 140.75,116.33 142.60,116.18 144.45,116.18 146.30,116.31 148.15,116.57 150.00,116.96 151.85,117.47 153.70,118.10 155.55,118.83 157.40,119.67 159.25,120.61 161.10,121.64 162.95,122.76 164.80,123.96 166.65,125.24 168.50,126.60 170.35,128.02 172.20,129.51 174.05,131.06 175.90,132.66 177.75,134.32 179.60,136.03 181.45,137.77 183.30,139.56 185.15,141.39 187.00,143.24 188.85,145.13 190.70,147.04 192.55,148.97 194.40,150.92 196.25,152.88 198.10,154.86 199.95,156.85 201.80,158.84 203.65,160.84 205.50,162.84 207.35,164.83 209.20,166.83 211.05,168.82 212.90,170.80 214.75,172.77 216.60,174.73 218.45,176.68 220.30,178.61 222.15,180.53 224.00,182.43 225.85,184.31 227.70,186.18 229.55,188.02 231.40,189.85 233.25,191.66 235.10,193.45 236.95,195.21 238.80,196.96 240.65,198.69 242.50,200.41 244.35,202.10 246.20,203.78 248.05,205.45 249.90,207.10 251.75,208.74 253.60,210.36 255.45,211.98 257.30,213.57 259.15,215.15 261.00,216.71 262.85,218.26 264.70,219.79 266.55,221.31 268.40,222.81 270.25,224.29 272.10,225.76 273.95,227.21 275.80,228.66 277.65,230.09 279.50,231.51 281.35,232.93 283.20,234.33 285.05,235.73 286.90,237.12 288.75,238.51 290.60,239.90 292.45,241.28 294.30,242.66 296.15,244.04 298.00,245.42 299.85,246.79 301.70,248.17 303.55,249.55 305.40,250.92 307.25,252.30 309.10,253.67 310.95,255.04 312.80,256.40 314.65,257.76 316.50,259.12 318.35,260.46 320.20,261.79 322.05,263.12 323.90,264.42 325.75,265.71 327.60,266.98 329.45,268.23 331.30,269.45 333.15,270.65 335.00,271.81 336.85,272.94 338.70,274.04 340.55,275.09 342.40,276.10 344.25,277.07 346.10,277.98 347.95,278.84 349.80,279.65 351.65,280.40 353.50,281.09 355.35,281.71 357.20,282.27 359.05,282.76 360.90,283.18 362.75,283.53 364.60,283.79 366.45,283.99 368.30,284.10 370.15,284.13 372.00,284.08 373.85,283.94 375.70,283.72 377.55,283.41 379.40,283.02 381.25,282.53 383.10,281.96 384.95,281.30 386.80,280.55 388.65,279.71 390.50,278.78 392.35,277.76 394.20,276.65 396.05,275.45 397.90,274.16 399.75,272.79 401.60,271.33 403.45,269.78 405.30,268.14 407.15,266.42 409.00,264.62 410.85,262.73 412.70,260.76 414.55,258.71 416.40,256.58 418.25,254.37 420.10,252.09 421.95,249.73 423.80,247.29 425.65,244.78 427.50,242.20 429.35,239.55 431.20,236.83 433.05,234.04 434.90,231.18 436.75,228.26 438.60,225.27 440.45,222.22 442.30,219.10 444.15,215.92 446.00,212.68 447.85,209.38 449.70,206.01 451.55,202.58 453.40,199.11 455.25,195.61 457.10,192.09 458.95,188.57 460.80,185.07 462.65,181.59 464.50,178.15 466.35,174.76 468.20,171.45 470.05,168.21 471.90,165.06 473.75,162.02 475.60,159.08 477.45,156.26 479.30,153.56 481.15,150.99 483.00,148.56 484.85,146.27 486.70,144.12 488.55,142.12 490.40,140.26 492.25,138.54 494.10,136.97 495.95,135.54 497.80,134.26 499.65,133.12 501.50,132.11 503.35,131.24 505.20,130.49 507.05,129.87 508.90,129.38 510.75,129.00 512.60,128.73 514.45,128.57 516.30,128.51 518.15,128.55 520.00,128.69 521.85,128.91 523.70,129.21 525.55,129.59 527.40,130.04 529.25,130.56 531.10,131.14 532.95,131.78 534.80,132.47 536.65,133.21 538.50,134.00 540.35,134.82 542.20,135.68 544.05,136.58 545.90,137.50 547.75,138.44 549.60,139.41 551.45,140.39 553.30,141.39 555.15,142.40 557.00,143.42 558.85,144.44 560.70,145.47 562.55,146.50 564.40,147.53 566.25,148.55 568.10,149.57 569.95,150.59 571.80,151.60 573.65,152.60 575.50,153.59 577.35,154.57 579.20,155.54 581.05,156.50 582.90,157.45 584.75,158.39 586.60,159.31 588.45,160.23 590.30,161.15 592.15,162.05 594.00,162.95 595.85,163.84 597.70,164.73 599.55,165.62 601.40,166.50 603.25,167.39 605.10,168.29 606.95,169.19 608.80,170.10 610.65,171.02 612.50,171.96 614.35,172.92 616.20,173.89 618.05,174.89 619.90,175.92 621.75,176.97 623.60,178.06 625.45,179.18 627.30,180.35 629.15,181.56 631.00,182.81 632.85,184.12 634.70,185.48 636.55,186.89 638.40,188.37 640.25,189.91 642.10,191.52 643.95,193.20 645.80,194.95 647.65,196.78 649.50,198.70 651.35,200.69 653.20,202.78 655.05,204.96 656.90,207.24 658.75,209.62 660.60,212.09 662.45,214.66 664.30,217.31 666.15,220.05 668.00,222.86 669.85,225.75 671.70,228.70 673.55,231.70 675.40,234.76 677.25,237.85 679.10,240.97 680.95,244.11 682.80,247.27 684.65,250.43 686.50,253.57 688.35,256.71 690.20,259.81 692.05,262.88 693.90,265.90 695.75,268.87 697.60,271.77 699.45,274.60 701.30,277.36 703.15,280.02 705.00,282.60 706.85,285.08 708.70,287.45 710.55,289.72 712.40,291.87 714.25,293.91 716.10,295.83 717.95,297.62 719.80,299.30 721.65,300.84 723.50,302.27 725.35,303.56 727.20,304.73 729.05,305.77 730.90,306.68 732.75,307.47 734.60,308.14 736.45,308.68 738.30,309.10 740.15,309.40 742.00,309.58 743.85,309.65 745.70,309.60 747.55,309.44 749.40,309.18 751.25,308.80 753.10,308.33 754.95,307.75 756.80,307.08 758.65,306.31 760.50,305.44 762.35,304.49 764.20,303.46 766.05,302.34 767.90,301.14 769.75,299.86 771.60,298.51 773.45,297.09 775.30,295.60 777.15,294.04 779.00,292.43 780.85,290.75 782.70,289.02 784.55,287.24 786.40,285.41 788.25,283.54 790.10,281.62 791.95,279.66 793.80,277.66 795.65,275.63 797.50,273.57 799.35,271.48 801.20,269.37 803.05,267.23 804.90,265.07 806.75,262.90 808.60,260.72 810.45,258.52 812.30,256.32 814.15,254.11 816.00,251.89 817.85,249.68 819.70,247.47 821.55,245.26 823.40,243.05 825.25,240.86 827.10,238.67 828.95,236.50 830.80,234.34 832.65,232.20 834.50,230.07 836.35,227.96 838.20,225.87 840.05,223.80 841.90,221.75 843.75,219.73 845.60,217.72 847.45,215.75 849.30,213.79 851.15,211.86 853.00,209.95 854.85,208.07 856.70,206.21 858.55,204.37 860.40,202.56 862.25,200.78 864.10,199.03 865.95,197.32 867.80,195.65 869.65,194.01 871.50,192.41 873.35,190.86 875.20,189.34 877.05,187.87 878.90,186.43 880.75,185.04 882.60,183.68 884.45,182.36 886.30,181.08 888.15,179.83 890.00,178.62 891.85,177.43 893.70,176.28 895.55,175.16 897.40,174.06 899.25,172.98 901.10,171.93 902.95,170.90 904.80,169.88 906.65,168.88 908.50,167.89 910.35,166.92 912.20,165.96 914.05,165.01 915.90,164.06 917.75,163.12 919.60,162.19 921.45,161.26 923.30,160.34 925.15,159.43 927.00,158.52 928.85,157.61 930.70,156.71 932.55,155.81 934.40,154.93 936.25,154.05 938.10,153.18 939.95,152.31 941.80,151.47 943.65,150.63 945.50,149.82 947.35,149.02 949.20,148.24 951.05,147.48 952.90,146.75 954.75,146.05 956.60,145.38 958.45,144.74 960.30,144.15 962.15,143.59 964.00,143.07 965.85,142.60 967.70,142.18 969.55,141.81 971.40,141.49 973.25,141.23 975.10,141.03 976.95,140.90 978.80,140.83 980.65,140.83 982.50,140.89 984.35,141.03 986.20,141.25 988.05,141.54 989.90,141.91 991.75,142.36 993.60,142.89 995.45,143.50 997.30,144.20 999.15,144.98 1001.00,145.85 1002.85,146.81 1004.70,147.86 1006.55,149.00 1008.40,150.22 1010.25,151.54 1012.10,152.95 1013.95,154.45 1015.80,156.03 1017.65,157.72 1019.50,159.49 1021.35,161.35 1023.20,163.30 1025.05,165.35 1026.90,167.48 1028.75,169.70 1030.60,172.02 1032.45,174.42 1034.30,176.92 1036.15,179.50 1038.00,182.17 1039.85,184.94 1041.70,187.79 1043.55,190.73 1045.40,193.76 1047.25,196.88 1049.10,200.09 1050.95,203.39 1052.80,206.78 1054.65,210.27 1056.50,213.83 1058.35,217.47 1060.20,221.15 1062.05,224.87 1063.90,228.61 1065.75,232.36 1067.60,236.09 1069.45,239.80 1071.30,243.47 1073.15,247.09 1075.00,250.64 1076.85,254.10 1078.70,257.48 1080.55,260.75 1082.40,263.91 1084.25,266.95 1086.10,269.85 1087.95,272.62 1089.80,275.25 1091.65,277.73 1093.50,280.06 1095.35,282.24 1097.20,284.26 1099.05,286.13 1100.90,287.85 1102.75,289.41 1104.60,290.82 1106.45,292.08 1108.30,293.19 1110.15,294.16 1112.00,294.99 1113.85,295.68 1115.70,296.24 1117.55,296.67 1119.40,296.98 1121.25,297.16 1123.10,297.24 1124.95,297.20 1126.80,297.06 1128.65,296.82 1130.50,296.49 1132.35,296.07 1134.20,295.56 1136.05,294.98 1137.90,294.32 1139.75,293.59 1141.60,292.79 1143.45,291.93 1145.30,291.02 1147.15,290.06 1149.00,289.05 1150.85,287.99 1152.70,286.90 1154.55,285.77 1156.40,284.61 1158.25,283.43 1160.10,282.21 1161.95,280.98 1163.80,279.73 1165.65,278.47 1167.50,277.19 1169.35,275.91 1171.20,274.62 1173.05,273.33 1174.90,272.03 1176.75,270.74 1178.60,269.45 1180.45,268.17 1182.30,266.90 1184.15,265.63 1186.00,264.37" fill="none" stroke="#0072B2" stroke-width="2.3" stroke-opacity="0.95" stroke-dasharray="2 4"/>
<polyline points="76.00,219.62 77.85,215.33 79.70,211.00 81.55,206.63 83.40,202.21 85.25,197.76 87.10,193.29 88.95,188.83 90.80,184.39 92.65,180.00 94.50,175.67 96.35,171.41 98.20,167.24 100.05,163.19 101.90,159.26 103.75,155.46 105.60,151.81 107.45,148.32 109.30,144.99 111.15,141.84 113.00,138.87 114.85,136.08 116.70,133.47 118.55,131.06 120.40,128.83 122.25,126.80 124.10,124.95 125.95,123.29 127.80,121.82 129.65,120.52 131.50,119.41 133.35,118.46 135.20,117.69 137.05,117.08 138.90,116.63 140.75,116.33 142.60,116.18 144.45,116.18 146.30,116.31 148.15,116.57 150.00,116.96 151.85,117.47 153.70,118.10 155.55,118.83 157.40,119.67 159.25,120.61 161.10,121.64 162.95,122.76 164.80,123.96 166.65,125.24 168.50,126.60 170.35,128.02 172.20,129.51 174.05,131.06 175.90,132.66 177.75,134.32 179.60,136.03 181.45,137.77 183.30,139.56 185.15,141.39 187.00,143.24 188.85,145.13 190.70,147.04 192.55,148.97 194.40,150.92 196.25,152.88 198.10,154.86 199.95,156.85 201.80,158.84 203.65,160.84 205.50,162.84 207.35,164.83 209.20,166.83 211.05,168.82 212.90,170.80 214.75,172.77 216.60,174.73 218.45,176.68 220.30,178.61 222.15,180.53 224.00,182.43 225.85,184.31 227.70,186.18 229.55,188.02 231.40,189.85 233.25,191.66 235.10,193.45 236.95,195.21 238.80,196.96 240.65,198.69 242.50,200.41 244.35,202.10 246.20,203.78 248.05,205.45 249.90,207.10 251.75,208.74 253.60,210.36 255.45,211.98 257.30,213.57 259.15,215.15 261.00,216.71 262.85,218.26 264.70,219.79 266.55,221.31 268.40,222.81 270.25,224.29 272.10,225.76 273.95,227.21 275.80,228.66 277.65,230.09 279.50,231.51 281.35,232.93 283.20,234.33 285.05,235.73 286.90,237.12 288.75,238.51 290.60,239.90 292.45,241.28 294.30,242.66 296.15,244.04 298.00,245.42 299.85,246.79 301.70,248.17 303.55,249.55 305.40,250.92 307.25,252.30 309.10,253.67 310.95,255.04 312.80,256.40 314.65,257.76 316.50,259.12 318.35,260.46 320.20,261.79 322.05,263.12 323.90,264.42 325.75,265.71 327.60,266.98 329.45,268.23 331.30,269.45 333.15,270.65 335.00,271.81 336.85,272.94 338.70,274.04 340.55,275.09 342.40,276.10 344.25,277.07 346.10,277.98 347.95,278.84 349.80,279.65 351.65,280.40 353.50,281.09 355.35,281.71 357.20,282.27 359.05,282.76 360.90,283.18 362.75,283.53 364.60,283.79 366.45,283.99 368.30,284.10 370.15,284.13 372.00,284.08 373.85,283.94 375.70,283.72 377.55,283.41 379.40,283.02 381.25,282.53 383.10,281.96 384.95,281.30 386.80,280.55 388.65,279.71 390.50,278.78 392.35,277.76 394.20,276.65 396.05,275.45 397.90,274.16 399.75,272.79 401.60,271.33 403.45,269.78 405.30,268.14 407.15,266.42 409.00,264.62 410.85,262.73 412.70,260.76 414.55,258.71 416.40,256.58 418.25,254.37 420.10,252.09 421.95,249.73 423.80,247.29 425.65,244.78 427.50,242.20 429.35,239.55 431.20,236.83 433.05,234.04 434.90,231.18 436.75,228.26 438.60,225.27 440.45,222.22 442.30,219.10 444.15,215.92 446.00,212.68 447.85,209.38 449.70,206.01 451.55,202.58 453.40,199.11 455.25,195.61 457.10,192.09 458.95,188.57 460.80,185.07 462.65,181.59 464.50,178.15 466.35,174.76 468.20,171.45 470.05,168.21 471.90,165.06 473.75,162.02 475.60,159.08 477.45,156.26 479.30,153.56 481.15,150.99 483.00,148.56 484.85,146.27 486.70,144.12 488.55,142.12 490.40,140.26 492.25,138.54 494.10,136.97 495.95,135.54 497.80,134.26 499.65,133.12 501.50,132.11 503.35,131.24 505.20,130.49 507.05,129.87 508.90,129.38 510.75,129.00 512.60,128.73 514.45,128.57 516.30,128.51 518.15,128.55 520.00,128.69 521.85,128.91 523.70,129.21 525.55,129.59 527.40,130.04 529.25,130.56 531.10,131.14 532.95,131.78 534.80,132.47 536.65,133.21 538.50,134.00 540.35,134.82 542.20,135.68 544.05,136.58 545.90,137.50 547.75,138.44 549.60,139.41 551.45,140.39 553.30,141.39 555.15,142.40 557.00,143.42 558.85,144.44 560.70,145.47 562.55,146.50 564.40,147.53 566.25,148.55 568.10,149.57 569.95,150.59 571.80,151.60 573.65,152.60 575.50,153.59 577.35,154.57 579.20,155.54 581.05,156.50 582.90,157.45 584.75,158.39 586.60,159.31 588.45,160.23 590.30,161.15 592.15,162.05 594.00,162.95 595.85,163.84 597.70,164.73 599.55,165.62 601.40,166.50 603.25,167.39 605.10,168.29 606.95,169.19 608.80,170.10 610.65,171.02 612.50,171.96 614.35,172.92 616.20,173.89 618.05,174.89 619.90,175.92 621.75,176.97 623.60,178.06 625.45,179.18 627.30,180.35 629.15,181.56 631.00,182.81 632.85,184.12 634.70,185.48 636.55,186.89 638.40,188.37 640.25,189.91 642.10,191.52 643.95,193.20 645.80,194.95 647.65,196.78 649.50,198.70 651.35,200.69 653.20,202.78 655.05,204.96 656.90,207.24 658.75,209.62 660.60,212.09 662.45,214.66 664.30,217.31 666.15,220.05 668.00,222.86 669.85,225.75 671.70,228.70 673.55,231.70 675.40,234.76 677.25,237.85 679.10,240.97 680.95,244.11 682.80,247.27 684.65,250.43 686.50,253.57 688.35,256.71 690.20,259.81 692.05,262.88 693.90,265.90 695.75,268.87 697.60,271.77 699.45,274.60 701.30,277.36 703.15,280.02 705.00,282.60 706.85,285.08 708.70,287.45 710.55,289.72 712.40,291.87 714.25,293.91 716.10,295.83 717.95,297.62 719.80,299.30 721.65,300.84 723.50,302.27 725.35,303.56 727.20,304.73 729.05,305.77 730.90,306.68 732.75,307.47 734.60,308.14 736.45,308.68 738.30,309.10 740.15,309.40 742.00,309.58 743.85,309.65 745.70,309.60 747.55,309.44 749.40,309.18 751.25,308.80 753.10,308.33 754.95,307.75 756.80,307.08 758.65,306.31 760.50,305.44 762.35,304.49 764.20,303.46 766.05,302.34 767.90,301.14 769.75,299.86 771.60,298.51 773.45,297.09 775.30,295.60 777.15,294.04 779.00,292.43 780.85,290.75 782.70,289.02 784.55,287.24 786.40,285.41 788.25,283.54 790.10,281.62 791.95,279.66 793.80,277.66 795.65,275.63 797.50,273.57 799.35,271.48 801.20,269.37 803.05,267.23 804.90,265.07 806.75,262.90 808.60,260.72 810.45,258.52 812.30,256.32 814.15,254.11 816.00,251.89 817.85,249.68 819.70,247.47 821.55,245.26 823.40,243.05 825.25,240.86 827.10,238.67 828.95,236.50 830.80,234.34 832.65,232.20 834.50,230.07 836.35,227.96 838.20,225.87 840.05,223.80 841.90,221.75 843.75,219.73 845.60,217.72 847.45,215.75 849.30,213.79 851.15,211.86 853.00,209.95 854.85,208.07 856.70,206.21 858.55,204.37 860.40,202.56 862.25,200.78 864.10,199.03 865.95,197.32 867.80,195.65 869.65,194.01 871.50,192.41 873.35,190.86 875.20,189.34 877.05,187.87 878.90,186.43 880.75,185.04 882.60,183.68 884.45,182.36 886.30,181.08 888.15,179.83 890.00,178.62 891.85,177.43 893.70,176.28 895.55,175.16 897.40,174.06 899.25,172.98 901.10,171.93 902.95,170.90 904.80,169.88 906.65,168.88 908.50,167.89 910.35,166.92 912.20,165.96 914.05,165.01 915.90,164.06 917.75,163.12 919.60,162.19 921.45,161.26 923.30,160.34 925.15,159.43 927.00,158.52 928.85,157.61 930.70,156.71 932.55,155.81 934.40,154.93 936.25,154.05 938.10,153.18 939.95,152.31 941.80,151.47 943.65,150.63 945.50,149.82 947.35,149.02 949.20,148.24 951.05,147.48 952.90,146.75 954.75,146.05 956.60,145.38 958.45,144.74 960.30,144.15 962.15,143.59 964.00,143.07 965.85,142.60 967.70,142.18 969.55,141.81 971.40,141.49 973.25,141.23 975.10,141.03 976.95,140.90 978.80,140.83 980.65,140.83 982.50,140.89 984.35,141.03 986.20,141.25 988.05,141.54 989.90,141.91 991.75,142.36 993.60,142.89 995.45,143.50 997.30,144.20 999.15,144.98 1001.00,145.85 1002.85,146.81 1004.70,147.86 1006.55,149.00 1008.40,150.22 1010.25,151.54 1012.10,152.95 1013.95,154.45 1015.80,156.03 1017.65,157.72 1019.50,159.49 1021.35,161.35 1023.20,163.30 1025.05,165.35 1026.90,167.48 1028.75,169.70 1030.60,172.02 1032.45,174.42 1034.30,176.92 1036.15,179.50 1038.00,182.17 1039.85,184.94 1041.70,187.79 1043.55,190.73 1045.40,193.76 1047.25,196.88 1049.10,200.09 1050.95,203.39 1052.80,206.78 1054.65,210.27 1056.50,213.83 1058.35,217.47 1060.20,221.15 1062.05,224.87 1063.90,228.61 1065.75,232.36 1067.60,236.09 1069.45,239.80 1071.30,243.47 1073.15,247.09 1075.00,250.64 1076.85,254.10 1078.70,257.48 1080.55,260.75 1082.40,263.91 1084.25,266.95 1086.10,269.85 1087.95,272.62 1089.80,275.25 1091.65,277.73 1093.50,280.06 1095.35,282.24 1097.20,284.26 1099.05,286.13 1100.90,287.85 1102.75,289.41 1104.60,290.82 1106.45,292.08 1108.30,293.19 1110.15,294.16 1112.00,294.99 1113.85,295.68 1115.70,296.24 1117.55,296.67 1119.40,296.98 1121.25,297.16 1123.10,297.24 1124.95,297.20 1126.80,297.06 1128.65,296.82 1130.50,296.49 1132.35,296.07 1134.20,295.56 1136.05,294.98 1137.90,294.32 1139.75,293.59 1141.60,292.79 1143.45,291.93 1145.30,291.02 1147.15,290.06 1149.00,289.05 1150.85,287.99 1152.70,286.90 1154.55,285.77 1156.40,284.61 1158.25,283.43 1160.10,282.21 1161.95,280.98 1163.80,279.73 1165.65,278.47 1167.50,277.19 1169.35,275.91 1171.20,274.62 1173.05,273.33 1174.90,272.03 1176.75,270.74 1178.60,269.45 1180.45,268.17 1182.30,266.90 1184.15,265.63 1186.00,264.37" fill="none" stroke="#CC79A7" stroke-width="2.3" stroke-opacity="0.95" stroke-dasharray="10 3 2 3"/>
<polyline points="76.00,219.62 77.85,215.33 79.70,211.00 81.55,206.63 83.40,202.21 85.25,197.76 87.10,193.29 88.95,188.83 90.80,184.39 92.65,180.00 94.50,175.67 96.35,171.41 98.20,167.24 100.05,163.19 101.90,159.26 103.75,155.46 105.60,151.81 107.45,148.32 109.30,144.99 111.15,141.84 113.00,138.87 114.85,136.08 116.70,133.47 118.55,131.06 120.40,128.83 122.25,126.80 124.10,124.95 125.95,123.29 127.80,121.82 129.65,120.52 131.50,119.41 133.35,118.46 135.20,117.69 137.05,117.08 138.90,116.63 140.75,116.33 142.60,116.18 144.45,116.18 146.30,116.31 148.15,116.57 150.00,116.96 151.85,117.47 153.70,118.10 155.55,118.83 157.40,119.67 159.25,120.61 161.10,121.64 162.95,122.76 164.80,123.96 166.65,125.24 168.50,126.60 170.35,128.02 172.20,129.51 174.05,131.06 175.90,132.66 177.75,134.32 179.60,136.03 181.45,137.77 183.30,139.56 185.15,141.39 187.00,143.24 188.85,145.13 190.70,147.04 192.55,148.97 194.40,150.92 196.25,152.88 198.10,154.86 199.95,156.85 201.80,158.84 203.65,160.84 205.50,162.84 207.35,164.83 209.20,166.83 211.05,168.82 212.90,170.80 214.75,172.77 216.60,174.73 218.45,176.68 220.30,178.61 222.15,180.53 224.00,182.43 225.85,184.31 227.70,186.18 229.55,188.02 231.40,189.85 233.25,191.66 235.10,193.45 236.95,195.21 238.80,196.96 240.65,198.69 242.50,200.41 244.35,202.10 246.20,203.78 248.05,205.45 249.90,207.10 251.75,208.74 253.60,210.36 255.45,211.98 257.30,213.57 259.15,215.15 261.00,216.71 262.85,218.26 264.70,219.79 266.55,221.31 268.40,222.81 270.25,224.29 272.10,225.76 273.95,227.21 275.80,228.66 277.65,230.09 279.50,231.51 281.35,232.93 283.20,234.33 285.05,235.73 286.90,237.12 288.75,238.51 290.60,239.90 292.45,241.28 294.30,242.66 296.15,244.04 298.00,245.42 299.85,246.79 301.70,248.17 303.55,249.55 305.40,250.92 307.25,252.30 309.10,253.67 310.95,255.04 312.80,256.40 314.65,257.76 316.50,259.12 318.35,260.46 320.20,261.79 322.05,263.12 323.90,264.42 325.75,265.71 327.60,266.98 329.45,268.23 331.30,269.45 333.15,270.65 335.00,271.81 336.85,272.94 338.70,274.04 340.55,275.09 342.40,276.10 344.25,277.07 346.10,277.98 347.95,278.84 349.80,279.65 351.65,280.40 353.50,281.09 355.35,281.71 357.20,282.27 359.05,282.76 360.90,283.18 362.75,283.53 364.60,283.79 366.45,283.99 368.30,284.10 370.15,284.13 372.00,284.08 373.85,283.94 375.70,283.72 377.55,283.41 379.40,283.02 381.25,282.53 383.10,281.96 384.95,281.30 386.80,280.55 388.65,279.71 390.50,278.78 392.35,277.76 394.20,276.65 396.05,275.45 397.90,274.16 399.75,272.79 401.60,271.33 403.45,269.78 405.30,268.14 407.15,266.42 409.00,264.62 410.85,262.73 412.70,260.76 414.55,258.71 416.40,256.58 418.25,254.37 420.10,252.09 421.95,249.73 423.80,247.29 425.65,244.78 427.50,242.20 429.35,239.55 431.20,236.83 433.05,234.04 434.90,231.18 436.75,228.26 438.60,225.27 440.45,222.22 442.30,219.10 444.15,215.92 446.00,212.68 447.85,209.38 449.70,206.01 451.55,202.58 453.40,199.11 455.25,195.61 457.10,192.09 458.95,188.57 460.80,185.07 462.65,181.59 464.50,178.15 466.35,174.76 468.20,171.45 470.05,168.21 471.90,165.06 473.75,162.02 475.60,159.08 477.45,156.26 479.30,153.56 481.15,150.99 483.00,148.56 484.85,146.27 486.70,144.12 488.55,142.12 490.40,140.26 492.25,138.54 494.10,136.97 495.95,135.54 497.80,134.26 499.65,133.12 501.50,132.11 503.35,131.24 505.20,130.49 507.05,129.87 508.90,129.38 510.75,129.00 512.60,128.73 514.45,128.57 516.30,128.51 518.15,128.55 520.00,128.69 521.85,128.91 523.70,129.21 525.55,129.59 527.40,130.04 529.25,130.56 531.10,131.14 532.95,131.78 534.80,132.47 536.65,133.21 538.50,134.00 540.35,134.82 542.20,135.68 544.05,136.58 545.90,137.50 547.75,138.44 549.60,139.41 551.45,140.39 553.30,141.39 555.15,142.40 557.00,143.42 558.85,144.44 560.70,145.47 562.55,146.50 564.40,147.53 566.25,148.55 568.10,149.57 569.95,150.59 571.80,151.60 573.65,152.60 575.50,153.59 577.35,154.57 579.20,155.54 581.05,156.50 582.90,157.45 584.75,158.39 586.60,159.31 588.45,160.23 590.30,161.15 592.15,162.05 594.00,162.95 595.85,163.84 597.70,164.73 599.55,165.62 601.40,166.50 603.25,167.39 605.10,168.29 606.95,169.19 608.80,170.10 610.65,171.02 612.50,171.96 614.35,172.92 616.20,173.89 618.05,174.89 619.90,175.92 621.75,176.97 623.60,178.06 625.45,179.18 627.30,180.35 629.15,181.56 631.00,182.81 632.85,184.12 634.70,185.48 636.55,186.89 638.40,188.37 640.25,189.91 642.10,191.52 643.95,193.20 645.80,194.95 647.65,196.78 649.50,198.70 651.35,200.69 653.20,202.78 655.05,204.96 656.90,207.24 658.75,209.62 660.60,212.09 662.45,214.66 664.30,217.31 666.15,220.05 668.00,222.86 669.85,225.75 671.70,228.70 673.55,231.70 675.40,234.76 677.25,237.85 679.10,240.97 680.95,244.11 682.80,247.27 684.65,250.43 686.50,253.57 688.35,256.71 690.20,259.81 692.05,262.88 693.90,265.90 695.75,268.87 697.60,271.77 699.45,274.60 701.30,277.36 703.15,280.02 705.00,282.60 706.85,285.08 708.70,287.45 710.55,289.72 712.40,291.87 714.25,293.91 716.10,295.83 717.95,297.62 719.80,299.30 721.65,300.84 723.50,302.27 725.35,303.56 727.20,304.73 729.05,305.77 730.90,306.68 732.75,307.47 734.60,308.14 736.45,308.68 738.30,309.10 740.15,309.40 742.00,309.58 743.85,309.65 745.70,309.60 747.55,309.44 749.40,309.18 751.25,308.80 753.10,308.33 754.95,307.75 756.80,307.08 758.65,306.31 760.50,305.44 762.35,304.49 764.20,303.46 766.05,302.34 767.90,301.14 769.75,299.86 771.60,298.51 773.45,297.09 775.30,295.60 777.15,294.04 779.00,292.43 780.85,290.75 782.70,289.02 784.55,287.24 786.40,285.41 788.25,283.54 790.10,281.62 791.95,279.66 793.80,277.66 795.65,275.63 797.50,273.57 799.35,271.48 801.20,269.37 803.05,267.23 804.90,265.07 806.75,262.90 808.60,260.72 810.45,258.52 812.30,256.32 814.15,254.11 816.00,251.89 817.85,249.68 819.70,247.47 821.55,245.26 823.40,243.05 825.25,240.86 827.10,238.67 828.95,236.50 830.80,234.34 832.65,232.20 834.50,230.07 836.35,227.96 838.20,225.87 840.05,223.80 841.90,221.75 843.75,219.73 845.60,217.72 847.45,215.75 849.30,213.79 851.15,211.86 853.00,209.95 854.85,208.07 856.70,206.21 858.55,204.37 860.40,202.56 862.25,200.78 864.10,199.03 865.95,197.32 867.80,195.65 869.65,194.01 871.50,192.41 873.35,190.86 875.20,189.34 877.05,187.87 878.90,186.43 880.75,185.04 882.60,183.68 884.45,182.36 886.30,181.08 888.15,179.83 890.00,178.62 891.85,177.43 893.70,176.28 895.55,175.16 897.40,174.06 899.25,172.98 901.10,171.93 902.95,170.90 904.80,169.88 906.65,168.88 908.50,167.89 910.35,166.92 912.20,165.96 914.05,165.01 915.90,164.06 917.75,163.12 919.60,162.19 921.45,161.26 923.30,160.34 925.15,159.43 927.00,158.52 928.85,157.61 930.70,156.71 932.55,155.81 934.40,154.93 936.25,154.05 938.10,153.18 939.95,152.31 941.80,151.47 943.65,150.63 945.50,149.82 947.35,149.02 949.20,148.24 951.05,147.48 952.90,146.75 954.75,146.05 956.60,145.38 958.45,144.74 960.30,144.15 962.15,143.59 964.00,143.07 965.85,142.60 967.70,142.18 969.55,141.81 971.40,141.49 973.25,141.23 975.10,141.03 976.95,140.90 978.80,140.83 980.65,140.83 982.50,140.89 984.35,141.03 986.20,141.25 988.05,141.54 989.90,141.91 991.75,142.36 993.60,142.89 995.45,143.50 997.30,144.20 999.15,144.98 1001.00,145.85 1002.85,146.81 1004.70,147.86 1006.55,149.00 1008.40,150.22 1010.25,151.54 1012.10,152.95 1013.95,154.45 1015.80,156.03 1017.65,157.72 1019.50,159.49 1021.35,161.35 1023.20,163.30 1025.05,165.35 1026.90,167.48 1028.75,169.70 1030.60,172.02 1032.45,174.42 1034.30,176.92 1036.15,179.50 1038.00,182.17 1039.85,184.94 1041.70,187.79 1043.55,190.73 1045.40,193.76 1047.25,196.88 1049.10,200.09 1050.95,203.39 1052.80,206.78 1054.65,210.27 1056.50,213.83 1058.35,217.47 1060.20,221.15 1062.05,224.87 1063.90,228.61 1065.75,232.36 1067.60,236.09 1069.45,239.80 1071.30,243.47 1073.15,247.09 1075.00,250.64 1076.85,254.10 1078.70,257.48 1080.55,260.75 1082.40,263.91 1084.25,266.95 1086.10,269.85 1087.95,272.62 1089.80,275.25 1091.65,277.73 1093.50,280.06 1095.35,282.24 1097.20,284.26 1099.05,286.13 1100.90,287.85 1102.75,289.41 1104.60,290.82 1106.45,292.08 1108.30,293.19 1110.15,294.16 1112.00,294.99 1113.85,295.68 1115.70,296.24 1117.55,296.67 1119.40,296.98 1121.25,297.16 1123.10,297.24 1124.95,297.20 1126.80,297.06 1128.65,296.82 1130.50,296.49 1132.35,296.07 1134.20,295.56 1136.05,294.98 1137.90,294.32 1139.75,293.59 1141.60,292.79 1143.45,291.93 1145.30,291.02 1147.15,290.06 1149.00,289.05 1150.85,287.99 1152.70,286.90 1154.55,285.77 1156.40,284.61 1158.25,283.43 1160.10,282.21 1161.95,280.98 1163.80,279.73 1165.65,278.47 1167.50,277.19 1169.35,275.91 1171.20,274.62 1173.05,273.33 1174.90,272.03 1176.75,270.74 1178.60,269.45 1180.45,268.17 1182.30,266.90 1184.15,265.63 1186.00,264.37" fill="none" stroke="#009E73" stroke-width="2.8" stroke-opacity="1.0" stroke-dasharray="12 5"/>
<line x1="88" y1="54" x2="110" y2="54" stroke="#4D4D4D" stroke-width="3.2" stroke-opacity="0.55"/>
<text x="116" y="58" font-family="Arial, Noto Sans CJK SC, Microsoft YaHei, sans-serif" font-size="12">Reference velocity-dependent drag</text>
<line x1="88" y1="72" x2="110" y2="72" stroke="#E69F00" stroke-width="2.4" stroke-opacity="0.95"/>
<text x="116" y="76" font-family="Arial, Noto Sans CJK SC, Microsoft YaHei, sans-serif" font-size="12">Local linear drag model</text>
<line x1="88" y1="90" x2="110" y2="90" stroke="#56B4E9" stroke-width="2.4" stroke-opacity="0.95" stroke-dasharray="5 4"/>
<text x="116" y="94" font-family="Arial, Noto Sans CJK SC, Microsoft YaHei, sans-serif" font-size="12">Piecewise gain-scheduled damping model</text>
<line x1="88" y1="108" x2="110" y2="108" stroke="#0072B2" stroke-width="2.3" stroke-opacity="0.95" stroke-dasharray="2 4"/>
<text x="116" y="112" font-family="Arial, Noto Sans CJK SC, Microsoft YaHei, sans-serif" font-size="12">Full SINDy vector-field model</text>
<line x1="88" y1="126" x2="110" y2="126" stroke="#CC79A7" stroke-width="2.3" stroke-opacity="0.95" stroke-dasharray="10 3 2 3"/>
<text x="116" y="130" font-family="Arial, Noto Sans CJK SC, Microsoft YaHei, sans-serif" font-size="12">Free residual SINDy model</text>
<line x1="88" y1="144" x2="110" y2="144" stroke="#009E73" stroke-width="2.8" stroke-opacity="1.0" stroke-dasharray="12 5"/>
<text x="116" y="148" font-family="Arial, Noto Sans CJK SC, Microsoft YaHei, sans-serif" font-size="12">Slot-constrained coefficient SINDy model</text>
</svg>