<svg xmlns="http://www.w3.org/2000/svg" width="980" height="520" viewBox="0 0 980 520">
<rect width="100%" height="100%" fill="white"/>
<text x="490.0" y="25" text-anchor="middle" font-family="Arial" font-size="18" font-weight="bold">E7 EMPS 逆动力学力预测</text>
<text x="282.5" y="33" text-anchor="middle" font-family="Arial" font-size="13">训练集</text>
<rect x="70.00" y="45.00" width="425.00" height="417.00" fill="none" stroke="#666"/>
<polyline points="70.00,237.53 70.69,233.18 71.37,240.51 72.06,237.49 72.74,238.15 73.43,240.79 74.11,237.85 74.80,237.47 75.49,241.32 76.17,333.63 76.86,205.26 77.54,179.95 78.23,162.50 78.91,241.39 79.60,235.61 80.29,234.36 80.97,233.43 81.66,232.91 82.34,234.13 83.03,232.92 83.72,232.40 84.40,233.43 85.09,233.48 85.77,232.30 86.46,233.69 87.14,234.24 87.83,232.55 88.52,233.01 89.20,233.80 89.89,232.76 90.57,326.83 91.26,311.10 91.94,249.70 92.63,180.34 93.32,163.73 94.00,159.42 94.69,247.20 95.37,224.08 96.06,227.35 96.74,227.70 97.43,228.47 98.12,227.57 98.80,228.35 99.49,227.63 100.17,228.26 100.86,228.11 101.54,228.12 102.23,227.79 102.92,227.16 103.60,227.02 104.29,226.41 104.97,227.23 105.66,226.92 106.35,227.19 107.03,226.87 107.72,228.05 108.40,227.45 109.09,227.71 109.77,227.80 110.46,226.96 111.15,226.53 111.83,228.02 112.52,322.67 113.20,303.61 113.89,308.04 114.57,323.04 115.26,157.53 115.95,255.97 116.63,239.81 117.32,239.76 118.00,237.90 118.69,238.97 119.37,240.25 120.06,238.37 120.75,238.81 121.43,238.15 122.12,321.25 122.80,364.66 123.49,291.30 124.18,295.59 124.86,292.16 125.55,290.71 126.23,290.08 126.92,292.26 127.60,291.39 128.29,289.87 128.98,291.65 129.66,192.78 130.35,324.54 131.03,350.55 131.72,373.29 132.40,290.20 133.09,296.60 133.78,300.73 134.46,298.55 135.15,298.58 135.83,300.85 136.52,298.05 137.20,298.55 137.89,299.82 138.58,299.10 139.26,298.61 139.95,298.72 140.63,298.86 141.32,298.07 142.00,298.45 142.69,300.44 143.38,297.47 144.06,202.01 144.75,214.49 145.43,278.46 146.12,351.96 146.81,371.01 147.49,374.51 148.18,288.19 148.86,309.05 149.55,307.14 150.23,307.25 150.92,307.99 151.61,308.11 152.29,307.82 152.98,309.22 153.66,307.98 154.35,308.72 155.03,308.11 155.72,306.88 156.41,307.07 157.09,307.69 157.78,307.46 158.46,307.02 159.15,308.13 159.83,308.61 160.52,309.26 161.21,309.13 161.89,309.70 162.58,309.79 163.26,309.66 163.95,309.43 164.63,310.43 165.32,308.31 166.01,213.37 166.69,228.85 167.38,221.63 168.06,206.34 168.75,375.71 169.44,272.42 170.12,291.18 170.81,294.21 171.49,291.19 172.18,291.74 172.86,294.46 173.55,290.72 174.24,291.86 174.92,297.11 175.61,204.55 176.29,164.23 176.98,236.74 177.66,233.11 178.35,240.18 179.04,237.46 179.72,238.02 180.41,240.66 181.09,237.77 181.78,237.60 182.46,241.71 183.15,333.73 183.84,205.63 184.52,179.94 185.21,162.57 185.89,241.44 186.58,235.30 187.27,234.20 187.95,232.79 188.64,232.45 189.32,233.98 190.01,232.86 190.69,232.18 191.38,233.29 192.07,233.56 192.75,232.66 193.44,233.97 194.12,234.11 194.81,232.39 195.49,232.92 196.18,233.41 196.87,232.88 197.55,326.69 198.24,311.22 198.92,249.38 199.61,180.03 200.29,163.55 200.98,159.08 201.67,247.50 202.35,224.51 203.04,227.71 203.72,228.18 204.41,228.86 205.09,228.27 205.78,228.13 206.47,227.78 207.15,228.15 207.84,227.95 208.52,227.91 209.21,227.87 209.90,227.46 210.58,227.48 211.27,226.76 211.95,227.53 212.64,226.84 213.32,227.79 214.01,227.36 214.70,228.00 215.38,227.25 216.07,227.13 216.75,227.58 217.44,226.68 218.12,226.79 218.81,227.79 219.50,322.82 220.18,303.78 220.87,307.94 221.55,323.29 222.24,157.89 222.92,256.19 223.61,239.63 224.30,239.97 224.98,238.16 225.67,238.70 226.35,240.50 227.04,238.49 227.72,238.63 228.41,238.49 229.10,321.28 229.78,364.83 230.47,291.25 231.15,295.40 231.84,292.34 232.53,290.46 233.21,290.05 233.90,292.24 234.58,291.28 235.27,289.55 235.95,291.67 236.64,192.30 237.33,324.85 238.01,350.21 238.70,373.34 239.38,290.03 240.07,296.40 240.75,300.46 241.44,298.87 242.13,298.18 242.81,300.65 243.50,299.33 244.18,298.72 244.87,299.95 245.55,299.39 246.24,298.40 246.93,299.67 247.61,299.96 248.30,298.00 248.98,298.96 249.67,301.68 250.35,297.23 251.04,202.72 251.73,214.13 252.41,278.04 253.10,352.00 253.78,371.24 254.47,374.48 255.16,288.06 255.84,309.54 256.53,307.29 257.21,307.94 257.90,307.76 258.58,308.13 259.27,308.58 259.96,308.94 260.64,307.87 261.33,308.56 262.01,307.44 262.70,307.27 263.38,307.10 264.07,307.51 264.76,307.39 265.44,306.93 266.13,306.98 266.81,308.56 267.50,309.07 268.18,308.93 268.87,310.03 269.56,309.80 270.24,309.42 270.93,309.43 271.61,310.35 272.30,308.32 272.99,213.48 273.67,228.59 274.36,221.51 275.04,206.09 275.73,375.71 276.41,272.84 277.10,291.13 277.79,294.43 278.47,291.09 279.16,291.66 279.84,294.81 280.53,290.90 281.21,292.05 281.90,297.49 282.59,204.62 283.27,163.74 283.96,236.96 284.64,233.11 285.33,240.04 286.01,237.57 286.70,237.98 287.39,240.58 288.07,237.52 288.76,237.74 289.44,241.49 290.13,333.82 290.81,205.56 291.50,180.31 292.19,162.25 292.87,241.76 293.56,235.38 294.24,234.48 294.93,233.81 295.62,232.81 296.30,233.97 296.99,233.00 297.67,232.12 298.36,233.43 299.04,233.61 299.73,232.24 300.42,233.53 301.10,234.48 301.79,232.50 302.47,233.22 303.16,233.57 303.84,232.74 304.53,326.97 305.22,311.53 305.90,249.77 306.59,180.19 307.27,163.90 307.96,159.51 308.64,247.56 309.33,224.87 310.02,227.75 310.70,228.82 311.39,228.82 312.07,228.08 312.76,228.62 313.44,228.34 314.13,228.38 314.82,228.29 315.50,228.86 316.19,228.57 316.87,228.00 317.56,227.67 318.25,227.29 318.93,227.88 319.62,226.95 320.30,228.08 320.99,228.03 321.67,228.45 322.36,227.66 323.05,227.79 323.73,227.50 324.42,226.54 325.10,226.91 325.79,227.99 326.47,322.79 327.16,303.80 327.85,308.32 328.53,323.41 329.22,158.29 329.90,255.74 330.59,240.05 331.27,240.12 331.96,238.10 332.65,239.15 333.33,240.44 334.02,238.24 334.70,238.62 335.39,238.57 336.08,321.05 336.76,365.24 337.45,291.14 338.13,295.09 338.82,292.85 339.50,291.08 340.19,290.14 340.88,292.67 341.56,291.86 342.25,289.61 342.93,291.88 343.62,192.63 344.30,323.51 344.99,350.55 345.68,373.72 346.36,290.53 347.05,296.65 347.73,301.31 348.42,298.78 349.10,298.66 349.79,301.48 350.48,298.91 351.16,299.70 351.85,300.33 352.53,300.01 353.22,298.76 353.90,299.64 354.59,300.29 355.28,298.23 355.96,299.46 356.65,300.59 357.33,298.17 358.02,203.09 358.71,214.14 359.39,279.10 360.08,351.61 360.76,372.01 361.45,374.35 362.13,288.43 362.82,309.52 363.51,308.30 364.19,307.45 364.88,308.17 365.56,308.20 366.25,308.31 366.93,308.97 367.62,308.47 368.31,308.67 368.99,308.55 369.68,307.32 370.36,308.38 371.05,307.62 371.73,308.45 372.42,307.24 373.11,307.89 373.79,308.76 374.48,309.44 375.16,309.14 375.85,310.17 376.53,310.48 377.22,310.42 377.91,309.99 378.59,310.74 379.28,308.44 379.96,214.32 380.65,228.81 381.34,221.44 382.02,205.98 382.71,375.82 383.39,272.56 384.08,291.00 384.76,294.66 385.45,291.07 386.14,291.78 386.82,294.55 387.51,290.68 388.19,291.57 388.88,297.31 389.56,204.33 390.25,163.69 390.94,236.61 391.62,232.70 392.31,240.45 392.99,237.49 393.68,237.81 394.36,240.98 395.05,237.59 395.74,237.83 396.42,241.40 397.11,333.73 397.79,205.64 398.48,180.20 399.16,162.39 399.85,241.35 400.54,235.48 401.22,234.04 401.91,233.42 402.59,232.66 403.28,233.94 403.97,233.05 404.65,232.45 405.34,233.42 406.02,233.76 406.71,232.52 407.39,233.91 408.08,234.56 408.77,232.88 409.45,233.60 410.14,233.77 410.82,232.82 411.51,327.06 412.19,311.49 412.88,249.60 413.57,180.12 414.25,164.03 414.94,159.68 415.62,247.58 416.31,224.91 416.99,228.04 417.68,228.22 418.37,228.49 419.05,227.77 419.74,229.06 420.42,228.31 421.11,228.38 421.80,227.90 422.48,228.35 423.17,228.02 423.85,227.27 424.54,227.94 425.22,227.20 425.91,228.09 426.60,226.95 427.28,228.17 427.97,227.86 428.65,228.29 429.34,227.66 430.02,227.92 430.71,227.07 431.40,226.79 432.08,227.11 432.77,228.32 433.45,323.43 434.14,304.33 434.82,308.06 435.51,323.29 436.20,157.74 436.88,256.05 437.57,240.16 438.25,239.87 438.94,238.17 439.62,238.79 440.31,240.54 441.00,238.44 441.68,238.80 442.37,238.46 443.05,321.33 443.74,365.21 444.43,291.21 445.11,295.41 445.80,292.84 446.48,291.39 447.17,289.88 447.85,293.01 448.54,291.81 449.23,289.96 449.91,291.92 450.60,192.77 451.28,324.12 451.97,351.71 452.65,373.88 453.34,290.62 454.03,297.00 454.71,301.18 455.40,298.88 456.08,298.89 456.77,301.34 457.45,298.47 458.14,299.63 458.83,300.64 459.51,299.12 460.20,298.96 460.88,299.81 461.57,299.88 462.25,298.44 462.94,299.86 463.63,301.81 464.31,297.96 465.00,202.70 465.68,214.54 466.37,278.42 467.06,352.28 467.74,371.69 468.43,375.06 469.11,289.16 469.80,309.55 470.48,307.71 471.17,308.30 471.86,308.54 472.54,308.59 473.23,308.73 473.91,309.60 474.60,309.26 475.28,308.43 475.97,308.39 476.66,307.65 477.34,308.59 478.03,307.79 478.71,308.38 479.40,306.88 480.08,308.05 480.77,309.22 481.46,309.47 482.14,309.49 482.83,309.82 483.51,309.88 484.20,309.93 484.89,309.64 485.57,310.87 486.26,309.07 486.94,212.92 487.63,228.71 488.31,221.24 489.00,206.38 489.69,375.56 490.37,272.68 491.06,291.24 491.74,294.32 492.43,291.46 493.11,291.46 493.80,294.56 494.49,291.17" fill="none" stroke="#000000" stroke-width="1.5"/>
<polyline points="70.00,246.87 70.69,246.09 71.37,252.13 72.06,249.98 72.74,251.48 73.43,252.35 74.11,250.14 74.80,250.85 75.49,252.96 76.17,348.84 76.86,225.93 77.54,191.41 78.23,167.40 78.91,247.19 79.60,237.52 80.29,236.54 80.97,237.44 81.66,235.27 82.34,236.59 83.03,237.48 83.72,235.44 84.40,236.11 85.09,237.66 85.77,235.46 86.46,235.68 87.14,238.06 87.83,235.95 88.52,235.22 89.20,237.29 89.89,236.94 90.57,334.06 91.26,326.88 91.94,269.88 92.63,190.82 93.32,168.85 94.00,158.31 94.69,238.06 95.37,217.42 96.06,220.65 96.74,221.26 97.43,221.71 98.12,221.49 98.80,221.10 99.49,221.21 100.17,221.13 100.86,221.03 101.54,221.27 102.23,220.92 102.92,220.91 103.60,221.11 104.29,220.77 104.97,221.63 105.66,221.54 106.35,221.76 107.03,221.36 107.72,221.75 108.40,221.33 109.09,221.30 109.77,221.39 110.46,220.99 111.15,220.80 111.83,222.26 112.52,320.08 113.20,310.70 113.89,322.38 114.57,337.85 115.26,170.40 115.95,268.42 116.63,251.59 117.32,251.40 118.00,250.14 118.69,251.22 119.37,251.94 120.06,250.21 120.75,251.38 121.43,249.87 122.12,339.19 122.80,353.70 123.49,285.55 124.18,287.09 124.86,283.08 125.55,280.90 126.23,281.37 126.92,282.81 127.60,281.25 128.29,281.00 128.98,282.56 129.66,183.76 130.35,306.93 131.03,340.98 131.72,368.36 132.40,286.36 133.09,293.15 133.78,298.33 134.46,296.92 135.15,295.15 135.83,297.75 136.52,296.85 137.20,295.00 137.89,296.66 138.58,297.91 139.26,295.11 139.95,296.24 140.63,297.67 141.32,295.12 142.00,296.05 142.69,298.93 143.38,294.76 144.06,196.14 144.75,205.07 145.43,262.00 146.12,342.38 146.81,364.67 147.49,375.56 148.18,294.08 148.86,314.28 149.55,311.93 150.23,311.96 150.92,312.82 151.61,312.54 152.29,312.67 152.98,313.37 153.66,312.44 154.35,312.45 155.03,311.69 155.72,311.14 156.41,311.30 157.09,310.85 157.78,311.47 158.46,311.05 159.15,311.85 159.83,311.72 160.52,312.43 161.21,312.72 161.89,312.53 162.58,312.16 163.26,311.71 163.95,311.13 164.63,311.46 165.32,310.38 166.01,212.05 166.69,223.56 167.38,211.06 168.06,195.63 168.75,364.36 169.44,262.97 170.12,281.61 170.81,283.02 171.49,280.87 172.18,282.08 172.86,282.90 173.55,280.31 174.24,282.11 174.92,285.22 175.61,192.96 176.29,178.16 176.98,246.04 177.66,245.88 178.35,251.85 179.04,250.24 179.72,251.28 180.41,252.30 181.09,250.15 181.78,250.92 182.46,253.16 183.15,348.78 183.84,226.16 184.52,191.38 185.21,167.47 185.89,247.22 186.58,237.54 187.27,236.69 187.95,237.19 188.64,235.16 189.32,236.35 190.01,237.49 190.69,235.46 191.38,235.80 192.07,237.88 192.75,235.49 193.44,235.92 194.12,238.08 194.81,235.90 195.49,235.33 196.18,237.26 196.87,237.06 197.55,333.93 198.24,326.82 198.92,269.63 199.61,190.66 200.29,168.62 200.98,157.90 201.67,238.32 202.35,217.60 203.04,220.63 203.72,221.39 204.41,221.64 205.09,221.05 205.78,221.16 206.47,221.13 207.15,220.81 207.84,220.72 208.52,220.94 209.21,221.04 209.90,220.88 210.58,221.29 211.27,220.80 211.95,221.48 212.64,221.19 213.32,221.63 214.01,221.23 214.70,221.26 215.38,220.85 216.07,220.71 216.75,221.30 217.44,220.58 218.12,220.81 218.81,222.01 219.50,320.10 220.18,310.94 220.87,322.17 221.55,337.90 222.24,170.61 222.92,268.65 223.61,251.46 224.30,251.64 224.98,250.17 225.67,251.34 226.35,251.94 227.04,250.36 227.72,251.33 228.41,249.99 229.10,339.25 229.78,353.64 230.47,285.61 231.15,287.22 231.84,283.42 232.53,280.86 233.21,281.40 233.90,283.10 234.58,281.12 235.27,281.22 235.95,282.74 236.64,183.73 237.33,307.10 238.01,341.04 238.70,368.78 239.38,286.73 240.07,293.23 240.75,298.19 241.44,297.05 242.13,294.85 242.81,297.40 243.50,297.61 244.18,295.22 244.87,296.21 245.55,297.82 246.24,294.90 246.93,296.32 247.61,298.06 248.30,295.05 248.98,296.07 249.67,299.15 250.35,294.54 251.04,196.60 251.73,204.95 252.41,262.35 253.10,342.61 253.78,364.66 254.47,375.38 255.16,294.09 255.84,314.20 256.53,311.77 257.21,312.10 257.90,311.89 258.58,312.33 259.27,312.69 259.96,312.75 260.64,311.60 261.33,312.06 262.01,311.11 262.70,311.06 263.38,311.40 264.07,310.67 264.76,311.33 265.44,310.99 266.13,311.35 266.81,312.19 267.50,312.06 268.18,312.36 268.87,312.91 269.56,312.26 270.24,311.48 270.93,311.80 271.61,311.34 272.30,310.63 272.99,211.64 273.67,223.50 274.36,210.86 275.04,195.80 275.73,364.27 276.41,262.95 277.10,281.31 277.79,283.17 278.47,280.57 279.16,281.96 279.84,282.99 280.53,280.40 281.21,282.28 281.90,285.36 282.59,193.22 283.27,178.16 283.96,246.12 284.64,246.11 285.33,251.72 286.01,250.21 286.70,251.21 287.39,252.23 288.07,250.01 288.76,250.88 289.44,253.07 290.13,348.63 290.81,226.29 291.50,191.73 292.19,167.36 292.87,247.35 293.56,237.39 294.24,236.73 294.93,237.60 295.62,235.09 296.30,236.45 296.99,237.51 297.67,235.47 298.36,236.11 299.04,237.83 299.73,235.42 300.42,235.93 301.10,238.03 301.79,235.89 302.47,235.41 303.16,237.33 303.84,237.02 304.53,334.20 305.22,327.02 305.90,269.63 306.59,190.90 307.27,168.74 307.96,158.13 308.64,238.14 309.33,217.54 310.02,220.61 310.70,221.26 311.39,221.59 312.07,220.91 312.76,221.18 313.44,221.44 314.13,221.26 314.82,221.09 315.50,221.14 316.19,221.17 316.87,220.82 317.56,221.27 318.25,221.14 318.93,221.58 319.62,221.10 320.30,221.81 320.99,221.51 321.67,221.25 322.36,221.18 323.05,221.15 323.73,221.01 324.42,220.82 325.10,220.83 325.79,221.98 326.47,319.83 327.16,310.28 327.85,322.57 328.53,337.91 329.22,170.86 329.90,268.06 330.59,251.72 331.27,251.54 331.96,250.21 332.65,251.50 333.33,251.72 334.02,250.18 334.70,250.98 335.39,249.97 336.08,339.11 336.76,353.64 337.45,284.82 338.13,287.30 338.82,283.14 339.50,281.08 340.19,281.18 340.88,283.28 341.56,280.89 342.25,280.83 342.93,282.60 343.62,183.89 344.30,306.30 344.99,341.24 345.68,368.54 346.36,286.63 347.05,292.71 347.73,298.20 348.42,297.02 349.10,294.85 349.79,297.71 350.48,297.43 351.16,294.95 351.85,296.30 352.53,298.27 353.22,295.06 353.90,296.28 354.59,298.41 355.28,295.06 355.96,295.83 356.65,298.81 357.33,294.65 358.02,196.25 358.71,204.99 359.39,262.51 360.08,342.23 360.76,364.90 361.45,375.79 362.13,294.47 362.82,314.36 363.51,312.47 364.19,311.59 364.88,312.30 365.56,312.40 366.25,312.59 366.93,312.92 367.62,312.17 368.31,312.01 368.99,311.75 369.68,311.11 370.36,311.90 371.05,310.47 371.73,311.65 372.42,311.40 373.11,311.45 373.79,312.70 374.48,312.14 375.16,312.61 375.85,312.77 376.53,312.67 377.22,312.09 377.91,311.50 378.59,311.37 379.28,310.82 379.96,212.21 380.65,223.78 381.34,211.04 382.02,195.73 382.71,364.26 383.39,262.75 384.08,281.57 384.76,283.37 385.45,280.49 386.14,282.17 386.82,282.76 387.51,279.95 388.19,281.86 388.88,284.90 389.56,192.94 390.25,178.02 390.94,245.46 391.62,245.95 392.31,252.02 392.99,250.17 393.68,251.08 394.36,252.60 395.05,249.81 395.74,251.07 396.42,252.96 397.11,348.68 397.79,225.97 398.48,191.83 399.16,167.48 399.85,247.42 400.54,237.43 401.22,236.59 401.91,237.49 402.59,235.11 403.28,236.56 403.97,237.66 404.65,235.54 405.34,235.95 406.02,237.69 406.71,235.46 407.39,235.95 408.08,237.89 408.77,235.86 409.45,235.47 410.14,237.30 410.82,236.96 411.51,334.08 412.19,326.95 412.88,269.79 413.57,190.90 414.25,168.97 414.94,158.43 415.62,238.25 416.31,217.76 416.99,220.77 417.68,221.24 418.37,221.21 419.05,220.87 419.74,221.32 420.42,221.04 421.11,220.93 421.80,220.79 422.48,221.33 423.17,220.94 423.85,220.69 424.54,221.53 425.22,221.21 425.91,221.93 426.60,220.94 427.28,221.94 427.97,221.44 428.65,221.35 429.34,221.18 430.02,221.13 430.71,221.16 431.40,220.93 432.08,221.12 432.77,222.38 433.45,320.30 434.14,310.56 434.82,322.29 435.51,337.81 436.20,170.32 436.88,268.38 437.57,251.99 438.25,251.41 438.94,250.54 439.62,251.16 440.31,252.05 441.00,250.35 441.68,251.14 442.37,250.15 443.05,339.09 443.74,353.56 444.43,285.41 445.11,287.26 445.80,283.36 446.48,281.47 447.17,281.06 447.85,283.06 448.54,281.43 449.23,280.89 449.91,282.26 450.60,183.95 451.28,306.56 451.97,341.78 452.65,368.26 453.34,286.70 454.03,293.22 454.71,298.11 455.40,296.74 456.08,294.80 456.77,297.66 457.45,296.92 458.14,294.87 458.83,296.53 459.51,297.74 460.20,294.58 460.88,296.09 461.57,297.81 462.25,294.88 462.94,296.26 463.63,299.34 464.31,294.63 465.00,196.13 465.68,205.22 466.37,262.49 467.06,342.76 467.74,365.12 468.43,375.68 469.11,294.64 469.80,314.41 470.48,311.58 471.17,312.19 471.86,312.40 472.54,312.51 473.23,312.72 473.91,313.16 474.60,312.58 475.28,312.14 475.97,311.82 476.66,311.45 477.34,311.72 478.03,310.71 478.71,311.37 479.40,311.13 480.08,311.88 480.77,312.47 481.46,312.59 482.14,312.66 482.83,312.40 483.51,311.96 484.20,311.60 484.89,311.53 485.57,311.14 486.26,310.61 486.94,212.05 487.63,223.59 488.31,210.94 489.00,195.76 489.69,364.00 490.37,262.99 491.06,281.40 491.74,283.15 492.43,281.07 493.11,281.65 493.80,283.42 494.49,278.67" fill="none" stroke="#D55E00" stroke-width="1.9" stroke-dasharray="8 4"/>
<polyline points="70.00,237.45 70.69,236.13 71.37,242.23 72.06,240.07 72.74,241.55 73.43,242.45 74.11,240.23 74.80,240.91 75.49,243.08 76.17,336.81 76.86,208.66 77.54,181.15 78.23,163.02 78.91,244.35 79.60,234.77 80.29,233.80 80.97,234.67 81.66,232.50 82.34,233.85 83.03,234.71 83.72,232.67 84.40,233.36 85.09,234.90 85.77,232.69 86.46,232.93 87.14,235.31 87.83,233.18 88.52,232.46 89.20,234.54 89.89,234.18 90.57,328.43 91.26,315.09 91.94,287.29 92.63,180.05 93.32,163.85 94.00,159.27 94.69,243.26 95.37,222.14 96.06,225.33 96.74,225.96 97.43,226.41 98.12,226.18 98.80,225.80 99.49,225.91 100.17,225.83 100.86,225.72 101.54,225.97 102.23,225.62 102.92,225.60 103.60,225.80 104.29,225.46 104.97,226.32 105.66,226.24 106.35,226.45 107.03,226.06 107.72,226.45 108.40,226.03 109.09,226.00 109.77,226.09 110.46,225.69 111.15,225.49 111.83,226.97 112.52,322.31 113.20,306.67 113.89,312.31 114.57,321.83 115.26,157.76 115.95,258.68 116.63,241.70 117.32,241.49 118.00,240.22 118.69,241.30 119.37,242.04 120.06,240.30 120.75,241.46 121.43,239.99 122.12,324.92 122.80,368.58 123.49,294.97 124.18,297.07 124.86,293.07 125.55,290.89 126.23,291.32 126.92,292.78 127.60,291.23 128.29,290.96 128.98,292.50 129.66,195.83 130.35,324.26 131.03,351.28 131.72,372.81 132.40,289.23 133.09,295.93 133.78,301.15 134.46,299.72 135.15,297.96 135.83,300.58 136.52,299.65 137.20,297.81 137.89,299.49 138.58,300.71 139.26,297.93 139.95,299.07 140.63,300.47 141.32,297.92 142.00,298.87 142.69,301.74 143.38,297.54 144.06,201.80 144.75,216.90 145.43,244.64 146.12,353.20 146.81,369.77 147.49,374.66 148.18,288.94 148.86,309.59 149.55,307.29 150.23,307.31 150.92,308.18 151.61,307.89 152.29,308.03 152.98,308.73 153.66,307.81 154.35,307.82 155.03,307.05 155.72,306.50 156.41,306.65 157.09,306.21 157.78,306.82 158.46,306.40 159.15,307.20 159.83,307.07 160.52,307.79 161.21,308.08 161.89,307.90 162.58,307.53 163.26,307.08 163.95,306.50 164.63,306.83 165.32,305.71 166.01,209.89 166.69,227.62 167.38,221.14 168.06,211.70 168.75,377.06 169.44,272.74 170.12,291.52 170.81,293.00 171.49,290.85 172.18,292.03 172.86,292.89 173.55,290.28 174.24,292.05 174.92,295.18 175.61,207.26 176.29,163.36 176.98,236.66 177.66,235.92 178.35,241.94 179.04,240.33 179.72,241.35 180.41,242.40 181.09,240.24 181.78,240.98 182.46,243.27 183.15,336.75 183.84,208.89 184.52,181.11 185.21,163.10 185.89,244.38 186.58,234.80 187.27,233.95 187.95,234.42 188.64,232.39 189.32,233.61 190.01,234.72 190.69,232.69 191.38,233.05 192.07,235.12 192.75,232.72 193.44,233.17 194.12,235.32 194.81,233.13 195.49,232.58 196.18,234.51 196.87,234.30 197.55,328.29 198.24,315.03 198.92,287.04 199.61,179.88 200.29,163.62 200.98,158.86 201.67,243.52 202.35,222.32 203.04,225.32 203.72,226.09 204.41,226.35 205.09,225.75 205.78,225.86 206.47,225.83 207.15,225.51 207.84,225.42 208.52,225.64 209.21,225.73 209.90,225.57 210.58,225.98 211.27,225.50 211.95,226.17 212.64,225.89 213.32,226.33 214.01,225.93 214.70,225.96 215.38,225.55 216.07,225.40 216.75,225.99 217.44,225.28 218.12,225.50 218.81,226.72 219.50,322.32 220.18,306.91 220.87,312.11 221.55,321.89 222.24,157.97 222.92,258.90 223.61,241.57 224.30,241.73 224.98,240.25 225.67,241.41 226.35,242.04 227.04,240.45 227.72,241.40 228.41,240.11 229.10,324.98 229.78,368.53 230.47,295.03 231.15,297.20 231.84,293.41 232.53,290.84 233.21,291.35 233.90,293.06 234.58,291.11 235.27,291.17 235.95,292.69 236.64,195.80 237.33,324.44 238.01,351.33 238.70,373.23 239.38,289.59 240.07,296.01 240.75,301.02 241.44,299.85 242.13,297.66 242.81,300.23 243.50,300.41 244.18,298.03 244.87,299.05 245.55,300.62 246.24,297.71 246.93,299.14 247.61,300.87 248.30,297.85 248.98,298.88 249.67,301.97 250.35,297.32 251.04,202.27 251.73,216.78 252.41,245.00 253.10,353.43 253.78,369.76 254.47,374.49 255.16,288.94 255.84,309.52 256.53,307.13 257.21,307.46 257.90,307.25 258.58,307.68 259.27,308.06 259.96,308.10 260.64,306.98 261.33,307.44 262.01,306.47 262.70,306.41 263.38,306.76 264.07,306.02 264.76,306.68 265.44,306.33 266.13,306.69 266.81,307.54 267.50,307.41 268.18,307.72 268.87,308.27 269.56,307.63 270.24,306.85 270.93,307.16 271.61,306.71 272.30,305.96 272.99,209.48 273.67,227.54 274.36,220.93 275.04,211.88 275.73,376.98 276.41,272.72 277.10,291.22 277.79,293.16 278.47,290.54 279.16,291.91 279.84,292.97 280.53,290.37 281.21,292.22 281.90,295.33 282.59,207.52 283.27,163.36 283.96,236.74 284.64,236.15 285.33,241.80 286.01,240.30 286.70,241.27 287.39,242.33 288.07,240.10 288.76,240.94 289.44,243.19 290.13,336.60 290.81,209.01 291.50,181.47 292.19,162.98 292.87,244.51 293.56,234.65 294.24,233.99 294.93,234.84 295.62,232.33 296.30,233.70 296.99,234.75 297.67,232.70 298.36,233.36 299.04,235.07 299.73,232.65 300.42,233.18 301.10,235.28 301.79,233.12 302.47,232.65 303.16,234.58 303.84,234.26 304.53,328.57 305.22,315.23 305.90,287.05 306.59,180.13 307.27,163.74 307.96,159.09 308.64,243.33 309.33,222.27 310.02,225.29 310.70,225.96 311.39,226.29 312.07,225.61 312.76,225.87 313.44,226.14 314.13,225.95 314.82,225.79 315.50,225.84 316.19,225.87 316.87,225.52 317.56,225.97 318.25,225.83 318.93,226.28 319.62,225.79 320.30,226.51 320.99,226.21 321.67,225.95 322.36,225.88 323.05,225.85 323.73,225.70 324.42,225.51 325.10,225.52 325.79,226.69 326.47,322.05 327.16,306.24 327.85,312.51 328.53,321.89 329.22,158.22 329.90,258.31 330.59,241.84 331.27,241.63 331.96,240.29 332.65,241.58 333.33,241.82 334.02,240.27 334.70,241.05 335.39,240.08 336.08,324.84 336.76,368.54 337.45,294.25 338.13,297.27 338.82,293.13 339.50,291.07 340.19,291.14 340.88,293.25 341.56,290.88 342.25,290.79 342.93,292.54 343.62,195.96 344.30,323.63 344.99,351.54 345.68,372.99 346.36,289.49 347.05,295.49 347.73,301.03 348.42,299.82 349.10,297.66 349.79,300.55 350.48,300.23 351.16,297.76 351.85,299.14 352.53,301.07 353.22,297.86 353.90,299.11 354.59,301.22 355.28,297.85 355.96,298.65 356.65,301.62 357.33,297.44 358.02,201.93 358.71,216.82 359.39,245.15 360.08,353.05 360.76,370.00 361.45,374.89 362.13,289.33 362.82,309.68 363.51,307.84 364.19,306.95 364.88,307.65 365.56,307.74 366.25,307.95 366.93,308.28 367.62,307.54 368.31,307.39 368.99,307.12 369.68,306.46 370.36,307.26 371.05,305.82 371.73,307.01 372.42,306.74 373.11,306.79 373.79,308.05 374.48,307.49 375.16,307.96 375.85,308.13 376.53,308.03 377.22,307.46 377.91,306.86 378.59,306.73 379.28,306.16 379.96,210.05 380.65,227.83 381.34,221.12 382.02,211.80 382.71,376.96 383.39,272.52 384.08,291.48 384.76,293.35 385.45,290.47 386.14,292.12 386.82,292.74 387.51,289.92 388.19,291.80 388.88,294.86 389.56,207.24 390.25,163.21 390.94,236.08 391.62,235.98 392.31,242.11 392.99,240.25 393.68,241.14 394.36,242.70 395.05,239.90 395.74,241.13 396.42,243.08 397.11,336.64 397.79,208.70 398.48,181.57 399.16,163.11 399.85,244.58 400.54,234.70 401.22,233.85 401.91,234.72 402.59,232.34 403.28,233.81 403.97,234.89 404.65,232.77 405.34,233.20 406.02,234.93 406.71,232.69 407.39,233.20 408.08,235.14 408.77,233.09 409.45,232.72 410.14,234.55 410.82,234.20 411.51,328.45 412.19,315.16 412.88,287.20 413.57,180.12 414.25,163.98 414.94,159.39 415.62,243.45 416.31,222.47 416.99,225.45 417.68,225.94 418.37,225.90 419.05,225.56 419.74,226.03 420.42,225.74 421.11,225.63 421.80,225.48 422.48,226.03 423.17,225.63 423.85,225.38 424.54,226.22 425.22,225.90 425.91,226.62 426.60,225.63 427.28,226.63 427.97,226.14 428.65,226.05 429.34,225.87 430.02,225.82 430.71,225.85 431.40,225.62 432.08,225.81 432.77,227.09 433.45,322.52 434.14,306.53 434.82,312.23 435.51,321.79 436.20,157.68 436.88,258.64 437.57,242.11 438.25,241.50 438.94,240.63 439.62,241.23 440.31,242.15 441.00,240.44 441.68,241.22 442.37,240.27 443.05,324.82 443.74,368.45 444.43,294.83 445.11,297.23 445.80,293.35 446.48,291.45 447.17,291.01 447.85,293.03 448.54,291.41 449.23,290.85 449.91,292.21 450.60,196.02 451.28,323.89 451.97,352.08 452.65,372.71 453.34,289.56 454.03,295.99 454.71,300.93 455.40,299.54 456.08,297.61 456.77,300.51 457.45,299.71 458.14,297.68 458.83,299.37 459.51,300.53 460.20,297.39 460.88,298.93 461.57,300.61 462.25,297.69 462.94,299.08 463.63,302.16 464.31,297.41 465.00,201.80 465.68,217.06 466.37,245.13 467.06,353.57 467.74,370.22 468.43,374.78 469.11,289.50 469.80,309.72 470.48,306.94 471.17,307.55 471.86,307.76 472.54,307.86 473.23,308.09 473.91,308.53 474.60,307.96 475.28,307.50 475.97,307.19 476.66,306.80 477.34,307.08 478.03,306.06 478.71,306.73 479.40,306.47 480.08,307.22 480.77,307.83 481.46,307.94 482.14,308.03 482.83,307.76 483.51,307.33 484.20,306.98 484.89,306.89 485.57,306.52 486.26,305.95 486.94,209.88 487.63,227.64 488.31,221.01 489.00,211.84 489.69,376.71 490.37,272.76 491.06,291.31 491.74,293.14 492.43,291.04 493.11,291.60 493.80,293.40 494.49,288.65" fill="none" stroke="#E69F00" stroke-width="1.9" stroke-dasharray="3 3"/>
<polyline points="70.00,236.36 70.69,234.94 71.37,241.05 72.06,238.89 72.74,240.36 73.43,241.27 74.11,239.05 74.80,239.73 75.49,241.90 76.17,335.26 76.86,206.15 77.54,179.90 78.23,162.83 78.91,244.44 79.60,234.88 80.29,233.91 80.97,234.77 81.66,232.61 82.34,233.96 83.03,234.81 83.72,232.78 84.40,233.47 85.09,235.00 85.77,232.79 86.46,233.04 87.14,235.41 87.83,233.29 88.52,232.56 89.20,234.65 89.89,234.28 90.57,328.03 91.26,313.58 91.94,284.75 92.63,178.70 93.32,163.55 94.00,160.04 94.69,244.80 95.37,223.59 96.06,226.78 96.74,227.41 97.43,227.86 98.12,227.63 98.80,227.25 99.49,227.36 100.17,227.28 100.86,227.17 101.54,227.42 102.23,227.06 102.92,227.05 103.60,227.24 104.29,226.91 104.97,227.77 105.66,227.68 106.35,227.90 107.03,227.51 107.72,227.90 108.40,227.48 109.09,227.45 109.77,227.54 110.46,227.14 111.15,226.94 111.83,228.43 112.52,323.32 113.20,306.56 113.89,311.11 114.57,319.56 115.26,156.08 115.95,257.53 116.63,240.53 117.32,240.31 118.00,239.04 118.69,240.11 119.37,240.86 120.06,239.12 120.75,240.28 121.43,238.81 122.12,322.97 122.80,366.56 123.49,293.88 124.18,295.88 124.86,291.87 125.55,289.69 126.23,290.13 126.92,291.59 127.60,290.04 128.29,289.76 128.98,291.31 129.66,194.18 130.35,321.76 131.03,350.07 131.72,372.67 132.40,289.31 133.09,296.03 133.78,301.25 134.46,299.83 135.15,298.06 135.83,300.68 136.52,299.75 137.20,297.91 137.89,299.59 138.58,300.82 139.26,298.03 139.95,299.17 140.63,300.57 141.32,298.02 142.00,298.97 142.69,301.84 143.38,297.64 144.06,201.31 144.75,215.31 145.43,242.12 146.12,351.90 146.81,369.51 147.49,375.49 148.18,290.47 148.86,311.05 149.55,308.74 150.23,308.76 150.92,309.64 151.61,309.35 152.29,309.48 152.98,310.18 153.66,309.26 154.35,309.27 155.03,308.50 155.72,307.95 156.41,308.10 157.09,307.66 157.78,308.28 158.46,307.85 159.15,308.65 159.83,308.53 160.52,309.24 161.21,309.53 161.89,309.35 162.58,308.98 163.26,308.53 163.95,307.95 164.63,308.28 165.32,307.17 166.01,210.82 166.69,227.44 167.38,219.87 168.06,209.34 168.75,375.44 169.44,271.56 170.12,290.34 170.81,291.81 171.49,289.65 172.18,290.84 172.86,291.69 173.55,289.08 174.24,290.86 174.92,293.99 175.61,205.22 176.29,161.29 176.98,235.57 177.66,234.74 178.35,240.76 179.04,239.15 179.72,240.16 180.41,241.22 181.09,239.06 181.78,239.80 182.46,242.10 183.15,335.20 183.84,206.38 184.52,179.86 185.21,162.90 185.89,244.47 186.58,234.91 187.27,234.06 187.95,234.53 188.64,232.50 189.32,233.72 190.01,234.83 190.69,232.80 191.38,233.16 192.07,235.22 192.75,232.83 193.44,233.28 194.12,235.43 194.81,233.23 195.49,232.69 196.18,234.62 196.87,234.41 197.55,327.89 198.24,313.52 198.92,284.50 199.61,178.54 200.29,163.32 200.98,159.63 201.67,245.06 202.35,223.77 203.04,226.76 203.72,227.54 204.41,227.80 205.09,227.20 205.78,227.30 206.47,227.28 207.15,226.96 207.84,226.86 208.52,227.09 209.21,227.18 209.90,227.02 210.58,227.43 211.27,226.95 211.95,227.62 212.64,227.33 213.32,227.78 214.01,227.38 214.70,227.41 215.38,227.00 216.07,226.85 216.75,227.44 217.44,226.73 218.12,226.95 218.81,228.17 219.50,323.33 220.18,306.80 220.87,310.91 221.55,319.62 222.24,156.29 222.92,257.76 223.61,240.40 224.30,240.56 224.98,239.07 225.67,240.23 226.35,240.86 227.04,239.27 227.72,240.22 228.41,238.94 229.10,323.02 229.78,366.51 230.47,293.94 231.15,296.01 231.84,292.21 232.53,289.64 233.21,290.15 233.90,291.87 234.58,289.91 235.27,289.97 235.95,291.50 236.64,194.15 237.33,321.94 238.01,350.12 238.70,373.10 239.38,289.67 240.07,296.11 240.75,301.12 241.44,299.95 242.13,297.76 242.81,300.33 243.50,300.51 244.18,298.13 244.87,299.14 245.55,300.72 246.24,297.81 246.93,299.24 247.61,300.97 248.30,297.95 248.98,298.98 249.67,302.07 250.35,297.43 251.04,201.78 251.73,215.19 252.41,242.48 253.10,352.12 253.78,369.50 254.47,375.32 255.16,290.47 255.84,310.98 256.53,308.58 257.21,308.91 257.90,308.70 258.58,309.13 259.27,309.51 259.96,309.56 260.64,308.42 261.33,308.88 262.01,307.92 262.70,307.86 263.38,308.21 264.07,307.47 264.76,308.13 265.44,307.79 266.13,308.15 266.81,308.99 267.50,308.86 268.18,309.17 268.87,309.72 269.56,309.08 270.24,308.30 270.93,308.61 271.61,308.15 272.30,307.42 272.99,210.41 273.67,227.37 274.36,219.66 275.04,209.52 275.73,375.36 276.41,271.55 277.10,290.03 277.79,291.96 278.47,289.35 279.16,290.72 279.84,291.77 280.53,289.18 281.21,291.03 281.90,294.14 282.59,205.48 283.27,161.29 283.96,235.65 284.64,234.96 285.33,240.62 286.01,239.12 286.70,240.09 287.39,241.15 288.07,238.92 288.76,239.75 289.44,242.01 290.13,335.05 290.81,206.50 291.50,180.22 292.19,162.79 292.87,244.60 293.56,234.76 294.24,234.10 294.93,234.94 295.62,232.43 296.30,233.81 296.99,234.85 297.67,232.80 298.36,233.47 299.04,235.18 299.73,232.75 300.42,233.29 301.10,235.38 301.79,233.23 302.47,232.76 303.16,234.69 303.84,234.36 304.53,328.17 305.22,313.72 305.90,284.51 306.59,178.78 307.27,163.44 307.96,159.86 308.64,244.87 309.33,223.72 310.02,226.74 310.70,227.41 311.39,227.74 312.07,227.06 312.76,227.32 313.44,227.59 314.13,227.40 314.82,227.24 315.50,227.29 316.19,227.32 316.87,226.97 317.56,227.41 318.25,227.28 318.93,227.73 319.62,227.24 320.30,227.96 320.99,227.66 321.67,227.40 322.36,227.33 323.05,227.30 323.73,227.15 324.42,226.96 325.10,226.96 325.79,228.14 326.47,323.06 327.16,306.13 327.85,311.31 328.53,319.62 329.22,156.54 329.90,257.16 330.59,240.66 331.27,240.45 331.96,239.11 332.65,240.39 333.33,240.64 334.02,239.09 334.70,239.87 335.39,238.91 336.08,322.88 336.76,366.52 337.45,293.15 338.13,296.08 338.82,291.93 339.50,289.87 340.19,289.94 340.88,292.06 341.56,289.68 342.25,289.60 342.93,291.35 343.62,194.31 344.30,321.13 344.99,350.33 345.68,372.86 346.36,289.58 347.05,295.59 347.73,301.13 348.42,299.92 349.10,297.76 349.79,300.65 350.48,300.33 351.16,297.86 351.85,299.23 352.53,301.18 353.22,297.96 353.90,299.21 354.59,301.32 355.28,297.95 355.96,298.75 356.65,301.72 357.33,297.54 358.02,201.44 358.71,215.23 359.39,242.63 360.08,351.75 360.76,369.74 361.45,375.72 362.13,290.86 362.82,311.14 363.51,309.29 364.19,308.40 364.88,309.10 365.56,309.20 366.25,309.40 366.93,309.73 367.62,308.99 368.31,308.83 368.99,308.56 369.68,307.91 370.36,308.71 371.05,307.27 371.73,308.46 372.42,308.19 373.11,308.25 373.79,309.51 374.48,308.94 375.16,309.41 375.85,309.59 376.53,309.48 377.22,308.91 377.91,308.31 378.59,308.18 379.28,307.61 379.96,210.98 380.65,227.66 381.34,219.85 382.02,209.45 382.71,375.34 383.39,271.35 384.08,290.30 384.76,292.16 385.45,289.27 386.14,290.92 386.82,291.55 387.51,288.72 388.19,290.61 388.88,293.67 389.56,205.19 390.25,161.14 390.94,235.00 391.62,234.79 392.31,240.93 392.99,239.07 393.68,239.95 394.36,241.52 395.05,238.72 395.74,239.95 396.42,241.90 397.11,335.09 397.79,206.19 398.48,180.32 399.16,162.91 399.85,244.67 400.54,234.81 401.22,233.96 401.91,234.83 402.59,232.45 403.28,233.92 403.97,235.00 404.65,232.88 405.34,233.31 406.02,235.03 406.71,232.80 407.39,233.30 408.08,235.25 408.77,233.19 409.45,232.82 410.14,234.65 410.82,234.30 411.51,328.05 412.19,313.65 412.88,284.66 413.57,178.78 414.25,163.67 414.94,160.16 415.62,244.99 416.31,223.93 416.99,226.90 417.68,227.38 418.37,227.35 419.05,227.01 419.74,227.48 420.42,227.19 421.11,227.08 421.80,226.92 422.48,227.48 423.17,227.08 423.85,226.83 424.54,227.67 425.22,227.35 425.91,228.07 426.60,227.08 427.28,228.08 427.97,227.59 428.65,227.50 429.34,227.32 430.02,227.27 430.71,227.30 431.40,227.07 432.08,227.25 432.77,228.54 433.45,323.53 434.14,306.42 434.82,311.03 435.51,319.52 436.20,156.00 436.88,257.49 437.57,240.93 438.25,240.32 438.94,239.44 439.62,240.05 440.31,240.97 441.00,239.25 441.68,240.04 442.37,239.09 443.05,322.86 443.74,366.43 444.43,293.74 445.11,296.04 445.80,292.15 446.48,290.26 447.17,289.82 447.85,291.83 448.54,290.21 449.23,289.65 449.91,291.02 450.60,194.37 451.28,321.39 451.97,350.87 452.65,372.57 453.34,289.65 454.03,296.10 454.71,301.03 455.40,299.64 456.08,297.71 456.77,300.60 457.45,299.82 458.14,297.78 458.83,299.46 459.51,300.63 460.20,297.49 460.88,299.02 461.57,300.72 462.25,297.79 462.94,299.18 463.63,302.26 464.31,297.52 465.00,201.31 465.68,215.47 466.37,242.61 467.06,352.27 467.74,369.96 468.43,375.61 469.11,291.03 469.80,311.18 470.48,308.39 471.17,309.00 471.86,309.21 472.54,309.31 473.23,309.54 473.91,309.98 474.60,309.41 475.28,308.95 475.97,308.64 476.66,308.25 477.34,308.53 478.03,307.51 478.71,308.18 479.40,307.92 480.08,308.68 480.77,309.28 481.46,309.39 482.14,309.48 482.83,309.21 483.51,308.78 484.20,308.43 484.89,308.34 485.57,307.96 486.26,307.40 486.94,210.81 487.63,227.47 488.31,219.74 489.00,209.48 489.69,375.09 490.37,271.59 491.06,290.13 491.74,291.94 492.43,289.85 493.11,290.41 493.80,292.20 494.49,287.45" fill="none" stroke="#0072B2" stroke-width="1.9" stroke-dasharray=""/>
<text x="747.5" y="33" text-anchor="middle" font-family="Arial" font-size="13">测试集</text>
<rect x="535.00" y="45.00" width="425.00" height="417.00" fill="none" stroke="#666"/>
<polyline points="535.00,238.60 535.69,235.43 536.37,236.85 537.06,236.59 537.74,240.19 538.43,236.29 539.11,235.68 539.80,255.29 540.49,296.39 541.17,340.21 541.86,202.65 542.54,179.26 543.23,162.17 543.91,240.97 544.60,233.89 545.29,232.71 545.97,232.75 546.66,231.67 547.34,234.21 548.03,228.98 548.72,295.12 549.40,248.73 550.09,232.89 550.77,233.03 551.46,231.14 552.14,232.73 552.83,233.41 553.52,231.49 554.20,232.31 554.89,234.20 555.57,322.85 556.26,310.86 556.94,263.72 557.63,238.25 558.32,170.97 559.00,157.00 559.69,245.72 560.37,225.09 561.06,225.88 561.74,226.37 562.43,227.09 563.12,225.76 563.80,226.76 564.49,229.16 565.17,223.75 565.86,290.91 566.54,244.54 567.23,227.22 567.92,227.08 568.60,225.14 569.29,226.26 569.97,225.86 570.66,225.29 571.35,225.30 572.03,226.23 572.72,224.34 573.40,224.53 574.09,241.95 574.77,285.18 575.46,234.98 576.15,223.20 576.83,226.89 577.52,320.32 578.20,301.94 578.89,307.37 579.57,320.00 580.26,160.56 580.95,255.47 581.63,242.28 582.32,233.83 583.00,300.78 583.69,256.40 584.37,238.62 585.06,238.59 585.75,238.55 586.43,236.02 587.12,320.12 587.80,365.77 588.49,293.85 589.18,296.69 589.86,288.92 590.55,291.96 591.23,307.21 591.92,350.04 592.60,301.35 593.29,289.67 593.98,290.55 594.66,195.52 595.35,322.55 596.03,351.52 596.72,372.52 597.40,291.14 598.09,300.37 598.78,302.67 599.46,295.72 600.15,365.77 600.83,317.49 601.52,300.25 602.20,301.92 602.89,300.74 603.58,300.33 604.26,300.35 604.95,302.18 605.63,300.15 606.32,302.08 607.00,300.92 607.69,299.20 608.38,316.32 609.06,265.09 609.75,224.66 610.43,277.54 611.12,352.09 611.81,371.45 612.49,374.03 613.18,290.39 613.86,312.98 614.55,309.71 615.23,309.93 615.92,311.76 616.61,305.61 617.29,372.86 617.98,325.72 618.66,308.97 619.35,308.96 620.03,308.58 620.72,309.32 621.41,310.22 622.09,310.03 622.78,310.53 623.46,311.50 624.15,310.32 624.83,309.56 625.52,327.02 626.21,368.40 626.89,318.18 627.58,308.57 628.26,309.38 628.95,311.16 629.63,311.97 630.32,310.96 631.01,216.84 631.69,230.72 632.38,222.33 633.06,210.61 633.75,368.47 634.44,341.28 635.12,307.13 635.81,293.57 636.49,295.22 637.18,291.33 637.86,293.08 638.55,294.91 639.24,291.73 639.92,295.58 640.61,207.52 641.29,163.21 641.98,237.25 642.66,250.14 643.35,294.35 644.04,244.66 644.72,236.94 645.41,238.24 646.09,236.55 646.78,238.51 647.46,239.42 648.15,332.28 648.84,203.96 649.52,179.49 650.21,163.42 650.89,236.45 651.58,297.20 652.27,249.56 652.95,233.89 653.64,232.43 654.32,231.12 655.01,232.75 655.69,232.54 656.38,231.30 657.07,232.54 657.75,233.54 658.44,230.09 659.12,231.44 659.81,248.76 660.49,289.16 661.18,240.85 661.87,230.51 662.55,323.88 663.24,311.59 663.92,246.92 664.61,180.04 665.29,163.03 665.98,158.59 666.67,246.54 667.35,227.32 668.04,221.94 668.72,291.04 669.41,244.59 670.09,227.31 670.78,227.88 671.47,226.53 672.15,227.48 672.84,227.39 673.52,227.16 674.21,226.76 674.90,227.81 675.58,224.62 676.27,225.58 676.95,241.39 677.64,284.89 678.32,234.02 679.01,223.91 679.70,226.45 680.38,226.34 681.07,226.23 681.75,226.34 682.44,226.77 683.12,225.18 683.81,227.50 684.50,322.50 685.18,298.84 685.87,370.22 686.55,334.93 687.24,158.29 687.92,257.00 688.61,239.88 689.30,237.42 689.98,238.11 690.67,239.41 691.35,238.15 692.04,238.94 692.72,237.73 693.41,235.17 694.10,335.60 694.78,404.83 695.47,299.41 696.15,294.43 696.84,289.65 697.53,293.13 698.21,290.30 698.90,290.72 699.58,293.39 700.27,290.82 700.95,289.71 701.64,197.27 702.33,318.52 703.01,415.71 703.70,388.81 704.38,291.95 705.07,300.93 705.75,299.52 706.44,300.11 707.13,302.07 707.81,300.38 708.50,300.40 709.18,302.41 709.87,299.32 710.55,299.75 711.24,316.12 711.93,360.67 712.61,307.91 713.30,298.62 713.98,302.42 714.67,300.48 715.35,300.54 716.04,206.23 716.73,217.47 717.41,279.58 718.10,352.28 718.78,373.15 719.47,370.04 720.16,355.46 720.84,328.25 721.53,310.16 722.21,310.35 722.90,307.91 723.58,308.67 724.27,308.45 724.96,308.73 725.64,308.20 726.33,308.75 727.01,306.61 727.70,307.71 728.38,324.42 729.07,368.09 729.76,317.78 730.44,307.85 731.13,310.79 731.81,310.88 732.50,310.40 733.18,309.08 733.87,310.72 734.56,309.69 735.24,310.58 735.93,312.24 736.61,307.15 737.30,374.48 737.99,232.13 738.67,231.33 739.36,223.20 740.04,206.46 740.73,374.13 741.41,275.99 742.10,290.22 742.79,292.66 743.47,294.61 744.16,290.50 744.84,292.00 745.53,309.92 746.21,350.31 746.90,303.05 747.59,203.95 748.27,164.67 748.96,238.19 749.64,234.66 750.33,238.05 751.01,236.66 751.70,238.48 752.39,238.75 753.07,238.94 753.76,234.78 754.44,302.75 755.13,349.54 755.81,204.27 756.50,180.55 757.19,161.36 757.87,241.39 758.56,234.79 759.24,231.93 759.93,233.43 760.62,233.25 761.30,230.67 761.99,232.60 762.67,248.60 763.36,290.10 764.04,241.52 764.73,230.76 765.42,232.16 766.10,233.73 766.79,232.94 767.47,231.72 768.16,232.91 768.84,232.56 769.53,324.49 770.22,313.62 770.90,243.51 771.59,244.15 772.27,179.52 772.96,159.51 773.64,246.82 774.33,224.38 775.02,226.42 775.70,227.03 776.39,226.10 777.07,226.25 777.76,227.95 778.44,225.66 779.13,226.67 779.82,242.66 780.50,286.26 781.19,235.02 781.87,224.16 782.56,225.50 783.25,226.58 783.93,225.57 784.62,225.82 785.30,225.74 785.99,224.97 786.67,226.20 787.36,228.11 788.05,222.27 788.73,290.02 789.42,243.83 790.10,225.84 790.79,227.89 791.47,319.74 792.16,302.78 792.85,308.09 793.53,319.27 794.22,160.43 794.90,256.81 795.59,238.45 796.27,236.62 796.96,253.82 797.65,297.26 798.33,247.16 799.02,235.91 799.70,238.72 800.39,237.01 801.08,320.05 801.76,365.06 802.45,293.30 803.13,295.35 803.82,290.56 804.50,294.89 805.19,287.31 805.88,356.28 806.56,310.44 807.25,292.26 807.93,290.79 808.62,194.74 809.30,323.46 809.99,351.08 810.68,371.07 811.36,292.13 812.05,300.79 812.73,297.33 813.42,299.06 814.10,317.26 814.79,358.61 815.48,308.05 816.16,299.29 816.85,300.86 817.53,301.33 818.22,299.97 818.90,302.80 819.59,300.72 820.28,300.28 820.96,302.64 821.65,302.13 822.33,296.35 823.02,270.80 823.71,235.10 824.39,277.41 825.08,353.59 825.76,369.59 826.45,374.33 827.13,290.77 827.82,312.26 828.51,310.55 829.19,310.95 829.88,307.74 830.56,309.15 831.25,324.52 831.93,367.26 832.62,315.80 833.31,305.43 833.99,307.74 834.68,308.44 835.36,309.43 836.05,309.82 836.73,310.41 837.42,309.76 838.11,310.15 838.79,312.59 839.48,306.42 840.16,374.43 840.85,327.81 841.53,310.92 842.22,310.39 842.91,310.03 843.59,310.60 844.28,310.29 844.96,215.28 845.65,231.36 846.34,223.35 847.02,205.33 847.71,373.44 848.39,291.10 849.08,349.02 849.76,301.56 850.45,291.58 851.14,291.24 851.82,293.54 852.51,293.78 853.19,291.77 853.88,295.31 854.56,205.36 855.25,164.52 855.94,239.86 856.62,231.05 857.31,301.02 857.99,254.20 858.68,240.35 859.36,238.58 860.05,236.50 860.74,239.49 861.42,239.41 862.11,332.32 862.79,204.48 863.48,180.60 864.16,159.95 864.85,240.63 865.54,250.61 866.22,290.74 866.91,242.60 867.59,229.98 868.28,232.30 868.97,233.86 869.65,232.39 870.34,231.99 871.02,233.69 871.71,232.25 872.39,232.62 873.08,235.45 873.77,229.12 874.45,295.04 875.14,249.82 875.82,234.21 876.51,325.68 877.19,311.52 877.88,247.69 878.57,180.43 879.25,162.29 879.94,159.34 880.62,247.56 881.31,223.67 881.99,225.69 882.68,243.25 883.37,286.21 884.05,235.16 884.74,225.22 885.42,227.14 886.11,228.04 886.80,226.98 887.48,227.50 888.17,227.29 888.85,225.76 889.54,225.90 890.22,228.58 890.91,222.00 891.60,290.06 892.28,243.81 892.97,226.49 893.65,227.11 894.34,225.58 895.02,226.88 895.71,226.79 896.40,226.05 897.08,225.25 897.77,227.73 898.45,318.70 899.14,301.88 899.82,323.89 900.51,373.48 901.20,162.54 901.88,253.98 902.57,240.27 903.25,238.79 903.94,237.31 904.62,239.48 905.31,239.04 906.00,236.99 906.68,239.11 907.37,239.08 908.05,316.09 908.74,430.24 909.43,310.19 910.11,296.42 910.80,290.73 911.48,292.37 912.17,291.52 912.85,290.79 913.54,292.95 914.23,291.68 914.91,290.12 915.60,193.22 916.28,321.91 916.97,366.11 917.65,430.98 918.34,299.41 919.03,297.17 919.71,299.50 920.40,299.98 921.08,300.68 921.77,299.44 922.45,299.79 923.14,299.48 923.83,300.61 924.51,302.36 925.20,295.30 925.88,365.86 926.57,317.23 927.25,301.09 927.94,301.97 928.63,299.33 929.31,300.42 930.00,205.80 930.68,217.13 931.37,278.50 932.06,353.06 932.74,368.54 933.43,372.76 934.11,305.40 934.80,370.02 935.48,317.00 936.17,306.71 936.86,307.52 937.54,310.01 938.23,307.47 938.91,308.80 939.60,307.96 940.28,307.84 940.97,308.19 941.66,310.79 942.34,305.13 943.03,373.65 943.71,326.26 944.40,310.09 945.08,311.34 945.77,309.86 946.46,310.25 947.14,310.16 947.83,310.25 948.51,310.20 949.20,310.51 949.89,308.47 950.57,310.04 951.26,325.75 951.94,274.02 952.63,238.58 953.31,220.22 954.00,208.14 954.69,373.06 955.37,275.38 956.06,289.55 956.74,292.81 957.43,293.72 958.11,291.09 958.80,293.02 959.49,294.53" fill="none" stroke="#000000" stroke-width="1.5"/>
<polyline points="535.00,248.61 535.69,247.84 536.37,249.54 537.06,251.09 537.74,253.12 538.43,248.59 539.11,250.79 539.80,266.79 540.49,315.60 541.17,356.13 541.86,223.43 542.54,190.17 543.23,166.48 543.91,246.55 544.60,238.47 545.29,235.60 545.97,236.98 546.66,236.64 547.34,237.26 548.03,232.65 548.72,308.20 549.40,252.59 550.09,237.06 550.77,238.17 551.46,234.50 552.14,236.39 552.83,238.12 553.52,235.15 554.20,235.44 554.89,238.96 555.57,333.81 556.26,328.04 556.94,283.09 557.63,256.12 558.32,174.92 559.00,155.58 559.69,238.30 560.37,218.60 561.06,220.36 561.74,221.39 562.43,221.51 563.12,220.43 563.80,221.55 564.49,223.19 565.17,216.51 565.86,292.50 566.54,239.22 567.23,221.90 567.92,221.62 568.60,220.50 569.29,221.31 569.97,221.00 570.66,220.58 571.35,221.07 572.03,221.64 572.72,219.52 573.40,220.90 574.09,235.79 574.77,286.88 575.46,228.04 576.15,218.56 576.83,222.20 577.52,320.01 578.20,310.23 578.89,322.65 579.57,337.72 580.26,171.60 580.95,269.57 581.63,254.41 582.32,245.06 583.00,322.14 583.69,269.39 584.37,250.82 585.06,251.80 585.75,251.36 586.43,248.42 587.12,338.25 587.80,354.47 588.49,287.25 589.18,287.22 589.86,279.82 590.55,282.47 591.23,295.67 591.92,345.90 592.60,289.03 593.29,278.92 593.98,281.22 594.66,184.59 595.35,305.28 596.03,343.23 596.72,367.25 597.40,284.48 598.09,295.10 598.78,299.52 599.46,290.37 600.15,367.21 600.83,314.66 601.52,295.53 602.20,296.55 602.89,297.39 603.58,295.90 604.26,296.08 604.95,298.39 605.63,296.06 606.32,296.37 607.00,296.80 607.69,295.40 608.38,309.42 609.06,262.87 609.75,212.05 610.43,261.74 611.12,342.46 611.81,365.81 612.49,374.38 613.18,295.26 613.86,315.97 614.55,312.72 615.23,312.37 615.92,313.34 616.61,306.92 617.29,382.14 617.98,327.51 618.66,311.61 619.35,311.40 620.03,311.18 620.72,312.18 621.41,312.83 622.09,312.62 622.78,312.74 623.46,313.25 624.15,311.62 624.83,311.80 625.52,326.48 626.21,376.02 626.89,318.28 627.58,309.43 628.26,310.78 628.95,312.60 629.63,312.38 630.32,311.46 631.01,215.11 631.69,222.06 632.38,210.81 633.06,198.63 633.75,356.76 634.44,334.39 635.12,296.71 635.81,283.17 636.49,282.79 637.18,280.61 637.86,282.38 638.55,282.64 639.24,281.02 639.92,284.41 640.61,194.37 641.29,176.12 641.98,248.06 642.66,261.62 643.35,314.22 644.04,258.19 644.72,249.79 645.41,250.69 646.09,250.73 646.78,251.64 647.46,251.49 648.15,349.01 648.84,225.01 649.52,190.92 650.21,167.90 650.89,241.96 651.58,310.24 652.27,252.76 652.95,238.05 653.64,237.29 654.32,234.54 655.01,237.03 655.69,237.56 656.38,234.79 657.07,236.88 657.75,238.20 658.44,233.24 659.12,236.24 659.81,252.43 660.49,300.39 661.18,243.39 661.87,235.76 662.55,335.09 663.24,327.79 663.92,268.03 664.61,191.50 665.29,168.27 665.98,157.25 666.67,238.57 667.35,220.12 668.04,215.23 668.72,292.60 669.41,238.87 670.09,221.54 670.78,221.67 671.47,220.56 672.15,221.34 672.84,221.43 673.52,221.21 674.21,221.31 674.90,221.96 675.58,219.53 676.27,221.20 676.95,235.11 677.64,286.41 678.32,227.80 679.01,218.96 679.70,221.33 680.38,221.32 681.07,221.09 681.75,221.51 682.44,221.45 683.12,220.48 683.81,222.58 684.50,321.48 685.18,305.86 685.87,393.69 686.55,353.69 687.24,169.42 687.92,270.34 688.61,251.88 689.30,249.51 689.98,251.36 690.67,251.89 691.35,250.17 692.04,252.17 692.72,250.10 693.41,247.72 694.10,353.85 694.78,400.96 695.47,292.87 696.15,284.79 696.84,281.15 697.53,282.98 698.21,281.10 698.90,281.18 699.58,282.85 700.27,280.64 700.95,280.87 701.64,186.24 702.33,300.63 703.01,413.87 703.70,383.25 704.38,285.32 705.07,295.87 705.75,296.29 706.44,295.18 707.13,297.14 707.81,297.08 708.50,295.42 709.18,297.21 709.87,296.27 710.55,295.58 711.24,310.12 711.93,363.08 712.61,302.97 713.30,293.03 713.98,298.25 714.67,296.67 715.35,294.57 716.04,198.43 716.73,206.26 717.41,263.16 718.10,343.17 718.78,367.55 719.47,369.57 720.16,367.24 720.84,331.58 721.53,313.96 722.21,312.77 722.90,310.57 723.58,311.72 724.27,311.20 724.96,310.83 725.64,311.07 726.33,311.33 727.01,309.58 727.70,311.82 728.38,326.60 729.07,377.52 729.76,319.55 730.44,310.09 731.13,313.54 731.81,311.99 732.50,311.67 733.18,310.82 733.87,311.70 734.56,310.61 735.24,311.57 735.93,313.65 736.61,307.41 737.30,382.14 737.99,231.70 738.67,223.47 739.36,211.48 740.04,196.51 740.73,362.65 741.41,264.50 742.10,280.39 742.79,282.30 743.47,283.28 744.16,279.36 744.84,282.02 745.53,296.92 746.21,345.99 746.90,290.50 747.59,191.26 748.27,178.00 748.96,247.99 749.64,246.97 750.33,250.17 751.01,250.88 751.70,251.26 752.39,251.13 753.07,252.44 753.76,246.63 754.44,322.54 755.13,366.40 755.81,225.85 756.50,191.57 757.19,165.05 757.87,246.62 758.56,239.17 759.24,234.73 759.93,237.24 760.62,237.44 761.30,233.50 761.99,237.22 762.67,252.13 763.36,300.04 764.04,244.53 764.73,235.00 765.42,235.15 766.10,237.33 766.79,237.34 767.47,235.17 768.16,236.12 768.84,237.60 769.53,335.43 770.22,329.39 770.90,263.57 771.59,262.32 772.27,185.36 772.96,158.33 773.64,238.52 774.33,217.63 775.02,220.54 775.70,221.77 776.39,220.82 777.07,221.35 777.76,222.20 778.44,219.80 779.13,221.04 779.82,235.70 780.50,286.84 781.19,228.34 781.87,218.68 782.56,221.02 783.25,221.59 783.93,220.50 784.62,220.85 785.30,221.10 785.99,220.45 786.67,221.66 787.36,222.70 788.05,216.38 788.73,292.48 789.42,238.73 790.10,221.36 790.79,222.66 791.47,319.10 792.16,310.47 792.85,322.76 793.53,336.91 794.22,171.76 794.90,270.13 795.59,250.71 796.27,249.61 796.96,266.18 797.65,316.86 798.33,257.91 799.02,248.86 799.70,251.55 800.39,249.06 801.08,337.87 801.76,354.16 802.45,287.00 803.13,286.02 803.82,282.13 804.50,284.24 805.19,276.57 805.88,352.25 806.56,299.63 807.25,281.76 807.93,281.02 808.62,183.39 809.30,306.08 809.99,342.21 810.68,365.65 811.36,285.90 812.05,296.29 812.73,294.55 813.42,294.48 814.10,311.73 814.79,361.86 815.48,302.45 816.16,293.95 816.85,298.36 817.53,296.35 818.22,295.34 818.90,299.17 819.59,295.96 820.28,294.83 820.96,298.77 821.65,298.03 822.33,289.86 823.02,269.52 823.71,222.84 824.39,263.21 825.08,343.95 825.76,364.32 826.45,374.13 827.13,295.01 827.82,314.67 828.51,313.52 829.19,312.54 829.88,309.87 830.56,311.42 831.25,325.69 831.93,375.16 832.62,317.71 833.31,307.50 833.99,311.08 834.68,311.37 835.36,312.14 836.05,312.47 836.73,312.67 837.42,311.68 838.11,312.55 838.79,313.81 839.48,306.79 840.16,382.47 840.85,328.09 841.53,311.69 842.22,311.05 842.91,311.09 843.59,311.92 844.28,310.74 844.96,214.58 845.65,223.21 846.34,211.57 847.02,195.15 847.71,362.84 848.39,278.33 849.08,345.67 849.76,289.93 850.45,279.69 851.14,281.19 851.82,282.65 852.51,281.82 853.19,281.45 853.88,284.21 854.56,192.83 855.25,178.09 855.94,249.48 856.62,242.61 857.31,321.30 857.99,268.35 858.68,253.01 859.36,250.68 860.05,250.22 860.74,252.14 861.42,251.28 862.11,348.79 862.79,225.63 863.48,191.43 864.16,163.95 864.85,246.73 865.54,253.52 866.22,299.97 866.91,245.00 867.59,233.79 868.28,235.20 868.97,237.91 869.65,237.00 870.34,234.94 871.02,237.48 871.71,236.70 872.39,235.35 873.08,238.80 873.77,232.77 874.45,306.83 875.14,252.73 875.82,238.87 876.51,336.29 877.19,327.25 877.88,268.83 878.57,191.35 879.25,167.71 879.94,158.09 880.62,238.82 881.31,216.40 881.99,220.50 882.68,236.21 883.37,286.63 884.05,227.99 884.74,218.94 885.42,221.38 886.11,221.61 886.80,221.17 887.48,221.52 888.17,221.64 888.85,220.45 889.54,221.46 890.22,223.21 890.91,215.95 891.60,292.39 892.28,238.74 892.97,221.32 893.65,221.64 894.34,220.56 895.02,221.54 895.71,221.47 896.40,220.73 897.08,220.92 897.77,222.53 898.45,317.81 899.14,310.17 899.82,336.94 900.51,397.59 901.20,172.36 901.88,267.99 902.57,252.57 903.25,250.50 903.94,251.01 904.62,251.93 905.31,250.74 906.00,250.67 906.68,251.85 907.37,250.98 908.05,333.21 908.74,425.22 909.43,303.58 910.11,287.19 910.80,281.64 911.48,282.37 912.17,281.63 912.85,281.21 913.54,282.56 914.23,281.46 914.91,280.81 915.60,182.31 916.28,305.55 916.97,355.98 917.65,431.83 918.34,292.13 919.03,292.59 919.71,297.00 920.40,295.76 921.08,296.48 921.77,297.53 922.45,295.85 923.14,295.27 923.83,298.29 924.51,297.87 925.20,290.78 925.88,369.47 926.57,313.28 927.25,296.75 927.94,298.30 928.63,295.05 929.31,295.40 930.00,199.03 930.68,205.63 931.37,262.71 932.06,343.58 932.74,363.27 933.43,373.77 934.11,309.66 934.80,380.07 935.48,319.67 936.17,309.91 936.86,310.85 937.54,312.61 938.23,310.92 938.91,310.70 939.60,310.99 940.28,310.13 940.97,311.94 941.66,313.44 942.34,306.96 943.03,383.55 943.71,329.04 944.40,313.16 945.08,313.29 945.77,311.51 946.46,311.98 947.14,311.92 947.83,310.99 948.51,311.88 949.20,311.36 949.89,310.18 950.57,311.92 951.26,325.63 951.94,279.01 952.63,229.94 953.31,208.28 954.00,196.60 954.69,362.63 955.37,263.21 956.06,280.15 956.74,282.65 957.43,282.03 958.11,280.95 958.80,283.12 959.49,280.40" fill="none" stroke="#D55E00" stroke-width="1.9" stroke-dasharray="8 4"/>
<polyline points="535.00,239.19 535.69,237.92 536.37,239.63 537.06,241.15 537.74,243.21 538.43,238.69 539.11,240.82 539.80,256.89 540.49,305.77 541.17,344.25 541.86,206.20 542.54,179.87 543.23,162.10 543.91,243.73 544.60,235.72 545.29,232.85 545.97,234.24 546.66,233.85 547.34,234.51 548.03,229.92 548.72,304.16 549.40,250.08 550.09,234.36 550.77,235.41 551.46,231.73 552.14,233.64 552.83,235.36 553.52,232.37 554.20,232.69 554.89,236.22 555.57,328.15 556.26,316.20 556.94,300.54 557.63,245.40 558.32,170.07 559.00,156.55 559.69,243.48 560.37,223.34 561.06,225.04 561.74,226.07 562.43,226.20 563.12,225.13 563.80,226.23 564.49,227.90 565.17,221.23 565.86,295.94 566.54,244.17 567.23,226.63 567.92,226.32 568.60,225.19 569.29,226.01 569.97,225.70 570.66,225.28 571.35,225.76 572.03,226.34 572.72,224.22 573.40,225.55 574.09,240.51 574.77,291.65 575.46,232.92 576.15,223.26 576.83,226.90 577.52,322.23 578.20,306.21 578.89,312.60 579.57,321.69 580.26,158.98 580.95,259.82 581.63,244.55 582.32,235.18 583.00,310.95 583.69,259.73 584.37,240.95 585.06,241.88 585.75,241.45 586.43,238.54 587.12,323.98 587.80,369.37 588.49,296.69 589.18,297.22 589.86,289.79 590.55,292.41 591.23,305.67 591.92,355.94 592.60,299.18 593.29,288.91 593.98,291.14 594.66,196.67 595.35,322.59 596.03,353.55 596.72,371.68 597.40,287.35 598.09,297.90 598.78,302.33 599.46,293.20 600.15,368.79 600.83,317.73 601.52,298.37 602.20,299.39 602.89,300.19 603.58,298.70 604.26,298.90 604.95,301.20 605.63,298.86 606.32,299.20 607.00,299.62 607.69,298.17 608.38,312.24 609.06,268.64 609.75,224.05 610.43,244.38 611.12,353.30 611.81,370.89 612.49,373.46 613.18,290.12 613.86,311.29 614.55,308.09 615.23,307.72 615.92,308.72 616.61,302.31 617.29,376.25 617.98,323.14 618.66,307.00 619.35,306.76 620.03,306.53 620.72,307.52 621.41,308.19 622.09,307.99 622.78,308.09 623.46,308.61 624.15,306.99 624.83,307.14 625.52,321.87 626.21,371.45 626.89,313.81 627.58,304.80 628.26,306.13 628.95,307.95 629.63,307.74 630.32,306.79 631.01,212.95 631.69,226.12 632.38,220.88 633.06,214.72 633.75,369.49 634.44,342.95 635.12,306.90 635.81,293.16 636.49,292.78 637.18,290.57 637.86,292.34 638.55,292.63 639.24,290.97 639.92,294.34 640.61,208.67 641.29,161.33 641.98,238.63 642.66,251.71 643.35,304.35 644.04,248.42 644.72,239.89 645.41,240.78 646.09,240.80 646.78,241.71 647.46,241.62 648.15,336.96 648.84,207.76 649.52,180.63 650.21,163.53 650.89,239.16 651.58,306.22 652.27,250.27 652.95,235.35 653.64,234.52 654.32,231.78 655.01,234.28 655.69,234.80 656.38,232.02 657.07,234.13 657.75,235.45 658.44,230.47 659.12,233.45 659.81,249.68 660.49,297.68 661.18,240.82 661.87,233.02 662.55,329.42 663.24,316.00 663.92,285.45 664.61,180.70 665.29,163.26 665.98,158.20 666.67,243.76 667.35,224.87 668.04,219.93 668.72,296.03 669.41,243.83 670.09,226.28 670.78,226.36 671.47,225.25 672.15,226.03 672.84,226.13 673.52,225.90 674.21,226.00 674.90,226.67 675.58,224.23 676.27,225.86 676.95,239.82 677.64,291.18 678.32,232.66 679.01,223.66 679.70,226.01 680.38,226.02 681.07,225.78 681.75,226.20 682.44,226.15 683.12,225.17 683.81,227.29 684.50,323.71 685.18,301.87 685.87,382.35 686.55,337.88 687.24,156.77 687.92,260.61 688.61,242.01 689.30,239.60 689.98,241.43 690.67,241.98 691.35,240.26 692.04,242.25 692.72,240.19 693.41,237.80 694.10,339.58 694.78,415.92 695.47,302.44 696.15,294.79 696.84,291.10 697.53,292.96 698.21,291.08 698.90,291.13 699.58,292.82 700.27,290.62 700.95,290.79 701.64,198.33 702.33,317.97 703.01,422.94 703.70,387.95 704.38,288.24 705.07,298.68 705.75,299.09 706.44,297.98 707.13,299.96 707.81,299.88 708.50,298.21 709.18,300.05 709.87,299.08 710.55,298.35 711.24,312.95 711.93,365.97 712.61,305.94 713.30,295.86 713.98,301.07 714.67,299.47 715.35,297.37 716.04,204.12 716.73,218.09 717.41,245.80 718.10,354.00 718.78,372.63 719.47,368.68 720.16,360.87 720.84,327.16 721.53,309.37 722.21,308.15 722.90,305.94 723.58,307.08 724.27,306.56 724.96,306.19 725.64,306.43 726.33,306.69 727.01,304.94 727.70,307.13 728.38,321.97 729.07,372.95 729.76,315.08 730.44,305.47 731.13,308.90 731.81,307.36 732.50,307.04 733.18,306.17 733.87,307.07 734.56,305.97 735.24,306.92 735.93,309.01 736.61,302.79 737.30,376.22 737.99,229.78 738.67,227.56 739.36,221.57 740.04,212.56 740.73,375.37 741.41,274.31 742.10,290.30 742.79,292.26 743.47,293.27 744.16,289.33 744.84,291.95 745.53,306.92 746.21,356.03 746.90,300.61 747.59,205.57 748.27,163.20 748.96,238.59 749.64,237.04 750.33,240.26 751.01,240.94 751.70,241.34 752.39,241.22 753.07,242.52 753.76,236.73 754.44,311.40 755.13,354.60 755.81,208.63 756.50,181.29 757.19,160.67 757.87,243.79 758.56,236.42 759.24,231.97 759.93,234.49 760.62,234.67 761.30,230.73 761.99,234.43 762.67,249.38 763.36,297.34 764.04,241.96 764.73,232.24 765.42,232.38 766.10,234.59 766.79,234.57 767.47,232.40 768.16,233.37 768.84,234.86 769.53,329.76 770.22,317.60 770.90,246.23 771.59,250.27 772.27,180.60 772.96,159.32 773.64,243.73 774.33,222.37 775.02,225.22 775.70,226.46 776.39,225.51 777.07,226.04 777.76,226.90 778.44,224.49 779.13,225.71 779.82,240.41 780.50,291.61 781.19,233.22 781.87,223.39 782.56,225.70 783.25,226.29 783.93,225.19 784.62,225.54 785.30,225.78 785.99,225.14 786.67,226.34 787.36,227.41 788.05,221.10 788.73,295.92 789.42,243.70 790.10,226.09 790.79,227.38 791.47,321.31 792.16,306.45 792.85,312.71 793.53,320.87 794.22,159.13 794.90,260.40 795.59,240.84 796.27,239.66 796.96,256.27 797.65,307.00 798.33,248.18 799.02,238.94 799.70,241.62 800.39,239.19 801.08,323.60 801.76,369.05 802.45,296.45 803.13,296.01 803.82,292.08 804.50,294.23 805.19,286.58 805.88,360.96 806.56,309.88 807.25,291.78 807.93,290.97 808.62,195.47 809.30,323.40 809.99,352.52 810.68,370.08 811.36,288.77 812.05,299.09 812.73,297.35 813.42,297.25 814.10,314.58 814.79,364.74 815.48,305.42 816.16,296.79 816.85,301.15 817.53,299.16 818.22,298.16 818.90,301.99 819.59,298.77 820.28,297.65 820.96,301.58 821.65,300.85 822.33,292.69 823.02,273.96 823.71,234.94 824.39,245.86 825.08,354.80 825.76,369.38 826.45,373.22 827.13,289.88 827.82,310.00 828.51,308.88 829.19,307.91 829.88,305.23 830.56,306.75 831.25,321.07 831.93,370.60 832.62,313.24 833.31,302.87 833.99,306.42 834.68,306.72 835.36,307.50 836.05,307.83 836.73,308.04 837.42,307.05 838.11,307.90 838.79,309.19 839.48,302.18 840.16,376.58 840.85,323.73 841.53,307.09 842.22,306.41 842.91,306.44 843.59,307.26 844.28,306.07 844.96,212.41 845.65,227.26 846.34,221.67 847.02,211.21 847.71,375.53 848.39,288.14 849.08,355.67 849.76,300.06 850.45,289.69 851.14,291.15 851.82,292.61 852.51,291.81 853.19,291.41 853.88,294.13 854.56,207.13 855.25,163.28 855.94,240.09 856.62,232.71 857.31,310.12 857.99,258.67 858.68,243.14 859.36,240.79 860.05,240.29 860.74,242.21 861.42,241.40 862.11,336.75 862.79,208.37 863.48,181.16 864.16,159.57 864.85,243.88 865.54,250.79 866.22,297.28 866.91,242.43 867.59,231.03 868.28,232.43 868.97,235.16 869.65,234.22 870.34,232.18 871.02,234.74 871.71,233.93 872.39,232.59 873.08,236.06 873.77,230.03 874.45,302.80 875.14,250.24 875.82,236.17 876.51,330.64 877.19,315.46 877.88,286.25 878.57,180.56 879.25,162.69 879.94,159.04 880.62,244.03 881.31,221.14 881.99,225.14 882.68,240.92 883.37,291.40 884.05,232.87 884.74,223.64 885.42,226.06 886.11,226.31 886.80,225.86 887.48,226.21 888.17,226.34 888.85,225.15 889.54,226.14 890.22,227.92 890.91,220.67 891.60,295.83 892.28,243.70 892.97,226.06 893.65,226.34 894.34,225.26 895.02,226.23 895.71,226.17 896.40,225.43 897.08,225.61 897.77,227.26 898.45,320.03 899.14,306.12 899.82,326.91 900.51,381.59 901.20,159.77 901.88,258.24 902.57,242.70 903.25,240.60 903.94,241.08 904.62,242.01 905.31,240.84 906.00,240.74 906.68,241.92 907.37,241.12 908.05,318.97 908.74,438.87 909.43,313.29 910.11,297.23 910.80,291.61 911.48,292.34 912.17,291.60 912.85,291.17 913.54,292.53 914.23,291.44 914.91,290.75 915.60,194.38 916.28,322.85 916.97,366.30 917.65,436.34 918.34,295.17 919.03,295.40 919.71,299.79 920.40,298.56 921.08,299.31 921.77,300.33 922.45,298.65 923.14,298.10 923.83,301.09 924.51,300.70 925.20,293.62 925.88,371.04 926.57,316.36 927.25,299.61 927.94,301.12 928.63,297.86 929.31,298.20 930.00,204.72 930.68,217.47 931.37,280.12 932.06,354.42 932.74,368.33 933.43,372.82 934.11,304.54 934.80,375.47 935.48,315.21 936.17,305.30 936.86,306.20 937.54,307.98 938.23,306.28 938.91,306.07 939.60,306.35 940.28,305.48 940.97,307.28 941.66,308.80 942.34,302.34 943.03,377.65 943.71,324.66 944.40,308.55 945.08,308.66 945.77,306.88 946.46,307.35 947.14,307.28 947.83,306.36 948.51,307.24 949.20,306.72 949.89,305.53 950.57,307.24 951.26,320.99 951.94,276.92 952.63,234.17 953.31,218.38 954.00,212.67 954.69,375.32 955.37,273.02 956.06,290.06 956.74,292.61 957.43,292.02 958.11,290.91 958.80,293.07 959.49,290.41" fill="none" stroke="#E69F00" stroke-width="1.9" stroke-dasharray="3 3"/>
<polyline points="535.00,238.10 535.69,236.73 536.37,238.45 537.06,239.97 537.74,242.03 538.43,237.51 539.11,239.63 539.80,255.71 540.49,304.62 541.17,342.73 541.86,203.69 542.54,178.62 543.23,161.91 543.91,243.82 544.60,235.83 545.29,232.96 545.97,234.35 546.66,233.95 547.34,234.62 548.03,230.04 548.72,304.05 549.40,250.24 550.09,234.48 550.77,235.52 551.46,231.83 552.14,233.75 552.83,235.46 553.52,232.48 554.20,232.79 554.89,236.33 555.57,327.74 556.26,314.69 556.94,298.00 557.63,244.07 558.32,169.80 559.00,157.32 559.69,245.02 560.37,224.80 561.06,226.49 561.74,227.52 562.43,227.65 563.12,226.58 563.80,227.67 564.49,229.35 565.17,222.69 565.86,297.17 566.54,245.67 567.23,228.08 567.92,227.77 568.60,226.64 569.29,227.46 569.97,227.15 570.66,226.73 571.35,227.20 572.03,227.78 572.72,225.67 573.40,227.00 574.09,241.96 574.77,293.12 575.46,234.40 576.15,224.71 576.83,228.35 577.52,323.24 578.20,306.10 578.89,311.40 579.57,319.42 580.26,157.30 580.95,258.67 581.63,243.38 582.32,234.01 583.00,309.54 583.69,258.59 584.37,239.77 585.06,240.70 585.75,240.27 586.43,237.36 587.12,322.02 587.80,367.35 588.49,295.60 589.18,296.02 589.86,288.59 590.55,291.22 591.23,304.48 591.92,354.78 592.60,297.96 593.29,287.71 593.98,289.95 594.66,195.02 595.35,320.10 596.03,352.34 596.72,371.55 597.40,287.43 598.09,298.00 598.78,302.44 599.46,293.29 600.15,369.17 600.83,317.80 601.52,298.47 602.20,299.49 602.89,300.30 603.58,298.80 604.26,298.99 604.95,301.30 605.63,298.97 606.32,299.30 607.00,299.72 607.69,298.27 608.38,312.35 609.06,268.18 609.75,222.44 610.43,241.85 611.12,351.99 611.81,370.64 612.49,374.29 613.18,291.65 613.86,312.75 614.55,309.54 615.23,309.18 615.92,310.17 616.61,303.75 617.29,377.98 617.98,324.55 618.66,308.44 619.35,308.21 620.03,307.98 620.72,308.97 621.41,309.64 622.09,309.44 622.78,309.54 623.46,310.06 624.15,308.44 624.83,308.59 625.52,323.32 626.21,372.94 626.89,315.23 627.58,306.25 628.26,307.58 628.95,309.40 629.63,309.19 630.32,308.24 631.01,213.88 631.69,225.94 632.38,219.61 633.06,212.36 633.75,367.85 634.44,342.05 635.12,305.67 635.81,291.96 636.49,291.58 637.18,289.38 637.86,291.14 638.55,291.43 639.24,289.78 639.92,293.16 640.61,206.63 641.29,159.26 641.98,237.54 642.66,250.54 643.35,303.19 644.04,247.27 644.72,238.71 645.41,239.61 646.09,239.61 646.78,240.53 647.46,240.44 648.15,335.41 648.84,205.26 649.52,179.37 650.21,163.34 650.89,239.27 651.58,306.11 652.27,250.43 652.95,235.46 653.64,234.62 654.32,231.88 655.01,234.39 655.69,234.90 656.38,232.13 657.07,234.24 657.75,235.55 658.44,230.58 659.12,233.55 659.81,249.80 660.49,297.80 661.18,240.96 661.87,233.13 662.55,329.01 663.24,314.49 663.92,282.90 664.61,179.35 665.29,162.95 665.98,158.97 666.67,245.30 667.35,226.33 668.04,221.38 668.72,297.26 669.41,245.33 670.09,227.73 670.78,227.81 671.47,226.70 672.15,227.48 672.84,227.57 673.52,227.35 674.21,227.44 674.90,228.12 675.58,225.67 676.27,227.31 676.95,241.27 677.64,292.65 678.32,234.14 679.01,225.11 679.70,227.46 680.38,227.47 681.07,227.23 681.75,227.64 682.44,227.60 683.12,226.62 683.81,228.74 684.50,324.73 685.18,301.77 685.87,380.94 686.55,335.65 687.24,155.09 687.92,259.46 688.61,240.84 689.30,238.42 689.98,240.25 690.67,240.80 691.35,239.08 692.04,241.07 692.72,239.01 693.41,236.62 694.10,337.63 694.78,413.92 695.47,301.33 696.15,293.59 696.84,289.91 697.53,291.76 698.21,289.88 698.90,289.94 699.58,291.63 700.27,289.42 700.95,289.60 701.64,196.68 702.33,315.46 703.01,422.01 703.70,387.78 704.38,288.31 705.07,298.78 705.75,299.19 706.44,298.08 707.13,300.06 707.81,299.99 708.50,298.32 709.18,300.15 709.87,299.18 710.55,298.46 711.24,313.06 711.93,366.10 712.61,306.02 713.30,295.96 713.98,301.17 714.67,299.58 715.35,297.47 716.04,203.63 716.73,216.50 717.41,243.28 718.10,352.70 718.78,372.38 719.47,369.50 720.16,362.67 720.84,328.58 721.53,310.82 722.21,309.59 722.90,307.39 723.58,308.53 724.27,308.01 724.96,307.64 725.64,307.88 726.33,308.14 727.01,306.39 727.70,308.59 728.38,323.43 729.07,374.44 729.76,316.50 730.44,306.91 731.13,310.35 731.81,308.81 732.50,308.49 733.18,307.62 733.87,308.52 734.56,307.42 735.24,308.37 735.93,310.46 736.61,304.24 737.30,377.96 737.99,230.68 738.67,227.38 739.36,220.30 740.04,210.21 740.73,373.74 741.41,273.13 742.10,289.12 742.79,291.07 743.47,292.08 744.16,288.14 744.84,290.76 745.53,305.73 746.21,354.87 746.90,299.40 747.59,203.52 748.27,161.13 748.96,237.50 749.64,235.85 750.33,239.08 751.01,239.76 751.70,240.16 752.39,240.04 753.07,241.34 753.76,235.55 754.44,310.00 755.13,353.09 755.81,206.13 756.50,180.04 757.19,160.47 757.87,243.89 758.56,236.53 759.24,232.08 759.93,234.60 760.62,234.78 761.30,230.84 761.99,234.53 762.67,249.49 763.36,297.46 764.04,242.11 764.73,232.35 765.42,232.49 766.10,234.70 766.79,234.68 767.47,232.50 768.16,233.48 768.84,234.96 769.53,329.35 770.22,316.10 770.90,243.71 771.59,248.71 772.27,180.34 772.96,160.10 773.64,245.27 774.33,223.82 775.02,226.66 775.70,227.91 776.39,226.95 777.07,227.49 777.76,228.35 778.44,225.94 779.13,227.15 779.82,241.86 780.50,293.08 781.19,234.70 781.87,224.84 782.56,227.15 783.25,227.74 783.93,226.64 784.62,226.99 785.30,227.23 785.99,226.59 786.67,227.78 787.36,228.86 788.05,222.55 788.73,297.15 789.42,245.20 790.10,227.54 790.79,228.84 791.47,322.32 792.16,306.34 792.85,311.51 793.53,318.60 794.22,157.45 794.90,259.25 795.59,239.67 796.27,238.47 796.96,255.09 797.65,305.84 798.33,247.04 799.02,237.76 799.70,240.44 800.39,238.01 801.08,321.64 801.76,367.03 802.45,295.35 803.13,294.81 803.82,290.89 804.50,293.03 805.19,285.37 805.88,360.04 806.56,308.65 807.25,290.57 807.93,289.78 808.62,193.82 809.30,320.91 809.99,351.31 810.68,369.95 811.36,288.85 812.05,299.20 812.73,297.45 813.42,297.36 814.10,314.69 814.79,364.88 815.48,305.49 816.16,296.89 816.85,301.25 817.53,299.26 818.22,298.26 818.90,302.09 819.59,298.87 820.28,297.75 820.96,301.68 821.65,300.95 822.33,292.78 823.02,273.74 823.71,233.32 824.39,243.34 825.08,353.49 825.76,369.13 826.45,374.05 827.13,291.41 827.82,311.46 828.51,310.33 829.19,309.36 829.88,306.68 830.56,308.21 831.25,322.53 831.93,372.08 832.62,314.66 833.31,304.31 833.99,307.87 834.68,308.17 835.36,308.95 836.05,309.28 836.73,309.49 837.42,308.50 838.11,309.35 838.79,310.64 839.48,303.62 840.16,378.31 840.85,325.14 841.53,308.53 842.22,307.86 842.91,307.89 843.59,308.72 844.28,307.52 844.96,213.34 845.65,227.08 846.34,220.39 847.02,208.85 847.71,373.91 848.39,286.97 849.08,354.52 849.76,298.84 850.45,288.48 851.14,289.95 851.82,291.42 852.51,290.61 853.19,290.22 853.88,292.95 854.56,205.09 855.25,161.21 855.94,239.01 856.62,231.53 857.31,308.72 857.99,257.53 858.68,241.97 859.36,239.61 860.05,239.10 860.74,241.03 861.42,240.23 862.11,335.19 862.79,205.86 863.48,179.90 864.16,159.38 864.85,243.97 865.54,250.90 866.22,297.40 866.91,242.57 867.59,231.13 868.28,232.54 868.97,235.27 869.65,234.32 870.34,232.28 871.02,234.85 871.71,234.03 872.39,232.69 873.08,236.18 873.77,230.14 874.45,302.68 875.14,250.39 875.82,236.28 876.51,330.23 877.19,313.95 877.88,283.70 878.57,179.22 879.25,162.38 879.94,159.80 880.62,245.57 881.31,222.59 881.99,226.57 882.68,242.37 883.37,292.87 884.05,234.35 884.74,225.09 885.42,227.51 886.11,227.76 886.80,227.31 887.48,227.66 888.17,227.79 888.85,226.60 889.54,227.59 890.22,229.37 890.91,222.12 891.60,297.06 892.28,245.20 892.97,227.51 893.65,227.79 894.34,226.70 895.02,227.68 895.71,227.62 896.40,226.88 897.08,227.05 897.77,228.71 898.45,321.04 899.14,306.01 899.82,325.72 900.51,379.33 901.20,158.10 901.88,257.10 902.57,241.52 903.25,239.42 903.94,239.90 904.62,240.83 905.31,239.66 906.00,239.55 906.68,240.74 907.37,239.95 908.05,317.02 908.74,437.12 909.43,312.16 910.11,296.02 910.80,290.41 911.48,291.15 912.17,290.41 912.85,289.97 913.54,291.34 914.23,290.24 914.91,289.56 915.60,192.73 916.28,320.36 916.97,365.10 917.65,436.24 918.34,295.23 919.03,295.50 919.71,299.89 920.40,298.66 921.08,299.41 921.77,300.43 922.45,298.75 923.14,298.20 923.83,301.19 924.51,300.80 925.20,293.71 925.88,371.42 926.57,316.42 927.25,299.70 927.94,301.22 928.63,297.96 929.31,298.31 930.00,204.23 930.68,215.88 931.37,277.57 932.06,353.11 932.74,368.08 933.43,373.65 934.11,306.08 934.80,376.96 935.48,316.63 936.17,306.74 936.86,307.65 937.54,309.43 938.23,307.73 938.91,307.52 939.60,307.80 940.28,306.93 940.97,308.73 941.66,310.25 942.34,303.78 943.03,379.38 943.71,326.08 944.40,310.00 945.08,310.11 945.77,308.33 946.46,308.80 947.14,308.73 947.83,307.81 948.51,308.69 949.20,308.17 949.89,306.98 950.57,308.69 951.26,322.45 951.94,277.89 952.63,233.97 953.31,217.11 954.00,210.32 954.69,373.70 955.37,271.84 956.06,288.87 956.74,291.42 957.43,290.83 958.11,289.72 958.80,291.88 959.49,289.21" fill="none" stroke="#0072B2" stroke-width="1.9" stroke-dasharray=""/>
<line x1="70" y1="497" x2="100" y2="497" stroke="#000000" stroke-width="2" stroke-dasharray=""/>
<text x="106" y="501" font-family="Arial" font-size="11">实测力</text>
<line x1="295" y1="497" x2="325" y2="497" stroke="#D55E00" stroke-width="2" stroke-dasharray="8 4"/>
<text x="331" y="501" font-family="Arial" font-size="11">B0 粘滞摩擦</text>
<line x1="520" y1="497" x2="550" y2="497" stroke="#E69F00" stroke-width="2" stroke-dasharray="3 3"/>
<text x="556" y="501" font-family="Arial" font-size="11">B0 对称库仑摩擦</text>
<line x1="745" y1="497" x2="775" y2="497" stroke="#0072B2" stroke-width="2" stroke-dasharray=""/>
<text x="781" y="501" font-family="Arial" font-size="11">B3 非对称摩擦槽</text>
</svg>