<svg xmlns="http://www.w3.org/2000/svg" width="980" height="460" viewBox="0 0 980 460">
  <rect width="980" height="460" fill="#ffffff"/>
  <text x="86" y="34" font-family="Noto Sans CJK SC, DejaVu Sans, Arial" font-size="20" fill="#111827">BATT-3 voltage RMSE by split</text>
  <rect x="86.0" y="68.0" width="720.0" height="320.0" fill="#ffffff" stroke="#d1d5db"/>
  <line x1="86.0" y1="388.0" x2="806.0" y2="388.0" stroke="#6b7280"/>
  <line x1="86.0" y1="68.0" x2="86.0" y2="388.0" stroke="#6b7280"/>
  <text x="26" y="228.0" transform="rotate(-90 26 228.0)" text-anchor="middle" font-family="Noto Sans CJK SC, DejaVu Sans, Arial" font-size="13" fill="#374151">RMSE (mV)</text>
  <rect x="120.00" y="328.58" width="32.00" height="59.42" fill="#4b5563"/><text x="136.00" y="323.58" text-anchor="middle" font-family="Noto Sans CJK SC, DejaVu Sans, Arial" font-size="10" fill="#111827">94.2</text><rect x="160.00" y="328.58" width="32.00" height="59.42" fill="#2563eb"/><text x="176.00" y="323.58" text-anchor="middle" font-family="Noto Sans CJK SC, DejaVu Sans, Arial" font-size="10" fill="#111827">94.2</text><rect x="200.00" y="328.39" width="32.00" height="59.61" fill="#dc2626"/><text x="216.00" y="323.39" text-anchor="middle" font-family="Noto Sans CJK SC, DejaVu Sans, Arial" font-size="10" fill="#111827">94.5</text><text x="176.00" y="420" text-anchor="middle" font-family="Noto Sans CJK SC, DejaVu Sans, Arial" font-size="12" fill="#374151">Train</text><rect x="300.00" y="290.66" width="32.00" height="97.34" fill="#4b5563"/><text x="316.00" y="285.66" text-anchor="middle" font-family="Noto Sans CJK SC, DejaVu Sans, Arial" font-size="10" fill="#111827">154.3</text><rect x="340.00" y="290.66" width="32.00" height="97.34" fill="#2563eb"/><text x="356.00" y="285.66" text-anchor="middle" font-family="Noto Sans CJK SC, DejaVu Sans, Arial" font-size="10" fill="#111827">154.3</text><rect x="380.00" y="290.45" width="32.00" height="97.55" fill="#dc2626"/><text x="396.00" y="285.45" text-anchor="middle" font-family="Noto Sans CJK SC, DejaVu Sans, Arial" font-size="10" fill="#111827">154.7</text><text x="356.00" y="420" text-anchor="middle" font-family="Noto Sans CJK SC, DejaVu Sans, Arial" font-size="12" fill="#374151">Held-out T</text><rect x="480.00" y="364.28" width="32.00" height="23.72" fill="#4b5563"/><text x="496.00" y="359.28" text-anchor="middle" font-family="Noto Sans CJK SC, DejaVu Sans, Arial" font-size="10" fill="#111827">37.6</text><rect x="520.00" y="364.28" width="32.00" height="23.72" fill="#2563eb"/><text x="536.00" y="359.28" text-anchor="middle" font-family="Noto Sans CJK SC, DejaVu Sans, Arial" font-size="10" fill="#111827">37.6</text><rect x="560.00" y="364.40" width="32.00" height="23.60" fill="#dc2626"/><text x="576.00" y="359.40" text-anchor="middle" font-family="Noto Sans CJK SC, DejaVu Sans, Arial" font-size="10" fill="#111827">37.4</text><text x="536.00" y="420" text-anchor="middle" font-family="Noto Sans CJK SC, DejaVu Sans, Arial" font-size="12" fill="#374151">High amp.</text><rect x="660.00" y="102.29" width="32.00" height="285.71" fill="#4b5563"/><text x="676.00" y="97.29" text-anchor="middle" font-family="Noto Sans CJK SC, DejaVu Sans, Arial" font-size="10" fill="#111827">453.0</text><rect x="700.00" y="102.29" width="32.00" height="285.71" fill="#2563eb"/><text x="716.00" y="97.29" text-anchor="middle" font-family="Noto Sans CJK SC, DejaVu Sans, Arial" font-size="10" fill="#111827">453.0</text><rect x="740.00" y="102.30" width="32.00" height="285.70" fill="#dc2626"/><text x="756.00" y="97.30" text-anchor="middle" font-family="Noto Sans CJK SC, DejaVu Sans, Arial" font-size="10" fill="#111827">452.9</text><text x="716.00" y="420" text-anchor="middle" font-family="Noto Sans CJK SC, DejaVu Sans, Arial" font-size="12" fill="#374151">Cell transfer</text>
  <rect x="830" y="82" width="18" height="12" fill="#4b5563"/><text x="856" y="92" font-family="Noto Sans CJK SC, DejaVu Sans, Arial" font-size="12" fill="#111827">OCV only</text><rect x="830" y="108" width="18" height="12" fill="#2563eb"/><text x="856" y="118" font-family="Noto Sans CJK SC, DejaVu Sans, Arial" font-size="12" fill="#111827">Ohmic only</text><rect x="830" y="134" width="18" height="12" fill="#dc2626"/><text x="856" y="144" font-family="Noto Sans CJK SC, DejaVu Sans, Arial" font-size="12" fill="#111827">Constant ECM</text>
</svg>
