<svg xmlns="http://www.w3.org/2000/svg" width="1220" height="450" viewBox="0 0 1220 450">
<rect width="100%" height="100%" fill="white"/>
<text x="610" y="26" text-anchor="middle" font-family="Arial, Noto Sans CJK SC, Microsoft YaHei, sans-serif" font-size="18">E5 recovered substrate-dependent growth rate mu(S)</text>
<line x1="76" y1="388" x2="1186" y2="388" stroke="#333" stroke-width="1"/>
<line x1="76" y1="42" x2="76" y2="388" stroke="#333" stroke-width="1"/>
<text x="631" y="434" text-anchor="middle" font-family="Arial, Noto Sans CJK SC, Microsoft YaHei, sans-serif" font-size="13">S</text>
<text transform="translate(18,215) rotate(-90)" text-anchor="middle" font-family="Arial, Noto Sans CJK SC, Microsoft YaHei, sans-serif" font-size="13">mu(S)</text>
<line x1="76.00" y1="388" x2="76.00" y2="393" stroke="#333"/>
<text x="76.00" y="409" text-anchor="middle" font-family="Arial" font-size="11">0.0</text>
<line x1="298.00" y1="388" x2="298.00" y2="393" stroke="#333"/>
<text x="298.00" y="409" text-anchor="middle" font-family="Arial" font-size="11">0.5</text>
<line x1="520.00" y1="388" x2="520.00" y2="393" stroke="#333"/>
<text x="520.00" y="409" text-anchor="middle" font-family="Arial" font-size="11">1.1</text>
<line x1="742.00" y1="388" x2="742.00" y2="393" stroke="#333"/>
<text x="742.00" y="409" text-anchor="middle" font-family="Arial" font-size="11">1.6</text>
<line x1="964.00" y1="388" x2="964.00" y2="393" stroke="#333"/>
<text x="964.00" y="409" text-anchor="middle" font-family="Arial" font-size="11">2.1</text>
<line x1="1186.00" y1="388" x2="1186.00" y2="393" stroke="#333"/>
<text x="1186.00" y="409" text-anchor="middle" font-family="Arial" font-size="11">2.6</text>
<line x1="71" y1="388.00" x2="76" y2="388.00" stroke="#333"/>
<text x="68" y="392.00" text-anchor="end" font-family="Arial" font-size="11">-7.85</text>
<line x1="71" y1="301.50" x2="76" y2="301.50" stroke="#333"/>
<text x="68" y="305.50" text-anchor="end" font-family="Arial" font-size="11">-5.46</text>
<line x1="71" y1="215.00" x2="76" y2="215.00" stroke="#333"/>
<text x="68" y="219.00" text-anchor="end" font-family="Arial" font-size="11">-3.07</text>
<line x1="71" y1="128.50" x2="76" y2="128.50" stroke="#333"/>
<text x="68" y="132.50" text-anchor="end" font-family="Arial" font-size="11">-0.67</text>
<line x1="71" y1="42.00" x2="76" y2="42.00" stroke="#333"/>
<text x="68" y="46.00" text-anchor="end" font-family="Arial" font-size="11">1.72</text>
<polyline points="76.00,104.18 77.39,103.78 78.78,103.38 80.16,102.98 81.55,102.60 82.94,102.22 84.33,101.85 85.71,101.49 87.10,101.13 88.49,100.78 89.88,100.43 91.26,100.09 92.65,99.76 94.04,99.43 95.42,99.11 96.81,98.79 98.20,98.48 99.59,98.17 100.97,97.87 102.36,97.57 103.75,97.28 105.14,96.99 106.53,96.71 107.91,96.43 109.30,96.15 110.69,95.88 112.08,95.62 113.46,95.35 114.85,95.09 116.24,94.84 117.62,94.59 119.01,94.34 120.40,94.10 121.79,93.86 123.18,93.62 124.56,93.39 125.95,93.16 127.34,92.93 128.72,92.71 130.11,92.49 131.50,92.27 132.89,92.05 134.28,91.84 135.66,91.63 137.05,91.43 138.44,91.22 139.82,91.02 141.21,90.83 142.60,90.63 143.99,90.44 145.38,90.25 146.76,90.06 148.15,89.87 149.54,89.69 150.93,89.51 152.31,89.33 153.70,89.15 155.09,88.98 156.47,88.81 157.86,88.64 159.25,88.47 160.64,88.30 162.03,88.14 163.41,87.98 164.80,87.82 166.19,87.66 167.57,87.50 168.96,87.35 170.35,87.20 171.74,87.04 173.12,86.89 174.51,86.75 175.90,86.60 177.29,86.46 178.68,86.31 180.06,86.17 181.45,86.03 182.84,85.89 184.22,85.76 185.61,85.62 187.00,85.49 188.39,85.36 189.78,85.23 191.16,85.10 192.55,84.97 193.94,84.84 195.32,84.72 196.71,84.59 198.10,84.47 199.49,84.35 200.88,84.23 202.26,84.11 203.65,83.99 205.04,83.87 206.43,83.76 207.81,83.64 209.20,83.53 210.59,83.42 211.97,83.31 213.36,83.20 214.75,83.09 216.14,82.98 217.53,82.87 218.91,82.77 220.30,82.66 221.69,82.56 223.07,82.46 224.46,82.35 225.85,82.25 227.24,82.15 228.62,82.06 230.01,81.96 231.40,81.86 232.79,81.76 234.17,81.67 235.56,81.57 236.95,81.48 238.34,81.39 239.72,81.29 241.11,81.20 242.50,81.11 243.89,81.02 245.28,80.93 246.66,80.85 248.05,80.76 249.44,80.67 250.82,80.59 252.21,80.50 253.60,80.42 254.99,80.33 256.38,80.25 257.76,80.17 259.15,80.09 260.54,80.01 261.92,79.93 263.31,79.85 264.70,79.77 266.09,79.69 267.48,79.61 268.86,79.54 270.25,79.46 271.64,79.38 273.02,79.31 274.41,79.23 275.80,79.16 277.19,79.09 278.57,79.01 279.96,78.94 281.35,78.87 282.74,78.80 284.12,78.73 285.51,78.66 286.90,78.59 288.29,78.52 289.67,78.45 291.06,78.39 292.45,78.32 293.84,78.25 295.23,78.19 296.61,78.12 298.00,78.05 299.39,77.99 300.77,77.93 302.16,77.86 303.55,77.80 304.94,77.74 306.33,77.67 307.71,77.61 309.10,77.55 310.49,77.49 311.88,77.43 313.26,77.37 314.65,77.31 316.04,77.25 317.43,77.19 318.81,77.13 320.20,77.07 321.59,77.02 322.98,76.96 324.36,76.90 325.75,76.85 327.14,76.79 328.52,76.74 329.91,76.68 331.30,76.63 332.69,76.57 334.07,76.52 335.46,76.46 336.85,76.41 338.24,76.36 339.62,76.30 341.01,76.25 342.40,76.20 343.79,76.15 345.18,76.10 346.56,76.05 347.95,76.00 349.34,75.95 350.73,75.90 352.11,75.85 353.50,75.80 354.89,75.75 356.27,75.70 357.66,75.65 359.05,75.60 360.44,75.56 361.82,75.51 363.21,75.46 364.60,75.41 365.99,75.37 367.38,75.32 368.76,75.28 370.15,75.23 371.54,75.19 372.93,75.14 374.31,75.10 375.70,75.05 377.09,75.01 378.48,74.96 379.86,74.92 381.25,74.88 382.64,74.83 384.03,74.79 385.41,74.75 386.80,74.71 388.19,74.66 389.58,74.62 390.96,74.58 392.35,74.54 393.74,74.50 395.12,74.46 396.51,74.42 397.90,74.38 399.29,74.34 400.67,74.30 402.06,74.26 403.45,74.22 404.84,74.18 406.22,74.14 407.61,74.10 409.00,74.06 410.39,74.02 411.78,73.99 413.16,73.95 414.55,73.91 415.94,73.87 417.32,73.84 418.71,73.80 420.10,73.76 421.49,73.73 422.88,73.69 424.26,73.65 425.65,73.62 427.04,73.58 428.43,73.55 429.81,73.51 431.20,73.47 432.59,73.44 433.98,73.41 435.36,73.37 436.75,73.34 438.14,73.30 439.53,73.27 440.91,73.23 442.30,73.20 443.69,73.17 445.07,73.13 446.46,73.10 447.85,73.07 449.24,73.04 450.62,73.00 452.01,72.97 453.40,72.94 454.79,72.91 456.18,72.87 457.56,72.84 458.95,72.81 460.34,72.78 461.73,72.75 463.11,72.72 464.50,72.69 465.89,72.66 467.27,72.62 468.66,72.59 470.05,72.56 471.44,72.53 472.82,72.50 474.21,72.47 475.60,72.44 476.99,72.42 478.38,72.39 479.76,72.36 481.15,72.33 482.54,72.30 483.93,72.27 485.31,72.24 486.70,72.21 488.09,72.18 489.48,72.16 490.86,72.13 492.25,72.10 493.64,72.07 495.02,72.04 496.41,72.02 497.80,71.99 499.19,71.96 500.57,71.94 501.96,71.91 503.35,71.88 504.74,71.85 506.12,71.83 507.51,71.80 508.90,71.78 510.29,71.75 511.68,71.72 513.06,71.70 514.45,71.67 515.84,71.65 517.23,71.62 518.61,71.59 520.00,71.57 521.39,71.54 522.77,71.52 524.16,71.49 525.55,71.47 526.94,71.44 528.33,71.42 529.71,71.40 531.10,71.37 532.49,71.35 533.88,71.32 535.26,71.30 536.65,71.27 538.04,71.25 539.42,71.23 540.81,71.20 542.20,71.18 543.59,71.16 544.97,71.13 546.36,71.11 547.75,71.09 549.14,71.06 550.53,71.04 551.91,71.02 553.30,70.99 554.69,70.97 556.08,70.95 557.46,70.93 558.85,70.90 560.24,70.88 561.62,70.86 563.01,70.84 564.40,70.82 565.79,70.79 567.17,70.77 568.56,70.75 569.95,70.73 571.34,70.71 572.73,70.69 574.11,70.67 575.50,70.64 576.89,70.62 578.28,70.60 579.66,70.58 581.05,70.56 582.44,70.54 583.83,70.52 585.21,70.50 586.60,70.48 587.99,70.46 589.38,70.44 590.76,70.42 592.15,70.40 593.54,70.38 594.92,70.36 596.31,70.34 597.70,70.32 599.09,70.30 600.48,70.28 601.86,70.26 603.25,70.24 604.64,70.22 606.02,70.20 607.41,70.18 608.80,70.16 610.19,70.14 611.57,70.12 612.96,70.10 614.35,70.09 615.74,70.07 617.12,70.05 618.51,70.03 619.90,70.01 621.29,69.99 622.67,69.97 624.06,69.96 625.45,69.94 626.84,69.92 628.22,69.90 629.61,69.88 631.00,69.87 632.39,69.85 633.78,69.83 635.16,69.81 636.55,69.79 637.94,69.78 639.33,69.76 640.71,69.74 642.10,69.72 643.49,69.71 644.88,69.69 646.26,69.67 647.65,69.66 649.04,69.64 650.43,69.62 651.81,69.60 653.20,69.59 654.59,69.57 655.97,69.55 657.36,69.54 658.75,69.52 660.14,69.50 661.52,69.49 662.91,69.47 664.30,69.45 665.69,69.44 667.07,69.42 668.46,69.41 669.85,69.39 671.24,69.37 672.62,69.36 674.01,69.34 675.40,69.33 676.79,69.31 678.17,69.29 679.56,69.28 680.95,69.26 682.34,69.25 683.73,69.23 685.11,69.22 686.50,69.20 687.89,69.19 689.27,69.17 690.66,69.16 692.05,69.14 693.44,69.12 694.83,69.11 696.21,69.09 697.60,69.08 698.99,69.06 700.38,69.05 701.76,69.04 703.15,69.02 704.54,69.01 705.92,68.99 707.31,68.98 708.70,68.96 710.09,68.95 711.48,68.93 712.86,68.92 714.25,68.90 715.64,68.89 717.02,68.88 718.41,68.86 719.80,68.85 721.19,68.83 722.58,68.82 723.96,68.81 725.35,68.79 726.74,68.78 728.12,68.76 729.51,68.75 730.90,68.74 732.29,68.72 733.68,68.71 735.06,68.69 736.45,68.68 737.84,68.67 739.23,68.65 740.61,68.64 742.00,68.63 743.39,68.61 744.78,68.60 746.16,68.59 747.55,68.57 748.94,68.56 750.33,68.55 751.71,68.53 753.10,68.52 754.49,68.51 755.88,68.50 757.26,68.48 758.65,68.47 760.04,68.46 761.42,68.44 762.81,68.43 764.20,68.42 765.59,68.41 766.97,68.39 768.36,68.38 769.75,68.37 771.14,68.36 772.52,68.34 773.91,68.33 775.30,68.32 776.69,68.31 778.07,68.29 779.46,68.28 780.85,68.27 782.24,68.26 783.62,68.25 785.01,68.23 786.40,68.22 787.79,68.21 789.18,68.20 790.56,68.19 791.95,68.17 793.34,68.16 794.73,68.15 796.11,68.14 797.50,68.13 798.89,68.12 800.28,68.10 801.66,68.09 803.05,68.08 804.44,68.07 805.82,68.06 807.21,68.05 808.60,68.03 809.99,68.02 811.38,68.01 812.76,68.00 814.15,67.99 815.54,67.98 816.92,67.97 818.31,67.96 819.70,67.94 821.09,67.93 822.48,67.92 823.86,67.91 825.25,67.90 826.64,67.89 828.02,67.88 829.41,67.87 830.80,67.86 832.19,67.85 833.58,67.83 834.96,67.82 836.35,67.81 837.74,67.80 839.12,67.79 840.51,67.78 841.90,67.77 843.29,67.76 844.67,67.75 846.06,67.74 847.45,67.73 848.84,67.72 850.23,67.71 851.61,67.70 853.00,67.69 854.39,67.68 855.77,67.67 857.16,67.66 858.55,67.65 859.94,67.64 861.33,67.63 862.71,67.62 864.10,67.61 865.49,67.59 866.88,67.58 868.26,67.57 869.65,67.56 871.04,67.55 872.43,67.54 873.81,67.54 875.20,67.53 876.59,67.52 877.98,67.51 879.36,67.50 880.75,67.49 882.14,67.48 883.53,67.47 884.91,67.46 886.30,67.45 887.69,67.44 889.08,67.43 890.46,67.42 891.85,67.41 893.24,67.40 894.62,67.39 896.01,67.38 897.40,67.37 898.79,67.36 900.18,67.35 901.56,67.34 902.95,67.33 904.34,67.32 905.73,67.31 907.11,67.31 908.50,67.30 909.89,67.29 911.27,67.28 912.66,67.27 914.05,67.26 915.44,67.25 916.83,67.24 918.21,67.23 919.60,67.22 920.99,67.21 922.38,67.21 923.76,67.20 925.15,67.19 926.54,67.18 927.93,67.17 929.31,67.16 930.70,67.15 932.09,67.14 933.47,67.13 934.86,67.13 936.25,67.12 937.64,67.11 939.03,67.10 940.41,67.09 941.80,67.08 943.19,67.07 944.57,67.07 945.96,67.06 947.35,67.05 948.74,67.04 950.13,67.03 951.51,67.02 952.90,67.01 954.29,67.01 955.67,67.00 957.06,66.99 958.45,66.98 959.84,66.97 961.23,66.96 962.61,66.96 964.00,66.95 965.39,66.94 966.77,66.93 968.16,66.92 969.55,66.92 970.94,66.91 972.33,66.90 973.71,66.89 975.10,66.88 976.49,66.87 977.87,66.87 979.26,66.86 980.65,66.85 982.04,66.84 983.42,66.83 984.81,66.83 986.20,66.82 987.59,66.81 988.98,66.80 990.36,66.80 991.75,66.79 993.14,66.78 994.52,66.77 995.91,66.76 997.30,66.76 998.69,66.75 1000.08,66.74 1001.46,66.73 1002.85,66.73 1004.24,66.72 1005.62,66.71 1007.01,66.70 1008.40,66.70 1009.79,66.69 1011.18,66.68 1012.56,66.67 1013.95,66.66 1015.34,66.66 1016.72,66.65 1018.11,66.64 1019.50,66.64 1020.89,66.63 1022.28,66.62 1023.66,66.61 1025.05,66.61 1026.44,66.60 1027.82,66.59 1029.21,66.58 1030.60,66.58 1031.99,66.57 1033.38,66.56 1034.76,66.55 1036.15,66.55 1037.54,66.54 1038.92,66.53 1040.31,66.53 1041.70,66.52 1043.09,66.51 1044.47,66.50 1045.86,66.50 1047.25,66.49 1048.64,66.48 1050.03,66.48 1051.41,66.47 1052.80,66.46 1054.19,66.46 1055.58,66.45 1056.96,66.44 1058.35,66.43 1059.74,66.43 1061.12,66.42 1062.51,66.41 1063.90,66.41 1065.29,66.40 1066.67,66.39 1068.06,66.39 1069.45,66.38 1070.84,66.37 1072.23,66.37 1073.61,66.36 1075.00,66.35 1076.39,66.35 1077.78,66.34 1079.16,66.33 1080.55,66.33 1081.94,66.32 1083.33,66.31 1084.71,66.31 1086.10,66.30 1087.49,66.29 1088.88,66.29 1090.26,66.28 1091.65,66.27 1093.04,66.27 1094.43,66.26 1095.81,66.25 1097.20,66.25 1098.59,66.24 1099.97,66.23 1101.36,66.23 1102.75,66.22 1104.14,66.21 1105.53,66.21 1106.91,66.20 1108.30,66.20 1109.69,66.19 1111.08,66.18 1112.46,66.18 1113.85,66.17 1115.24,66.16 1116.62,66.16 1118.01,66.15 1119.40,66.15 1120.79,66.14 1122.17,66.13 1123.56,66.13 1124.95,66.12 1126.34,66.11 1127.72,66.11 1129.11,66.10 1130.50,66.10 1131.89,66.09 1133.27,66.08 1134.66,66.08 1136.05,66.07 1137.44,66.07 1138.83,66.06 1140.21,66.05 1141.60,66.05 1142.99,66.04 1144.38,66.04 1145.76,66.03 1147.15,66.02 1148.54,66.02 1149.92,66.01 1151.31,66.01 1152.70,66.00 1154.09,65.99 1155.48,65.99 1156.86,65.98 1158.25,65.98 1159.64,65.97 1161.03,65.96 1162.41,65.96 1163.80,65.95 1165.19,65.95 1166.58,65.94 1167.96,65.94 1169.35,65.93 1170.74,65.92 1172.12,65.92 1173.51,65.91 1174.90,65.91 1176.29,65.90 1177.67,65.90 1179.06,65.89 1180.45,65.88 1181.84,65.88 1183.22,65.87 1184.61,65.87 1186.00,65.86" fill="none" stroke="#4D4D4D" stroke-width="3.2" stroke-opacity="0.55"/>
<polyline points="76.00,102.08 77.39,102.08 78.78,102.08 80.16,102.08 81.55,102.08 82.94,102.08 84.33,102.08 85.71,102.08 87.10,102.08 88.49,102.08 89.88,102.08 91.26,102.08 92.65,102.08 94.04,102.08 95.42,102.08 96.81,102.08 98.20,102.08 99.59,102.08 100.97,102.08 102.36,102.08 103.75,102.08 105.14,102.08 106.53,102.08 107.91,102.08 109.30,102.08 110.69,102.08 112.08,102.08 113.46,102.08 114.85,102.08 116.24,102.08 117.62,102.08 119.01,102.08 120.40,102.08 121.79,102.08 123.18,102.08 124.56,102.08 125.95,102.08 127.34,102.08 128.72,102.08 130.11,102.08 131.50,102.08 132.89,102.08 134.28,102.08 135.66,102.08 137.05,102.08 138.44,102.08 139.82,102.08 141.21,102.08 142.60,102.08 143.99,102.08 145.38,102.08 146.76,102.08 148.15,102.08 149.54,102.08 150.93,102.08 152.31,102.08 153.70,102.08 155.09,102.08 156.47,102.08 157.86,102.08 159.25,102.08 160.64,83.51 162.03,83.51 163.41,83.51 164.80,83.51 166.19,83.51 167.57,83.51 168.96,83.51 170.35,83.51 171.74,83.51 173.12,83.51 174.51,83.51 175.90,83.51 177.29,83.51 178.68,83.51 180.06,83.51 181.45,83.51 182.84,83.51 184.22,83.51 185.61,83.51 187.00,83.51 188.39,83.51 189.78,83.51 191.16,83.51 192.55,83.51 193.94,83.51 195.32,83.51 196.71,83.51 198.10,83.51 199.49,83.51 200.88,83.51 202.26,83.51 203.65,83.51 205.04,83.51 206.43,83.51 207.81,83.51 209.20,83.51 210.59,83.51 211.97,83.51 213.36,83.51 214.75,83.51 216.14,83.51 217.53,83.51 218.91,83.51 220.30,83.51 221.69,83.51 223.07,83.51 224.46,83.51 225.85,83.51 227.24,83.51 228.62,83.51 230.01,83.51 231.40,83.51 232.79,83.51 234.17,83.51 235.56,83.51 236.95,83.51 238.34,83.51 239.72,83.51 241.11,83.51 242.50,83.51 243.89,83.51 245.28,83.51 246.66,83.51 248.05,83.51 249.44,83.51 250.82,83.51 252.21,83.51 253.60,83.51 254.99,83.51 256.38,83.51 257.76,83.51 259.15,83.51 260.54,83.51 261.92,83.51 263.31,83.51 264.70,83.51 266.09,83.51 267.48,83.51 268.86,83.51 270.25,83.51 271.64,83.51 273.02,83.51 274.41,83.51 275.80,83.51 277.19,83.51 278.57,83.51 279.96,83.51 281.35,83.51 282.74,83.51 284.12,83.51 285.51,75.61 286.90,75.61 288.29,75.61 289.67,75.61 291.06,75.61 292.45,75.61 293.84,75.61 295.23,75.61 296.61,75.61 298.00,75.61 299.39,75.61 300.77,75.61 302.16,75.61 303.55,75.61 304.94,75.61 306.33,75.61 307.71,75.61 309.10,75.61 310.49,75.61 311.88,75.61 313.26,75.61 314.65,75.61 316.04,75.61 317.43,75.61 318.81,75.61 320.20,75.61 321.59,75.61 322.98,75.61 324.36,75.61 325.75,75.61 327.14,75.61 328.52,75.61 329.91,75.61 331.30,75.61 332.69,75.61 334.07,75.61 335.46,75.61 336.85,75.61 338.24,75.61 339.62,75.61 341.01,75.61 342.40,75.61 343.79,75.61 345.18,75.61 346.56,75.61 347.95,75.61 349.34,75.61 350.73,75.61 352.11,75.61 353.50,75.61 354.89,75.61 356.27,75.61 357.66,75.61 359.05,75.61 360.44,75.61 361.82,75.61 363.21,75.61 364.60,75.61 365.99,75.61 367.38,75.61 368.76,75.61 370.15,75.61 371.54,75.61 372.93,75.61 374.31,75.61 375.70,75.61 377.09,75.61 378.48,75.61 379.86,75.61 381.25,75.61 382.64,75.61 384.03,75.61 385.41,75.61 386.80,75.61 388.19,75.61 389.58,75.61 390.96,75.61 392.35,75.61 393.74,75.61 395.12,75.61 396.51,75.61 397.90,75.61 399.29,75.61 400.67,75.61 402.06,75.61 403.45,75.61 404.84,75.61 406.22,75.61 407.61,75.61 409.00,75.61 410.39,75.61 411.78,75.61 413.16,75.61 414.55,75.61 415.94,75.61 417.32,75.61 418.71,75.61 420.10,75.61 421.49,75.61 422.88,75.61 424.26,75.61 425.65,75.61 427.04,75.61 428.43,75.61 429.81,75.61 431.20,75.61 432.59,75.61 433.98,75.61 435.36,75.61 436.75,75.61 438.14,75.61 439.53,75.61 440.91,75.61 442.30,75.61 443.69,75.61 445.07,75.61 446.46,75.61 447.85,75.61 449.24,75.61 450.62,75.61 452.01,75.61 453.40,75.61 454.79,75.61 456.18,75.61 457.56,75.61 458.95,75.61 460.34,75.61 461.73,75.61 463.11,75.61 464.50,75.61 465.89,75.61 467.27,75.61 468.66,75.61 470.05,75.61 471.44,75.61 472.82,75.61 474.21,70.98 475.60,70.98 476.99,70.98 478.38,70.98 479.76,70.98 481.15,70.98 482.54,70.98 483.93,70.98 485.31,70.98 486.70,70.98 488.09,70.98 489.48,70.98 490.86,70.98 492.25,70.98 493.64,70.98 495.02,70.98 496.41,70.98 497.80,70.98 499.19,70.98 500.57,70.98 501.96,70.98 503.35,70.98 504.74,70.98 506.12,70.98 507.51,70.98 508.90,70.98 510.29,70.98 511.68,70.98 513.06,70.98 514.45,70.98 515.84,70.98 517.23,70.98 518.61,70.98 520.00,70.98 521.39,70.98 522.77,70.98 524.16,70.98 525.55,70.98 526.94,70.98 528.33,70.98 529.71,70.98 531.10,70.98 532.49,70.98 533.88,70.98 535.26,70.98 536.65,70.98 538.04,70.98 539.42,70.98 540.81,70.98 542.20,70.98 543.59,70.98 544.97,70.98 546.36,70.98 547.75,70.98 549.14,70.98 550.53,70.98 551.91,70.98 553.30,70.98 554.69,70.98 556.08,70.98 557.46,70.98 558.85,70.98 560.24,70.98 561.62,70.98 563.01,70.98 564.40,70.98 565.79,70.98 567.17,70.98 568.56,70.98 569.95,70.98 571.34,70.98 572.73,70.98 574.11,70.98 575.50,70.98 576.89,70.98 578.28,70.98 579.66,70.98 581.05,70.98 582.44,70.98 583.83,70.98 585.21,70.98 586.60,70.98 587.99,70.98 589.38,70.98 590.76,70.98 592.15,70.98 593.54,70.98 594.92,70.98 596.31,70.98 597.70,70.98 599.09,70.98 600.48,70.98 601.86,70.98 603.25,70.98 604.64,70.98 606.02,70.98 607.41,70.98 608.80,70.98 610.19,70.98 611.57,70.98 612.96,70.98 614.35,70.98 615.74,70.98 617.12,70.98 618.51,70.98 619.90,70.98 621.29,70.98 622.67,70.98 624.06,70.98 625.45,70.98 626.84,70.98 628.22,70.98 629.61,70.98 631.00,70.98 632.39,70.98 633.78,70.98 635.16,70.98 636.55,70.98 637.94,70.98 639.33,70.98 640.71,70.98 642.10,70.98 643.49,70.98 644.88,70.98 646.26,70.98 647.65,70.98 649.04,70.98 650.43,70.98 651.81,70.98 653.20,70.98 654.59,70.98 655.97,70.98 657.36,70.98 658.75,70.98 660.14,70.98 661.52,70.98 662.91,70.98 664.30,70.98 665.69,70.98 667.07,70.98 668.46,70.98 669.85,70.98 671.24,70.98 672.62,70.98 674.01,70.98 675.40,70.98 676.79,70.98 678.17,70.98 679.56,70.98 680.95,70.98 682.34,70.98 683.73,70.98 685.11,70.98 686.50,70.98 687.89,70.98 689.27,70.98 690.66,70.98 692.05,70.98 693.44,70.98 694.83,70.98 696.21,70.98 697.60,70.98 698.99,70.98 700.38,70.98 701.76,70.98 703.15,70.98 704.54,70.98 705.92,70.98 707.31,70.98 708.70,70.98 710.09,70.98 711.48,70.98 712.86,70.98 714.25,70.98 715.64,70.98 717.02,70.98 718.41,70.98 719.80,70.98 721.19,70.98 722.58,70.98 723.96,70.98 725.35,68.61 726.74,68.61 728.12,68.61 729.51,68.61 730.90,68.61 732.29,68.61 733.68,68.61 735.06,68.61 736.45,68.61 737.84,68.61 739.23,68.61 740.61,68.61 742.00,68.61 743.39,68.61 744.78,68.61 746.16,68.61 747.55,68.61 748.94,68.61 750.33,68.61 751.71,68.61 753.10,68.61 754.49,68.61 755.88,68.61 757.26,68.61 758.65,68.61 760.04,68.61 761.42,68.61 762.81,68.61 764.20,68.61 765.59,68.61 766.97,68.61 768.36,68.61 769.75,68.61 771.14,68.61 772.52,68.61 773.91,68.61 775.30,68.61 776.69,68.61 778.07,68.61 779.46,68.61 780.85,68.61 782.24,68.61 783.62,68.61 785.01,68.61 786.40,68.61 787.79,68.61 789.18,68.61 790.56,68.61 791.95,68.61 793.34,68.61 794.73,68.61 796.11,68.61 797.50,68.61 798.89,68.61 800.28,68.61 801.66,68.61 803.05,68.61 804.44,68.61 805.82,68.61 807.21,68.61 808.60,68.61 809.99,68.61 811.38,68.61 812.76,68.61 814.15,68.61 815.54,68.61 816.92,68.61 818.31,68.61 819.70,68.61 821.09,68.61 822.48,68.61 823.86,68.61 825.25,68.61 826.64,68.61 828.02,68.61 829.41,68.61 830.80,68.61 832.19,68.61 833.58,68.61 834.96,68.61 836.35,68.61 837.74,68.61 839.12,68.61 840.51,68.61 841.90,68.61 843.29,68.61 844.67,68.61 846.06,68.61 847.45,68.61 848.84,68.61 850.23,68.61 851.61,68.61 853.00,68.61 854.39,68.61 855.77,68.61 857.16,68.61 858.55,68.61 859.94,68.61 861.33,68.61 862.71,68.61 864.10,68.61 865.49,68.61 866.88,68.61 868.26,68.61 869.65,68.61 871.04,68.61 872.43,68.61 873.81,68.61 875.20,68.61 876.59,68.61 877.98,68.61 879.36,68.61 880.75,68.61 882.14,68.61 883.53,68.61 884.91,68.61 886.30,68.61 887.69,68.61 889.08,68.61 890.46,68.61 891.85,68.61 893.24,68.61 894.62,68.61 896.01,68.61 897.40,68.61 898.79,68.61 900.18,68.61 901.56,68.61 902.95,68.61 904.34,68.61 905.73,68.61 907.11,68.61 908.50,68.61 909.89,68.61 911.27,68.61 912.66,68.61 914.05,68.61 915.44,68.61 916.83,68.61 918.21,68.61 919.60,68.61 920.99,68.61 922.38,68.61 923.76,68.61 925.15,68.61 926.54,68.61 927.93,68.61 929.31,68.61 930.70,68.61 932.09,68.61 933.47,68.61 934.86,68.61 936.25,68.61 937.64,68.61 939.03,68.61 940.41,68.61 941.80,68.61 943.19,68.61 944.57,68.61 945.96,68.61 947.35,68.61 948.74,68.61 950.13,68.61 951.51,68.61 952.90,68.61 954.29,68.61 955.67,68.61 957.06,68.61 958.45,68.61 959.84,68.61 961.23,68.61 962.61,68.61 964.00,68.61 965.39,68.61 966.77,68.61 968.16,68.61 969.55,68.61 970.94,68.61 972.33,68.61 973.71,68.61 975.10,68.61 976.49,68.61 977.87,68.61 979.26,68.61 980.65,68.61 982.04,68.61 983.42,68.61 984.81,68.61 986.20,68.61 987.59,68.61 988.98,68.61 990.36,68.61 991.75,68.61 993.14,68.61 994.52,68.61 995.91,68.61 997.30,68.61 998.69,68.61 1000.08,68.61 1001.46,68.61 1002.85,68.61 1004.24,68.61 1005.62,68.61 1007.01,68.61 1008.40,68.61 1009.79,68.61 1011.18,68.61 1012.56,68.61 1013.95,68.61 1015.34,68.61 1016.72,68.61 1018.11,68.61 1019.50,68.61 1020.89,68.61 1022.28,68.61 1023.66,68.61 1025.05,68.61 1026.44,68.61 1027.82,68.61 1029.21,68.61 1030.60,68.61 1031.99,68.61 1033.38,68.61 1034.76,68.61 1036.15,68.61 1037.54,68.61 1038.92,68.61 1040.31,68.61 1041.70,68.61 1043.09,68.61 1044.47,68.61 1045.86,68.61 1047.25,68.61 1048.64,68.61 1050.03,68.61 1051.41,68.61 1052.80,68.61 1054.19,68.61 1055.58,68.61 1056.96,68.61 1058.35,68.61 1059.74,68.61 1061.12,68.61 1062.51,68.61 1063.90,68.61 1065.29,68.61 1066.67,68.61 1068.06,68.61 1069.45,68.61 1070.84,68.61 1072.23,68.61 1073.61,68.61 1075.00,68.61 1076.39,68.61 1077.78,68.61 1079.16,68.61 1080.55,68.61 1081.94,68.61 1083.33,68.61 1084.71,68.61 1086.10,68.61 1087.49,68.61 1088.88,68.61 1090.26,68.61 1091.65,68.61 1093.04,68.61 1094.43,68.61 1095.81,68.61 1097.20,68.61 1098.59,68.61 1099.97,68.61 1101.36,68.61 1102.75,68.61 1104.14,68.61 1105.53,68.61 1106.91,68.61 1108.30,68.61 1109.69,68.61 1111.08,68.61 1112.46,68.61 1113.85,68.61 1115.24,68.61 1116.62,68.61 1118.01,68.61 1119.40,68.61 1120.79,68.61 1122.17,68.61 1123.56,68.61 1124.95,68.61 1126.34,68.61 1127.72,68.61 1129.11,68.61 1130.50,68.61 1131.89,68.61 1133.27,68.61 1134.66,68.61 1136.05,68.61 1137.44,68.61 1138.83,68.61 1140.21,68.61 1141.60,68.61 1142.99,68.61 1144.38,68.61 1145.76,68.61 1147.15,68.61 1148.54,68.61 1149.92,68.61 1151.31,68.61 1152.70,68.61 1154.09,68.61 1155.48,68.61 1156.86,68.61 1158.25,68.61 1159.64,68.61 1161.03,68.61 1162.41,68.61 1163.80,68.61 1165.19,68.61 1166.58,68.61 1167.96,68.61 1169.35,68.61 1170.74,68.61 1172.12,68.61 1173.51,68.61 1174.90,68.61 1176.29,68.61 1177.67,68.61 1179.06,68.61 1180.45,68.61 1181.84,68.61 1183.22,68.61 1184.61,68.61 1186.00,68.61" fill="none" stroke="#56B4E9" stroke-width="2.4" stroke-opacity="0.95" stroke-dasharray="5 4"/>
<polyline points="76.00,104.08 77.39,103.73 78.78,103.38 80.16,103.04 81.55,102.70 82.94,102.36 84.33,102.02 85.71,101.69 87.10,101.36 88.49,101.04 89.88,100.72 91.26,100.40 92.65,100.09 94.04,99.78 95.42,99.47 96.81,99.16 98.20,98.86 99.59,98.56 100.97,98.27 102.36,97.98 103.75,97.69 105.14,97.40 106.53,97.12 107.91,96.84 109.30,96.57 110.69,96.29 112.08,96.02 113.46,95.75 114.85,95.49 116.24,95.23 117.62,94.97 119.01,94.71 120.40,94.46 121.79,94.21 123.18,93.96 124.56,93.72 125.95,93.47 127.34,93.24 128.72,93.00 130.11,92.76 131.50,92.53 132.89,92.30 134.28,92.08 135.66,91.85 137.05,91.63 138.44,91.41 139.82,91.20 141.21,90.98 142.60,90.77 143.99,90.56 145.38,90.36 146.76,90.15 148.15,89.95 149.54,89.75 150.93,89.56 152.31,89.36 153.70,89.17 155.09,88.98 156.47,88.79 157.86,88.61 159.25,88.42 160.64,88.24 162.03,88.06 163.41,87.89 164.80,87.71 166.19,87.54 167.57,87.37 168.96,87.20 170.35,87.03 171.74,86.87 173.12,86.70 174.51,86.54 175.90,86.38 177.29,86.23 178.68,86.07 180.06,85.92 181.45,85.77 182.84,85.62 184.22,85.47 185.61,85.33 187.00,85.18 188.39,85.04 189.78,84.90 191.16,84.76 192.55,84.62 193.94,84.49 195.32,84.35 196.71,84.22 198.10,84.09 199.49,83.96 200.88,83.84 202.26,83.71 203.65,83.59 205.04,83.46 206.43,83.34 207.81,83.22 209.20,83.11 210.59,82.99 211.97,82.87 213.36,82.76 214.75,82.65 216.14,82.54 217.53,82.43 218.91,82.32 220.30,82.21 221.69,82.11 223.07,82.00 224.46,81.90 225.85,81.80 227.24,81.70 228.62,81.60 230.01,81.50 231.40,81.41 232.79,81.31 234.17,81.22 235.56,81.13 236.95,81.03 238.34,80.94 239.72,80.85 241.11,80.77 242.50,80.68 243.89,80.59 245.28,80.51 246.66,80.42 248.05,80.34 249.44,80.26 250.82,80.18 252.21,80.10 253.60,80.02 254.99,79.94 256.38,79.86 257.76,79.79 259.15,79.71 260.54,79.64 261.92,79.57 263.31,79.49 264.70,79.42 266.09,79.35 267.48,79.28 268.86,79.21 270.25,79.14 271.64,79.08 273.02,79.01 274.41,78.94 275.80,78.88 277.19,78.81 278.57,78.75 279.96,78.69 281.35,78.63 282.74,78.56 284.12,78.50 285.51,78.44 286.90,78.38 288.29,78.33 289.67,78.27 291.06,78.21 292.45,78.15 293.84,78.10 295.23,78.04 296.61,77.99 298.00,77.93 299.39,77.88 300.77,77.82 302.16,77.77 303.55,77.72 304.94,77.67 306.33,77.61 307.71,77.56 309.10,77.51 310.49,77.46 311.88,77.41 313.26,77.36 314.65,77.32 316.04,77.27 317.43,77.22 318.81,77.17 320.20,77.12 321.59,77.08 322.98,77.03 324.36,76.99 325.75,76.94 327.14,76.90 328.52,76.85 329.91,76.81 331.30,76.76 332.69,76.72 334.07,76.68 335.46,76.63 336.85,76.59 338.24,76.55 339.62,76.50 341.01,76.46 342.40,76.42 343.79,76.38 345.18,76.34 346.56,76.30 347.95,76.26 349.34,76.21 350.73,76.17 352.11,76.13 353.50,76.09 354.89,76.05 356.27,76.01 357.66,75.97 359.05,75.94 360.44,75.90 361.82,75.86 363.21,75.82 364.60,75.78 365.99,75.74 367.38,75.70 368.76,75.66 370.15,75.63 371.54,75.59 372.93,75.55 374.31,75.51 375.70,75.47 377.09,75.44 378.48,75.40 379.86,75.36 381.25,75.32 382.64,75.29 384.03,75.25 385.41,75.21 386.80,75.17 388.19,75.14 389.58,75.10 390.96,75.06 392.35,75.03 393.74,74.99 395.12,74.95 396.51,74.92 397.90,74.88 399.29,74.84 400.67,74.80 402.06,74.77 403.45,74.73 404.84,74.69 406.22,74.66 407.61,74.62 409.00,74.58 410.39,74.54 411.78,74.51 413.16,74.47 414.55,74.43 415.94,74.40 417.32,74.36 418.71,74.32 420.10,74.28 421.49,74.25 422.88,74.21 424.26,74.17 425.65,74.14 427.04,74.10 428.43,74.06 429.81,74.02 431.20,73.99 432.59,73.95 433.98,73.91 435.36,73.87 436.75,73.83 438.14,73.80 439.53,73.76 440.91,73.72 442.30,73.68 443.69,73.64 445.07,73.61 446.46,73.57 447.85,73.53 449.24,73.49 450.62,73.45 452.01,73.41 453.40,73.37 454.79,73.34 456.18,73.30 457.56,73.26 458.95,73.22 460.34,73.18 461.73,73.14 463.11,73.10 464.50,73.06 465.89,73.02 467.27,72.98 468.66,72.94 470.05,72.90 471.44,72.86 472.82,72.83 474.21,72.79 475.60,72.75 476.99,72.71 478.38,72.67 479.76,72.63 481.15,72.59 482.54,72.55 483.93,72.51 485.31,72.47 486.70,72.43 488.09,72.39 489.48,72.35 490.86,72.31 492.25,72.26 493.64,72.22 495.02,72.18 496.41,72.14 497.80,72.10 499.19,72.06 500.57,72.02 501.96,71.98 503.35,71.94 504.74,71.90 506.12,71.86 507.51,71.82 508.90,71.78 510.29,71.74 511.68,71.70 513.06,71.66 514.45,71.62 515.84,71.58 517.23,71.54 518.61,71.50 520.00,71.46 521.39,71.42 522.77,71.38 524.16,71.34 525.55,71.30 526.94,71.26 528.33,71.22 529.71,71.18 531.10,71.14 532.49,71.10 533.88,71.06 535.26,71.02 536.65,70.98 538.04,70.94 539.42,70.90 540.81,70.86 542.20,70.82 543.59,70.78 544.97,70.74 546.36,70.70 547.75,70.67 549.14,70.63 550.53,70.59 551.91,70.55 553.30,70.51 554.69,70.48 556.08,70.44 557.46,70.40 558.85,70.36 560.24,70.33 561.62,70.29 563.01,70.25 564.40,70.22 565.79,70.18 567.17,70.15 568.56,70.11 569.95,70.08 571.34,70.04 572.73,70.01 574.11,69.97 575.50,69.94 576.89,69.91 578.28,69.87 579.66,69.84 581.05,69.81 582.44,69.77 583.83,69.74 585.21,69.71 586.60,69.68 587.99,69.65 589.38,69.62 590.76,69.59 592.15,69.56 593.54,69.53 594.92,69.50 596.31,69.47 597.70,69.45 599.09,69.42 600.48,69.39 601.86,69.37 603.25,69.34 604.64,69.31 606.02,69.29 607.41,69.26 608.80,69.24 610.19,69.22 611.57,69.20 612.96,69.17 614.35,69.15 615.74,69.13 617.12,69.11 618.51,69.09 619.90,69.07 621.29,69.05 622.67,69.04 624.06,69.02 625.45,69.00 626.84,68.99 628.22,68.97 629.61,68.96 631.00,68.94 632.39,68.93 633.78,68.92 635.16,68.91 636.55,68.90 637.94,68.89 639.33,68.88 640.71,68.87 642.10,68.86 643.49,68.86 644.88,68.85 646.26,68.84 647.65,68.84 649.04,68.84 650.43,68.84 651.81,68.83 653.20,68.83 654.59,68.84 655.97,68.84 657.36,68.84 658.75,68.84 660.14,68.85 661.52,68.85 662.91,68.86 664.30,68.87 665.69,68.88 667.07,68.89 668.46,68.90 669.85,68.91 671.24,68.92 672.62,68.94 674.01,68.95 675.40,68.97 676.79,68.99 678.17,69.01 679.56,69.03 680.95,69.05 682.34,69.07 683.73,69.10 685.11,69.12 686.50,69.15 687.89,69.18 689.27,69.21 690.66,69.24 692.05,69.27 693.44,69.31 694.83,69.34 696.21,69.38 697.60,69.42 698.99,69.45 700.38,69.50 701.76,69.54 703.15,69.58 704.54,69.63 705.92,69.67 707.31,69.72 708.70,69.77 710.09,69.83 711.48,69.88 712.86,69.93 714.25,69.99 715.64,70.05 717.02,70.11 718.41,70.17 719.80,70.23 721.19,70.30 722.58,70.37 723.96,70.44 725.35,70.51 726.74,70.58 728.12,70.65 729.51,70.73 730.90,70.81 732.29,70.89 733.68,70.97 735.06,71.05 736.45,71.14 737.84,71.23 739.23,71.32 740.61,71.41 742.00,71.50 743.39,71.60 744.78,71.70 746.16,71.80 747.55,71.90 748.94,72.00 750.33,72.11 751.71,72.22 753.10,72.33 754.49,72.44 755.88,72.56 757.26,72.68 758.65,72.80 760.04,72.92 761.42,73.05 762.81,73.17 764.20,73.30 765.59,73.43 766.97,73.57 768.36,73.71 769.75,73.85 771.14,73.99 772.52,74.13 773.91,74.28 775.30,74.43 776.69,74.58 778.07,74.74 779.46,74.89 780.85,75.05 782.24,75.22 783.62,75.38 785.01,75.55 786.40,75.72 787.79,75.90 789.18,76.07 790.56,76.25 791.95,76.43 793.34,76.62 794.73,76.81 796.11,77.00 797.50,77.19 798.89,77.39 800.28,77.59 801.66,77.79 803.05,78.00 804.44,78.21 805.82,78.42 807.21,78.63 808.60,78.85 809.99,79.08 811.38,79.30 812.76,79.53 814.15,79.76 815.54,79.99 816.92,80.23 818.31,80.47 819.70,80.72 821.09,80.97 822.48,81.22 823.86,81.47 825.25,81.73 826.64,81.99 828.02,82.26 829.41,82.53 830.80,82.80 832.19,83.08 833.58,83.36 834.96,83.64 836.35,83.93 837.74,84.22 839.12,84.51 840.51,84.81 841.90,85.11 843.29,85.42 844.67,85.73 846.06,86.04 847.45,86.36 848.84,86.68 850.23,87.00 851.61,87.33 853.00,87.67 854.39,88.00 855.77,88.35 857.16,88.69 858.55,89.04 859.94,89.39 861.33,89.75 862.71,90.11 864.10,90.48 865.49,90.85 866.88,91.23 868.26,91.61 869.65,91.99 871.04,92.38 872.43,92.77 873.81,93.17 875.20,93.57 876.59,93.98 877.98,94.39 879.36,94.80 880.75,95.22 882.14,95.64 883.53,96.07 884.91,96.51 886.30,96.95 887.69,97.39 889.08,97.84 890.46,98.29 891.85,98.75 893.24,99.21 894.62,99.68 896.01,100.15 897.40,100.63 898.79,101.11 900.18,101.60 901.56,102.09 902.95,102.59 904.34,103.09 905.73,103.60 907.11,104.11 908.50,104.63 909.89,105.15 911.27,105.68 912.66,106.22 914.05,106.75 915.44,107.30 916.83,107.85 918.21,108.41 919.60,108.97 920.99,109.53 922.38,110.11 923.76,110.68 925.15,111.27 926.54,111.86 927.93,112.45 929.31,113.05 930.70,113.66 932.09,114.27 933.47,114.89 934.86,115.51 936.25,116.14 937.64,116.78 939.03,117.42 940.41,118.07 941.80,118.72 943.19,119.38 944.57,120.05 945.96,120.72 947.35,121.40 948.74,122.08 950.13,122.78 951.51,123.47 952.90,124.18 954.29,124.89 955.67,125.60 957.06,126.32 958.45,127.05 959.84,127.79 961.23,128.53 962.61,129.28 964.00,130.03 965.39,130.80 966.77,131.57 968.16,132.34 969.55,133.12 970.94,133.91 972.33,134.71 973.71,135.51 975.10,136.32 976.49,137.14 977.87,137.96 979.26,138.79 980.65,139.63 982.04,140.47 983.42,141.32 984.81,142.18 986.20,143.05 987.59,143.92 988.98,144.80 990.36,145.69 991.75,146.59 993.14,147.49 994.52,148.40 995.91,149.32 997.30,150.24 998.69,151.17 1000.08,152.11 1001.46,153.06 1002.85,154.02 1004.24,154.98 1005.62,155.95 1007.01,156.93 1008.40,157.92 1009.79,158.91 1011.18,159.91 1012.56,160.92 1013.95,161.94 1015.34,162.97 1016.72,164.00 1018.11,165.05 1019.50,166.10 1020.89,167.16 1022.28,168.22 1023.66,169.30 1025.05,170.38 1026.44,171.47 1027.82,172.57 1029.21,173.68 1030.60,174.80 1031.99,175.93 1033.38,177.06 1034.76,178.20 1036.15,179.35 1037.54,180.51 1038.92,181.68 1040.31,182.86 1041.70,184.05 1043.09,185.24 1044.47,186.45 1045.86,187.66 1047.25,188.88 1048.64,190.11 1050.03,191.35 1051.41,192.60 1052.80,193.86 1054.19,195.13 1055.58,196.41 1056.96,197.69 1058.35,198.99 1059.74,200.29 1061.12,201.61 1062.51,202.93 1063.90,204.27 1065.29,205.61 1066.67,206.96 1068.06,208.32 1069.45,209.69 1070.84,211.08 1072.23,212.47 1073.61,213.87 1075.00,215.28 1076.39,216.70 1077.78,218.13 1079.16,219.57 1080.55,221.02 1081.94,222.48 1083.33,223.95 1084.71,225.43 1086.10,226.92 1087.49,228.43 1088.88,229.94 1090.26,231.46 1091.65,232.99 1093.04,234.53 1094.43,236.09 1095.81,237.65 1097.20,239.23 1098.59,240.81 1099.97,242.41 1101.36,244.01 1102.75,245.63 1104.14,247.26 1105.53,248.90 1106.91,250.55 1108.30,252.21 1109.69,253.88 1111.08,255.56 1112.46,257.25 1113.85,258.96 1115.24,260.67 1116.62,262.40 1118.01,264.14 1119.40,265.89 1120.79,267.65 1122.17,269.42 1123.56,271.21 1124.95,273.00 1126.34,274.81 1127.72,276.63 1129.11,278.46 1130.50,280.30 1131.89,282.15 1133.27,284.02 1134.66,285.90 1136.05,287.79 1137.44,289.69 1138.83,291.60 1140.21,293.53 1141.60,295.46 1142.99,297.41 1144.38,299.37 1145.76,301.35 1147.15,303.33 1148.54,305.33 1149.92,307.34 1151.31,309.37 1152.70,311.40 1154.09,313.45 1155.48,315.51 1156.86,317.59 1158.25,319.67 1159.64,321.77 1161.03,323.88 1162.41,326.01 1163.80,328.14 1165.19,330.29 1166.58,332.46 1167.96,334.63 1169.35,336.82 1170.74,339.03 1172.12,341.24 1173.51,343.47 1174.90,345.71 1176.29,347.97 1177.67,350.24 1179.06,352.52 1180.45,354.82 1181.84,357.13 1183.22,359.45 1184.61,361.79 1186.00,364.14" fill="none" stroke="#009E73" stroke-width="2.5" stroke-opacity="1.0" stroke-dasharray="12 5"/>
<polyline points="76.00,104.18 77.39,103.78 78.78,103.38 80.16,102.98 81.55,102.60 82.94,102.22 84.33,101.85 85.71,101.49 87.10,101.13 88.49,100.78 89.88,100.43 91.26,100.09 92.65,99.76 94.04,99.43 95.42,99.11 96.81,98.79 98.20,98.48 99.59,98.17 100.97,97.87 102.36,97.57 103.75,97.28 105.14,96.99 106.53,96.71 107.91,96.43 109.30,96.15 110.69,95.88 112.08,95.62 113.46,95.35 114.85,95.09 116.24,94.84 117.62,94.59 119.01,94.34 120.40,94.10 121.79,93.86 123.18,93.62 124.56,93.39 125.95,93.16 127.34,92.93 128.72,92.71 130.11,92.49 131.50,92.27 132.89,92.05 134.28,91.84 135.66,91.63 137.05,91.43 138.44,91.22 139.82,91.02 141.21,90.83 142.60,90.63 143.99,90.44 145.38,90.25 146.76,90.06 148.15,89.87 149.54,89.69 150.93,89.51 152.31,89.33 153.70,89.15 155.09,88.98 156.47,88.81 157.86,88.64 159.25,88.47 160.64,88.30 162.03,88.14 163.41,87.98 164.80,87.82 166.19,87.66 167.57,87.50 168.96,87.35 170.35,87.20 171.74,87.04 173.12,86.89 174.51,86.75 175.90,86.60 177.29,86.46 178.68,86.31 180.06,86.17 181.45,86.03 182.84,85.89 184.22,85.76 185.61,85.62 187.00,85.49 188.39,85.36 189.78,85.23 191.16,85.10 192.55,84.97 193.94,84.84 195.32,84.72 196.71,84.59 198.10,84.47 199.49,84.35 200.88,84.23 202.26,84.11 203.65,83.99 205.04,83.87 206.43,83.76 207.81,83.64 209.20,83.53 210.59,83.42 211.97,83.31 213.36,83.20 214.75,83.09 216.14,82.98 217.53,82.87 218.91,82.77 220.30,82.66 221.69,82.56 223.07,82.46 224.46,82.35 225.85,82.25 227.24,82.15 228.62,82.06 230.01,81.96 231.40,81.86 232.79,81.76 234.17,81.67 235.56,81.57 236.95,81.48 238.34,81.39 239.72,81.29 241.11,81.20 242.50,81.11 243.89,81.02 245.28,80.93 246.66,80.85 248.05,80.76 249.44,80.67 250.82,80.59 252.21,80.50 253.60,80.42 254.99,80.33 256.38,80.25 257.76,80.17 259.15,80.09 260.54,80.01 261.92,79.93 263.31,79.85 264.70,79.77 266.09,79.69 267.48,79.61 268.86,79.54 270.25,79.46 271.64,79.38 273.02,79.31 274.41,79.23 275.80,79.16 277.19,79.09 278.57,79.01 279.96,78.94 281.35,78.87 282.74,78.80 284.12,78.73 285.51,78.66 286.90,78.59 288.29,78.52 289.67,78.45 291.06,78.39 292.45,78.32 293.84,78.25 295.23,78.19 296.61,78.12 298.00,78.05 299.39,77.99 300.77,77.93 302.16,77.86 303.55,77.80 304.94,77.74 306.33,77.67 307.71,77.61 309.10,77.55 310.49,77.49 311.88,77.43 313.26,77.37 314.65,77.31 316.04,77.25 317.43,77.19 318.81,77.13 320.20,77.07 321.59,77.02 322.98,76.96 324.36,76.90 325.75,76.85 327.14,76.79 328.52,76.74 329.91,76.68 331.30,76.63 332.69,76.57 334.07,76.52 335.46,76.46 336.85,76.41 338.24,76.36 339.62,76.30 341.01,76.25 342.40,76.20 343.79,76.15 345.18,76.10 346.56,76.05 347.95,76.00 349.34,75.95 350.73,75.90 352.11,75.85 353.50,75.80 354.89,75.75 356.27,75.70 357.66,75.65 359.05,75.60 360.44,75.56 361.82,75.51 363.21,75.46 364.60,75.41 365.99,75.37 367.38,75.32 368.76,75.28 370.15,75.23 371.54,75.19 372.93,75.14 374.31,75.10 375.70,75.05 377.09,75.01 378.48,74.96 379.86,74.92 381.25,74.88 382.64,74.83 384.03,74.79 385.41,74.75 386.80,74.71 388.19,74.66 389.58,74.62 390.96,74.58 392.35,74.54 393.74,74.50 395.12,74.46 396.51,74.42 397.90,74.38 399.29,74.34 400.67,74.30 402.06,74.26 403.45,74.22 404.84,74.18 406.22,74.14 407.61,74.10 409.00,74.06 410.39,74.02 411.78,73.99 413.16,73.95 414.55,73.91 415.94,73.87 417.32,73.84 418.71,73.80 420.10,73.76 421.49,73.73 422.88,73.69 424.26,73.65 425.65,73.62 427.04,73.58 428.43,73.55 429.81,73.51 431.20,73.47 432.59,73.44 433.98,73.41 435.36,73.37 436.75,73.34 438.14,73.30 439.53,73.27 440.91,73.23 442.30,73.20 443.69,73.17 445.07,73.13 446.46,73.10 447.85,73.07 449.24,73.04 450.62,73.00 452.01,72.97 453.40,72.94 454.79,72.91 456.18,72.87 457.56,72.84 458.95,72.81 460.34,72.78 461.73,72.75 463.11,72.72 464.50,72.69 465.89,72.66 467.27,72.62 468.66,72.59 470.05,72.56 471.44,72.53 472.82,72.50 474.21,72.47 475.60,72.44 476.99,72.42 478.38,72.39 479.76,72.36 481.15,72.33 482.54,72.30 483.93,72.27 485.31,72.24 486.70,72.21 488.09,72.18 489.48,72.16 490.86,72.13 492.25,72.10 493.64,72.07 495.02,72.04 496.41,72.02 497.80,71.99 499.19,71.96 500.57,71.94 501.96,71.91 503.35,71.88 504.74,71.85 506.12,71.83 507.51,71.80 508.90,71.78 510.29,71.75 511.68,71.72 513.06,71.70 514.45,71.67 515.84,71.65 517.23,71.62 518.61,71.59 520.00,71.57 521.39,71.54 522.77,71.52 524.16,71.49 525.55,71.47 526.94,71.44 528.33,71.42 529.71,71.40 531.10,71.37 532.49,71.35 533.88,71.32 535.26,71.30 536.65,71.27 538.04,71.25 539.42,71.23 540.81,71.20 542.20,71.18 543.59,71.16 544.97,71.13 546.36,71.11 547.75,71.09 549.14,71.06 550.53,71.04 551.91,71.02 553.30,70.99 554.69,70.97 556.08,70.95 557.46,70.93 558.85,70.90 560.24,70.88 561.62,70.86 563.01,70.84 564.40,70.82 565.79,70.79 567.17,70.77 568.56,70.75 569.95,70.73 571.34,70.71 572.73,70.69 574.11,70.67 575.50,70.64 576.89,70.62 578.28,70.60 579.66,70.58 581.05,70.56 582.44,70.54 583.83,70.52 585.21,70.50 586.60,70.48 587.99,70.46 589.38,70.44 590.76,70.42 592.15,70.40 593.54,70.38 594.92,70.36 596.31,70.34 597.70,70.32 599.09,70.30 600.48,70.28 601.86,70.26 603.25,70.24 604.64,70.22 606.02,70.20 607.41,70.18 608.80,70.16 610.19,70.14 611.57,70.12 612.96,70.10 614.35,70.09 615.74,70.07 617.12,70.05 618.51,70.03 619.90,70.01 621.29,69.99 622.67,69.97 624.06,69.96 625.45,69.94 626.84,69.92 628.22,69.90 629.61,69.88 631.00,69.87 632.39,69.85 633.78,69.83 635.16,69.81 636.55,69.79 637.94,69.78 639.33,69.76 640.71,69.74 642.10,69.72 643.49,69.71 644.88,69.69 646.26,69.67 647.65,69.66 649.04,69.64 650.43,69.62 651.81,69.60 653.20,69.59 654.59,69.57 655.97,69.55 657.36,69.54 658.75,69.52 660.14,69.50 661.52,69.49 662.91,69.47 664.30,69.45 665.69,69.44 667.07,69.42 668.46,69.41 669.85,69.39 671.24,69.37 672.62,69.36 674.01,69.34 675.40,69.33 676.79,69.31 678.17,69.29 679.56,69.28 680.95,69.26 682.34,69.25 683.73,69.23 685.11,69.22 686.50,69.20 687.89,69.19 689.27,69.17 690.66,69.16 692.05,69.14 693.44,69.12 694.83,69.11 696.21,69.09 697.60,69.08 698.99,69.06 700.38,69.05 701.76,69.04 703.15,69.02 704.54,69.01 705.92,68.99 707.31,68.98 708.70,68.96 710.09,68.95 711.48,68.93 712.86,68.92 714.25,68.90 715.64,68.89 717.02,68.88 718.41,68.86 719.80,68.85 721.19,68.83 722.58,68.82 723.96,68.81 725.35,68.79 726.74,68.78 728.12,68.76 729.51,68.75 730.90,68.74 732.29,68.72 733.68,68.71 735.06,68.69 736.45,68.68 737.84,68.67 739.23,68.65 740.61,68.64 742.00,68.63 743.39,68.61 744.78,68.60 746.16,68.59 747.55,68.57 748.94,68.56 750.33,68.55 751.71,68.53 753.10,68.52 754.49,68.51 755.88,68.50 757.26,68.48 758.65,68.47 760.04,68.46 761.42,68.44 762.81,68.43 764.20,68.42 765.59,68.41 766.97,68.39 768.36,68.38 769.75,68.37 771.14,68.36 772.52,68.34 773.91,68.33 775.30,68.32 776.69,68.31 778.07,68.29 779.46,68.28 780.85,68.27 782.24,68.26 783.62,68.25 785.01,68.23 786.40,68.22 787.79,68.21 789.18,68.20 790.56,68.19 791.95,68.17 793.34,68.16 794.73,68.15 796.11,68.14 797.50,68.13 798.89,68.12 800.28,68.10 801.66,68.09 803.05,68.08 804.44,68.07 805.82,68.06 807.21,68.05 808.60,68.03 809.99,68.02 811.38,68.01 812.76,68.00 814.15,67.99 815.54,67.98 816.92,67.97 818.31,67.96 819.70,67.94 821.09,67.93 822.48,67.92 823.86,67.91 825.25,67.90 826.64,67.89 828.02,67.88 829.41,67.87 830.80,67.86 832.19,67.85 833.58,67.83 834.96,67.82 836.35,67.81 837.74,67.80 839.12,67.79 840.51,67.78 841.90,67.77 843.29,67.76 844.67,67.75 846.06,67.74 847.45,67.73 848.84,67.72 850.23,67.71 851.61,67.70 853.00,67.69 854.39,67.68 855.77,67.67 857.16,67.66 858.55,67.65 859.94,67.64 861.33,67.63 862.71,67.62 864.10,67.61 865.49,67.59 866.88,67.58 868.26,67.57 869.65,67.56 871.04,67.55 872.43,67.54 873.81,67.54 875.20,67.53 876.59,67.52 877.98,67.51 879.36,67.50 880.75,67.49 882.14,67.48 883.53,67.47 884.91,67.46 886.30,67.45 887.69,67.44 889.08,67.43 890.46,67.42 891.85,67.41 893.24,67.40 894.62,67.39 896.01,67.38 897.40,67.37 898.79,67.36 900.18,67.35 901.56,67.34 902.95,67.33 904.34,67.32 905.73,67.31 907.11,67.31 908.50,67.30 909.89,67.29 911.27,67.28 912.66,67.27 914.05,67.26 915.44,67.25 916.83,67.24 918.21,67.23 919.60,67.22 920.99,67.21 922.38,67.21 923.76,67.20 925.15,67.19 926.54,67.18 927.93,67.17 929.31,67.16 930.70,67.15 932.09,67.14 933.47,67.13 934.86,67.13 936.25,67.12 937.64,67.11 939.03,67.10 940.41,67.09 941.80,67.08 943.19,67.07 944.57,67.07 945.96,67.06 947.35,67.05 948.74,67.04 950.13,67.03 951.51,67.02 952.90,67.01 954.29,67.01 955.67,67.00 957.06,66.99 958.45,66.98 959.84,66.97 961.23,66.96 962.61,66.96 964.00,66.95 965.39,66.94 966.77,66.93 968.16,66.92 969.55,66.92 970.94,66.91 972.33,66.90 973.71,66.89 975.10,66.88 976.49,66.87 977.87,66.87 979.26,66.86 980.65,66.85 982.04,66.84 983.42,66.83 984.81,66.83 986.20,66.82 987.59,66.81 988.98,66.80 990.36,66.80 991.75,66.79 993.14,66.78 994.52,66.77 995.91,66.76 997.30,66.76 998.69,66.75 1000.08,66.74 1001.46,66.73 1002.85,66.73 1004.24,66.72 1005.62,66.71 1007.01,66.70 1008.40,66.70 1009.79,66.69 1011.18,66.68 1012.56,66.67 1013.95,66.66 1015.34,66.66 1016.72,66.65 1018.11,66.64 1019.50,66.64 1020.89,66.63 1022.28,66.62 1023.66,66.61 1025.05,66.61 1026.44,66.60 1027.82,66.59 1029.21,66.58 1030.60,66.58 1031.99,66.57 1033.38,66.56 1034.76,66.55 1036.15,66.55 1037.54,66.54 1038.92,66.53 1040.31,66.53 1041.70,66.52 1043.09,66.51 1044.47,66.50 1045.86,66.50 1047.25,66.49 1048.64,66.48 1050.03,66.48 1051.41,66.47 1052.80,66.46 1054.19,66.46 1055.58,66.45 1056.96,66.44 1058.35,66.43 1059.74,66.43 1061.12,66.42 1062.51,66.41 1063.90,66.41 1065.29,66.40 1066.67,66.39 1068.06,66.39 1069.45,66.38 1070.84,66.37 1072.23,66.37 1073.61,66.36 1075.00,66.35 1076.39,66.35 1077.78,66.34 1079.16,66.33 1080.55,66.33 1081.94,66.32 1083.33,66.31 1084.71,66.31 1086.10,66.30 1087.49,66.29 1088.88,66.29 1090.26,66.28 1091.65,66.27 1093.04,66.27 1094.43,66.26 1095.81,66.25 1097.20,66.25 1098.59,66.24 1099.97,66.23 1101.36,66.23 1102.75,66.22 1104.14,66.21 1105.53,66.21 1106.91,66.20 1108.30,66.20 1109.69,66.19 1111.08,66.18 1112.46,66.18 1113.85,66.17 1115.24,66.16 1116.62,66.16 1118.01,66.15 1119.40,66.15 1120.79,66.14 1122.17,66.13 1123.56,66.13 1124.95,66.12 1126.34,66.11 1127.72,66.11 1129.11,66.10 1130.50,66.10 1131.89,66.09 1133.27,66.08 1134.66,66.08 1136.05,66.07 1137.44,66.07 1138.83,66.06 1140.21,66.05 1141.60,66.05 1142.99,66.04 1144.38,66.04 1145.76,66.03 1147.15,66.02 1148.54,66.02 1149.92,66.01 1151.31,66.01 1152.70,66.00 1154.09,65.99 1155.48,65.99 1156.86,65.98 1158.25,65.98 1159.64,65.97 1161.03,65.96 1162.41,65.96 1163.80,65.95 1165.19,65.95 1166.58,65.94 1167.96,65.94 1169.35,65.93 1170.74,65.92 1172.12,65.92 1173.51,65.91 1174.90,65.91 1176.29,65.90 1177.67,65.90 1179.06,65.89 1180.45,65.88 1181.84,65.88 1183.22,65.87 1184.61,65.87 1186.00,65.86" fill="none" stroke="#D55E00" stroke-width="2.9" stroke-opacity="1.0" stroke-dasharray="8 3"/>
<line x1="88" y1="54" x2="110" y2="54" stroke="#4D4D4D" stroke-width="3.2" stroke-opacity="0.55"/>
<text x="116" y="58" font-family="Arial, Noto Sans CJK SC, Microsoft YaHei, sans-serif" font-size="12">Reference Monod rate</text>
<line x1="88" y1="72" x2="110" y2="72" stroke="#56B4E9" stroke-width="2.4" stroke-opacity="0.95" stroke-dasharray="5 4"/>
<text x="116" y="76" font-family="Arial, Noto Sans CJK SC, Microsoft YaHei, sans-serif" font-size="12">Piecewise gain-scheduled rate model</text>
<line x1="88" y1="90" x2="110" y2="90" stroke="#009E73" stroke-width="2.5" stroke-opacity="1.0" stroke-dasharray="12 5"/>
<text x="116" y="94" font-family="Arial, Noto Sans CJK SC, Microsoft YaHei, sans-serif" font-size="12">Polynomial coefficient-slot model</text>
<line x1="88" y1="108" x2="110" y2="108" stroke="#D55E00" stroke-width="2.9" stroke-opacity="1.0" stroke-dasharray="8 3"/>
<text x="116" y="112" font-family="Arial, Noto Sans CJK SC, Microsoft YaHei, sans-serif" font-size="12">Rational SINDy-PI-style coefficient-slot model</text>
</svg>