<svg xmlns="http://www.w3.org/2000/svg" width="1220" height="450" viewBox="0 0 1220 450">
<rect width="100%" height="100%" fill="white"/>
<text x="610" y="26" text-anchor="middle" font-family="Arial, Noto Sans CJK SC, Microsoft YaHei, sans-serif" font-size="18">E5 substrate-extrapolation rollout: biomass X</text>
<line x1="76" y1="388" x2="1186" y2="388" stroke="#333" stroke-width="1"/>
<line x1="76" y1="42" x2="76" y2="388" stroke="#333" stroke-width="1"/>
<text x="631" y="434" text-anchor="middle" font-family="Arial, Noto Sans CJK SC, Microsoft YaHei, sans-serif" font-size="13">t</text>
<text transform="translate(18,215) rotate(-90)" text-anchor="middle" font-family="Arial, Noto Sans CJK SC, Microsoft YaHei, sans-serif" font-size="13">X</text>
<line x1="76.00" y1="388" x2="76.00" y2="393" stroke="#333"/>
<text x="76.00" y="409" text-anchor="middle" font-family="Arial" font-size="11">0.0</text>
<line x1="298.00" y1="388" x2="298.00" y2="393" stroke="#333"/>
<text x="298.00" y="409" text-anchor="middle" font-family="Arial" font-size="11">1.1</text>
<line x1="520.00" y1="388" x2="520.00" y2="393" stroke="#333"/>
<text x="520.00" y="409" text-anchor="middle" font-family="Arial" font-size="11">2.2</text>
<line x1="742.00" y1="388" x2="742.00" y2="393" stroke="#333"/>
<text x="742.00" y="409" text-anchor="middle" font-family="Arial" font-size="11">3.3</text>
<line x1="964.00" y1="388" x2="964.00" y2="393" stroke="#333"/>
<text x="964.00" y="409" text-anchor="middle" font-family="Arial" font-size="11">4.4</text>
<line x1="1186.00" y1="388" x2="1186.00" y2="393" stroke="#333"/>
<text x="1186.00" y="409" text-anchor="middle" font-family="Arial" font-size="11">5.5</text>
<line x1="71" y1="388.00" x2="76" y2="388.00" stroke="#333"/>
<text x="68" y="392.00" text-anchor="end" font-family="Arial" font-size="11">-0.11</text>
<line x1="71" y1="301.50" x2="76" y2="301.50" stroke="#333"/>
<text x="68" y="305.50" text-anchor="end" font-family="Arial" font-size="11">0.28</text>
<line x1="71" y1="215.00" x2="76" y2="215.00" stroke="#333"/>
<text x="68" y="219.00" text-anchor="end" font-family="Arial" font-size="11">0.67</text>
<line x1="71" y1="128.50" x2="76" y2="128.50" stroke="#333"/>
<text x="68" y="132.50" text-anchor="end" font-family="Arial" font-size="11">1.06</text>
<line x1="71" y1="42.00" x2="76" y2="42.00" stroke="#333"/>
<text x="68" y="46.00" text-anchor="end" font-family="Arial" font-size="11">1.45</text>
<polyline points="76.00,351.91 78.02,351.78 80.04,351.65 82.05,351.52 84.07,351.39 86.09,351.26 88.11,351.12 90.13,350.99 92.15,350.85 94.16,350.71 96.18,350.57 98.20,350.43 100.22,350.29 102.24,350.14 104.25,350.00 106.27,349.85 108.29,349.70 110.31,349.55 112.33,349.40 114.35,349.24 116.36,349.09 118.38,348.93 120.40,348.77 122.42,348.61 124.44,348.45 126.45,348.29 128.47,348.12 130.49,347.96 132.51,347.79 134.53,347.62 136.55,347.45 138.56,347.27 140.58,347.10 142.60,346.92 144.62,346.74 146.64,346.56 148.65,346.38 150.67,346.19 152.69,346.00 154.71,345.81 156.73,345.62 158.75,345.43 160.76,345.24 162.78,345.04 164.80,344.84 166.82,344.64 168.84,344.44 170.85,344.23 172.87,344.03 174.89,343.82 176.91,343.61 178.93,343.39 180.95,343.18 182.96,342.96 184.98,342.74 187.00,342.52 189.02,342.29 191.04,342.06 193.05,341.84 195.07,341.60 197.09,341.37 199.11,341.13 201.13,340.89 203.15,340.65 205.16,340.41 207.18,340.16 209.20,339.92 211.22,339.66 213.24,339.41 215.25,339.15 217.27,338.89 219.29,338.63 221.31,338.37 223.33,338.10 225.35,337.83 227.36,337.56 229.38,337.28 231.40,337.01 233.42,336.72 235.44,336.44 237.45,336.15 239.47,335.86 241.49,335.57 243.51,335.28 245.53,334.98 247.55,334.67 249.56,334.37 251.58,334.06 253.60,333.75 255.62,333.44 257.64,333.12 259.65,332.80 261.67,332.48 263.69,332.15 265.71,331.82 267.73,331.48 269.75,331.15 271.76,330.81 273.78,330.46 275.80,330.11 277.82,329.76 279.84,329.41 281.85,329.05 283.87,328.69 285.89,328.32 287.91,327.95 289.93,327.58 291.95,327.21 293.96,326.82 295.98,326.44 298.00,326.05 300.02,325.66 302.04,325.26 304.05,324.86 306.07,324.46 308.09,324.05 310.11,323.64 312.13,323.22 314.15,322.80 316.16,322.38 318.18,321.95 320.20,321.52 322.22,321.08 324.24,320.64 326.25,320.19 328.27,319.74 330.29,319.29 332.31,318.83 334.33,318.36 336.35,317.89 338.36,317.42 340.38,316.94 342.40,316.46 344.42,315.97 346.44,315.48 348.45,314.98 350.47,314.48 352.49,313.97 354.51,313.46 356.53,312.94 358.55,312.42 360.56,311.89 362.58,311.36 364.60,310.82 366.62,310.27 368.64,309.72 370.65,309.17 372.67,308.61 374.69,308.05 376.71,307.47 378.73,306.90 380.75,306.32 382.76,305.73 384.78,305.13 386.80,304.54 388.82,303.93 390.84,303.32 392.85,302.70 394.87,302.08 396.89,301.45 398.91,300.82 400.93,300.18 402.95,299.53 404.96,298.87 406.98,298.21 409.00,297.55 411.02,296.88 413.04,296.20 415.05,295.51 417.07,294.82 419.09,294.12 421.11,293.42 423.13,292.70 425.15,291.98 427.16,291.26 429.18,290.53 431.20,289.79 433.22,289.04 435.24,288.29 437.25,287.53 439.27,286.76 441.29,285.98 443.31,285.20 445.33,284.41 447.35,283.62 449.36,282.81 451.38,282.00 453.40,281.18 455.42,280.35 457.44,279.52 459.45,278.68 461.47,277.83 463.49,276.97 465.51,276.10 467.53,275.23 469.55,274.35 471.56,273.46 473.58,272.56 475.60,271.65 477.62,270.74 479.64,269.82 481.65,268.89 483.67,267.95 485.69,267.00 487.71,266.04 489.73,265.08 491.75,264.11 493.76,263.13 495.78,262.14 497.80,261.14 499.82,260.13 501.84,259.11 503.85,258.09 505.87,257.05 507.89,256.01 509.91,254.96 511.93,253.90 513.95,252.83 515.96,251.75 517.98,250.66 520.00,249.56 522.02,248.46 524.04,247.34 526.05,246.22 528.07,245.08 530.09,243.94 532.11,242.79 534.13,241.62 536.15,240.45 538.16,239.27 540.18,238.08 542.20,236.88 544.22,235.67 546.24,234.45 548.25,233.22 550.27,231.98 552.29,230.74 554.31,229.48 556.33,228.21 558.35,226.93 560.36,225.65 562.38,224.35 564.40,223.05 566.42,221.73 568.44,220.41 570.45,219.08 572.47,217.73 574.49,216.38 576.51,215.02 578.53,213.65 580.55,212.27 582.56,210.88 584.58,209.48 586.60,208.07 588.62,206.65 590.64,205.23 592.65,203.79 594.67,202.35 596.69,200.90 598.71,199.44 600.73,197.97 602.75,196.49 604.76,195.00 606.78,193.51 608.80,192.01 610.82,190.50 612.84,188.98 614.85,187.45 616.87,185.92 618.89,184.38 620.91,182.83 622.93,181.28 624.95,179.72 626.96,178.15 628.98,176.58 631.00,175.00 633.02,173.42 635.04,171.83 637.05,170.24 639.07,168.64 641.09,167.04 643.11,165.43 645.13,163.82 647.15,162.21 649.16,160.59 651.18,158.98 653.20,157.36 655.22,155.73 657.24,154.11 659.25,152.49 661.27,150.87 663.29,149.25 665.31,147.62 667.33,146.01 669.35,144.39 671.36,142.78 673.38,141.17 675.40,139.56 677.42,137.96 679.44,136.37 681.45,134.78 683.47,133.20 685.49,131.63 687.51,130.07 689.53,128.51 691.55,126.97 693.56,125.44 695.58,123.92 697.60,122.42 699.62,120.93 701.64,119.46 703.65,118.00 705.67,116.56 707.69,115.14 709.71,113.73 711.73,112.35 713.75,110.99 715.76,109.65 717.78,108.34 719.80,107.05 721.82,105.78 723.84,104.54 725.85,103.33 727.87,102.15 729.89,100.99 731.91,99.87 733.93,98.77 735.95,97.70 737.96,96.67 739.98,95.67 742.00,94.70 744.02,93.76 746.04,92.85 748.05,91.98 750.07,91.14 752.09,90.33 754.11,89.56 756.13,88.82 758.15,88.11 760.16,87.43 762.18,86.78 764.20,86.17 766.22,85.58 768.24,85.03 770.25,84.50 772.27,84.00 774.29,83.53 776.31,83.08 778.33,82.66 780.35,82.27 782.36,81.89 784.38,81.54 786.40,81.21 788.42,80.90 790.44,80.61 792.45,80.34 794.47,80.09 796.49,79.85 798.51,79.63 800.53,79.43 802.55,79.23 804.56,79.05 806.58,78.89 808.60,78.73 810.62,78.59 812.64,78.45 814.65,78.33 816.67,78.21 818.69,78.11 820.71,78.01 822.73,77.91 824.75,77.83 826.76,77.75 828.78,77.68 830.80,77.61 832.82,77.54 834.84,77.49 836.85,77.43 838.87,77.38 840.89,77.34 842.91,77.29 844.93,77.25 846.95,77.22 848.96,77.18 850.98,77.15 853.00,77.12 855.02,77.10 857.04,77.07 859.05,77.05 861.07,77.03 863.09,77.01 865.11,76.99 867.13,76.97 869.15,76.96 871.16,76.94 873.18,76.93 875.20,76.92 877.22,76.91 879.24,76.90 881.25,76.89 883.27,76.88 885.29,76.87 887.31,76.86 889.33,76.86 891.35,76.85 893.36,76.85 895.38,76.84 897.40,76.84 899.42,76.83 901.44,76.83 903.45,76.82 905.47,76.82 907.49,76.82 909.51,76.81 911.53,76.81 913.55,76.81 915.56,76.80 917.58,76.80 919.60,76.80 921.62,76.80 923.64,76.80 925.65,76.80 927.67,76.79 929.69,76.79 931.71,76.79 933.73,76.79 935.75,76.79 937.76,76.79 939.78,76.79 941.80,76.79 943.82,76.79 945.84,76.78 947.85,76.78 949.87,76.78 951.89,76.78 953.91,76.78 955.93,76.78 957.95,76.78 959.96,76.78 961.98,76.78 964.00,76.78 966.02,76.78 968.04,76.78 970.05,76.78 972.07,76.78 974.09,76.78 976.11,76.78 978.13,76.78 980.15,76.78 982.16,76.78 984.18,76.78 986.20,76.78 988.22,76.78 990.24,76.78 992.25,76.78 994.27,76.78 996.29,76.78 998.31,76.78 1000.33,76.78 1002.35,76.78 1004.36,76.78 1006.38,76.78 1008.40,76.78 1010.42,76.78 1012.44,76.78 1014.45,76.78 1016.47,76.78 1018.49,76.78 1020.51,76.78 1022.53,76.78 1024.55,76.78 1026.56,76.78 1028.58,76.78 1030.60,76.78 1032.62,76.78 1034.64,76.78 1036.65,76.78 1038.67,76.78 1040.69,76.78 1042.71,76.78 1044.73,76.78 1046.75,76.78 1048.76,76.78 1050.78,76.78 1052.80,76.78 1054.82,76.78 1056.84,76.78 1058.85,76.78 1060.87,76.78 1062.89,76.78 1064.91,76.78 1066.93,76.78 1068.95,76.78 1070.96,76.78 1072.98,76.78 1075.00,76.78 1077.02,76.78 1079.04,76.78 1081.05,76.78 1083.07,76.78 1085.09,76.78 1087.11,76.78 1089.13,76.78 1091.15,76.78 1093.16,76.78 1095.18,76.78 1097.20,76.78 1099.22,76.78 1101.24,76.78 1103.25,76.78 1105.27,76.78 1107.29,76.78 1109.31,76.78 1111.33,76.78 1113.35,76.78 1115.36,76.78 1117.38,76.78 1119.40,76.78 1121.42,76.78 1123.44,76.78 1125.45,76.78 1127.47,76.78 1129.49,76.78 1131.51,76.78 1133.53,76.78 1135.55,76.78 1137.56,76.78 1139.58,76.78 1141.60,76.78 1143.62,76.78 1145.64,76.78 1147.65,76.78 1149.67,76.78 1151.69,76.78 1153.71,76.78 1155.73,76.78 1157.75,76.78 1159.76,76.78 1161.78,76.78 1163.80,76.78 1165.82,76.78 1167.84,76.78 1169.85,76.78 1171.87,76.78 1173.89,76.78 1175.91,76.78 1177.93,76.78 1179.95,76.78 1181.96,76.78 1183.98,76.78 1186.00,76.78" fill="none" stroke="#4D4D4D" stroke-width="3.2" stroke-opacity="0.55"/>
<polyline points="76.00,351.91 78.02,351.89 80.04,351.87 82.05,351.85 84.07,351.83 86.09,351.81 88.11,351.79 90.13,351.76 92.15,351.74 94.16,351.72 96.18,351.70 98.20,351.68 100.22,351.66 102.24,351.64 104.25,351.62 106.27,351.60 108.29,351.57 110.31,351.55 112.33,351.53 114.35,351.51 116.36,351.49 118.38,351.47 120.40,351.45 122.42,351.42 124.44,351.40 126.45,351.38 128.47,351.36 130.49,351.34 132.51,351.32 134.53,351.30 136.55,351.27 138.56,351.25 140.58,351.23 142.60,351.21 144.62,351.19 146.64,351.16 148.65,351.14 150.67,351.12 152.69,351.10 154.71,351.08 156.73,351.05 158.75,351.03 160.76,351.01 162.78,350.99 164.80,350.97 166.82,350.94 168.84,350.92 170.85,350.90 172.87,350.88 174.89,350.85 176.91,350.83 178.93,350.81 180.95,350.79 182.96,350.76 184.98,350.74 187.00,350.72 189.02,350.69 191.04,350.67 193.05,350.65 195.07,350.63 197.09,350.60 199.11,350.58 201.13,350.56 203.15,350.53 205.16,350.51 207.18,350.49 209.20,350.47 211.22,350.44 213.24,350.42 215.25,350.40 217.27,350.37 219.29,350.35 221.31,350.33 223.33,350.30 225.35,350.28 227.36,350.26 229.38,350.23 231.40,350.21 233.42,350.19 235.44,350.16 237.45,350.14 239.47,350.11 241.49,350.09 243.51,350.07 245.53,350.04 247.55,350.02 249.56,350.00 251.58,349.97 253.60,349.95 255.62,349.92 257.64,349.90 259.65,349.88 261.67,349.85 263.69,349.83 265.71,349.80 267.73,349.78 269.75,349.75 271.76,349.73 273.78,349.71 275.80,349.68 277.82,349.66 279.84,349.63 281.85,349.61 283.87,349.58 285.89,349.56 287.91,349.53 289.93,349.51 291.95,349.48 293.96,349.46 295.98,349.43 298.00,349.41 300.02,349.38 302.04,349.36 304.05,349.33 306.07,349.31 308.09,349.28 310.11,349.26 312.13,349.23 314.15,349.21 316.16,349.18 318.18,349.16 320.20,349.13 322.22,349.11 324.24,349.08 326.25,349.06 328.27,349.03 330.29,349.01 332.31,348.98 334.33,348.95 336.35,348.93 338.36,348.90 340.38,348.88 342.40,348.85 344.42,348.83 346.44,348.80 348.45,348.77 350.47,348.75 352.49,348.72 354.51,348.70 356.53,348.67 358.55,348.64 360.56,348.62 362.58,348.59 364.60,348.56 366.62,348.54 368.64,348.51 370.65,348.48 372.67,348.46 374.69,348.43 376.71,348.41 378.73,348.38 380.75,348.35 382.76,348.33 384.78,348.30 386.80,348.27 388.82,348.24 390.84,348.22 392.85,348.19 394.87,348.16 396.89,348.14 398.91,348.11 400.93,348.08 402.95,348.06 404.96,348.03 406.98,348.00 409.00,347.97 411.02,347.95 413.04,347.92 415.05,347.89 417.07,347.86 419.09,347.84 421.11,347.81 423.13,347.78 425.15,347.75 427.16,347.73 429.18,347.70 431.20,347.67 433.22,347.64 435.24,347.61 437.25,347.59 439.27,347.56 441.29,347.53 443.31,347.50 445.33,347.47 447.35,347.45 449.36,347.42 451.38,347.39 453.40,347.36 455.42,347.33 457.44,347.30 459.45,347.28 461.47,347.25 463.49,347.22 465.51,347.19 467.53,347.16 469.55,347.13 471.56,347.10 473.58,347.07 475.60,347.05 477.62,347.02 479.64,346.99 481.65,346.96 483.67,346.93 485.69,346.90 487.71,346.87 489.73,346.84 491.75,346.81 493.76,346.78 495.78,346.75 497.80,346.72 499.82,346.70 501.84,346.67 503.85,346.64 505.87,346.61 507.89,346.58 509.91,346.55 511.93,346.52 513.95,346.49 515.96,346.46 517.98,346.43 520.00,346.40 522.02,346.37 524.04,346.34 526.05,346.31 528.07,346.28 530.09,346.25 532.11,346.22 534.13,346.19 536.15,346.16 538.16,346.13 540.18,346.10 542.20,346.06 544.22,346.03 546.24,346.00 548.25,345.97 550.27,345.94 552.29,345.91 554.31,345.88 556.33,345.85 558.35,345.82 560.36,345.79 562.38,345.76 564.40,345.73 566.42,345.69 568.44,345.66 570.45,345.63 572.47,345.60 574.49,345.57 576.51,345.54 578.53,345.51 580.55,345.47 582.56,345.44 584.58,345.41 586.60,345.38 588.62,345.35 590.64,345.32 592.65,345.28 594.67,345.25 596.69,345.22 598.71,345.19 600.73,345.16 602.75,345.12 604.76,345.09 606.78,345.06 608.80,345.03 610.82,345.00 612.84,344.96 614.85,344.93 616.87,344.90 618.89,344.87 620.91,344.83 622.93,344.80 624.95,344.77 626.96,344.73 628.98,344.70 631.00,344.67 633.02,344.64 635.04,344.60 637.05,344.57 639.07,344.54 641.09,344.50 643.11,344.47 645.13,344.44 647.15,344.40 649.16,344.37 651.18,344.34 653.20,344.30 655.22,344.27 657.24,344.24 659.25,344.20 661.27,344.17 663.29,344.13 665.31,344.10 667.33,344.07 669.35,344.03 671.36,344.00 673.38,343.96 675.40,343.93 677.42,343.90 679.44,343.86 681.45,343.83 683.47,343.79 685.49,343.76 687.51,343.72 689.53,343.69 691.55,343.66 693.56,343.62 695.58,343.59 697.60,343.55 699.62,343.52 701.64,343.48 703.65,343.45 705.67,343.41 707.69,343.38 709.71,343.34 711.73,343.31 713.75,343.27 715.76,343.24 717.78,343.20 719.80,343.16 721.82,343.13 723.84,343.09 725.85,343.06 727.87,343.02 729.89,342.99 731.91,342.95 733.93,342.91 735.95,342.88 737.96,342.84 739.98,342.81 742.00,342.77 744.02,342.73 746.04,342.70 748.05,342.66 750.07,342.63 752.09,342.59 754.11,342.55 756.13,342.52 758.15,342.48 760.16,342.44 762.18,342.41 764.20,342.37 766.22,342.33 768.24,342.30 770.25,342.26 772.27,342.22 774.29,342.18 776.31,342.15 778.33,342.11 780.35,342.07 782.36,342.04 784.38,342.00 786.40,341.96 788.42,341.92 790.44,341.89 792.45,341.85 794.47,341.81 796.49,341.77 798.51,341.73 800.53,341.70 802.55,341.66 804.56,341.62 806.58,341.58 808.60,341.54 810.62,341.51 812.64,341.47 814.65,341.43 816.67,341.39 818.69,341.35 820.71,341.31 822.73,341.28 824.75,341.24 826.76,341.20 828.78,341.16 830.80,341.12 832.82,341.08 834.84,341.04 836.85,341.00 838.87,340.96 840.89,340.92 842.91,340.89 844.93,340.85 846.95,340.81 848.96,340.77 850.98,340.73 853.00,340.69 855.02,340.65 857.04,340.61 859.05,340.57 861.07,340.53 863.09,340.49 865.11,340.45 867.13,340.41 869.15,340.37 871.16,340.33 873.18,340.29 875.20,340.25 877.22,340.21 879.24,340.17 881.25,340.13 883.27,340.09 885.29,340.04 887.31,340.00 889.33,339.96 891.35,339.92 893.36,339.88 895.38,339.84 897.40,339.80 899.42,339.76 901.44,339.72 903.45,339.67 905.47,339.63 907.49,339.59 909.51,339.55 911.53,339.51 913.55,339.47 915.56,339.43 917.58,339.38 919.60,339.34 921.62,339.30 923.64,339.26 925.65,339.22 927.67,339.17 929.69,339.13 931.71,339.09 933.73,339.05 935.75,339.00 937.76,338.96 939.78,338.92 941.80,338.88 943.82,338.83 945.84,338.79 947.85,338.75 949.87,338.70 951.89,338.66 953.91,338.62 955.93,338.58 957.95,338.53 959.96,338.49 961.98,338.45 964.00,338.40 966.02,338.36 968.04,338.31 970.05,338.27 972.07,338.23 974.09,338.18 976.11,338.14 978.13,338.10 980.15,338.05 982.16,338.01 984.18,337.96 986.20,337.92 988.22,337.87 990.24,337.83 992.25,337.78 994.27,337.74 996.29,337.70 998.31,337.65 1000.33,337.61 1002.35,337.56 1004.36,337.52 1006.38,337.47 1008.40,337.43 1010.42,337.38 1012.44,337.34 1014.45,337.29 1016.47,337.24 1018.49,337.20 1020.51,337.15 1022.53,337.11 1024.55,337.06 1026.56,337.02 1028.58,336.97 1030.60,336.92 1032.62,336.88 1034.64,336.83 1036.65,336.79 1038.67,336.74 1040.69,336.69 1042.71,336.65 1044.73,336.60 1046.75,336.55 1048.76,336.51 1050.78,336.46 1052.80,336.41 1054.82,336.37 1056.84,336.32 1058.85,336.27 1060.87,336.23 1062.89,336.18 1064.91,336.13 1066.93,336.08 1068.95,336.04 1070.96,335.99 1072.98,335.94 1075.00,335.89 1077.02,335.84 1079.04,335.80 1081.05,335.75 1083.07,335.70 1085.09,335.65 1087.11,335.60 1089.13,335.56 1091.15,335.51 1093.16,335.46 1095.18,335.41 1097.20,335.36 1099.22,335.31 1101.24,335.26 1103.25,335.22 1105.27,335.17 1107.29,335.12 1109.31,335.07 1111.33,335.02 1113.35,334.97 1115.36,334.92 1117.38,334.87 1119.40,334.82 1121.42,334.77 1123.44,334.72 1125.45,334.67 1127.47,334.62 1129.49,334.57 1131.51,334.52 1133.53,334.47 1135.55,334.42 1137.56,334.37 1139.58,334.32 1141.60,334.27 1143.62,334.22 1145.64,334.17 1147.65,334.12 1149.67,334.07 1151.69,334.02 1153.71,333.97 1155.73,333.92 1157.75,333.86 1159.76,333.81 1161.78,333.76 1163.80,333.71 1165.82,333.66 1167.84,333.61 1169.85,333.56 1171.87,333.50 1173.89,333.45 1175.91,333.40 1177.93,333.35 1179.95,333.30 1181.96,333.24 1183.98,333.19 1186.00,333.14" fill="none" stroke="#E69F00" stroke-width="2.4" stroke-opacity="0.95"/>
<polyline points="76.00,351.91 78.02,351.79 80.04,351.67 82.05,351.54 84.07,351.42 86.09,351.29 88.11,351.17 90.13,351.04 92.15,350.91 94.16,350.78 96.18,350.65 98.20,350.51 100.22,350.38 102.24,350.24 104.25,350.10 106.27,349.97 108.29,349.82 110.31,349.68 112.33,349.54 114.35,349.40 116.36,349.25 118.38,349.10 120.40,348.95 122.42,348.80 124.44,348.65 126.45,348.50 128.47,348.35 130.49,348.19 132.51,348.03 134.53,347.87 136.55,347.71 138.56,347.55 140.58,347.38 142.60,347.22 144.62,347.05 146.64,346.88 148.65,346.71 150.67,346.54 152.69,346.37 154.71,346.19 156.73,346.01 158.75,345.83 160.76,345.65 162.78,345.47 164.80,345.29 166.82,345.10 168.84,344.91 170.85,344.72 172.87,344.53 174.89,344.33 176.91,344.14 178.93,343.94 180.95,343.74 182.96,343.54 184.98,343.34 187.00,343.13 189.02,342.92 191.04,342.71 193.05,342.50 195.07,342.29 197.09,342.07 199.11,341.85 201.13,341.63 203.15,341.41 205.16,341.19 207.18,340.96 209.20,340.73 211.22,340.50 213.24,340.26 215.25,340.03 217.27,339.79 219.29,339.55 221.31,339.31 223.33,339.06 225.35,338.81 227.36,338.56 229.38,338.31 231.40,338.05 233.42,337.80 235.44,337.53 237.45,337.27 239.47,337.01 241.49,336.74 243.51,336.47 245.53,336.19 247.55,335.92 249.56,335.64 251.58,335.36 253.60,335.07 255.62,334.78 257.64,334.49 259.65,334.20 261.67,333.91 263.69,333.61 265.71,333.30 267.73,333.00 269.75,332.69 271.76,332.38 273.78,332.07 275.80,331.75 277.82,331.43 279.84,331.11 281.85,330.78 283.87,330.45 285.89,330.12 287.91,329.78 289.93,329.44 291.95,329.10 293.96,328.75 295.98,328.40 298.00,328.05 300.02,327.69 302.04,327.33 304.05,326.97 306.07,326.60 308.09,326.23 310.11,325.85 312.13,325.47 314.15,325.09 316.16,324.71 318.18,324.32 320.20,323.92 322.22,323.52 324.24,323.12 326.25,322.72 328.27,322.31 330.29,321.89 332.31,321.48 334.33,321.05 336.35,320.63 338.36,320.20 340.38,319.76 342.40,319.33 344.42,318.88 346.44,318.43 348.45,317.98 350.47,317.53 352.49,317.07 354.51,316.60 356.53,316.13 358.55,315.66 360.56,315.18 362.58,314.69 364.60,314.20 366.62,313.71 368.64,313.21 370.65,312.71 372.67,312.20 374.69,311.69 376.71,311.17 378.73,310.64 380.75,310.11 382.76,309.58 384.78,309.04 386.80,308.50 388.82,307.95 390.84,307.39 392.85,306.83 394.87,306.26 396.89,305.69 398.91,305.11 400.93,304.53 402.95,303.94 404.96,303.34 406.98,302.74 409.00,302.14 411.02,301.52 413.04,300.90 415.05,300.28 417.07,299.65 419.09,299.01 421.11,298.37 423.13,297.71 425.15,297.06 427.16,296.39 429.18,295.72 431.20,295.05 433.22,294.37 435.24,293.68 437.25,292.98 439.27,292.28 441.29,291.56 443.31,290.85 445.33,290.12 447.35,289.39 449.36,288.65 451.38,287.91 453.40,287.15 455.42,286.39 457.44,285.62 459.45,284.85 461.47,284.06 463.49,283.27 465.51,282.47 467.53,281.66 469.55,280.85 471.56,280.02 473.58,279.19 475.60,278.35 477.62,277.50 479.64,276.65 481.65,275.78 483.67,274.91 485.69,274.03 487.71,273.13 489.73,272.23 491.75,271.33 493.76,270.41 495.78,269.48 497.80,268.55 499.82,267.60 501.84,266.65 503.85,265.74 505.87,264.83 507.89,263.91 509.91,262.99 511.93,262.05 513.95,261.11 515.96,260.16 517.98,259.20 520.00,258.23 522.02,257.26 524.04,256.27 526.05,255.28 528.07,254.27 530.09,253.26 532.11,252.23 534.13,251.20 536.15,250.16 538.16,249.11 540.18,248.05 542.20,246.98 544.22,245.90 546.24,244.80 548.25,243.70 550.27,242.59 552.29,241.47 554.31,240.34 556.33,239.20 558.35,238.04 560.36,236.88 562.38,235.71 564.40,234.52 566.42,233.33 568.44,232.12 570.45,230.90 572.47,229.67 574.49,228.43 576.51,227.18 578.53,225.92 580.55,224.64 582.56,223.35 584.58,222.05 586.60,220.74 588.62,219.42 590.64,218.08 592.65,216.74 594.67,215.38 596.69,214.00 598.71,212.62 600.73,211.22 602.75,209.81 604.76,208.39 606.78,206.95 608.80,205.50 610.82,204.04 612.84,202.56 614.85,201.07 616.87,199.56 618.89,198.05 620.91,196.51 622.93,194.97 624.95,193.41 626.96,192.01 628.98,190.65 631.00,189.27 633.02,187.88 635.04,186.49 637.05,185.08 639.07,183.66 641.09,182.22 643.11,180.78 645.13,179.33 647.15,177.86 649.16,176.38 651.18,174.89 653.20,173.39 655.22,171.88 657.24,170.35 659.25,168.82 661.27,167.27 663.29,165.70 665.31,164.13 667.33,162.54 669.35,160.94 671.36,159.33 673.38,157.71 675.40,156.07 677.42,154.42 679.44,152.75 681.45,151.08 683.47,149.39 685.49,147.68 687.51,145.97 689.53,144.24 691.55,142.49 693.56,140.73 695.58,138.96 697.60,137.26 699.62,135.96 701.64,134.65 703.65,133.33 705.67,132.01 707.69,130.68 709.71,129.34 711.73,127.99 713.75,126.64 715.76,125.27 717.78,123.90 719.80,122.53 721.82,121.14 723.84,119.75 725.85,118.35 727.87,116.94 729.89,115.52 731.91,114.09 733.93,112.66 735.95,111.22 737.96,109.77 739.98,108.31 742.00,106.84 744.02,105.37 746.04,103.88 748.05,102.39 750.07,101.11 752.09,100.96 754.11,100.81 756.13,100.65 758.15,100.50 760.16,100.35 762.18,100.19 764.20,100.04 766.22,99.89 768.24,99.73 770.25,99.58 772.27,99.42 774.29,99.27 776.31,99.12 778.33,98.96 780.35,98.81 782.36,98.65 784.38,98.50 786.40,98.34 788.42,98.19 790.44,98.03 792.45,97.88 794.47,97.72 796.49,97.57 798.51,97.41 800.53,97.26 802.55,97.10 804.56,96.95 806.58,96.79 808.60,96.64 810.62,96.48 812.64,96.32 814.65,96.17 816.67,96.01 818.69,95.86 820.71,95.70 822.73,95.54 824.75,95.39 826.76,95.23 828.78,95.07 830.80,94.92 832.82,94.76 834.84,94.60 836.85,94.45 838.87,94.29 840.89,94.13 842.91,93.97 844.93,93.82 846.95,93.66 848.96,93.50 850.98,93.34 853.00,93.19 855.02,93.03 857.04,92.87 859.05,92.71 861.07,92.55 863.09,92.40 865.11,92.24 867.13,92.08 869.15,91.92 871.16,91.76 873.18,91.60 875.20,91.45 877.22,91.29 879.24,91.13 881.25,90.97 883.27,90.81 885.29,90.65 887.31,90.49 889.33,90.33 891.35,90.17 893.36,90.01 895.38,89.85 897.40,89.69 899.42,89.53 901.44,89.37 903.45,89.21 905.47,89.05 907.49,88.89 909.51,88.73 911.53,88.57 913.55,88.41 915.56,88.25 917.58,88.09 919.60,87.93 921.62,87.77 923.64,87.61 925.65,87.45 927.67,87.29 929.69,87.12 931.71,86.96 933.73,86.80 935.75,86.64 937.76,86.48 939.78,86.32 941.80,86.15 943.82,85.99 945.84,85.83 947.85,85.67 949.87,85.51 951.89,85.34 953.91,85.18 955.93,85.02 957.95,84.86 959.96,84.69 961.98,84.53 964.00,84.37 966.02,84.21 968.04,84.04 970.05,83.88 972.07,83.72 974.09,83.55 976.11,83.39 978.13,83.23 980.15,83.06 982.16,82.90 984.18,82.73 986.20,82.57 988.22,82.41 990.24,82.24 992.25,82.08 994.27,81.91 996.29,81.75 998.31,81.59 1000.33,81.42 1002.35,81.26 1004.36,81.09 1006.38,80.93 1008.40,80.76 1010.42,80.60 1012.44,80.43 1014.45,80.27 1016.47,80.10 1018.49,79.94 1020.51,79.77 1022.53,79.60 1024.55,79.44 1026.56,79.27 1028.58,79.11 1030.60,78.94 1032.62,78.77 1034.64,78.61 1036.65,78.44 1038.67,78.28 1040.69,78.11 1042.71,77.94 1044.73,77.78 1046.75,77.61 1048.76,77.44 1050.78,77.27 1052.80,77.11 1054.82,76.94 1056.84,76.77 1058.85,76.61 1060.87,76.44 1062.89,76.27 1064.91,76.10 1066.93,75.94 1068.95,75.77 1070.96,75.60 1072.98,75.43 1075.00,75.26 1077.02,75.10 1079.04,74.93 1081.05,74.76 1083.07,74.59 1085.09,74.42 1087.11,74.25 1089.13,74.08 1091.15,73.91 1093.16,73.75 1095.18,73.58 1097.20,73.41 1099.22,73.24 1101.24,73.07 1103.25,72.90 1105.27,72.73 1107.29,72.56 1109.31,72.39 1111.33,72.22 1113.35,72.05 1115.36,71.88 1117.38,71.71 1119.40,71.54 1121.42,71.37 1123.44,71.20 1125.45,71.03 1127.47,70.86 1129.49,70.69 1131.51,70.51 1133.53,70.34 1135.55,70.17 1137.56,70.00 1139.58,69.83 1141.60,69.66 1143.62,69.49 1145.64,69.32 1147.65,69.14 1149.67,68.97 1151.69,68.80 1153.71,68.63 1155.73,68.46 1157.75,68.28 1159.76,68.11 1161.78,67.94 1163.80,67.77 1165.82,67.59 1167.84,67.42 1169.85,67.25 1171.87,67.08 1173.89,66.90 1175.91,66.73 1177.93,66.56 1179.95,66.38 1181.96,66.21 1183.98,66.04 1186.00,65.86" fill="none" stroke="#56B4E9" stroke-width="2.4" stroke-opacity="0.95" stroke-dasharray="5 4"/>
<polyline points="76.00,351.91 78.02,351.71 80.04,351.52 82.05,351.34 84.07,351.16 86.09,350.99 88.11,350.82 90.13,350.67 92.15,350.51 94.16,350.36 96.18,350.22 98.20,350.08 100.22,349.95 102.24,349.82 104.25,349.69 106.27,349.57 108.29,349.45 110.31,349.34 112.33,349.23 114.35,349.12 116.36,349.02 118.38,348.92 120.40,348.82 122.42,348.73 124.44,348.64 126.45,348.55 128.47,348.46 130.49,348.38 132.51,348.30 134.53,348.22 136.55,348.14 138.56,348.07 140.58,348.00 142.60,347.93 144.62,347.86 146.64,347.79 148.65,347.73 150.67,347.67 152.69,347.61 154.71,347.55 156.73,347.49 158.75,347.44 160.76,347.38 162.78,347.33 164.80,347.28 166.82,347.23 168.84,347.18 170.85,347.14 172.87,347.09 174.89,347.05 176.91,347.00 178.93,346.96 180.95,346.92 182.96,346.88 184.98,346.84 187.00,346.80 189.02,346.77 191.04,346.73 193.05,346.70 195.07,346.66 197.09,346.63 199.11,346.60 201.13,346.57 203.15,346.54 205.16,346.51 207.18,346.48 209.20,346.45 211.22,346.42 213.24,346.40 215.25,346.37 217.27,346.34 219.29,346.32 221.31,346.30 223.33,346.27 225.35,346.25 227.36,346.23 229.38,346.20 231.40,346.18 233.42,346.16 235.44,346.14 237.45,346.12 239.47,346.10 241.49,346.09 243.51,346.07 245.53,346.05 247.55,346.03 249.56,346.02 251.58,346.00 253.60,345.98 255.62,345.97 257.64,345.95 259.65,345.94 261.67,345.92 263.69,345.91 265.71,345.90 267.73,345.88 269.75,345.87 271.76,345.86 273.78,345.84 275.80,345.83 277.82,345.82 279.84,345.81 281.85,345.80 283.87,345.79 285.89,345.78 287.91,345.77 289.93,345.76 291.95,345.75 293.96,345.74 295.98,345.73 298.00,345.72 300.02,345.71 302.04,345.70 304.05,345.69 306.07,345.68 308.09,345.67 310.11,345.67 312.13,345.66 314.15,345.65 316.16,345.64 318.18,345.64 320.20,345.63 322.22,345.62 324.24,345.62 326.25,345.61 328.27,345.60 330.29,345.60 332.31,345.59 334.33,345.58 336.35,345.58 338.36,345.57 340.38,345.57 342.40,345.56 344.42,345.56 346.44,345.55 348.45,345.55 350.47,345.54 352.49,345.54 354.51,345.53 356.53,345.53 358.55,345.52 360.56,345.52 362.58,345.52 364.60,345.51 366.62,345.51 368.64,345.50 370.65,345.50 372.67,345.50 374.69,345.49 376.71,345.49 378.73,345.49 380.75,345.48 382.76,345.48 384.78,345.48 386.80,345.47 388.82,345.47 390.84,345.47 392.85,345.46 394.87,345.46 396.89,345.46 398.91,345.45 400.93,345.45 402.95,345.45 404.96,345.45 406.98,345.44 409.00,345.44 411.02,345.44 413.04,345.44 415.05,345.44 417.07,345.43 419.09,345.43 421.11,345.43 423.13,345.43 425.15,345.42 427.16,345.42 429.18,345.42 431.20,345.42 433.22,345.42 435.24,345.42 437.25,345.41 439.27,345.41 441.29,345.41 443.31,345.41 445.33,345.41 447.35,345.41 449.36,345.40 451.38,345.40 453.40,345.40 455.42,345.40 457.44,345.40 459.45,345.40 461.47,345.40 463.49,345.40 465.51,345.39 467.53,345.39 469.55,345.39 471.56,345.39 473.58,345.39 475.60,345.39 477.62,345.39 479.64,345.39 481.65,345.39 483.67,345.38 485.69,345.38 487.71,345.38 489.73,345.38 491.75,345.38 493.76,345.38 495.78,345.38 497.80,345.38 499.82,345.38 501.84,345.38 503.85,345.38 505.87,345.37 507.89,345.37 509.91,345.37 511.93,345.37 513.95,345.37 515.96,345.37 517.98,345.37 520.00,345.37 522.02,345.37 524.04,345.37 526.05,345.37 528.07,345.37 530.09,345.37 532.11,345.37 534.13,345.37 536.15,345.37 538.16,345.36 540.18,345.36 542.20,345.36 544.22,345.36 546.24,345.36 548.25,345.36 550.27,345.36 552.29,345.36 554.31,345.36 556.33,345.36 558.35,345.36 560.36,345.36 562.38,345.36 564.40,345.36 566.42,345.36 568.44,345.36 570.45,345.36 572.47,345.36 574.49,345.36 576.51,345.36 578.53,345.36 580.55,345.36 582.56,345.36 584.58,345.36 586.60,345.36 588.62,345.36 590.64,345.36 592.65,345.35 594.67,345.35 596.69,345.35 598.71,345.35 600.73,345.35 602.75,345.35 604.76,345.35 606.78,345.35 608.80,345.35 610.82,345.35 612.84,345.35 614.85,345.35 616.87,345.35 618.89,345.35 620.91,345.35 622.93,345.35 624.95,345.35 626.96,345.35 628.98,345.35 631.00,345.35 633.02,345.35 635.04,345.35 637.05,345.35 639.07,345.35 641.09,345.35 643.11,345.35 645.13,345.35 647.15,345.35 649.16,345.35 651.18,345.35 653.20,345.35 655.22,345.35 657.24,345.35 659.25,345.35 661.27,345.35 663.29,345.35 665.31,345.35 667.33,345.35 669.35,345.35 671.36,345.35 673.38,345.35 675.40,345.35 677.42,345.35 679.44,345.35 681.45,345.35 683.47,345.35 685.49,345.35 687.51,345.35 689.53,345.35 691.55,345.35 693.56,345.35 695.58,345.35 697.60,345.35 699.62,345.35 701.64,345.35 703.65,345.35 705.67,345.35 707.69,345.35 709.71,345.35 711.73,345.35 713.75,345.35 715.76,345.35 717.78,345.35 719.80,345.35 721.82,345.35 723.84,345.35 725.85,345.35 727.87,345.35 729.89,345.35 731.91,345.35 733.93,345.35 735.95,345.35 737.96,345.35 739.98,345.35 742.00,345.35 744.02,345.35 746.04,345.35 748.05,345.35 750.07,345.35 752.09,345.35 754.11,345.35 756.13,345.35 758.15,345.35 760.16,345.35 762.18,345.35 764.20,345.35 766.22,345.35 768.24,345.35 770.25,345.35 772.27,345.35 774.29,345.35 776.31,345.35 778.33,345.35 780.35,345.34 782.36,345.34 784.38,345.34 786.40,345.34 788.42,345.34 790.44,345.34 792.45,345.34 794.47,345.34 796.49,345.34 798.51,345.34 800.53,345.34 802.55,345.34 804.56,345.34 806.58,345.34 808.60,345.34 810.62,345.34 812.64,345.34 814.65,345.34 816.67,345.34 818.69,345.34 820.71,345.34 822.73,345.34 824.75,345.34 826.76,345.34 828.78,345.34 830.80,345.34 832.82,345.34 834.84,345.34 836.85,345.34 838.87,345.34 840.89,345.34 842.91,345.34 844.93,345.34 846.95,345.34 848.96,345.34 850.98,345.34 853.00,345.34 855.02,345.34 857.04,345.34 859.05,345.34 861.07,345.34 863.09,345.34 865.11,345.34 867.13,345.34 869.15,345.34 871.16,345.34 873.18,345.34 875.20,345.34 877.22,345.34 879.24,345.34 881.25,345.34 883.27,345.34 885.29,345.34 887.31,345.34 889.33,345.34 891.35,345.34 893.36,345.34 895.38,345.34 897.40,345.34 899.42,345.34 901.44,345.34 903.45,345.34 905.47,345.34 907.49,345.34 909.51,345.34 911.53,345.34 913.55,345.34 915.56,345.34 917.58,345.34 919.60,345.34 921.62,345.34 923.64,345.34 925.65,345.34 927.67,345.34 929.69,345.34 931.71,345.34 933.73,345.34 935.75,345.34 937.76,345.34 939.78,345.34 941.80,345.34 943.82,345.34 945.84,345.34 947.85,345.34 949.87,345.34 951.89,345.34 953.91,345.34 955.93,345.34 957.95,345.34 959.96,345.34 961.98,345.34 964.00,345.34 966.02,345.34 968.04,345.34 970.05,345.34 972.07,345.34 974.09,345.34 976.11,345.34 978.13,345.34 980.15,345.34 982.16,345.34 984.18,345.34 986.20,345.34 988.22,345.34 990.24,345.34 992.25,345.34 994.27,345.34 996.29,345.34 998.31,345.34 1000.33,345.34 1002.35,345.34 1004.36,345.34 1006.38,345.34 1008.40,345.34 1010.42,345.34 1012.44,345.34 1014.45,345.34 1016.47,345.34 1018.49,345.34 1020.51,345.34 1022.53,345.34 1024.55,345.34 1026.56,345.34 1028.58,345.34 1030.60,345.34 1032.62,345.34 1034.64,345.34 1036.65,345.34 1038.67,345.34 1040.69,345.34 1042.71,345.34 1044.73,345.34 1046.75,345.34 1048.76,345.34 1050.78,345.34 1052.80,345.34 1054.82,345.34 1056.84,345.34 1058.85,345.34 1060.87,345.34 1062.89,345.34 1064.91,345.34 1066.93,345.34 1068.95,345.34 1070.96,345.34 1072.98,345.34 1075.00,345.34 1077.02,345.34 1079.04,345.34 1081.05,345.34 1083.07,345.34 1085.09,345.34 1087.11,345.34 1089.13,345.34 1091.15,345.34 1093.16,345.34 1095.18,345.34 1097.20,345.34 1099.22,345.34 1101.24,345.34 1103.25,345.34 1105.27,345.34 1107.29,345.34 1109.31,345.34 1111.33,345.34 1113.35,345.34 1115.36,345.34 1117.38,345.34 1119.40,345.34 1121.42,345.34 1123.44,345.34 1125.45,345.34 1127.47,345.34 1129.49,345.34 1131.51,345.34 1133.53,345.34 1135.55,345.34 1137.56,345.34 1139.58,345.34 1141.60,345.34 1143.62,345.34 1145.64,345.34 1147.65,345.34 1149.67,345.34 1151.69,345.34 1153.71,345.34 1155.73,345.34 1157.75,345.34 1159.76,345.34 1161.78,345.34 1163.80,345.34 1165.82,345.34 1167.84,345.34 1169.85,345.34 1171.87,345.34 1173.89,345.34 1175.91,345.34 1177.93,345.34 1179.95,345.34 1181.96,345.34 1183.98,345.34 1186.00,345.34" fill="none" stroke="#0072B2" stroke-width="2.3" stroke-opacity="0.95" stroke-dasharray="2 4"/>
<polyline points="76.00,351.91 78.02,351.71 80.04,351.52 82.05,351.34 84.07,351.16 86.09,350.99 88.11,350.82 90.13,350.67 92.15,350.51 94.16,350.36 96.18,350.22 98.20,350.08 100.22,349.95 102.24,349.82 104.25,349.69 106.27,349.57 108.29,349.45 110.31,349.34 112.33,349.23 114.35,349.12 116.36,349.02 118.38,348.92 120.40,348.82 122.42,348.73 124.44,348.64 126.45,348.55 128.47,348.46 130.49,348.38 132.51,348.30 134.53,348.22 136.55,348.14 138.56,348.07 140.58,348.00 142.60,347.93 144.62,347.86 146.64,347.79 148.65,347.73 150.67,347.67 152.69,347.61 154.71,347.55 156.73,347.49 158.75,347.44 160.76,347.38 162.78,347.33 164.80,347.28 166.82,347.23 168.84,347.18 170.85,347.14 172.87,347.09 174.89,347.05 176.91,347.00 178.93,346.96 180.95,346.92 182.96,346.88 184.98,346.84 187.00,346.80 189.02,346.77 191.04,346.73 193.05,346.70 195.07,346.66 197.09,346.63 199.11,346.60 201.13,346.57 203.15,346.54 205.16,346.51 207.18,346.48 209.20,346.45 211.22,346.42 213.24,346.40 215.25,346.37 217.27,346.34 219.29,346.32 221.31,346.30 223.33,346.27 225.35,346.25 227.36,346.23 229.38,346.20 231.40,346.18 233.42,346.16 235.44,346.14 237.45,346.12 239.47,346.10 241.49,346.09 243.51,346.07 245.53,346.05 247.55,346.03 249.56,346.02 251.58,346.00 253.60,345.98 255.62,345.97 257.64,345.95 259.65,345.94 261.67,345.92 263.69,345.91 265.71,345.90 267.73,345.88 269.75,345.87 271.76,345.86 273.78,345.84 275.80,345.83 277.82,345.82 279.84,345.81 281.85,345.80 283.87,345.79 285.89,345.78 287.91,345.77 289.93,345.76 291.95,345.75 293.96,345.74 295.98,345.73 298.00,345.72 300.02,345.71 302.04,345.70 304.05,345.69 306.07,345.68 308.09,345.67 310.11,345.67 312.13,345.66 314.15,345.65 316.16,345.64 318.18,345.64 320.20,345.63 322.22,345.62 324.24,345.62 326.25,345.61 328.27,345.60 330.29,345.60 332.31,345.59 334.33,345.58 336.35,345.58 338.36,345.57 340.38,345.57 342.40,345.56 344.42,345.56 346.44,345.55 348.45,345.55 350.47,345.54 352.49,345.54 354.51,345.53 356.53,345.53 358.55,345.52 360.56,345.52 362.58,345.52 364.60,345.51 366.62,345.51 368.64,345.50 370.65,345.50 372.67,345.50 374.69,345.49 376.71,345.49 378.73,345.49 380.75,345.48 382.76,345.48 384.78,345.48 386.80,345.47 388.82,345.47 390.84,345.47 392.85,345.46 394.87,345.46 396.89,345.46 398.91,345.45 400.93,345.45 402.95,345.45 404.96,345.45 406.98,345.44 409.00,345.44 411.02,345.44 413.04,345.44 415.05,345.44 417.07,345.43 419.09,345.43 421.11,345.43 423.13,345.43 425.15,345.42 427.16,345.42 429.18,345.42 431.20,345.42 433.22,345.42 435.24,345.42 437.25,345.41 439.27,345.41 441.29,345.41 443.31,345.41 445.33,345.41 447.35,345.41 449.36,345.40 451.38,345.40 453.40,345.40 455.42,345.40 457.44,345.40 459.45,345.40 461.47,345.40 463.49,345.40 465.51,345.39 467.53,345.39 469.55,345.39 471.56,345.39 473.58,345.39 475.60,345.39 477.62,345.39 479.64,345.39 481.65,345.39 483.67,345.38 485.69,345.38 487.71,345.38 489.73,345.38 491.75,345.38 493.76,345.38 495.78,345.38 497.80,345.38 499.82,345.38 501.84,345.38 503.85,345.38 505.87,345.37 507.89,345.37 509.91,345.37 511.93,345.37 513.95,345.37 515.96,345.37 517.98,345.37 520.00,345.37 522.02,345.37 524.04,345.37 526.05,345.37 528.07,345.37 530.09,345.37 532.11,345.37 534.13,345.37 536.15,345.37 538.16,345.36 540.18,345.36 542.20,345.36 544.22,345.36 546.24,345.36 548.25,345.36 550.27,345.36 552.29,345.36 554.31,345.36 556.33,345.36 558.35,345.36 560.36,345.36 562.38,345.36 564.40,345.36 566.42,345.36 568.44,345.36 570.45,345.36 572.47,345.36 574.49,345.36 576.51,345.36 578.53,345.36 580.55,345.36 582.56,345.36 584.58,345.36 586.60,345.36 588.62,345.36 590.64,345.36 592.65,345.35 594.67,345.35 596.69,345.35 598.71,345.35 600.73,345.35 602.75,345.35 604.76,345.35 606.78,345.35 608.80,345.35 610.82,345.35 612.84,345.35 614.85,345.35 616.87,345.35 618.89,345.35 620.91,345.35 622.93,345.35 624.95,345.35 626.96,345.35 628.98,345.35 631.00,345.35 633.02,345.35 635.04,345.35 637.05,345.35 639.07,345.35 641.09,345.35 643.11,345.35 645.13,345.35 647.15,345.35 649.16,345.35 651.18,345.35 653.20,345.35 655.22,345.35 657.24,345.35 659.25,345.35 661.27,345.35 663.29,345.35 665.31,345.35 667.33,345.35 669.35,345.35 671.36,345.35 673.38,345.35 675.40,345.35 677.42,345.35 679.44,345.35 681.45,345.35 683.47,345.35 685.49,345.35 687.51,345.35 689.53,345.35 691.55,345.35 693.56,345.35 695.58,345.35 697.60,345.35 699.62,345.35 701.64,345.35 703.65,345.35 705.67,345.35 707.69,345.35 709.71,345.35 711.73,345.35 713.75,345.35 715.76,345.35 717.78,345.35 719.80,345.35 721.82,345.35 723.84,345.35 725.85,345.35 727.87,345.35 729.89,345.35 731.91,345.35 733.93,345.35 735.95,345.35 737.96,345.35 739.98,345.35 742.00,345.35 744.02,345.35 746.04,345.35 748.05,345.35 750.07,345.35 752.09,345.35 754.11,345.35 756.13,345.35 758.15,345.35 760.16,345.35 762.18,345.35 764.20,345.35 766.22,345.35 768.24,345.35 770.25,345.35 772.27,345.35 774.29,345.35 776.31,345.35 778.33,345.35 780.35,345.34 782.36,345.34 784.38,345.34 786.40,345.34 788.42,345.34 790.44,345.34 792.45,345.34 794.47,345.34 796.49,345.34 798.51,345.34 800.53,345.34 802.55,345.34 804.56,345.34 806.58,345.34 808.60,345.34 810.62,345.34 812.64,345.34 814.65,345.34 816.67,345.34 818.69,345.34 820.71,345.34 822.73,345.34 824.75,345.34 826.76,345.34 828.78,345.34 830.80,345.34 832.82,345.34 834.84,345.34 836.85,345.34 838.87,345.34 840.89,345.34 842.91,345.34 844.93,345.34 846.95,345.34 848.96,345.34 850.98,345.34 853.00,345.34 855.02,345.34 857.04,345.34 859.05,345.34 861.07,345.34 863.09,345.34 865.11,345.34 867.13,345.34 869.15,345.34 871.16,345.34 873.18,345.34 875.20,345.34 877.22,345.34 879.24,345.34 881.25,345.34 883.27,345.34 885.29,345.34 887.31,345.34 889.33,345.34 891.35,345.34 893.36,345.34 895.38,345.34 897.40,345.34 899.42,345.34 901.44,345.34 903.45,345.34 905.47,345.34 907.49,345.34 909.51,345.34 911.53,345.34 913.55,345.34 915.56,345.34 917.58,345.34 919.60,345.34 921.62,345.34 923.64,345.34 925.65,345.34 927.67,345.34 929.69,345.34 931.71,345.34 933.73,345.34 935.75,345.34 937.76,345.34 939.78,345.34 941.80,345.34 943.82,345.34 945.84,345.34 947.85,345.34 949.87,345.34 951.89,345.34 953.91,345.34 955.93,345.34 957.95,345.34 959.96,345.34 961.98,345.34 964.00,345.34 966.02,345.34 968.04,345.34 970.05,345.34 972.07,345.34 974.09,345.34 976.11,345.34 978.13,345.34 980.15,345.34 982.16,345.34 984.18,345.34 986.20,345.34 988.22,345.34 990.24,345.34 992.25,345.34 994.27,345.34 996.29,345.34 998.31,345.34 1000.33,345.34 1002.35,345.34 1004.36,345.34 1006.38,345.34 1008.40,345.34 1010.42,345.34 1012.44,345.34 1014.45,345.34 1016.47,345.34 1018.49,345.34 1020.51,345.34 1022.53,345.34 1024.55,345.34 1026.56,345.34 1028.58,345.34 1030.60,345.34 1032.62,345.34 1034.64,345.34 1036.65,345.34 1038.67,345.34 1040.69,345.34 1042.71,345.34 1044.73,345.34 1046.75,345.34 1048.76,345.34 1050.78,345.34 1052.80,345.34 1054.82,345.34 1056.84,345.34 1058.85,345.34 1060.87,345.34 1062.89,345.34 1064.91,345.34 1066.93,345.34 1068.95,345.34 1070.96,345.34 1072.98,345.34 1075.00,345.34 1077.02,345.34 1079.04,345.34 1081.05,345.34 1083.07,345.34 1085.09,345.34 1087.11,345.34 1089.13,345.34 1091.15,345.34 1093.16,345.34 1095.18,345.34 1097.20,345.34 1099.22,345.34 1101.24,345.34 1103.25,345.34 1105.27,345.34 1107.29,345.34 1109.31,345.34 1111.33,345.34 1113.35,345.34 1115.36,345.34 1117.38,345.34 1119.40,345.34 1121.42,345.34 1123.44,345.34 1125.45,345.34 1127.47,345.34 1129.49,345.34 1131.51,345.34 1133.53,345.34 1135.55,345.34 1137.56,345.34 1139.58,345.34 1141.60,345.34 1143.62,345.34 1145.64,345.34 1147.65,345.34 1149.67,345.34 1151.69,345.34 1153.71,345.34 1155.73,345.34 1157.75,345.34 1159.76,345.34 1161.78,345.34 1163.80,345.34 1165.82,345.34 1167.84,345.34 1169.85,345.34 1171.87,345.34 1173.89,345.34 1175.91,345.34 1177.93,345.34 1179.95,345.34 1181.96,345.34 1183.98,345.34 1186.00,345.34" fill="none" stroke="#CC79A7" stroke-width="2.3" stroke-opacity="0.95" stroke-dasharray="10 3 2 3"/>
<polyline points="76.00,351.91 78.02,351.78 80.04,351.65 82.05,351.52 84.07,351.39 86.09,351.26 88.11,351.12 90.13,350.99 92.15,350.85 94.16,350.71 96.18,350.57 98.20,350.43 100.22,350.29 102.24,350.14 104.25,350.00 106.27,349.85 108.29,349.70 110.31,349.55 112.33,349.40 114.35,349.24 116.36,349.09 118.38,348.93 120.40,348.77 122.42,348.61 124.44,348.45 126.45,348.29 128.47,348.12 130.49,347.96 132.51,347.79 134.53,347.62 136.55,347.45 138.56,347.27 140.58,347.10 142.60,346.92 144.62,346.74 146.64,346.56 148.65,346.38 150.67,346.19 152.69,346.00 154.71,345.81 156.73,345.62 158.75,345.43 160.76,345.24 162.78,345.04 164.80,344.84 166.82,344.64 168.84,344.44 170.85,344.23 172.87,344.03 174.89,343.82 176.91,343.61 178.93,343.39 180.95,343.18 182.96,342.96 184.98,342.74 187.00,342.52 189.02,342.29 191.04,342.06 193.05,341.84 195.07,341.60 197.09,341.37 199.11,341.13 201.13,340.89 203.15,340.65 205.16,340.41 207.18,340.16 209.20,339.92 211.22,339.66 213.24,339.41 215.25,339.15 217.27,338.89 219.29,338.63 221.31,338.37 223.33,338.10 225.35,337.83 227.36,337.56 229.38,337.28 231.40,337.01 233.42,336.72 235.44,336.44 237.45,336.15 239.47,335.86 241.49,335.57 243.51,335.28 245.53,334.98 247.55,334.67 249.56,334.37 251.58,334.06 253.60,333.75 255.62,333.44 257.64,333.12 259.65,332.80 261.67,332.48 263.69,332.15 265.71,331.82 267.73,331.48 269.75,331.15 271.76,330.81 273.78,330.46 275.80,330.11 277.82,329.76 279.84,329.41 281.85,329.05 283.87,328.69 285.89,328.32 287.91,327.95 289.93,327.58 291.95,327.21 293.96,326.82 295.98,326.44 298.00,326.05 300.02,325.66 302.04,325.26 304.05,324.86 306.07,324.46 308.09,324.05 310.11,323.64 312.13,323.22 314.15,322.80 316.16,322.38 318.18,321.95 320.20,321.52 322.22,321.08 324.24,320.64 326.25,320.19 328.27,319.74 330.29,319.29 332.31,318.83 334.33,318.36 336.35,317.89 338.36,317.42 340.38,316.94 342.40,316.46 344.42,315.97 346.44,315.48 348.45,314.98 350.47,314.48 352.49,313.97 354.51,313.46 356.53,312.94 358.55,312.42 360.56,311.89 362.58,311.36 364.60,310.82 366.62,310.27 368.64,309.72 370.65,309.17 372.67,308.61 374.69,308.05 376.71,307.47 378.73,306.90 380.75,306.32 382.76,305.73 384.78,305.13 386.80,304.54 388.82,303.93 390.84,303.32 392.85,302.70 394.87,302.08 396.89,301.45 398.91,300.82 400.93,300.18 402.95,299.53 404.96,298.87 406.98,298.21 409.00,297.55 411.02,296.88 413.04,296.20 415.05,295.51 417.07,294.82 419.09,294.12 421.11,293.42 423.13,292.70 425.15,291.98 427.16,291.26 429.18,290.53 431.20,289.79 433.22,289.04 435.24,288.29 437.25,287.53 439.27,286.76 441.29,285.98 443.31,285.20 445.33,284.41 447.35,283.62 449.36,282.81 451.38,282.00 453.40,281.18 455.42,280.35 457.44,279.52 459.45,278.68 461.47,277.83 463.49,276.97 465.51,276.10 467.53,275.23 469.55,274.35 471.56,273.46 473.58,272.56 475.60,271.65 477.62,270.74 479.64,269.82 481.65,268.89 483.67,267.95 485.69,267.00 487.71,266.04 489.73,265.08 491.75,264.11 493.76,263.13 495.78,262.14 497.80,261.14 499.82,260.13 501.84,259.11 503.85,258.09 505.87,257.05 507.89,256.01 509.91,254.96 511.93,253.90 513.95,252.83 515.96,251.75 517.98,250.66 520.00,249.56 522.02,248.46 524.04,247.34 526.05,246.22 528.07,245.08 530.09,243.94 532.11,242.79 534.13,241.62 536.15,240.45 538.16,239.27 540.18,238.08 542.20,236.88 544.22,235.67 546.24,234.45 548.25,233.22 550.27,231.98 552.29,230.74 554.31,229.48 556.33,228.21 558.35,226.93 560.36,225.65 562.38,224.35 564.40,223.05 566.42,221.73 568.44,220.41 570.45,219.08 572.47,217.73 574.49,216.38 576.51,215.02 578.53,213.65 580.55,212.27 582.56,210.88 584.58,209.48 586.60,208.07 588.62,206.65 590.64,205.23 592.65,203.79 594.67,202.35 596.69,200.90 598.71,199.44 600.73,197.97 602.75,196.49 604.76,195.00 606.78,193.51 608.80,192.01 610.82,190.50 612.84,188.98 614.85,187.45 616.87,185.92 618.89,184.38 620.91,182.83 622.93,181.28 624.95,179.72 626.96,178.15 628.98,176.58 631.00,175.00 633.02,173.42 635.04,171.83 637.05,170.24 639.07,168.64 641.09,167.04 643.11,165.43 645.13,163.82 647.15,162.21 649.16,160.59 651.18,158.98 653.20,157.36 655.22,155.73 657.24,154.11 659.25,152.49 661.27,150.87 663.29,149.25 665.31,147.62 667.33,146.01 669.35,144.39 671.36,142.78 673.38,141.17 675.40,139.56 677.42,137.96 679.44,136.37 681.45,134.78 683.47,133.20 685.49,131.63 687.51,130.07 689.53,128.51 691.55,126.97 693.56,125.44 695.58,123.92 697.60,122.42 699.62,120.93 701.64,119.46 703.65,118.00 705.67,116.56 707.69,115.14 709.71,113.73 711.73,112.35 713.75,110.99 715.76,109.65 717.78,108.34 719.80,107.05 721.82,105.78 723.84,104.54 725.85,103.33 727.87,102.15 729.89,100.99 731.91,99.87 733.93,98.77 735.95,97.70 737.96,96.67 739.98,95.67 742.00,94.70 744.02,93.76 746.04,92.85 748.05,91.98 750.07,91.14 752.09,90.33 754.11,89.56 756.13,88.82 758.15,88.11 760.16,87.43 762.18,86.78 764.20,86.17 766.22,85.58 768.24,85.03 770.25,84.50 772.27,84.00 774.29,83.53 776.31,83.08 778.33,82.66 780.35,82.27 782.36,81.89 784.38,81.54 786.40,81.21 788.42,80.90 790.44,80.61 792.45,80.34 794.47,80.09 796.49,79.85 798.51,79.63 800.53,79.43 802.55,79.23 804.56,79.05 806.58,78.89 808.60,78.73 810.62,78.59 812.64,78.45 814.65,78.33 816.67,78.21 818.69,78.11 820.71,78.01 822.73,77.91 824.75,77.83 826.76,77.75 828.78,77.68 830.80,77.61 832.82,77.54 834.84,77.49 836.85,77.43 838.87,77.38 840.89,77.34 842.91,77.29 844.93,77.25 846.95,77.22 848.96,77.18 850.98,77.15 853.00,77.12 855.02,77.10 857.04,77.07 859.05,77.05 861.07,77.03 863.09,77.01 865.11,76.99 867.13,76.97 869.15,76.96 871.16,76.94 873.18,76.93 875.20,76.92 877.22,76.91 879.24,76.90 881.25,76.89 883.27,76.88 885.29,76.87 887.31,76.86 889.33,76.86 891.35,76.85 893.36,76.85 895.38,76.84 897.40,76.84 899.42,76.83 901.44,76.83 903.45,76.82 905.47,76.82 907.49,76.82 909.51,76.81 911.53,76.81 913.55,76.81 915.56,76.80 917.58,76.80 919.60,76.80 921.62,76.80 923.64,76.80 925.65,76.80 927.67,76.79 929.69,76.79 931.71,76.79 933.73,76.79 935.75,76.79 937.76,76.79 939.78,76.79 941.80,76.79 943.82,76.79 945.84,76.78 947.85,76.78 949.87,76.78 951.89,76.78 953.91,76.78 955.93,76.78 957.95,76.78 959.96,76.78 961.98,76.78 964.00,76.78 966.02,76.78 968.04,76.78 970.05,76.78 972.07,76.78 974.09,76.78 976.11,76.78 978.13,76.78 980.15,76.78 982.16,76.78 984.18,76.78 986.20,76.78 988.22,76.78 990.24,76.78 992.25,76.78 994.27,76.78 996.29,76.78 998.31,76.78 1000.33,76.78 1002.35,76.78 1004.36,76.78 1006.38,76.78 1008.40,76.78 1010.42,76.78 1012.44,76.78 1014.45,76.78 1016.47,76.78 1018.49,76.78 1020.51,76.78 1022.53,76.78 1024.55,76.78 1026.56,76.78 1028.58,76.78 1030.60,76.78 1032.62,76.78 1034.64,76.78 1036.65,76.78 1038.67,76.78 1040.69,76.78 1042.71,76.78 1044.73,76.78 1046.75,76.78 1048.76,76.78 1050.78,76.78 1052.80,76.78 1054.82,76.78 1056.84,76.78 1058.85,76.78 1060.87,76.78 1062.89,76.78 1064.91,76.78 1066.93,76.78 1068.95,76.78 1070.96,76.78 1072.98,76.78 1075.00,76.78 1077.02,76.78 1079.04,76.78 1081.05,76.78 1083.07,76.78 1085.09,76.78 1087.11,76.78 1089.13,76.78 1091.15,76.78 1093.16,76.78 1095.18,76.78 1097.20,76.78 1099.22,76.78 1101.24,76.78 1103.25,76.78 1105.27,76.78 1107.29,76.78 1109.31,76.78 1111.33,76.78 1113.35,76.78 1115.36,76.78 1117.38,76.78 1119.40,76.78 1121.42,76.78 1123.44,76.78 1125.45,76.78 1127.47,76.78 1129.49,76.78 1131.51,76.78 1133.53,76.78 1135.55,76.78 1137.56,76.78 1139.58,76.78 1141.60,76.78 1143.62,76.78 1145.64,76.78 1147.65,76.78 1149.67,76.78 1151.69,76.78 1153.71,76.78 1155.73,76.78 1157.75,76.78 1159.76,76.78 1161.78,76.78 1163.80,76.78 1165.82,76.78 1167.84,76.78 1169.85,76.78 1171.87,76.78 1173.89,76.78 1175.91,76.78 1177.93,76.78 1179.95,76.78 1181.96,76.78 1183.98,76.78 1186.00,76.78" fill="none" stroke="#6A51A3" stroke-width="2.4" stroke-opacity="0.95" stroke-dasharray="6 3"/>
<polyline points="76.00,351.91 78.02,352.12 80.04,352.32 82.05,352.52 84.07,352.72 86.09,352.92 88.11,353.12 90.13,353.31 92.15,353.51 94.16,353.70 96.18,353.89 98.20,354.07 100.22,354.26 102.24,354.44 104.25,354.62 106.27,354.80 108.29,354.98 110.31,355.15 112.33,355.33 114.35,355.50 116.36,355.66 118.38,355.83 120.40,355.99 122.42,356.15 124.44,356.31 126.45,356.47 128.47,356.62 130.49,356.78 132.51,356.93 134.53,357.08 136.55,357.22 138.56,357.36 140.58,357.51 142.60,357.64 144.62,357.78 146.64,357.92 148.65,358.05 150.67,358.18 152.69,358.31 154.71,358.43 156.73,358.56 158.75,358.68 160.76,358.80 162.78,358.92 164.80,359.03 166.82,359.14 168.84,359.25 170.85,359.36 172.87,359.47 174.89,359.58 176.91,359.68 178.93,359.78 180.95,359.88 182.96,359.98 184.98,360.07 187.00,360.17 189.02,360.26 191.04,360.35 193.05,360.44 195.07,360.52 197.09,360.61 199.11,360.69 201.13,360.77 203.15,360.85 205.16,360.93 207.18,361.00 209.20,361.08 211.22,361.15 213.24,361.22 215.25,361.29 217.27,361.36 219.29,361.43 221.31,361.49 223.33,361.56 225.35,361.62 227.36,361.68 229.38,361.74 231.40,361.80 233.42,361.85 235.44,361.91 237.45,361.97 239.47,362.02 241.49,362.07 243.51,362.12 245.53,362.17 247.55,362.22 249.56,362.27 251.58,362.31 253.60,362.36 255.62,362.40 257.64,362.45 259.65,362.49 261.67,362.53 263.69,362.57 265.71,362.61 267.73,362.65 269.75,362.69 271.76,362.72 273.78,362.76 275.80,362.79 277.82,362.83 279.84,362.86 281.85,362.89 283.87,362.92 285.89,362.95 287.91,362.98 289.93,363.01 291.95,363.04 293.96,363.07 295.98,363.10 298.00,363.12 300.02,363.15 302.04,363.17 304.05,363.20 306.07,363.22 308.09,363.25 310.11,363.27 312.13,363.29 314.15,363.31 316.16,363.33 318.18,363.36 320.20,363.38 322.22,363.40 324.24,363.41 326.25,363.43 328.27,363.45 330.29,363.47 332.31,363.49 334.33,363.50 336.35,363.52 338.36,363.54 340.38,363.55 342.40,363.57 344.42,363.58 346.44,363.60 348.45,363.61 350.47,363.62 352.49,363.64 354.51,363.65 356.53,363.66 358.55,363.67 360.56,363.69 362.58,363.70 364.60,363.71 366.62,363.72 368.64,363.73 370.65,363.74 372.67,363.75 374.69,363.76 376.71,363.77 378.73,363.78 380.75,363.79 382.76,363.80 384.78,363.81 386.80,363.82 388.82,363.83 390.84,363.83 392.85,363.84 394.87,363.85 396.89,363.86 398.91,363.86 400.93,363.87 402.95,363.88 404.96,363.89 406.98,363.89 409.00,363.90 411.02,363.90 413.04,363.91 415.05,363.92 417.07,363.92 419.09,363.93 421.11,363.93 423.13,363.94 425.15,363.94 427.16,363.95 429.18,363.95 431.20,363.96 433.22,363.96 435.24,363.97 437.25,363.97 439.27,363.98 441.29,363.98 443.31,363.99 445.33,363.99 447.35,363.99 449.36,364.00 451.38,364.00 453.40,364.00 455.42,364.01 457.44,364.01 459.45,364.01 461.47,364.02 463.49,364.02 465.51,364.02 467.53,364.03 469.55,364.03 471.56,364.03 473.58,364.04 475.60,364.04 477.62,364.04 479.64,364.04 481.65,364.05 483.67,364.05 485.69,364.05 487.71,364.05 489.73,364.06 491.75,364.06 493.76,364.06 495.78,364.06 497.80,364.06 499.82,364.07 501.84,364.07 503.85,364.07 505.87,364.07 507.89,364.07 509.91,364.07 511.93,364.08 513.95,364.08 515.96,364.08 517.98,364.08 520.00,364.08 522.02,364.08 524.04,364.09 526.05,364.09 528.07,364.09 530.09,364.09 532.11,364.09 534.13,364.09 536.15,364.09 538.16,364.09 540.18,364.10 542.20,364.10 544.22,364.10 546.24,364.10 548.25,364.10 550.27,364.10 552.29,364.10 554.31,364.10 556.33,364.10 558.35,364.10 560.36,364.11 562.38,364.11 564.40,364.11 566.42,364.11 568.44,364.11 570.45,364.11 572.47,364.11 574.49,364.11 576.51,364.11 578.53,364.11 580.55,364.11 582.56,364.11 584.58,364.11 586.60,364.12 588.62,364.12 590.64,364.12 592.65,364.12 594.67,364.12 596.69,364.12 598.71,364.12 600.73,364.12 602.75,364.12 604.76,364.12 606.78,364.12 608.80,364.12 610.82,364.12 612.84,364.12 614.85,364.12 616.87,364.12 618.89,364.12 620.91,364.12 622.93,364.12 624.95,364.12 626.96,364.12 628.98,364.12 631.00,364.13 633.02,364.13 635.04,364.13 637.05,364.13 639.07,364.13 641.09,364.13 643.11,364.13 645.13,364.13 647.15,364.13 649.16,364.13 651.18,364.13 653.20,364.13 655.22,364.13 657.24,364.13 659.25,364.13 661.27,364.13 663.29,364.13 665.31,364.13 667.33,364.13 669.35,364.13 671.36,364.13 673.38,364.13 675.40,364.13 677.42,364.13 679.44,364.13 681.45,364.13 683.47,364.13 685.49,364.13 687.51,364.13 689.53,364.13 691.55,364.13 693.56,364.13 695.58,364.13 697.60,364.13 699.62,364.13 701.64,364.13 703.65,364.13 705.67,364.13 707.69,364.13 709.71,364.13 711.73,364.13 713.75,364.13 715.76,364.13 717.78,364.13 719.80,364.13 721.82,364.13 723.84,364.13 725.85,364.13 727.87,364.13 729.89,364.13 731.91,364.13 733.93,364.13 735.95,364.13 737.96,364.13 739.98,364.13 742.00,364.14 744.02,364.14 746.04,364.14 748.05,364.14 750.07,364.14 752.09,364.14 754.11,364.14 756.13,364.14 758.15,364.14 760.16,364.14 762.18,364.14 764.20,364.14 766.22,364.14 768.24,364.14 770.25,364.14 772.27,364.14 774.29,364.14 776.31,364.14 778.33,364.14 780.35,364.14 782.36,364.14 784.38,364.14 786.40,364.14 788.42,364.14 790.44,364.14 792.45,364.14 794.47,364.14 796.49,364.14 798.51,364.14 800.53,364.14 802.55,364.14 804.56,364.14 806.58,364.14 808.60,364.14 810.62,364.14 812.64,364.14 814.65,364.14 816.67,364.14 818.69,364.14 820.71,364.14 822.73,364.14 824.75,364.14 826.76,364.14 828.78,364.14 830.80,364.14 832.82,364.14 834.84,364.14 836.85,364.14 838.87,364.14 840.89,364.14 842.91,364.14 844.93,364.14 846.95,364.14 848.96,364.14 850.98,364.14 853.00,364.14 855.02,364.14 857.04,364.14 859.05,364.14 861.07,364.14 863.09,364.14 865.11,364.14 867.13,364.14 869.15,364.14 871.16,364.14 873.18,364.14 875.20,364.14 877.22,364.14 879.24,364.14 881.25,364.14 883.27,364.14 885.29,364.14 887.31,364.14 889.33,364.14 891.35,364.14 893.36,364.14 895.38,364.14 897.40,364.14 899.42,364.14 901.44,364.14 903.45,364.14 905.47,364.14 907.49,364.14 909.51,364.14 911.53,364.14 913.55,364.14 915.56,364.14 917.58,364.14 919.60,364.14 921.62,364.14 923.64,364.14 925.65,364.14 927.67,364.14 929.69,364.14 931.71,364.14 933.73,364.14 935.75,364.14 937.76,364.14 939.78,364.14 941.80,364.14 943.82,364.14 945.84,364.14 947.85,364.14 949.87,364.14 951.89,364.14 953.91,364.14 955.93,364.14 957.95,364.14 959.96,364.14 961.98,364.14 964.00,364.14 966.02,364.14 968.04,364.14 970.05,364.14 972.07,364.14 974.09,364.14 976.11,364.14 978.13,364.14 980.15,364.14 982.16,364.14 984.18,364.14 986.20,364.14 988.22,364.14 990.24,364.14 992.25,364.14 994.27,364.14 996.29,364.14 998.31,364.14 1000.33,364.14 1002.35,364.14 1004.36,364.14 1006.38,364.14 1008.40,364.14 1010.42,364.14 1012.44,364.14 1014.45,364.14 1016.47,364.14 1018.49,364.14 1020.51,364.14 1022.53,364.14 1024.55,364.14 1026.56,364.14 1028.58,364.14 1030.60,364.14 1032.62,364.14 1034.64,364.14 1036.65,364.14 1038.67,364.14 1040.69,364.14 1042.71,364.14 1044.73,364.14 1046.75,364.14 1048.76,364.14 1050.78,364.14 1052.80,364.14 1054.82,364.14 1056.84,364.14 1058.85,364.14 1060.87,364.14 1062.89,364.14 1064.91,364.14 1066.93,364.14 1068.95,364.14 1070.96,364.14 1072.98,364.14 1075.00,364.14 1077.02,364.14 1079.04,364.14 1081.05,364.14 1083.07,364.14 1085.09,364.14 1087.11,364.14 1089.13,364.14 1091.15,364.14 1093.16,364.14 1095.18,364.14 1097.20,364.14 1099.22,364.14 1101.24,364.14 1103.25,364.14 1105.27,364.14 1107.29,364.14 1109.31,364.14 1111.33,364.14 1113.35,364.14 1115.36,364.14 1117.38,364.14 1119.40,364.14 1121.42,364.14 1123.44,364.14 1125.45,364.14 1127.47,364.14 1129.49,364.14 1131.51,364.14 1133.53,364.14 1135.55,364.14 1137.56,364.14 1139.58,364.14 1141.60,364.14 1143.62,364.14 1145.64,364.14 1147.65,364.14 1149.67,364.14 1151.69,364.14 1153.71,364.14 1155.73,364.14 1157.75,364.14 1159.76,364.14 1161.78,364.14 1163.80,364.14 1165.82,364.14 1167.84,364.14 1169.85,364.14 1171.87,364.14 1173.89,364.14 1175.91,364.14 1177.93,364.14 1179.95,364.14 1181.96,364.14 1183.98,364.14 1186.00,364.14" fill="none" stroke="#009E73" stroke-width="2.5" stroke-opacity="1.0" stroke-dasharray="12 5"/>
<polyline points="76.00,351.91 78.02,351.78 80.04,351.65 82.05,351.52 84.07,351.39 86.09,351.26 88.11,351.12 90.13,350.99 92.15,350.85 94.16,350.71 96.18,350.57 98.20,350.43 100.22,350.29 102.24,350.14 104.25,350.00 106.27,349.85 108.29,349.70 110.31,349.55 112.33,349.40 114.35,349.24 116.36,349.09 118.38,348.93 120.40,348.77 122.42,348.61 124.44,348.45 126.45,348.29 128.47,348.12 130.49,347.96 132.51,347.79 134.53,347.62 136.55,347.45 138.56,347.27 140.58,347.10 142.60,346.92 144.62,346.74 146.64,346.56 148.65,346.38 150.67,346.19 152.69,346.00 154.71,345.81 156.73,345.62 158.75,345.43 160.76,345.24 162.78,345.04 164.80,344.84 166.82,344.64 168.84,344.44 170.85,344.23 172.87,344.03 174.89,343.82 176.91,343.61 178.93,343.39 180.95,343.18 182.96,342.96 184.98,342.74 187.00,342.52 189.02,342.29 191.04,342.06 193.05,341.84 195.07,341.60 197.09,341.37 199.11,341.13 201.13,340.89 203.15,340.65 205.16,340.41 207.18,340.16 209.20,339.92 211.22,339.66 213.24,339.41 215.25,339.15 217.27,338.89 219.29,338.63 221.31,338.37 223.33,338.10 225.35,337.83 227.36,337.56 229.38,337.28 231.40,337.01 233.42,336.72 235.44,336.44 237.45,336.15 239.47,335.86 241.49,335.57 243.51,335.28 245.53,334.98 247.55,334.67 249.56,334.37 251.58,334.06 253.60,333.75 255.62,333.44 257.64,333.12 259.65,332.80 261.67,332.48 263.69,332.15 265.71,331.82 267.73,331.48 269.75,331.15 271.76,330.81 273.78,330.46 275.80,330.11 277.82,329.76 279.84,329.41 281.85,329.05 283.87,328.69 285.89,328.32 287.91,327.95 289.93,327.58 291.95,327.21 293.96,326.82 295.98,326.44 298.00,326.05 300.02,325.66 302.04,325.26 304.05,324.86 306.07,324.46 308.09,324.05 310.11,323.64 312.13,323.22 314.15,322.80 316.16,322.38 318.18,321.95 320.20,321.52 322.22,321.08 324.24,320.64 326.25,320.19 328.27,319.74 330.29,319.29 332.31,318.83 334.33,318.36 336.35,317.89 338.36,317.42 340.38,316.94 342.40,316.46 344.42,315.97 346.44,315.48 348.45,314.98 350.47,314.48 352.49,313.97 354.51,313.46 356.53,312.94 358.55,312.42 360.56,311.89 362.58,311.36 364.60,310.82 366.62,310.27 368.64,309.72 370.65,309.17 372.67,308.61 374.69,308.05 376.71,307.47 378.73,306.90 380.75,306.32 382.76,305.73 384.78,305.13 386.80,304.54 388.82,303.93 390.84,303.32 392.85,302.70 394.87,302.08 396.89,301.45 398.91,300.82 400.93,300.18 402.95,299.53 404.96,298.87 406.98,298.21 409.00,297.55 411.02,296.88 413.04,296.20 415.05,295.51 417.07,294.82 419.09,294.12 421.11,293.42 423.13,292.70 425.15,291.98 427.16,291.26 429.18,290.53 431.20,289.79 433.22,289.04 435.24,288.29 437.25,287.53 439.27,286.76 441.29,285.98 443.31,285.20 445.33,284.41 447.35,283.62 449.36,282.81 451.38,282.00 453.40,281.18 455.42,280.35 457.44,279.52 459.45,278.68 461.47,277.83 463.49,276.97 465.51,276.10 467.53,275.23 469.55,274.35 471.56,273.46 473.58,272.56 475.60,271.65 477.62,270.74 479.64,269.82 481.65,268.89 483.67,267.95 485.69,267.00 487.71,266.04 489.73,265.08 491.75,264.11 493.76,263.13 495.78,262.14 497.80,261.14 499.82,260.13 501.84,259.11 503.85,258.09 505.87,257.05 507.89,256.01 509.91,254.96 511.93,253.90 513.95,252.83 515.96,251.75 517.98,250.66 520.00,249.56 522.02,248.46 524.04,247.34 526.05,246.22 528.07,245.08 530.09,243.94 532.11,242.79 534.13,241.62 536.15,240.45 538.16,239.27 540.18,238.08 542.20,236.88 544.22,235.67 546.24,234.45 548.25,233.22 550.27,231.98 552.29,230.74 554.31,229.48 556.33,228.21 558.35,226.93 560.36,225.65 562.38,224.35 564.40,223.05 566.42,221.73 568.44,220.41 570.45,219.08 572.47,217.73 574.49,216.38 576.51,215.02 578.53,213.65 580.55,212.27 582.56,210.88 584.58,209.48 586.60,208.07 588.62,206.65 590.64,205.23 592.65,203.79 594.67,202.35 596.69,200.90 598.71,199.44 600.73,197.97 602.75,196.49 604.76,195.00 606.78,193.51 608.80,192.01 610.82,190.50 612.84,188.98 614.85,187.45 616.87,185.92 618.89,184.38 620.91,182.83 622.93,181.28 624.95,179.72 626.96,178.15 628.98,176.58 631.00,175.00 633.02,173.42 635.04,171.83 637.05,170.24 639.07,168.64 641.09,167.04 643.11,165.43 645.13,163.82 647.15,162.21 649.16,160.59 651.18,158.98 653.20,157.36 655.22,155.73 657.24,154.11 659.25,152.49 661.27,150.87 663.29,149.25 665.31,147.62 667.33,146.01 669.35,144.39 671.36,142.78 673.38,141.17 675.40,139.56 677.42,137.96 679.44,136.37 681.45,134.78 683.47,133.20 685.49,131.63 687.51,130.07 689.53,128.51 691.55,126.97 693.56,125.44 695.58,123.92 697.60,122.42 699.62,120.93 701.64,119.46 703.65,118.00 705.67,116.56 707.69,115.14 709.71,113.73 711.73,112.35 713.75,110.99 715.76,109.65 717.78,108.34 719.80,107.05 721.82,105.78 723.84,104.54 725.85,103.33 727.87,102.15 729.89,100.99 731.91,99.87 733.93,98.77 735.95,97.70 737.96,96.67 739.98,95.67 742.00,94.70 744.02,93.76 746.04,92.85 748.05,91.98 750.07,91.14 752.09,90.33 754.11,89.56 756.13,88.82 758.15,88.11 760.16,87.43 762.18,86.78 764.20,86.17 766.22,85.58 768.24,85.03 770.25,84.50 772.27,84.00 774.29,83.53 776.31,83.08 778.33,82.66 780.35,82.27 782.36,81.89 784.38,81.54 786.40,81.21 788.42,80.90 790.44,80.61 792.45,80.34 794.47,80.09 796.49,79.85 798.51,79.63 800.53,79.43 802.55,79.23 804.56,79.05 806.58,78.89 808.60,78.73 810.62,78.59 812.64,78.45 814.65,78.33 816.67,78.21 818.69,78.11 820.71,78.01 822.73,77.91 824.75,77.83 826.76,77.75 828.78,77.68 830.80,77.61 832.82,77.54 834.84,77.49 836.85,77.43 838.87,77.38 840.89,77.34 842.91,77.29 844.93,77.25 846.95,77.22 848.96,77.18 850.98,77.15 853.00,77.12 855.02,77.10 857.04,77.07 859.05,77.05 861.07,77.03 863.09,77.01 865.11,76.99 867.13,76.97 869.15,76.96 871.16,76.94 873.18,76.93 875.20,76.92 877.22,76.91 879.24,76.90 881.25,76.89 883.27,76.88 885.29,76.87 887.31,76.86 889.33,76.86 891.35,76.85 893.36,76.85 895.38,76.84 897.40,76.84 899.42,76.83 901.44,76.83 903.45,76.82 905.47,76.82 907.49,76.82 909.51,76.81 911.53,76.81 913.55,76.81 915.56,76.80 917.58,76.80 919.60,76.80 921.62,76.80 923.64,76.80 925.65,76.80 927.67,76.79 929.69,76.79 931.71,76.79 933.73,76.79 935.75,76.79 937.76,76.79 939.78,76.79 941.80,76.79 943.82,76.79 945.84,76.78 947.85,76.78 949.87,76.78 951.89,76.78 953.91,76.78 955.93,76.78 957.95,76.78 959.96,76.78 961.98,76.78 964.00,76.78 966.02,76.78 968.04,76.78 970.05,76.78 972.07,76.78 974.09,76.78 976.11,76.78 978.13,76.78 980.15,76.78 982.16,76.78 984.18,76.78 986.20,76.78 988.22,76.78 990.24,76.78 992.25,76.78 994.27,76.78 996.29,76.78 998.31,76.78 1000.33,76.78 1002.35,76.78 1004.36,76.78 1006.38,76.78 1008.40,76.78 1010.42,76.78 1012.44,76.78 1014.45,76.78 1016.47,76.78 1018.49,76.78 1020.51,76.78 1022.53,76.78 1024.55,76.78 1026.56,76.78 1028.58,76.78 1030.60,76.78 1032.62,76.78 1034.64,76.78 1036.65,76.78 1038.67,76.78 1040.69,76.78 1042.71,76.78 1044.73,76.78 1046.75,76.78 1048.76,76.78 1050.78,76.78 1052.80,76.78 1054.82,76.78 1056.84,76.78 1058.85,76.78 1060.87,76.78 1062.89,76.78 1064.91,76.78 1066.93,76.78 1068.95,76.78 1070.96,76.78 1072.98,76.78 1075.00,76.78 1077.02,76.78 1079.04,76.78 1081.05,76.78 1083.07,76.78 1085.09,76.78 1087.11,76.78 1089.13,76.78 1091.15,76.78 1093.16,76.78 1095.18,76.78 1097.20,76.78 1099.22,76.78 1101.24,76.78 1103.25,76.78 1105.27,76.78 1107.29,76.78 1109.31,76.78 1111.33,76.78 1113.35,76.78 1115.36,76.78 1117.38,76.78 1119.40,76.78 1121.42,76.78 1123.44,76.78 1125.45,76.78 1127.47,76.78 1129.49,76.78 1131.51,76.78 1133.53,76.78 1135.55,76.78 1137.56,76.78 1139.58,76.78 1141.60,76.78 1143.62,76.78 1145.64,76.78 1147.65,76.78 1149.67,76.78 1151.69,76.78 1153.71,76.78 1155.73,76.78 1157.75,76.78 1159.76,76.78 1161.78,76.78 1163.80,76.78 1165.82,76.78 1167.84,76.78 1169.85,76.78 1171.87,76.78 1173.89,76.78 1175.91,76.78 1177.93,76.78 1179.95,76.78 1181.96,76.78 1183.98,76.78 1186.00,76.78" fill="none" stroke="#D55E00" stroke-width="2.9" stroke-opacity="1.0" stroke-dasharray="8 3"/>
<line x1="88" y1="54" x2="110" y2="54" stroke="#4D4D4D" stroke-width="3.2" stroke-opacity="0.55"/>
<text x="116" y="58" font-family="Arial, Noto Sans CJK SC, Microsoft YaHei, sans-serif" font-size="12">Reference Monod model</text>
<line x1="88" y1="72" x2="110" y2="72" stroke="#E69F00" stroke-width="2.4" stroke-opacity="0.95"/>
<text x="116" y="76" font-family="Arial, Noto Sans CJK SC, Microsoft YaHei, sans-serif" font-size="12">Local constant-rate model</text>
<line x1="88" y1="90" x2="110" y2="90" stroke="#56B4E9" stroke-width="2.4" stroke-opacity="0.95" stroke-dasharray="5 4"/>
<text x="116" y="94" font-family="Arial, Noto Sans CJK SC, Microsoft YaHei, sans-serif" font-size="12">Piecewise gain-scheduled rate model</text>
<line x1="88" y1="108" x2="110" y2="108" stroke="#0072B2" stroke-width="2.3" stroke-opacity="0.95" stroke-dasharray="2 4"/>
<text x="116" y="112" font-family="Arial, Noto Sans CJK SC, Microsoft YaHei, sans-serif" font-size="12">Full SINDy vector-field model</text>
<line x1="88" y1="126" x2="110" y2="126" stroke="#CC79A7" stroke-width="2.3" stroke-opacity="0.95" stroke-dasharray="10 3 2 3"/>
<text x="116" y="130" font-family="Arial, Noto Sans CJK SC, Microsoft YaHei, sans-serif" font-size="12">Free residual SINDy model</text>
<line x1="88" y1="144" x2="110" y2="144" stroke="#6A51A3" stroke-width="2.4" stroke-opacity="0.95" stroke-dasharray="6 3"/>
<text x="116" y="148" font-family="Arial, Noto Sans CJK SC, Microsoft YaHei, sans-serif" font-size="12">Rational full vector-field model</text>
<line x1="88" y1="162" x2="110" y2="162" stroke="#009E73" stroke-width="2.5" stroke-opacity="1.0" stroke-dasharray="12 5"/>
<text x="116" y="166" font-family="Arial, Noto Sans CJK SC, Microsoft YaHei, sans-serif" font-size="12">Polynomial coefficient-slot model</text>
<line x1="88" y1="180" x2="110" y2="180" stroke="#D55E00" stroke-width="2.9" stroke-opacity="1.0" stroke-dasharray="8 3"/>
<text x="116" y="184" font-family="Arial, Noto Sans CJK SC, Microsoft YaHei, sans-serif" font-size="12">Rational SINDy-PI-style coefficient-slot model</text>
</svg>