<svg xmlns="http://www.w3.org/2000/svg" width="940" height="470" viewBox="0 0 940 470">
  <rect width="940" height="470" fill="#ffffff"/>
  <text x="80" y="36" font-family="Noto Sans CJK SC, DejaVu Sans, Arial" font-size="20" fill="#111827">Silverbox SB-2b 窗口化刚度系数函数</text>
  <text x="80" y="58" font-family="Noto Sans CJK SC, DejaVu Sans, Arial" font-size="13" fill="#4b5563">p_k(y)=beta0+beta2*y^2, beta0=1.056, beta2=-3910</text>
  <rect x="80.0" y="70.0" width="780.0" height="320.0" fill="#ffffff" stroke="#d1d5db"/>
  <line x1="80.0" y1="390.0" x2="860.0" y2="390.0" stroke="#6b7280"/>
  <line x1="80.0" y1="70.0" x2="80.0" y2="390.0" stroke="#6b7280"/>
  <polyline points="80.00,373.16 81.95,370.27 83.90,367.40 85.85,364.55 87.80,361.70 89.75,358.88 91.70,356.07 93.65,353.27 95.60,350.48 97.55,347.72 99.50,344.96 101.45,342.22 103.40,339.50 105.35,336.79 107.30,334.09 109.25,331.41 111.20,328.74 113.15,326.09 115.10,323.45 117.05,320.83 119.00,318.22 120.95,315.62 122.90,313.04 124.85,310.48 126.80,307.92 128.75,305.39 130.70,302.86 132.65,300.36 134.60,297.86 136.55,295.38 138.50,292.92 140.45,290.47 142.40,288.03 144.35,285.61 146.30,283.21 148.25,280.82 150.20,278.44 152.15,276.07 154.10,273.73 156.05,271.39 158.00,269.07 159.95,266.77 161.90,264.48 163.85,262.20 165.80,259.94 167.75,257.69 169.70,255.46 171.65,253.24 173.60,251.04 175.55,248.85 177.50,246.67 179.45,244.51 181.40,242.37 183.35,240.24 185.30,238.12 187.25,236.02 189.20,233.93 191.15,231.86 193.10,229.80 195.05,227.75 197.00,225.72 198.95,223.71 200.90,221.71 202.85,219.72 204.80,217.75 206.75,215.79 208.70,213.85 210.65,211.92 212.60,210.01 214.55,208.11 216.50,206.22 218.45,204.35 220.40,202.50 222.35,200.65 224.30,198.83 226.25,197.01 228.20,195.22 230.15,193.43 232.10,191.66 234.05,189.91 236.00,188.17 237.95,186.44 239.90,184.73 241.85,183.04 243.80,181.35 245.75,179.69 247.70,178.03 249.65,176.39 251.60,174.77 253.55,173.16 255.50,171.57 257.45,169.99 259.40,168.42 261.35,166.87 263.30,165.33 265.25,163.81 267.20,162.30 269.15,160.81 271.10,159.33 273.05,157.86 275.00,156.41 276.95,154.97 278.90,153.55 280.85,152.15 282.80,150.75 284.75,149.38 286.70,148.01 288.65,146.66 290.60,145.33 292.55,144.01 294.50,142.70 296.45,141.41 298.40,140.14 300.35,138.88 302.30,137.63 304.25,136.39 306.20,135.18 308.15,133.97 310.10,132.78 312.05,131.61 314.00,130.45 315.95,129.30 317.90,128.17 319.85,127.05 321.80,125.95 323.75,124.86 325.70,123.79 327.65,122.73 329.60,121.68 331.55,120.65 333.50,119.64 335.45,118.64 337.40,117.65 339.35,116.68 341.30,115.72 343.25,114.78 345.20,113.85 347.15,112.93 349.10,112.04 351.05,111.15 353.00,110.28 354.95,109.42 356.90,108.58 358.85,107.75 360.80,106.94 362.75,106.14 364.70,105.36 366.65,104.59 368.60,103.83 370.55,103.09 372.50,102.37 374.45,101.66 376.40,100.96 378.35,100.28 380.30,99.61 382.25,98.96 384.20,98.32 386.15,97.69 388.10,97.08 390.05,96.49 392.00,95.91 393.95,95.34 395.90,94.79 397.85,94.25 399.80,93.73 401.75,93.22 403.70,92.72 405.65,92.24 407.60,91.78 409.55,91.33 411.50,90.89 413.45,90.47 415.40,90.06 417.35,89.67 419.30,89.29 421.25,88.93 423.20,88.58 425.15,88.25 427.10,87.93 429.05,87.62 431.00,87.33 432.95,87.05 434.90,86.79 436.85,86.54 438.80,86.31 440.75,86.09 442.70,85.88 444.65,85.69 446.60,85.52 448.55,85.36 450.50,85.21 452.45,85.08 454.40,84.96 456.35,84.86 458.30,84.77 460.25,84.70 462.20,84.64 464.15,84.59 466.10,84.56 468.05,84.55 470.00,84.55 471.95,84.56 473.90,84.59 475.85,84.63 477.80,84.68 479.75,84.76 481.70,84.84 483.65,84.94 485.60,85.06 487.55,85.18 489.50,85.33 491.45,85.49 493.40,85.66 495.35,85.84 497.30,86.05 499.25,86.26 501.20,86.49 503.15,86.74 505.10,87.00 507.05,87.27 509.00,87.56 510.95,87.86 512.90,88.18 514.85,88.51 516.80,88.86 518.75,89.22 520.70,89.59 522.65,89.98 524.60,90.39 526.55,90.80 528.50,91.24 530.45,91.69 532.40,92.15 534.35,92.62 536.30,93.11 538.25,93.62 540.20,94.14 542.15,94.68 544.10,95.22 546.05,95.79 548.00,96.37 549.95,96.96 551.90,97.57 553.85,98.19 555.80,98.82 557.75,99.47 559.70,100.14 561.65,100.82 563.60,101.51 565.55,102.22 567.50,102.94 569.45,103.68 571.40,104.43 573.35,105.20 575.30,105.98 577.25,106.77 579.20,107.58 581.15,108.41 583.10,109.25 585.05,110.10 587.00,110.97 588.95,111.85 590.90,112.75 592.85,113.66 594.80,114.58 596.75,115.52 598.70,116.48 600.65,117.45 602.60,118.43 604.55,119.43 606.50,120.44 608.45,121.47 610.40,122.51 612.35,123.57 614.30,124.64 616.25,125.72 618.20,126.82 620.15,127.94 622.10,129.07 624.05,130.21 626.00,131.37 627.95,132.54 629.90,133.73 631.85,134.93 633.80,136.14 635.75,137.37 637.70,138.62 639.65,139.88 641.60,141.15 643.55,142.44 645.50,143.74 647.45,145.06 649.40,146.39 651.35,147.73 653.30,149.09 655.25,150.47 657.20,151.86 659.15,153.26 661.10,154.68 663.05,156.11 665.00,157.56 666.95,159.02 668.90,160.50 670.85,161.99 672.80,163.49 674.75,165.01 676.70,166.55 678.65,168.10 680.60,169.66 682.55,171.24 684.50,172.83 686.45,174.44 688.40,176.06 690.35,177.69 692.30,179.34 694.25,181.01 696.20,182.69 698.15,184.38 700.10,186.09 702.05,187.81 704.00,189.55 705.95,191.30 707.90,193.07 709.85,194.85 711.80,196.64 713.75,198.45 715.70,200.28 717.65,202.11 719.60,203.97 721.55,205.83 723.50,207.72 725.45,209.61 727.40,211.52 729.35,213.45 731.30,215.39 733.25,217.34 735.20,219.31 737.15,221.30 739.10,223.29 741.05,225.31 743.00,227.33 744.95,229.37 746.90,231.43 748.85,233.50 750.80,235.58 752.75,237.68 754.70,239.80 756.65,241.93 758.60,244.07 760.55,246.23 762.50,248.40 764.45,250.58 766.40,252.78 768.35,255.00 770.30,257.23 772.25,259.47 774.20,261.73 776.15,264.00 778.10,266.29 780.05,268.59 782.00,270.91 783.95,273.24 785.90,275.59 787.85,277.95 789.80,280.32 791.75,282.71 793.70,285.11 795.65,287.53 797.60,289.97 799.55,292.41 801.50,294.87 803.45,297.35 805.40,299.84 807.35,302.35 809.30,304.86 811.25,307.40 813.20,309.95 815.15,312.51 817.10,315.09 819.05,317.68 821.00,320.29 822.95,322.91 824.90,325.54 826.85,328.19 828.80,330.86 830.75,333.53 832.70,336.23 834.65,338.94 836.60,341.66 838.55,344.39 840.50,347.15 842.45,349.91 844.40,352.69 846.35,355.49 848.30,358.30 850.25,361.12 852.20,363.96 854.15,366.81 856.10,369.68 858.05,372.56 860.00,375.45" fill="none" stroke="#7c3aed" stroke-width="2.4"/>
  <text x="470.0" y="440" text-anchor="middle" font-family="Noto Sans CJK SC, DejaVu Sans, Arial" font-size="13" fill="#374151">中心化输出 y-y0 (V)</text>
  <text x="24" y="230.0" transform="rotate(-90 24 230.0)" text-anchor="middle" font-family="Noto Sans CJK SC, DejaVu Sans, Arial" font-size="13" fill="#374151">p_k(y)</text>
</svg>
