<svg xmlns="http://www.w3.org/2000/svg" width="980" height="520" viewBox="0 0 980 520">
  <rect width="980" height="520" fill="#ffffff"/>
  <text x="80" y="38" font-family="Noto Sans CJK SC, DejaVu Sans, Arial" font-size="20" fill="#111827">Silverbox SB-2b Windowed Output-Error Diagnostics</text>
  <rect x="610" y="28" width="18" height="12" fill="#2563eb"/><text x="636" y="39" font-family="Noto Sans CJK SC, DejaVu Sans, Arial" font-size="12" fill="#111827">Windowed linear OE</text><rect x="780" y="28" width="18" height="12" fill="#dc2626"/><text x="806" y="39" font-family="Noto Sans CJK SC, DejaVu Sans, Arial" font-size="12" fill="#111827">Windowed stiffness-slot OE</text>
  <rect x="90.0" y="70.0" width="820.0" height="330.0" fill="#ffffff" stroke="#d1d5db"/>
  <line x1="90.0" y1="400.0" x2="910.0" y2="400.0" stroke="#6b7280"/>
  <line x1="90.0" y1="70.0" x2="90.0" y2="400.0" stroke="#6b7280"/>
  <text x="26" y="235.0" transform="rotate(-90 26 235.0)" text-anchor="middle" font-family="Noto Sans CJK SC, DejaVu Sans, Arial" font-size="13" fill="#374151">Mean RMSE (mV)</text>
  <rect x="125.05" y="105.64" width="57.40" height="294.36" fill="#2563eb"/><text x="153.75" y="99.64" text-anchor="middle" font-family="Noto Sans CJK SC, DejaVu Sans, Arial" font-size="11" fill="#111827">54.51</text><rect x="202.55" y="105.36" width="57.40" height="294.64" fill="#dc2626"/><text x="231.25" y="99.36" text-anchor="middle" font-family="Noto Sans CJK SC, DejaVu Sans, Arial" font-size="11" fill="#111827">54.56</text><rect x="330.06" y="108.40" width="57.40" height="291.60" fill="#2563eb"/><text x="358.75" y="102.40" text-anchor="middle" font-family="Noto Sans CJK SC, DejaVu Sans, Arial" font-size="11" fill="#111827">54.00</text><rect x="407.55" y="108.19" width="57.40" height="291.81" fill="#dc2626"/><text x="436.25" y="102.19" text-anchor="middle" font-family="Noto Sans CJK SC, DejaVu Sans, Arial" font-size="11" fill="#111827">54.04</text><rect x="535.05" y="148.69" width="57.40" height="251.31" fill="#2563eb"/><text x="563.75" y="142.69" text-anchor="middle" font-family="Noto Sans CJK SC, DejaVu Sans, Arial" font-size="11" fill="#111827">46.54</text><rect x="612.54" y="147.91" width="57.40" height="252.09" fill="#dc2626"/><text x="641.25" y="141.91" text-anchor="middle" font-family="Noto Sans CJK SC, DejaVu Sans, Arial" font-size="11" fill="#111827">46.68</text><rect x="740.05" y="188.16" width="57.40" height="211.84" fill="#2563eb"/><text x="768.75" y="182.16" text-anchor="middle" font-family="Noto Sans CJK SC, DejaVu Sans, Arial" font-size="11" fill="#111827">39.23</text><rect x="817.54" y="187.85" width="57.40" height="212.15" fill="#dc2626"/><text x="846.25" y="181.85" text-anchor="middle" font-family="Noto Sans CJK SC, DejaVu Sans, Arial" font-size="11" fill="#111827">39.29</text>
  <text x="192.50" y="428.00" text-anchor="middle" font-family="Noto Sans CJK SC, DejaVu Sans, Arial" font-size="11" fill="#374151">validation</text><text x="397.50" y="428.00" text-anchor="middle" font-family="Noto Sans CJK SC, DejaVu Sans, Arial" font-size="11" fill="#374151">test_multisine</text><text x="602.50" y="428.00" text-anchor="middle" font-family="Noto Sans CJK SC, DejaVu Sans, Arial" font-size="11" fill="#374151">test_arrow_full</text><text x="807.50" y="428.00" text-anchor="middle" font-family="Noto Sans CJK SC, DejaVu Sans, Arial" font-size="11" fill="#374151">test_arrow_no_extrapolation</text>
</svg>
