<svg xmlns="http://www.w3.org/2000/svg" width="980" height="470" viewBox="0 0 980 470">
  <rect width="980" height="470" fill="#ffffff"/>
  <text x="78" y="36" font-family="Noto Sans CJK SC, DejaVu Sans, Arial" font-size="20" fill="#111827">不同温度下的 OCV-SOC 曲线</text>
  <rect x="78.0" y="70.0" width="760.0" height="330.0" fill="#ffffff" stroke="#d1d5db"/>
  <line x1="78.0" y1="400.0" x2="838.0" y2="400.0" stroke="#6b7280"/>
  <line x1="78.0" y1="70.0" x2="78.0" y2="400.0" stroke="#6b7280"/>
  <polyline points="93.20,389.29 100.80,366.27 108.40,347.24 116.00,330.80 123.60,316.19 131.20,303.06 138.80,291.02 146.40,280.13 154.00,271.32 161.60,263.97 169.20,257.23 176.80,250.78 184.40,244.48 192.00,238.34 199.60,232.38 207.20,226.69 214.80,221.09 222.40,215.71 230.00,210.55 237.60,205.57 245.20,200.80 252.80,196.32 260.40,192.08 268.00,188.08 275.60,184.24 283.20,180.56 290.80,177.32 298.40,174.19 306.00,171.13 313.60,168.25 321.20,165.47 328.80,162.87 336.40,160.44 344.00,158.13 351.60,156.14 359.20,154.26 366.80,152.48 374.40,150.88 382.00,149.35 389.60,147.94 397.20,146.50 404.80,145.31 412.40,144.06 420.00,142.82 427.60,141.17 435.20,140.79 442.80,139.66 450.40,138.62 458.00,137.70 465.60,136.76 473.20,135.85 480.80,135.06 488.40,134.24 496.00,133.47 503.60,132.71 511.20,131.96 518.80,131.25 526.40,130.49 534.00,129.78 541.60,129.04 549.20,128.32 556.80,127.62 564.40,126.88 572.00,126.09 579.60,125.31 587.20,124.55 594.80,123.75 602.40,122.89 610.00,122.10 617.60,121.19 625.20,120.22 632.80,119.27 640.40,118.28 648.00,117.20 655.60,116.04 663.20,114.89 670.80,113.72 678.40,112.52 686.00,111.28 693.60,110.05 701.20,108.79 708.80,107.44 716.40,106.13 724.00,104.81 731.60,103.47 739.20,101.98 746.80,100.52 754.40,99.06 762.00,97.59 769.60,95.99 777.20,94.35 784.80,92.60 792.40,90.71 800.00,88.66 807.60,86.49 815.20,84.02 822.80,80.71" fill="none" stroke="#1f77b4" stroke-width="2.1"/><polyline points="93.20,351.80 100.80,320.19 108.40,294.66 116.00,273.51 123.60,255.80 131.20,240.75 138.80,228.08 146.40,218.83 154.00,211.71 161.60,205.37 169.20,199.59 176.80,194.21 184.40,189.27 192.00,184.41 199.60,179.82 207.20,175.51 214.80,171.42 222.40,167.66 230.00,164.13 237.60,160.86 245.20,157.89 252.80,155.27 260.40,152.83 268.00,150.54 275.60,148.58 283.20,146.75 290.80,144.99 298.40,143.33 306.00,141.77 313.60,140.31 321.20,139.12 328.80,138.16 336.40,137.39 344.00,136.69 351.60,136.12 359.20,135.54 366.80,135.03 374.40,134.54 382.00,134.12 389.60,133.69 397.20,133.32 404.80,132.91 412.40,132.59 420.00,132.22 427.60,131.90 435.20,131.56 442.80,131.24 450.40,130.92 458.00,130.67 465.60,130.43 473.20,130.08 480.80,129.74 488.40,129.47 496.00,129.19 503.60,128.83 511.20,128.50 518.80,128.18 526.40,127.85 534.00,127.44 541.60,127.08 549.20,126.67 556.80,126.19 564.40,125.72 572.00,125.23 579.60,124.67 587.20,124.08 594.80,123.42 602.40,122.71 610.00,121.92 617.60,121.13 625.20,120.20 632.80,119.22 640.40,118.18 648.00,117.13 655.60,116.01 663.20,114.95 670.80,113.90 678.40,112.90 686.00,112.00 693.60,111.10 701.20,110.30 708.80,109.47 716.40,108.68 724.00,107.85 731.60,106.96 739.20,106.09 746.80,105.13 754.40,104.14 762.00,103.00 769.60,101.71 777.20,100.24 784.80,98.54 792.40,96.52 800.00,94.13 807.60,91.24 815.20,87.55 822.80,82.33" fill="none" stroke="#d62728" stroke-width="2.1" stroke-dasharray="6,4"/><polyline points="93.20,296.75 100.80,262.90 108.40,237.45 116.00,217.25 123.60,200.78 131.20,187.42 138.80,177.49 146.40,172.38 154.00,169.62 161.60,167.65 169.20,166.02 176.80,164.49 184.40,162.95 192.00,161.28 199.60,159.20 207.20,156.76 214.80,154.39 222.40,152.23 230.00,150.27 237.60,148.51 245.20,146.78 252.80,145.04 260.40,143.49 268.00,142.06 275.60,140.76 283.20,139.53 290.80,138.25 298.40,137.05 306.00,135.90 313.60,135.00 321.20,134.36 328.80,133.83 336.40,133.38 344.00,133.04 351.60,132.71 359.20,132.42 366.80,132.19 374.40,131.96 382.00,131.70 389.60,131.52 397.20,131.35 404.80,131.15 412.40,130.96 420.00,130.80 427.60,130.60 435.20,130.43 442.80,130.29 450.40,130.09 458.00,129.90 465.60,129.74 473.20,129.55 480.80,129.42 488.40,129.19 496.00,129.01 503.60,128.78 511.20,128.60 518.80,128.38 526.40,128.11 534.00,127.89 541.60,127.59 549.20,127.28 556.80,126.93 564.40,126.50 572.00,126.05 579.60,125.57 587.20,124.97 594.80,124.28 602.40,123.50 610.00,122.64 617.60,121.67 625.20,120.55 632.80,119.33 640.40,118.09 648.00,117.07 655.60,116.22 663.20,115.50 670.80,114.90 678.40,114.34 686.00,113.89 693.60,113.44 701.20,113.03 708.80,112.63 716.40,112.26 724.00,111.82 731.60,111.41 739.20,110.96 746.80,110.47 754.40,109.92 762.00,109.24 769.60,108.54 777.20,107.72 784.80,106.66 792.40,105.32 800.00,103.59 807.60,101.23 815.20,97.70 822.80,91.40" fill="none" stroke="#2ca02c" stroke-width="2.1"/><polyline points="93.20,272.37 100.80,243.13 108.40,221.45 116.00,204.18 123.60,190.00 131.20,178.12 138.80,168.81 146.40,164.72 154.00,163.14 161.60,162.13 169.20,161.28 176.80,160.39 184.40,159.41 192.00,158.27 199.60,156.69 207.20,154.51 214.80,152.26 222.40,150.25 230.00,148.51 237.60,146.82 245.20,145.22 252.80,143.69 260.40,142.23 268.00,140.95 275.60,139.69 283.20,138.48 290.80,137.33 298.40,136.18 306.00,135.19 313.60,134.33 321.20,133.52 328.80,132.88 336.40,132.37 344.00,131.86 351.60,131.50 359.20,131.25 366.80,131.01 374.40,130.78 382.00,130.59 389.60,130.40 397.20,130.23 404.80,130.11 412.40,129.95 420.00,129.78 427.60,129.63 435.20,129.53 442.80,129.38 450.40,129.27 458.00,129.10 465.60,129.01 473.20,128.88 480.80,128.74 488.40,128.63 496.00,128.44 503.60,128.32 511.20,128.12 518.80,127.96 526.40,127.76 534.00,127.57 541.60,127.31 549.20,127.05 556.80,126.79 564.40,126.46 572.00,126.05 579.60,125.58 587.20,125.05 594.80,124.37 602.40,123.58 610.00,122.72 617.60,121.66 625.20,120.45 632.80,119.16 640.40,118.00 648.00,117.05 655.60,116.28 663.20,115.70 670.80,115.21 678.40,114.81 686.00,114.48 693.60,114.22 701.20,113.99 708.80,113.72 716.40,113.45 724.00,113.23 731.60,112.98 739.20,112.69 746.80,112.40 754.40,112.06 762.00,111.71 769.60,111.28 777.20,110.78 784.80,110.18 792.40,109.41 800.00,108.31 807.60,106.75 815.20,104.23 822.80,98.81" fill="none" stroke="#9467bd" stroke-width="2.1"/><polyline points="93.20,268.57 100.80,239.97 108.40,218.91 116.00,202.07 123.60,188.14 131.20,176.48 138.80,167.13 146.40,163.09 154.00,161.71 161.60,160.92 169.20,160.25 176.80,159.51 184.40,158.67 192.00,157.56 199.60,155.88 207.20,153.65 214.80,151.50 222.40,149.64 230.00,147.95 237.60,146.29 245.20,144.68 252.80,143.14 260.40,141.76 268.00,140.56 275.60,139.33 283.20,138.14 290.80,136.96 298.40,135.91 306.00,134.99 313.60,134.12 321.20,133.25 328.80,132.46 336.40,131.83 344.00,131.26 351.60,130.86 359.20,130.54 366.80,130.17 374.40,129.90 382.00,129.65 389.60,129.48 397.20,129.33 404.80,129.18 412.40,129.03 420.00,128.91 427.60,128.79 435.20,128.68 442.80,128.59 450.40,128.48 458.00,128.36 465.60,128.21 473.20,128.15 480.80,128.01 488.40,127.90 496.00,127.76 503.60,127.65 511.20,127.47 518.80,127.31 526.40,127.14 534.00,126.93 541.60,126.70 549.20,126.48 556.80,126.16 564.40,125.85 572.00,125.43 579.60,124.95 587.20,124.32 594.80,123.61 602.40,122.77 610.00,121.76 617.60,120.48 625.20,118.94 632.80,117.52 640.40,116.41 648.00,115.72 655.60,115.23 663.20,114.92 670.80,114.69 678.40,114.51 686.00,114.35 693.60,114.20 701.20,114.07 708.80,113.97 716.40,113.87 724.00,113.65 731.60,113.46 739.20,113.33 746.80,113.15 754.40,112.92 762.00,112.71 769.60,112.46 777.20,112.14 784.80,111.77 792.40,111.31 800.00,110.61 807.60,109.63 815.20,107.85 822.80,103.36" fill="none" stroke="#ff7f0e" stroke-width="2.1"/><polyline points="93.20,274.23 100.80,244.15 108.40,222.25 116.00,205.02 123.60,190.81 131.20,178.82 138.80,169.00 146.40,163.42 154.00,161.59 161.60,160.59 169.20,159.81 176.80,159.12 184.40,158.28 192.00,157.27 199.60,155.88 207.20,153.73 214.80,151.56 222.40,149.61 230.00,147.88 237.60,146.25 245.20,144.64 252.80,143.11 260.40,141.71 268.00,140.43 275.60,139.15 283.20,137.91 290.80,136.74 298.40,135.78 306.00,135.01 313.60,134.19 321.20,133.25 328.80,132.40 336.40,131.64 344.00,131.09 351.60,130.61 359.20,130.02 366.80,129.49 374.40,129.15 382.00,128.86 389.60,128.64 397.20,128.42 404.80,128.33 412.40,128.14 420.00,128.03 427.60,127.89 435.20,127.77 442.80,127.66 450.40,127.53 458.00,127.41 465.60,127.32 473.20,127.21 480.80,127.08 488.40,126.99 496.00,126.84 503.60,126.68 511.20,126.51 518.80,126.40 526.40,126.20 534.00,125.97 541.60,125.75 549.20,125.50 556.80,125.20 564.40,124.83 572.00,124.36 579.60,123.86 587.20,123.24 594.80,122.51 602.40,121.62 610.00,120.52 617.60,119.28 625.20,117.98 632.80,116.79 640.40,115.81 648.00,115.23 655.60,114.83 663.20,114.54 670.80,114.39 678.40,114.22 686.00,114.02 693.60,113.89 701.20,113.78 708.80,113.64 716.40,113.54 724.00,113.39 731.60,113.21 739.20,113.12 746.80,112.97 754.40,112.76 762.00,112.56 769.60,112.37 777.20,112.14 784.80,111.86 792.40,111.43 800.00,110.88 807.60,109.98 815.20,108.39 822.80,104.26" fill="none" stroke="#17becf" stroke-width="2.1"/><polyline points="93.20,270.43 100.80,241.13 108.40,219.72 116.00,203.10 123.60,189.34 131.20,177.78 138.80,168.18 146.40,162.73 154.00,161.19 161.60,160.43 169.20,159.80 176.80,159.18 184.40,158.49 192.00,157.56 199.60,156.08 207.20,153.94 214.80,151.89 222.40,150.08 230.00,148.32 237.60,146.69 245.20,145.03 252.80,143.46 260.40,142.12 268.00,140.90 275.60,139.69 283.20,138.52 290.80,137.39 298.40,136.34 306.00,135.49 313.60,134.65 321.20,133.75 328.80,132.77 336.40,131.93 344.00,131.18 351.60,130.45 359.20,129.62 366.80,128.90 374.40,128.48 382.00,128.23 389.60,128.10 397.20,127.92 404.80,127.77 412.40,127.67 420.00,127.54 427.60,127.45 435.20,127.34 442.80,127.22 450.40,127.15 458.00,127.05 465.60,126.97 473.20,126.83 480.80,126.76 488.40,126.63 496.00,126.52 503.60,126.41 511.20,126.26 518.80,126.13 526.40,125.99 534.00,125.77 541.60,125.58 549.20,125.41 556.80,125.14 564.40,124.83 572.00,124.48 579.60,124.02 587.20,123.51 594.80,122.87 602.40,122.07 610.00,121.08 617.60,119.74 625.20,118.05 632.80,116.41 640.40,115.33 648.00,114.93 655.60,114.74 663.20,114.54 670.80,114.43 678.40,114.31 686.00,114.20 693.60,114.08 701.20,114.02 708.80,113.91 716.40,113.77 724.00,113.73 731.60,113.61 739.20,113.52 746.80,113.40 754.40,113.29 762.00,113.15 769.60,113.04 777.20,112.87 784.80,112.66 792.40,112.46 800.00,112.18 807.60,111.62 815.20,110.45 822.80,106.93" fill="none" stroke="#8c564b" stroke-width="2.1" stroke-dasharray="6,4"/><polyline points="93.20,274.89 100.80,245.00 108.40,223.42 116.00,206.56 123.60,192.64 131.20,180.87 138.80,170.97 146.40,163.96 154.00,161.68 161.60,160.68 169.20,160.02 176.80,159.40 184.40,158.73 192.00,157.98 199.60,156.92 207.20,155.01 214.80,152.93 222.40,151.04 230.00,149.32 237.60,147.63 245.20,145.98 252.80,144.43 260.40,143.06 268.00,141.84 275.60,140.54 283.20,139.36 290.80,138.23 298.40,137.22 306.00,136.42 313.60,135.57 321.20,134.65 328.80,133.75 336.40,132.77 344.00,131.87 351.60,131.04 359.20,130.20 366.80,129.16 374.40,128.31 382.00,127.88 389.60,127.63 397.20,127.40 404.80,127.24 412.40,127.17 420.00,127.00 427.60,126.92 435.20,126.81 442.80,126.73 450.40,126.65 458.00,126.51 465.60,126.40 473.20,126.36 480.80,126.25 488.40,126.13 496.00,126.05 503.60,125.95 511.20,125.83 518.80,125.66 526.40,125.53 534.00,125.38 541.60,125.20 549.20,125.00 556.80,124.81 564.40,124.59 572.00,124.31 579.60,123.95 587.20,123.55 594.80,123.00 602.40,122.40 610.00,121.67 617.60,120.69 625.20,119.42 632.80,117.90 640.40,116.36 648.00,115.35 655.60,114.96 663.20,114.74 670.80,114.63 678.40,114.51 686.00,114.37 693.60,114.31 701.20,114.19 708.80,114.11 716.40,114.01 724.00,113.89 731.60,113.78 739.20,113.71 746.80,113.61 754.40,113.51 762.00,113.40 769.60,113.27 777.20,113.15 784.80,112.93 792.40,112.78 800.00,112.54 807.60,112.19 815.20,111.42 822.80,108.45" fill="none" stroke="#e377c2" stroke-width="2.1"/>
  <text x="458.0" y="445" text-anchor="middle" font-family="Noto Sans CJK SC, DejaVu Sans, Arial" font-size="13" fill="#374151">SOC</text>
  <text x="25" y="235.0" transform="rotate(-90 25 235.0)" text-anchor="middle" font-family="Noto Sans CJK SC, DejaVu Sans, Arial" font-size="13" fill="#374151">开路电压 OCV (V)</text>
  <text x="860" y="68" font-family="Noto Sans CJK SC, DejaVu Sans, Arial" font-size="13" font-weight="700" fill="#111827">温度</text>
  <line x1="860" y1="92" x2="890" y2="92" stroke="#1f77b4" stroke-width="2.1"/><text x="898" y="96" font-family="Noto Sans CJK SC, DejaVu Sans, Arial" font-size="12" fill="#111827">-25 C</text><line x1="860" y1="114" x2="890" y2="114" stroke="#d62728" stroke-width="2.1" stroke-dasharray="6,4"/><text x="898" y="118" font-family="Noto Sans CJK SC, DejaVu Sans, Arial" font-size="12" fill="#111827">-15 C</text><line x1="860" y1="136" x2="890" y2="136" stroke="#2ca02c" stroke-width="2.1"/><text x="898" y="140" font-family="Noto Sans CJK SC, DejaVu Sans, Arial" font-size="12" fill="#111827">-5 C</text><line x1="860" y1="158" x2="890" y2="158" stroke="#9467bd" stroke-width="2.1"/><text x="898" y="162" font-family="Noto Sans CJK SC, DejaVu Sans, Arial" font-size="12" fill="#111827">5 C</text><line x1="860" y1="180" x2="890" y2="180" stroke="#ff7f0e" stroke-width="2.1"/><text x="898" y="184" font-family="Noto Sans CJK SC, DejaVu Sans, Arial" font-size="12" fill="#111827">15 C</text><line x1="860" y1="202" x2="890" y2="202" stroke="#17becf" stroke-width="2.1"/><text x="898" y="206" font-family="Noto Sans CJK SC, DejaVu Sans, Arial" font-size="12" fill="#111827">25 C</text><line x1="860" y1="224" x2="890" y2="224" stroke="#8c564b" stroke-width="2.1" stroke-dasharray="6,4"/><text x="898" y="228" font-family="Noto Sans CJK SC, DejaVu Sans, Arial" font-size="12" fill="#111827">35 C</text><line x1="860" y1="246" x2="890" y2="246" stroke="#e377c2" stroke-width="2.1"/><text x="898" y="250" font-family="Noto Sans CJK SC, DejaVu Sans, Arial" font-size="12" fill="#111827">45 C</text>
</svg>
