<svg xmlns="http://www.w3.org/2000/svg" width="1200" height="430" viewBox="0 0 1200 430">
<rect width="100%" height="100%" fill="white"/>
<text x="600" y="24" text-anchor="middle" font-family="Arial" font-size="18">E2a recovered stiffness coefficient p_k(x1)</text>
<line x1="70" y1="372" x2="1170" y2="372" stroke="#333" stroke-width="1"/>
<line x1="70" y1="38" x2="70" y2="372" stroke="#333" stroke-width="1"/>
<text x="620" y="416" text-anchor="middle" font-family="Arial" font-size="13">x1</text>
<text transform="translate(18,205) rotate(-90)" text-anchor="middle" font-family="Arial" font-size="13">p_k(x1)</text>
<line x1="70.00" y1="372" x2="70.00" y2="377" stroke="#333"/>
<text x="70.00" y="392" text-anchor="middle" font-family="Arial" font-size="11">-3.0</text>
<line x1="290.00" y1="372" x2="290.00" y2="377" stroke="#333"/>
<text x="290.00" y="392" text-anchor="middle" font-family="Arial" font-size="11">-1.8</text>
<line x1="510.00" y1="372" x2="510.00" y2="377" stroke="#333"/>
<text x="510.00" y="392" text-anchor="middle" font-family="Arial" font-size="11">-0.6</text>
<line x1="730.00" y1="372" x2="730.00" y2="377" stroke="#333"/>
<text x="730.00" y="392" text-anchor="middle" font-family="Arial" font-size="11">0.6</text>
<line x1="950.00" y1="372" x2="950.00" y2="377" stroke="#333"/>
<text x="950.00" y="392" text-anchor="middle" font-family="Arial" font-size="11">1.8</text>
<line x1="1170.00" y1="372" x2="1170.00" y2="377" stroke="#333"/>
<text x="1170.00" y="392" text-anchor="middle" font-family="Arial" font-size="11">3.0</text>
<line x1="65" y1="372.00" x2="70" y2="372.00" stroke="#333"/>
<text x="62" y="376.00" text-anchor="end" font-family="Arial" font-size="11">-0.52</text>
<line x1="65" y1="288.50" x2="70" y2="288.50" stroke="#333"/>
<text x="62" y="292.50" text-anchor="end" font-family="Arial" font-size="11">2.09</text>
<line x1="65" y1="205.00" x2="70" y2="205.00" stroke="#333"/>
<text x="62" y="209.00" text-anchor="end" font-family="Arial" font-size="11">4.70</text>
<line x1="65" y1="121.50" x2="70" y2="121.50" stroke="#333"/>
<text x="62" y="125.50" text-anchor="end" font-family="Arial" font-size="11">7.31</text>
<line x1="65" y1="38.00" x2="70" y2="38.00" stroke="#333"/>
<text x="62" y="42.00" text-anchor="end" font-family="Arial" font-size="11">9.92</text>
<polyline points="70.00,61.03 71.83,62.95 73.67,64.86 75.50,66.76 77.33,68.66 79.17,70.55 81.00,72.44 82.83,74.31 84.67,76.19 86.50,78.05 88.33,79.91 90.17,81.76 92.00,83.61 93.83,85.45 95.67,87.28 97.50,89.11 99.33,90.93 101.17,92.74 103.00,94.55 104.83,96.35 106.67,98.15 108.50,99.93 110.33,101.72 112.17,103.49 114.00,105.26 115.83,107.02 117.67,108.78 119.50,110.53 121.33,112.27 123.17,114.01 125.00,115.74 126.83,117.47 128.67,119.18 130.50,120.90 132.33,122.60 134.17,124.30 136.00,125.99 137.83,127.68 139.67,129.36 141.50,131.03 143.33,132.70 145.17,134.36 147.00,136.01 148.83,137.66 150.67,139.30 152.50,140.94 154.33,142.56 156.17,144.19 158.00,145.80 159.83,147.41 161.67,149.01 163.50,150.61 165.33,152.20 167.17,153.78 169.00,155.36 170.83,156.93 172.67,158.50 174.50,160.05 176.33,161.61 178.17,163.15 180.00,164.69 181.83,166.22 183.67,167.75 185.50,169.27 187.33,170.78 189.17,172.29 191.00,173.79 192.83,175.28 194.67,176.77 196.50,178.25 198.33,179.73 200.17,181.19 202.00,182.66 203.83,184.11 205.67,185.56 207.50,187.00 209.33,188.44 211.17,189.87 213.00,191.29 214.83,192.71 216.67,194.12 218.50,195.53 220.33,196.93 222.17,198.32 224.00,199.70 225.83,201.08 227.67,202.45 229.50,203.82 231.33,205.18 233.17,206.53 235.00,207.88 236.83,209.22 238.67,210.55 240.50,211.88 242.33,213.20 244.17,214.52 246.00,215.83 247.83,217.13 249.67,218.42 251.50,219.71 253.33,221.00 255.17,222.27 257.00,223.54 258.83,224.81 260.67,226.06 262.50,227.31 264.33,228.56 266.17,229.80 268.00,231.03 269.83,232.25 271.67,233.47 273.50,234.69 275.33,235.89 277.17,237.09 279.00,238.28 280.83,239.47 282.67,240.65 284.50,241.83 286.33,242.99 288.17,244.16 290.00,245.31 291.83,246.46 293.67,247.60 295.50,248.74 297.33,249.87 299.17,250.99 301.00,252.11 302.83,253.22 304.67,254.32 306.50,255.42 308.33,256.51 310.17,257.59 312.00,258.67 313.83,259.74 315.67,260.81 317.50,261.87 319.33,262.92 321.17,263.97 323.00,265.00 324.83,266.04 326.67,267.07 328.50,268.09 330.33,269.10 332.17,270.11 334.00,271.11 335.83,272.10 337.67,273.09 339.50,274.07 341.33,275.05 343.17,276.02 345.00,276.98 346.83,277.94 348.67,278.89 350.50,279.83 352.33,280.77 354.17,281.70 356.00,282.63 357.83,283.54 359.67,284.46 361.50,285.36 363.33,286.26 365.17,287.15 367.00,288.04 368.83,288.92 370.67,289.79 372.50,290.66 374.33,291.52 376.17,292.37 378.00,293.22 379.83,294.06 381.67,294.90 383.50,295.73 385.33,296.55 387.17,297.37 389.00,298.17 390.83,298.98 392.67,299.77 394.50,300.56 396.33,301.35 398.17,302.13 400.00,302.90 401.83,303.66 403.67,304.42 405.50,305.17 407.33,305.92 409.17,306.66 411.00,307.39 412.83,308.11 414.67,308.83 416.50,309.55 418.33,310.25 420.17,310.96 422.00,311.65 423.83,312.34 425.67,313.02 427.50,313.69 429.33,314.36 431.17,315.02 433.00,315.68 434.83,316.33 436.67,316.97 438.50,317.61 440.33,318.24 442.17,318.86 444.00,319.48 445.83,320.09 447.67,320.70 449.50,321.30 451.33,321.89 453.17,322.47 455.00,323.05 456.83,323.62 458.67,324.19 460.50,324.75 462.33,325.30 464.17,325.85 466.00,326.39 467.83,326.93 469.67,327.45 471.50,327.98 473.33,328.49 475.17,329.00 477.00,329.50 478.83,330.00 480.67,330.49 482.50,330.97 484.33,331.45 486.17,331.92 488.00,332.38 489.83,332.84 491.67,333.29 493.50,333.73 495.33,334.17 497.17,334.60 499.00,335.03 500.83,335.45 502.67,335.86 504.50,336.27 506.33,336.67 508.17,337.06 510.00,337.45 511.83,337.83 513.67,338.20 515.50,338.57 517.33,338.93 519.17,339.29 521.00,339.64 522.83,339.98 524.67,340.31 526.50,340.64 528.33,340.97 530.17,341.28 532.00,341.59 533.83,341.90 535.67,342.20 537.50,342.49 539.33,342.77 541.17,343.05 543.00,343.32 544.83,343.59 546.67,343.85 548.50,344.10 550.33,344.35 552.17,344.59 554.00,344.82 555.83,345.05 557.67,345.27 559.50,345.48 561.33,345.69 563.17,345.89 565.00,346.09 566.83,346.27 568.67,346.46 570.50,346.63 572.33,346.80 574.17,346.97 576.00,347.12 577.83,347.27 579.67,347.42 581.50,347.55 583.33,347.69 585.17,347.81 587.00,347.93 588.83,348.04 590.67,348.15 592.50,348.25 594.33,348.34 596.17,348.42 598.00,348.50 599.83,348.58 601.67,348.65 603.50,348.71 605.33,348.76 607.17,348.81 609.00,348.85 610.83,348.89 612.67,348.91 614.50,348.94 616.33,348.95 618.17,348.96 620.00,348.97 621.83,348.96 623.67,348.95 625.50,348.94 627.33,348.91 629.17,348.89 631.00,348.85 632.83,348.81 634.67,348.76 636.50,348.71 638.33,348.65 640.17,348.58 642.00,348.50 643.83,348.42 645.67,348.34 647.50,348.25 649.33,348.15 651.17,348.04 653.00,347.93 654.83,347.81 656.67,347.69 658.50,347.55 660.33,347.42 662.17,347.27 664.00,347.12 665.83,346.97 667.67,346.80 669.50,346.63 671.33,346.46 673.17,346.27 675.00,346.09 676.83,345.89 678.67,345.69 680.50,345.48 682.33,345.27 684.17,345.05 686.00,344.82 687.83,344.59 689.67,344.35 691.50,344.10 693.33,343.85 695.17,343.59 697.00,343.32 698.83,343.05 700.67,342.77 702.50,342.49 704.33,342.20 706.17,341.90 708.00,341.59 709.83,341.28 711.67,340.97 713.50,340.64 715.33,340.31 717.17,339.98 719.00,339.64 720.83,339.29 722.67,338.93 724.50,338.57 726.33,338.20 728.17,337.83 730.00,337.45 731.83,337.06 733.67,336.67 735.50,336.27 737.33,335.86 739.17,335.45 741.00,335.03 742.83,334.60 744.67,334.17 746.50,333.73 748.33,333.29 750.17,332.84 752.00,332.38 753.83,331.92 755.67,331.45 757.50,330.97 759.33,330.49 761.17,330.00 763.00,329.50 764.83,329.00 766.67,328.49 768.50,327.98 770.33,327.45 772.17,326.93 774.00,326.39 775.83,325.85 777.67,325.30 779.50,324.75 781.33,324.19 783.17,323.62 785.00,323.05 786.83,322.47 788.67,321.89 790.50,321.30 792.33,320.70 794.17,320.09 796.00,319.48 797.83,318.86 799.67,318.24 801.50,317.61 803.33,316.97 805.17,316.33 807.00,315.68 808.83,315.02 810.67,314.36 812.50,313.69 814.33,313.02 816.17,312.34 818.00,311.65 819.83,310.96 821.67,310.25 823.50,309.55 825.33,308.83 827.17,308.11 829.00,307.39 830.83,306.66 832.67,305.92 834.50,305.17 836.33,304.42 838.17,303.66 840.00,302.90 841.83,302.13 843.67,301.35 845.50,300.56 847.33,299.77 849.17,298.98 851.00,298.17 852.83,297.37 854.67,296.55 856.50,295.73 858.33,294.90 860.17,294.06 862.00,293.22 863.83,292.37 865.67,291.52 867.50,290.66 869.33,289.79 871.17,288.92 873.00,288.04 874.83,287.15 876.67,286.26 878.50,285.36 880.33,284.46 882.17,283.54 884.00,282.63 885.83,281.70 887.67,280.77 889.50,279.83 891.33,278.89 893.17,277.94 895.00,276.98 896.83,276.02 898.67,275.05 900.50,274.07 902.33,273.09 904.17,272.10 906.00,271.11 907.83,270.11 909.67,269.10 911.50,268.09 913.33,267.07 915.17,266.04 917.00,265.00 918.83,263.97 920.67,262.92 922.50,261.87 924.33,260.81 926.17,259.74 928.00,258.67 929.83,257.59 931.67,256.51 933.50,255.42 935.33,254.32 937.17,253.22 939.00,252.11 940.83,250.99 942.67,249.87 944.50,248.74 946.33,247.60 948.17,246.46 950.00,245.31 951.83,244.16 953.67,242.99 955.50,241.83 957.33,240.65 959.17,239.47 961.00,238.28 962.83,237.09 964.67,235.89 966.50,234.69 968.33,233.47 970.17,232.25 972.00,231.03 973.83,229.80 975.67,228.56 977.50,227.31 979.33,226.06 981.17,224.81 983.00,223.54 984.83,222.27 986.67,221.00 988.50,219.71 990.33,218.42 992.17,217.13 994.00,215.83 995.83,214.52 997.67,213.20 999.50,211.88 1001.33,210.55 1003.17,209.22 1005.00,207.88 1006.83,206.53 1008.67,205.18 1010.50,203.82 1012.33,202.45 1014.17,201.08 1016.00,199.70 1017.83,198.32 1019.67,196.93 1021.50,195.53 1023.33,194.12 1025.17,192.71 1027.00,191.29 1028.83,189.87 1030.67,188.44 1032.50,187.00 1034.33,185.56 1036.17,184.11 1038.00,182.66 1039.83,181.19 1041.67,179.73 1043.50,178.25 1045.33,176.77 1047.17,175.28 1049.00,173.79 1050.83,172.29 1052.67,170.78 1054.50,169.27 1056.33,167.75 1058.17,166.22 1060.00,164.69 1061.83,163.15 1063.67,161.61 1065.50,160.05 1067.33,158.50 1069.17,156.93 1071.00,155.36 1072.83,153.78 1074.67,152.20 1076.50,150.61 1078.33,149.01 1080.17,147.41 1082.00,145.80 1083.83,144.19 1085.67,142.56 1087.50,140.94 1089.33,139.30 1091.17,137.66 1093.00,136.01 1094.83,134.36 1096.67,132.70 1098.50,131.03 1100.33,129.36 1102.17,127.68 1104.00,125.99 1105.83,124.30 1107.67,122.60 1109.50,120.90 1111.33,119.18 1113.17,117.47 1115.00,115.74 1116.83,114.01 1118.67,112.27 1120.50,110.53 1122.33,108.78 1124.17,107.02 1126.00,105.26 1127.83,103.49 1129.67,101.72 1131.50,99.93 1133.33,98.15 1135.17,96.35 1137.00,94.55 1138.83,92.74 1140.67,90.93 1142.50,89.11 1144.33,87.28 1146.17,85.45 1148.00,83.61 1149.83,81.76 1151.67,79.91 1153.50,78.05 1155.33,76.19 1157.17,74.31 1159.00,72.44 1160.83,70.55 1162.67,68.66 1164.50,66.76 1166.33,64.86 1168.17,62.95 1170.00,61.03" fill="none" stroke="#4D4D4D" stroke-width="3.2" stroke-opacity="0.55"/>
<polyline points="70.00,61.03 71.83,62.95 73.67,64.86 75.50,66.76 77.33,68.66 79.17,70.55 81.00,72.44 82.83,74.31 84.67,76.19 86.50,78.05 88.33,79.91 90.17,81.76 92.00,83.61 93.83,85.45 95.67,87.28 97.50,89.11 99.33,90.93 101.17,92.74 103.00,94.55 104.83,96.35 106.67,98.15 108.50,99.93 110.33,101.72 112.17,103.49 114.00,105.26 115.83,107.02 117.67,108.78 119.50,110.53 121.33,112.27 123.17,114.01 125.00,115.74 126.83,117.47 128.67,119.18 130.50,120.90 132.33,122.60 134.17,124.30 136.00,125.99 137.83,127.68 139.67,129.36 141.50,131.03 143.33,132.70 145.17,134.36 147.00,136.01 148.83,137.66 150.67,139.30 152.50,140.94 154.33,142.56 156.17,144.19 158.00,145.80 159.83,147.41 161.67,149.01 163.50,150.61 165.33,152.20 167.17,153.78 169.00,155.36 170.83,156.93 172.67,158.50 174.50,160.05 176.33,161.61 178.17,163.15 180.00,164.69 181.83,166.22 183.67,167.75 185.50,169.27 187.33,170.78 189.17,172.29 191.00,173.79 192.83,175.28 194.67,176.77 196.50,178.25 198.33,179.73 200.17,181.19 202.00,182.66 203.83,184.11 205.67,185.56 207.50,187.00 209.33,188.44 211.17,189.87 213.00,191.29 214.83,192.71 216.67,194.12 218.50,195.53 220.33,196.93 222.17,198.32 224.00,199.70 225.83,201.08 227.67,202.45 229.50,203.82 231.33,205.18 233.17,206.53 235.00,207.88 236.83,209.22 238.67,210.55 240.50,211.88 242.33,213.20 244.17,214.52 246.00,215.83 247.83,217.13 249.67,218.42 251.50,219.71 253.33,221.00 255.17,222.27 257.00,223.54 258.83,224.81 260.67,226.06 262.50,227.31 264.33,228.56 266.17,229.80 268.00,231.03 269.83,232.25 271.67,233.47 273.50,234.69 275.33,235.89 277.17,237.09 279.00,238.28 280.83,239.47 282.67,240.65 284.50,241.83 286.33,242.99 288.17,244.16 290.00,245.31 291.83,246.46 293.67,247.60 295.50,248.74 297.33,249.87 299.17,250.99 301.00,252.11 302.83,253.22 304.67,254.32 306.50,255.42 308.33,256.51 310.17,257.59 312.00,258.67 313.83,259.74 315.67,260.81 317.50,261.87 319.33,262.92 321.17,263.97 323.00,265.00 324.83,266.04 326.67,267.07 328.50,268.09 330.33,269.10 332.17,270.11 334.00,271.11 335.83,272.10 337.67,273.09 339.50,274.07 341.33,275.05 343.17,276.02 345.00,276.98 346.83,277.94 348.67,278.89 350.50,279.83 352.33,280.77 354.17,281.70 356.00,282.63 357.83,283.54 359.67,284.46 361.50,285.36 363.33,286.26 365.17,287.15 367.00,288.04 368.83,288.92 370.67,289.79 372.50,290.66 374.33,291.52 376.17,292.37 378.00,293.22 379.83,294.06 381.67,294.90 383.50,295.73 385.33,296.55 387.17,297.37 389.00,298.17 390.83,298.98 392.67,299.77 394.50,300.56 396.33,301.35 398.17,302.13 400.00,302.90 401.83,303.66 403.67,304.42 405.50,305.17 407.33,305.92 409.17,306.66 411.00,307.39 412.83,308.11 414.67,308.83 416.50,309.55 418.33,310.25 420.17,310.96 422.00,311.65 423.83,312.34 425.67,313.02 427.50,313.69 429.33,314.36 431.17,315.02 433.00,315.68 434.83,316.33 436.67,316.97 438.50,317.61 440.33,318.24 442.17,318.86 444.00,319.48 445.83,320.09 447.67,320.70 449.50,321.30 451.33,321.89 453.17,322.47 455.00,323.05 456.83,323.62 458.67,324.19 460.50,324.75 462.33,325.30 464.17,325.85 466.00,326.39 467.83,326.93 469.67,327.45 471.50,327.98 473.33,328.49 475.17,329.00 477.00,329.50 478.83,330.00 480.67,330.49 482.50,330.97 484.33,331.45 486.17,331.92 488.00,332.38 489.83,332.84 491.67,333.29 493.50,333.73 495.33,334.17 497.17,334.60 499.00,335.03 500.83,335.45 502.67,335.86 504.50,336.27 506.33,336.67 508.17,337.06 510.00,337.45 511.83,337.83 513.67,338.20 515.50,338.57 517.33,338.93 519.17,339.29 521.00,339.64 522.83,339.98 524.67,340.31 526.50,340.64 528.33,340.97 530.17,341.28 532.00,341.59 533.83,341.90 535.67,342.20 537.50,342.49 539.33,342.77 541.17,343.05 543.00,343.32 544.83,343.59 546.67,343.85 548.50,344.10 550.33,344.35 552.17,344.59 554.00,344.82 555.83,345.05 557.67,345.27 559.50,345.48 561.33,345.69 563.17,345.89 565.00,346.09 566.83,346.27 568.67,346.46 570.50,346.63 572.33,346.80 574.17,346.97 576.00,347.12 577.83,347.27 579.67,347.42 581.50,347.55 583.33,347.69 585.17,347.81 587.00,347.93 588.83,348.04 590.67,348.15 592.50,348.25 594.33,348.34 596.17,348.42 598.00,348.50 599.83,348.58 601.67,348.65 603.50,348.71 605.33,348.76 607.17,348.81 609.00,348.85 610.83,348.89 612.67,348.91 614.50,348.94 616.33,348.95 618.17,348.96 620.00,348.97 621.83,348.96 623.67,348.95 625.50,348.94 627.33,348.91 629.17,348.89 631.00,348.85 632.83,348.81 634.67,348.76 636.50,348.71 638.33,348.65 640.17,348.58 642.00,348.50 643.83,348.42 645.67,348.34 647.50,348.25 649.33,348.15 651.17,348.04 653.00,347.93 654.83,347.81 656.67,347.69 658.50,347.55 660.33,347.42 662.17,347.27 664.00,347.12 665.83,346.97 667.67,346.80 669.50,346.63 671.33,346.46 673.17,346.27 675.00,346.09 676.83,345.89 678.67,345.69 680.50,345.48 682.33,345.27 684.17,345.05 686.00,344.82 687.83,344.59 689.67,344.35 691.50,344.10 693.33,343.85 695.17,343.59 697.00,343.32 698.83,343.05 700.67,342.77 702.50,342.49 704.33,342.20 706.17,341.90 708.00,341.59 709.83,341.28 711.67,340.97 713.50,340.64 715.33,340.31 717.17,339.98 719.00,339.64 720.83,339.29 722.67,338.93 724.50,338.57 726.33,338.20 728.17,337.83 730.00,337.45 731.83,337.06 733.67,336.67 735.50,336.27 737.33,335.86 739.17,335.45 741.00,335.03 742.83,334.60 744.67,334.17 746.50,333.73 748.33,333.29 750.17,332.84 752.00,332.38 753.83,331.92 755.67,331.45 757.50,330.97 759.33,330.49 761.17,330.00 763.00,329.50 764.83,329.00 766.67,328.49 768.50,327.98 770.33,327.45 772.17,326.93 774.00,326.39 775.83,325.85 777.67,325.30 779.50,324.75 781.33,324.19 783.17,323.62 785.00,323.05 786.83,322.47 788.67,321.89 790.50,321.30 792.33,320.70 794.17,320.09 796.00,319.48 797.83,318.86 799.67,318.24 801.50,317.61 803.33,316.97 805.17,316.33 807.00,315.68 808.83,315.02 810.67,314.36 812.50,313.69 814.33,313.02 816.17,312.34 818.00,311.65 819.83,310.96 821.67,310.25 823.50,309.55 825.33,308.83 827.17,308.11 829.00,307.39 830.83,306.66 832.67,305.92 834.50,305.17 836.33,304.42 838.17,303.66 840.00,302.90 841.83,302.13 843.67,301.35 845.50,300.56 847.33,299.77 849.17,298.98 851.00,298.17 852.83,297.37 854.67,296.55 856.50,295.73 858.33,294.90 860.17,294.06 862.00,293.22 863.83,292.37 865.67,291.52 867.50,290.66 869.33,289.79 871.17,288.92 873.00,288.04 874.83,287.15 876.67,286.26 878.50,285.36 880.33,284.46 882.17,283.54 884.00,282.63 885.83,281.70 887.67,280.77 889.50,279.83 891.33,278.89 893.17,277.94 895.00,276.98 896.83,276.02 898.67,275.05 900.50,274.07 902.33,273.09 904.17,272.10 906.00,271.11 907.83,270.11 909.67,269.10 911.50,268.09 913.33,267.07 915.17,266.04 917.00,265.00 918.83,263.97 920.67,262.92 922.50,261.87 924.33,260.81 926.17,259.74 928.00,258.67 929.83,257.59 931.67,256.51 933.50,255.42 935.33,254.32 937.17,253.22 939.00,252.11 940.83,250.99 942.67,249.87 944.50,248.74 946.33,247.60 948.17,246.46 950.00,245.31 951.83,244.16 953.67,242.99 955.50,241.83 957.33,240.65 959.17,239.47 961.00,238.28 962.83,237.09 964.67,235.89 966.50,234.69 968.33,233.47 970.17,232.25 972.00,231.03 973.83,229.80 975.67,228.56 977.50,227.31 979.33,226.06 981.17,224.81 983.00,223.54 984.83,222.27 986.67,221.00 988.50,219.71 990.33,218.42 992.17,217.13 994.00,215.83 995.83,214.52 997.67,213.20 999.50,211.88 1001.33,210.55 1003.17,209.22 1005.00,207.88 1006.83,206.53 1008.67,205.18 1010.50,203.82 1012.33,202.45 1014.17,201.08 1016.00,199.70 1017.83,198.32 1019.67,196.93 1021.50,195.53 1023.33,194.12 1025.17,192.71 1027.00,191.29 1028.83,189.87 1030.67,188.44 1032.50,187.00 1034.33,185.56 1036.17,184.11 1038.00,182.66 1039.83,181.19 1041.67,179.73 1043.50,178.25 1045.33,176.77 1047.17,175.28 1049.00,173.79 1050.83,172.29 1052.67,170.78 1054.50,169.27 1056.33,167.75 1058.17,166.22 1060.00,164.69 1061.83,163.15 1063.67,161.61 1065.50,160.05 1067.33,158.50 1069.17,156.93 1071.00,155.36 1072.83,153.78 1074.67,152.20 1076.50,150.61 1078.33,149.01 1080.17,147.41 1082.00,145.80 1083.83,144.19 1085.67,142.56 1087.50,140.94 1089.33,139.30 1091.17,137.66 1093.00,136.01 1094.83,134.36 1096.67,132.70 1098.50,131.03 1100.33,129.36 1102.17,127.68 1104.00,125.99 1105.83,124.30 1107.67,122.60 1109.50,120.90 1111.33,119.18 1113.17,117.47 1115.00,115.74 1116.83,114.01 1118.67,112.27 1120.50,110.53 1122.33,108.78 1124.17,107.02 1126.00,105.26 1127.83,103.49 1129.67,101.72 1131.50,99.93 1133.33,98.15 1135.17,96.35 1137.00,94.55 1138.83,92.74 1140.67,90.93 1142.50,89.11 1144.33,87.28 1146.17,85.45 1148.00,83.61 1149.83,81.76 1151.67,79.91 1153.50,78.05 1155.33,76.19 1157.17,74.31 1159.00,72.44 1160.83,70.55 1162.67,68.66 1164.50,66.76 1166.33,64.86 1168.17,62.95 1170.00,61.03" fill="none" stroke="#009E73" stroke-width="2.8" stroke-opacity="1.0" stroke-dasharray="12 5"/>
<line x1="82" y1="48" x2="104" y2="48" stroke="#4D4D4D" stroke-width="3.2" stroke-opacity="0.55"/>
<text x="110" y="52" font-family="Arial" font-size="12">Reference stiffness coefficient from full equation</text>
<line x1="82" y1="66" x2="104" y2="66" stroke="#009E73" stroke-width="2.8" stroke-opacity="1.0" stroke-dasharray="12 5"/>
<text x="110" y="70" font-family="Arial" font-size="12">Slot-constrained coefficient SINDy model</text>
</svg>