<svg xmlns="http://www.w3.org/2000/svg" width="1200" height="430" viewBox="0 0 1200 430">
<rect width="100%" height="100%" fill="white"/>
<text x="600" y="24" text-anchor="middle" font-family="Arial" font-size="18">E2a Duffing rollout: x1</text>
<line x1="70" y1="372" x2="1170" y2="372" stroke="#333" stroke-width="1"/>
<line x1="70" y1="38" x2="70" y2="372" stroke="#333" stroke-width="1"/>
<text x="620" y="416" text-anchor="middle" font-family="Arial" font-size="13">t</text>
<text transform="translate(18,205) rotate(-90)" text-anchor="middle" font-family="Arial" font-size="13">x1</text>
<line x1="70.00" y1="372" x2="70.00" y2="377" stroke="#333"/>
<text x="70.00" y="392" text-anchor="middle" font-family="Arial" font-size="11">0.0</text>
<line x1="290.00" y1="372" x2="290.00" y2="377" stroke="#333"/>
<text x="290.00" y="392" text-anchor="middle" font-family="Arial" font-size="11">5.0</text>
<line x1="510.00" y1="372" x2="510.00" y2="377" stroke="#333"/>
<text x="510.00" y="392" text-anchor="middle" font-family="Arial" font-size="11">10.0</text>
<line x1="730.00" y1="372" x2="730.00" y2="377" stroke="#333"/>
<text x="730.00" y="392" text-anchor="middle" font-family="Arial" font-size="11">15.0</text>
<line x1="950.00" y1="372" x2="950.00" y2="377" stroke="#333"/>
<text x="950.00" y="392" text-anchor="middle" font-family="Arial" font-size="11">20.0</text>
<line x1="1170.00" y1="372" x2="1170.00" y2="377" stroke="#333"/>
<text x="1170.00" y="392" text-anchor="middle" font-family="Arial" font-size="11">25.0</text>
<line x1="65" y1="372.00" x2="70" y2="372.00" stroke="#333"/>
<text x="62" y="376.00" text-anchor="end" font-family="Arial" font-size="11">-1.17</text>
<line x1="65" y1="288.50" x2="70" y2="288.50" stroke="#333"/>
<text x="62" y="292.50" text-anchor="end" font-family="Arial" font-size="11">-0.57</text>
<line x1="65" y1="205.00" x2="70" y2="205.00" stroke="#333"/>
<text x="62" y="209.00" text-anchor="end" font-family="Arial" font-size="11">0.03</text>
<line x1="65" y1="121.50" x2="70" y2="121.50" stroke="#333"/>
<text x="62" y="125.50" text-anchor="end" font-family="Arial" font-size="11">0.63</text>
<line x1="65" y1="38.00" x2="70" y2="38.00" stroke="#333"/>
<text x="62" y="42.00" text-anchor="end" font-family="Arial" font-size="11">1.23</text>
<polyline points="70.00,348.97 71.32,344.72 72.64,340.36 73.96,335.90 75.28,331.36 76.60,326.73 77.92,322.04 79.24,317.28 80.56,312.48 81.88,307.64 83.20,302.77 84.52,297.87 85.84,292.96 87.16,288.03 88.48,283.09 89.80,278.15 91.12,273.22 92.44,268.29 93.76,263.37 95.08,258.46 96.40,253.57 97.72,248.69 99.04,243.84 100.36,239.00 101.68,234.19 103.00,229.40 104.32,224.64 105.64,219.90 106.96,215.19 108.28,210.50 109.60,205.84 110.92,201.22 112.24,196.62 113.56,192.05 114.88,187.51 116.20,183.00 117.52,178.53 118.84,174.09 120.16,169.68 121.48,165.31 122.80,160.98 124.12,156.69 125.44,152.44 126.76,148.23 128.08,144.08 129.40,139.97 130.72,135.91 132.04,131.91 133.36,127.97 134.68,124.09 136.00,120.28 137.32,116.54 138.64,112.88 139.96,109.30 141.28,105.80 142.60,102.40 143.92,99.09 145.24,95.88 146.56,92.78 147.88,89.79 149.20,86.92 150.52,84.18 151.84,81.57 153.16,79.09 154.48,76.75 155.80,74.55 157.12,72.51 158.44,70.62 159.76,68.89 161.08,67.33 162.40,65.93 163.72,64.71 165.04,63.66 166.36,62.78 167.68,62.08 169.00,61.56 170.32,61.21 171.64,61.05 172.96,61.06 174.28,61.26 175.60,61.62 176.92,62.16 178.24,62.88 179.56,63.76 180.88,64.80 182.20,66.00 183.52,67.36 184.84,68.86 186.16,70.52 187.48,72.31 188.80,74.23 190.12,76.28 191.44,78.45 192.76,80.73 194.08,83.13 195.40,85.62 196.72,88.21 198.04,90.89 199.36,93.65 200.68,96.48 202.00,99.39 203.32,102.36 204.64,105.39 205.96,108.47 207.28,111.60 208.60,114.77 209.92,117.98 211.24,121.22 212.56,124.48 213.88,127.78 215.20,131.09 216.52,134.42 217.84,137.76 219.16,141.11 220.48,144.47 221.80,147.83 223.12,151.20 224.44,154.56 225.76,157.92 227.08,161.28 228.40,164.63 229.72,167.98 231.04,171.31 232.36,174.63 233.68,177.95 235.00,181.24 236.32,184.53 237.64,187.80 238.96,191.06 240.28,194.30 241.60,197.52 242.92,200.73 244.24,203.92 245.56,207.09 246.88,210.24 248.20,213.37 249.52,216.49 250.84,219.58 252.16,222.65 253.48,225.71 254.80,228.74 256.12,231.75 257.44,234.73 258.76,237.70 260.08,240.64 261.40,243.55 262.72,246.44 264.04,249.31 265.36,252.14 266.68,254.95 268.00,257.73 269.32,260.48 270.64,263.20 271.96,265.88 273.28,268.53 274.60,271.14 275.92,273.72 277.24,276.26 278.56,278.75 279.88,281.20 281.20,283.61 282.52,285.98 283.84,288.29 285.16,290.55 286.48,292.76 287.80,294.92 289.12,297.02 290.44,299.06 291.76,301.03 293.08,302.95 294.40,304.80 295.72,306.58 297.04,308.29 298.36,309.92 299.68,311.49 301.00,312.97 302.32,314.38 303.64,315.71 304.96,316.95 306.28,318.12 307.60,319.19 308.92,320.18 310.24,321.08 311.56,321.89 312.88,322.61 314.20,323.24 315.52,323.78 316.84,324.22 318.16,324.57 319.48,324.83 320.80,325.00 322.12,325.07 323.44,325.05 324.76,324.94 326.08,324.74 327.40,324.44 328.72,324.06 330.04,323.59 331.36,323.04 332.68,322.40 334.00,321.67 335.32,320.87 336.64,319.99 337.96,319.03 339.28,318.00 340.60,316.89 341.92,315.71 343.24,314.47 344.56,313.16 345.88,311.79 347.20,310.36 348.52,308.88 349.84,307.34 351.16,305.74 352.48,304.10 353.80,302.41 355.12,300.68 356.44,298.91 357.76,297.10 359.08,295.25 360.40,293.38 361.72,291.46 363.04,289.52 364.36,287.56 365.68,285.57 367.00,283.56 368.32,281.52 369.64,279.47 370.96,277.41 372.28,275.33 373.60,273.23 374.92,271.13 376.24,269.02 377.56,266.90 378.88,264.77 380.20,262.64 381.52,260.50 382.84,258.36 384.16,256.22 385.48,254.08 386.80,251.94 388.12,249.80 389.44,247.67 390.76,245.54 392.08,243.41 393.40,241.29 394.72,239.17 396.04,237.06 397.36,234.95 398.68,232.85 400.00,230.77 401.32,228.68 402.64,226.61 403.96,224.55 405.28,222.49 406.60,220.45 407.92,218.41 409.24,216.39 410.56,214.38 411.88,212.38 413.20,210.39 414.52,208.41 415.84,206.44 417.16,204.49 418.48,202.55 419.80,200.62 421.12,198.70 422.44,196.80 423.76,194.91 425.08,193.04 426.40,191.18 427.72,189.33 429.04,187.50 430.36,185.69 431.68,183.89 433.00,182.11 434.32,180.34 435.64,178.59 436.96,176.86 438.28,175.15 439.60,173.45 440.92,171.77 442.24,170.11 443.56,168.48 444.88,166.86 446.20,165.26 447.52,163.69 448.84,162.13 450.16,160.60 451.48,159.10 452.80,157.61 454.12,156.15 455.44,154.72 456.76,153.31 458.08,151.93 459.40,150.58 460.72,149.26 462.04,147.96 463.36,146.69 464.68,145.46 466.00,144.25 467.32,143.08 468.64,141.94 469.96,140.83 471.28,139.75 472.60,138.71 473.92,137.71 475.24,136.74 476.56,135.81 477.88,134.91 479.20,134.06 480.52,133.24 481.84,132.46 483.16,131.72 484.48,131.02 485.80,130.36 487.12,129.74 488.44,129.17 489.76,128.63 491.08,128.14 492.40,127.69 493.72,127.28 495.04,126.92 496.36,126.59 497.68,126.32 499.00,126.08 500.32,125.89 501.64,125.74 502.96,125.63 504.28,125.57 505.60,125.55 506.92,125.57 508.24,125.63 509.56,125.74 510.88,125.89 512.20,126.07 513.52,126.30 514.84,126.57 516.16,126.88 517.48,127.23 518.80,127.61 520.12,128.04 521.44,128.50 522.76,128.99 524.08,129.53 525.40,130.09 526.72,130.69 528.04,131.33 529.36,132.00 530.68,132.69 532.00,133.42 533.32,134.18 534.64,134.97 535.96,135.78 537.28,136.62 538.60,137.49 539.92,138.38 541.24,139.30 542.56,140.24 543.88,141.20 545.20,142.18 546.52,143.18 547.84,144.20 549.16,145.25 550.48,146.30 551.80,147.38 553.12,148.47 554.44,149.57 555.76,150.69 557.08,151.83 558.40,152.97 559.72,154.13 561.04,155.30 562.36,156.47 563.68,157.66 565.00,158.86 566.32,160.06 567.64,161.27 568.96,162.49 570.28,163.71 571.60,164.94 572.92,166.17 574.24,167.41 575.56,168.65 576.88,169.90 578.20,171.14 579.52,172.39 580.84,173.64 582.16,174.89 583.48,176.14 584.80,177.40 586.12,178.65 587.44,179.90 588.76,181.15 590.08,182.40 591.40,183.65 592.72,184.89 594.04,186.14 595.36,187.38 596.68,188.61 598.00,189.85 599.32,191.08 600.64,192.30 601.96,193.53 603.28,194.75 604.60,195.96 605.92,197.17 607.24,198.37 608.56,199.57 609.88,200.77 611.20,201.96 612.52,203.14 613.84,204.32 615.16,205.49 616.48,206.65 617.80,207.81 619.12,208.96 620.44,210.10 621.76,211.24 623.08,212.37 624.40,213.49 625.72,214.61 627.04,215.72 628.36,216.82 629.68,217.91 631.00,219.00 632.32,220.07 633.64,221.14 634.96,222.20 636.28,223.25 637.60,224.29 638.92,225.32 640.24,226.35 641.56,227.36 642.88,228.37 644.20,229.36 645.52,230.34 646.84,231.32 648.16,232.28 649.48,233.24 650.80,234.18 652.12,235.11 653.44,236.04 654.76,236.95 656.08,237.85 657.40,238.73 658.72,239.61 660.04,240.48 661.36,241.33 662.68,242.17 664.00,242.99 665.32,243.81 666.64,244.61 667.96,245.40 669.28,246.17 670.60,246.94 671.92,247.69 673.24,248.42 674.56,249.14 675.88,249.85 677.20,250.54 678.52,251.21 679.84,251.88 681.16,252.52 682.48,253.15 683.80,253.77 685.12,254.37 686.44,254.95 687.76,255.52 689.08,256.08 690.40,256.61 691.72,257.13 693.04,257.63 694.36,258.12 695.68,258.59 697.00,259.04 698.32,259.48 699.64,259.89 700.96,260.29 702.28,260.68 703.60,261.04 704.92,261.39 706.24,261.72 707.56,262.03 708.88,262.32 710.20,262.60 711.52,262.86 712.84,263.09 714.16,263.32 715.48,263.52 716.80,263.70 718.12,263.87 719.44,264.02 720.76,264.15 722.08,264.26 723.40,264.35 724.72,264.43 726.04,264.49 727.36,264.53 728.68,264.55 730.00,264.56 731.32,264.54 732.64,264.51 733.96,264.46 735.28,264.40 736.60,264.32 737.92,264.22 739.24,264.10 740.56,263.97 741.88,263.82 743.20,263.65 744.52,263.47 745.84,263.28 747.16,263.06 748.48,262.84 749.80,262.59 751.12,262.33 752.44,262.06 753.76,261.77 755.08,261.47 756.40,261.15 757.72,260.82 759.04,260.48 760.36,260.13 761.68,259.76 763.00,259.37 764.32,258.98 765.64,258.57 766.96,258.15 768.28,257.72 769.60,257.28 770.92,256.83 772.24,256.37 773.56,255.90 774.88,255.41 776.20,254.92 777.52,254.42 778.84,253.90 780.16,253.38 781.48,252.85 782.80,252.32 784.12,251.77 785.44,251.22 786.76,250.66 788.08,250.09 789.40,249.51 790.72,248.93 792.04,248.34 793.36,247.75 794.68,247.15 796.00,246.54 797.32,245.93 798.64,245.31 799.96,244.69 801.28,244.06 802.60,243.43 803.92,242.80 805.24,242.16 806.56,241.52 807.88,240.87 809.20,240.22 810.52,239.57 811.84,238.92 813.16,238.26 814.48,237.60 815.80,236.94 817.12,236.27 818.44,235.61 819.76,234.94 821.08,234.27 822.40,233.60 823.72,232.93 825.04,232.26 826.36,231.59 827.68,230.92 829.00,230.25 830.32,229.57 831.64,228.90 832.96,228.23 834.28,227.56 835.60,226.89 836.92,226.22 838.24,225.55 839.56,224.88 840.88,224.21 842.20,223.54 843.52,222.88 844.84,222.21 846.16,221.55 847.48,220.89 848.80,220.23 850.12,219.57 851.44,218.92 852.76,218.27 854.08,217.62 855.40,216.97 856.72,216.32 858.04,215.68 859.36,215.04 860.68,214.40 862.00,213.77 863.32,213.14 864.64,212.51 865.96,211.89 867.28,211.26 868.60,210.65 869.92,210.03 871.24,209.42 872.56,208.81 873.88,208.21 875.20,207.61 876.52,207.01 877.84,206.42 879.16,205.83 880.48,205.25 881.80,204.67 883.12,204.10 884.44,203.53 885.76,202.96 887.08,202.40 888.40,201.84 889.72,201.29 891.04,200.74 892.36,200.20 893.68,199.66 895.00,199.13 896.32,198.60 897.64,198.08 898.96,197.56 900.28,197.05 901.60,196.54 902.92,196.04 904.24,195.55 905.56,195.06 906.88,194.57 908.20,194.10 909.52,193.62 910.84,193.16 912.16,192.70 913.48,192.24 914.80,191.79 916.12,191.35 917.44,190.91 918.76,190.48 920.08,190.06 921.40,189.64 922.72,189.23 924.04,188.83 925.36,188.43 926.68,188.04 928.00,187.65 929.32,187.27 930.64,186.90 931.96,186.54 933.28,186.18 934.60,185.83 935.92,185.48 937.24,185.15 938.56,184.82 939.88,184.49 941.20,184.18 942.52,183.87 943.84,183.57 945.16,183.28 946.48,182.99 947.80,182.71 949.12,182.44 950.44,182.17 951.76,181.92 953.08,181.67 954.40,181.42 955.72,181.19 957.04,180.96 958.36,180.74 959.68,180.53 961.00,180.33 962.32,180.13 963.64,179.94 964.96,179.76 966.28,179.58 967.60,179.42 968.92,179.26 970.24,179.11 971.56,178.96 972.88,178.83 974.20,178.70 975.52,178.58 976.84,178.47 978.16,178.36 979.48,178.26 980.80,178.17 982.12,178.09 983.44,178.02 984.76,177.95 986.08,177.89 987.40,177.84 988.72,177.79 990.04,177.76 991.36,177.73 992.68,177.70 994.00,177.69 995.32,177.68 996.64,177.68 997.96,177.68 999.28,177.70 1000.60,177.72 1001.92,177.75 1003.24,177.78 1004.56,177.82 1005.88,177.87 1007.20,177.93 1008.52,177.99 1009.84,178.06 1011.16,178.13 1012.48,178.22 1013.80,178.30 1015.12,178.40 1016.44,178.50 1017.76,178.61 1019.08,178.72 1020.40,178.84 1021.72,178.97 1023.04,179.10 1024.36,179.24 1025.68,179.38 1027.00,179.53 1028.32,179.69 1029.64,179.85 1030.96,180.02 1032.28,180.19 1033.60,180.37 1034.92,180.55 1036.24,180.74 1037.56,180.93 1038.88,181.13 1040.20,181.34 1041.52,181.54 1042.84,181.76 1044.16,181.97 1045.48,182.20 1046.80,182.42 1048.12,182.66 1049.44,182.89 1050.76,183.13 1052.08,183.37 1053.40,183.62 1054.72,183.87 1056.04,184.13 1057.36,184.39 1058.68,184.65 1060.00,184.92 1061.32,185.19 1062.64,185.47 1063.96,185.74 1065.28,186.02 1066.60,186.31 1067.92,186.59 1069.24,186.88 1070.56,187.17 1071.88,187.47 1073.20,187.77 1074.52,188.07 1075.84,188.37 1077.16,188.68 1078.48,188.98 1079.80,189.29 1081.12,189.61 1082.44,189.92 1083.76,190.24 1085.08,190.55 1086.40,190.87 1087.72,191.19 1089.04,191.52 1090.36,191.84 1091.68,192.17 1093.00,192.50 1094.32,192.83 1095.64,193.16 1096.96,193.49 1098.28,193.82 1099.60,194.15 1100.92,194.49 1102.24,194.82 1103.56,195.16 1104.88,195.49 1106.20,195.83 1107.52,196.17 1108.84,196.51 1110.16,196.85 1111.48,197.19 1112.80,197.52 1114.12,197.86 1115.44,198.20 1116.76,198.54 1118.08,198.88 1119.40,199.22 1120.72,199.56 1122.04,199.90 1123.36,200.24 1124.68,200.58 1126.00,200.92 1127.32,201.25 1128.64,201.59 1129.96,201.93 1131.28,202.26 1132.60,202.60 1133.92,202.93 1135.24,203.27 1136.56,203.60 1137.88,203.93 1139.20,204.26 1140.52,204.59 1141.84,204.92 1143.16,205.25 1144.48,205.58 1145.80,205.90 1147.12,206.23 1148.44,206.55 1149.76,206.87 1151.08,207.19 1152.40,207.51 1153.72,207.83 1155.04,208.14 1156.36,208.45 1157.68,208.77 1159.00,209.08 1160.32,209.38 1161.64,209.69 1162.96,210.00 1164.28,210.30 1165.60,210.60 1166.92,210.90 1168.24,211.19 1169.56,211.49" fill="none" stroke="#4D4D4D" stroke-width="3.2" stroke-opacity="0.55"/>
<polyline points="70.00,348.97 71.32,344.68 72.64,340.19 73.96,335.51 75.28,330.64 76.60,325.60 77.92,320.40 79.24,315.04 80.56,309.54 81.88,303.90 83.20,298.13 84.52,292.26 85.84,286.27 87.16,280.20 88.48,274.04 89.80,267.81 91.12,261.53 92.44,255.19 93.76,248.81 95.08,242.40 96.40,235.98 97.72,229.55 99.04,223.13 100.36,216.72 101.68,210.34 103.00,203.99 104.32,197.70 105.64,191.46 106.96,185.28 108.28,179.19 109.60,173.18 110.92,167.27 112.24,161.46 113.56,155.77 114.88,150.21 116.20,144.78 117.52,139.48 118.84,134.34 120.16,129.36 121.48,124.53 122.80,119.88 124.12,115.41 125.44,111.13 126.76,107.03 128.08,103.13 129.40,99.43 130.72,95.94 132.04,92.66 133.36,89.60 134.68,86.75 136.00,84.13 137.32,81.74 138.64,79.57 139.96,77.64 141.28,75.93 142.60,74.46 143.92,73.23 145.24,72.23 146.56,71.47 147.88,70.95 149.20,70.66 150.52,70.61 151.84,70.79 153.16,71.20 154.48,71.84 155.80,72.71 157.12,73.80 158.44,75.11 159.76,76.64 161.08,78.39 162.40,80.34 163.72,82.50 165.04,84.86 166.36,87.42 167.68,90.16 169.00,93.09 170.32,96.20 171.64,99.48 172.96,102.92 174.28,106.52 175.60,110.27 176.92,114.17 178.24,118.20 179.56,122.36 180.88,126.65 182.20,131.04 183.52,135.55 184.84,140.15 186.16,144.83 187.48,149.60 188.80,154.44 190.12,159.35 191.44,164.31 192.76,169.31 194.08,174.35 195.40,179.43 196.72,184.52 198.04,189.62 199.36,194.73 200.68,199.83 202.00,204.91 203.32,209.98 204.64,215.01 205.96,220.00 207.28,224.95 208.60,229.84 209.92,234.66 211.24,239.42 212.56,244.09 213.88,248.68 215.20,253.18 216.52,257.58 217.84,261.87 219.16,266.04 220.48,270.10 221.80,274.03 223.12,277.83 224.44,281.49 225.76,285.01 227.08,288.38 228.40,291.60 229.72,294.66 231.04,297.56 232.36,300.29 233.68,302.86 235.00,305.25 236.32,307.47 237.64,309.51 238.96,311.38 240.28,313.05 241.60,314.55 242.92,315.86 244.24,316.98 245.56,317.92 246.88,318.67 248.20,319.23 249.52,319.60 250.84,319.79 252.16,319.79 253.48,319.60 254.80,319.24 256.12,318.69 257.44,317.96 258.76,317.05 260.08,315.96 261.40,314.71 262.72,313.28 264.04,311.69 265.36,309.94 266.68,308.03 268.00,305.97 269.32,303.75 270.64,301.39 271.96,298.90 273.28,296.26 274.60,293.50 275.92,290.61 277.24,287.60 278.56,284.48 279.88,281.26 281.20,277.93 282.52,274.50 283.84,270.99 285.16,267.40 286.48,263.73 287.80,259.99 289.12,256.19 290.44,252.33 291.76,248.42 293.08,244.48 294.40,240.49 295.72,236.48 297.04,232.45 298.36,228.40 299.68,224.35 301.00,220.29 302.32,216.24 303.64,212.21 304.96,208.19 306.28,204.20 307.60,200.24 308.92,196.32 310.24,192.45 311.56,188.63 312.88,184.87 314.20,181.17 315.52,177.54 316.84,173.98 318.16,170.51 319.48,167.12 320.80,163.83 322.12,160.63 323.44,157.53 324.76,154.54 326.08,151.65 327.40,148.89 328.72,146.24 330.04,143.71 331.36,141.31 332.68,139.03 334.00,136.89 335.32,134.88 336.64,133.01 337.96,131.28 339.28,129.69 340.60,128.25 341.92,126.95 343.24,125.80 344.56,124.79 345.88,123.93 347.20,123.22 348.52,122.66 349.84,122.25 351.16,121.99 352.48,121.87 353.80,121.90 355.12,122.09 356.44,122.41 357.76,122.88 359.08,123.49 360.40,124.25 361.72,125.14 363.04,126.17 364.36,127.33 365.68,128.62 367.00,130.04 368.32,131.59 369.64,133.25 370.96,135.04 372.28,136.94 373.60,138.95 374.92,141.07 376.24,143.28 377.56,145.60 378.88,148.01 380.20,150.51 381.52,153.09 382.84,155.75 384.16,158.49 385.48,161.29 386.80,164.16 388.12,167.09 389.44,170.07 390.76,173.10 392.08,176.17 393.40,179.28 394.72,182.43 396.04,185.60 397.36,188.79 398.68,191.99 400.00,195.21 401.32,198.43 402.64,201.65 403.96,204.86 405.28,208.07 406.60,211.25 407.92,214.42 409.24,217.55 410.56,220.66 411.88,223.73 413.20,226.75 414.52,229.73 415.84,232.65 417.16,235.52 418.48,238.33 419.80,241.08 421.12,243.75 422.44,246.35 423.76,248.87 425.08,251.32 426.40,253.67 427.72,255.94 429.04,258.12 430.36,260.20 431.68,262.19 433.00,264.07 434.32,265.86 435.64,267.53 436.96,269.10 438.28,270.56 439.60,271.91 440.92,273.15 442.24,274.27 443.56,275.27 444.88,276.16 446.20,276.94 447.52,277.59 448.84,278.13 450.16,278.55 451.48,278.85 452.80,279.03 454.12,279.09 455.44,279.04 456.76,278.87 458.08,278.58 459.40,278.18 460.72,277.67 462.04,277.05 463.36,276.31 464.68,275.47 466.00,274.53 467.32,273.48 468.64,272.33 469.96,271.08 471.28,269.73 472.60,268.29 473.92,266.76 475.24,265.15 476.56,263.45 477.88,261.67 479.20,259.81 480.52,257.88 481.84,255.88 483.16,253.81 484.48,251.69 485.80,249.50 487.12,247.26 488.44,244.97 489.76,242.63 491.08,240.26 492.40,237.84 493.72,235.39 495.04,232.92 496.36,230.41 497.68,227.89 499.00,225.36 500.32,222.81 501.64,220.25 502.96,217.69 504.28,215.14 505.60,212.58 506.92,210.04 508.24,207.52 509.56,205.01 510.88,202.52 512.20,200.06 513.52,197.63 514.84,195.24 516.16,192.88 517.48,190.57 518.80,188.30 520.12,186.08 521.44,183.91 522.76,181.80 524.08,179.75 525.40,177.76 526.72,175.84 528.04,173.98 529.36,172.19 530.68,170.48 532.00,168.84 533.32,167.29 534.64,165.81 535.96,164.41 537.28,163.10 538.60,161.87 539.92,160.73 541.24,159.68 542.56,158.72 543.88,157.85 545.20,157.07 546.52,156.39 547.84,155.79 549.16,155.30 550.48,154.89 551.80,154.58 553.12,154.36 554.44,154.24 555.76,154.21 557.08,154.27 558.40,154.43 559.72,154.68 561.04,155.02 562.36,155.44 563.68,155.96 565.00,156.56 566.32,157.25 567.64,158.02 568.96,158.87 570.28,159.80 571.60,160.82 572.92,161.90 574.24,163.06 575.56,164.29 576.88,165.59 578.20,166.96 579.52,168.38 580.84,169.87 582.16,171.42 583.48,173.02 584.80,174.67 586.12,176.37 587.44,178.12 588.76,179.91 590.08,181.73 591.40,183.60 592.72,185.49 594.04,187.42 595.36,189.37 596.68,191.34 598.00,193.33 599.32,195.34 600.64,197.35 601.96,199.38 603.28,201.41 604.60,203.44 605.92,205.47 607.24,207.50 608.56,209.51 609.88,211.52 611.20,213.51 612.52,215.48 613.84,217.43 615.16,219.35 616.48,221.24 617.80,223.11 619.12,224.94 620.44,226.73 621.76,228.48 623.08,230.20 624.40,231.86 625.72,233.48 627.04,235.05 628.36,236.57 629.68,238.03 631.00,239.43 632.32,240.78 633.64,242.07 634.96,243.29 636.28,244.45 637.60,245.54 638.92,246.57 640.24,247.53 641.56,248.42 642.88,249.24 644.20,249.98 645.52,250.66 646.84,251.26 648.16,251.79 649.48,252.24 650.80,252.62 652.12,252.92 653.44,253.15 654.76,253.31 656.08,253.39 657.40,253.40 658.72,253.33 660.04,253.19 661.36,252.97 662.68,252.69 664.00,252.33 665.32,251.91 666.64,251.42 667.96,250.85 669.28,250.23 670.60,249.53 671.92,248.78 673.24,247.96 674.56,247.09 675.88,246.15 677.20,245.16 678.52,244.12 679.84,243.02 681.16,241.88 682.48,240.68 683.80,239.45 685.12,238.17 686.44,236.84 687.76,235.48 689.08,234.09 690.40,232.66 691.72,231.20 693.04,229.72 694.36,228.21 695.68,226.67 697.00,225.12 698.32,223.55 699.64,221.96 700.96,220.37 702.28,218.76 703.60,217.15 704.92,215.54 706.24,213.93 707.56,212.31 708.88,210.71 710.20,209.11 711.52,207.52 712.84,205.94 714.16,204.38 715.48,202.84 716.80,201.32 718.12,199.82 719.44,198.34 720.76,196.89 722.08,195.48 723.40,194.09 724.72,192.74 726.04,191.43 727.36,190.15 728.68,188.91 730.00,187.72 731.32,186.57 732.64,185.46 733.96,184.40 735.28,183.39 736.60,182.43 737.92,181.52 739.24,180.67 740.56,179.86 741.88,179.11 743.20,178.42 744.52,177.78 745.84,177.20 747.16,176.68 748.48,176.22 749.80,175.81 751.12,175.46 752.44,175.18 753.76,174.95 755.08,174.78 756.40,174.67 757.72,174.62 759.04,174.63 760.36,174.69 761.68,174.82 763.00,175.00 764.32,175.24 765.64,175.54 766.96,175.89 768.28,176.29 769.60,176.75 770.92,177.26 772.24,177.82 773.56,178.43 774.88,179.09 776.20,179.80 777.52,180.55 778.84,181.35 780.16,182.18 781.48,183.06 782.80,183.98 784.12,184.94 785.44,185.93 786.76,186.95 788.08,188.01 789.40,189.10 790.72,190.21 792.04,191.35 793.36,192.52 794.68,193.70 796.00,194.90 797.32,196.13 798.64,197.36 799.96,198.61 801.28,199.87 802.60,201.14 803.92,202.42 805.24,203.70 806.56,204.98 807.88,206.26 809.20,207.54 810.52,208.82 811.84,210.09 813.16,211.35 814.48,212.60 815.80,213.83 817.12,215.05 818.44,216.26 819.76,217.45 821.08,218.61 822.40,219.76 823.72,220.88 825.04,221.97 826.36,223.04 827.68,224.08 829.00,225.08 830.32,226.06 831.64,227.00 832.96,227.91 834.28,228.78 835.60,229.61 836.92,230.40 838.24,231.15 839.56,231.87 840.88,232.54 842.20,233.17 843.52,233.75 844.84,234.29 846.16,234.79 847.48,235.24 848.80,235.64 850.12,236.00 851.44,236.31 852.76,236.58 854.08,236.79 855.40,236.96 856.72,237.09 858.04,237.16 859.36,237.19 860.68,237.18 862.00,237.11 863.32,237.00 864.64,236.85 865.96,236.65 867.28,236.40 868.60,236.11 869.92,235.78 871.24,235.41 872.56,235.00 873.88,234.54 875.20,234.05 876.52,233.51 877.84,232.94 879.16,232.34 880.48,231.70 881.80,231.03 883.12,230.32 884.44,229.58 885.76,228.82 887.08,228.02 888.40,227.20 889.72,226.36 891.04,225.49 892.36,224.60 893.68,223.69 895.00,222.76 896.32,221.82 897.64,220.86 898.96,219.88 900.28,218.90 901.60,217.90 902.92,216.90 904.24,215.89 905.56,214.88 906.88,213.86 908.20,212.84 909.52,211.82 910.84,210.81 912.16,209.80 913.48,208.79 914.80,207.79 916.12,206.80 917.44,205.82 918.76,204.85 920.08,203.90 921.40,202.96 922.72,202.04 924.04,201.13 925.36,200.25 926.68,199.38 928.00,198.54 929.32,197.72 930.64,196.93 931.96,196.16 933.28,195.42 934.60,194.71 935.92,194.02 937.24,193.37 938.56,192.74 939.88,192.15 941.20,191.59 942.52,191.07 943.84,190.58 945.16,190.12 946.48,189.70 947.80,189.31 949.12,188.97 950.44,188.65 951.76,188.38 953.08,188.14 954.40,187.94 955.72,187.77 957.04,187.64 958.36,187.56 959.68,187.50 961.00,187.49 962.32,187.51 963.64,187.57 964.96,187.67 966.28,187.80 967.60,187.96 968.92,188.17 970.24,188.40 971.56,188.67 972.88,188.98 974.20,189.31 975.52,189.68 976.84,190.08 978.16,190.51 979.48,190.97 980.80,191.46 982.12,191.97 983.44,192.51 984.76,193.08 986.08,193.67 987.40,194.28 988.72,194.92 990.04,195.58 991.36,196.25 992.68,196.95 994.00,197.66 995.32,198.38 996.64,199.12 997.96,199.88 999.28,200.64 1000.60,201.42 1001.92,202.20 1003.24,202.99 1004.56,203.79 1005.88,204.59 1007.20,205.40 1008.52,206.21 1009.84,207.02 1011.16,207.82 1012.48,208.63 1013.80,209.43 1015.12,210.23 1016.44,211.02 1017.76,211.81 1019.08,212.58 1020.40,213.35 1021.72,214.11 1023.04,214.85 1024.36,215.58 1025.68,216.29 1027.00,216.99 1028.32,217.68 1029.64,218.34 1030.96,218.99 1032.28,219.61 1033.60,220.22 1034.92,220.80 1036.24,221.36 1037.56,221.90 1038.88,222.41 1040.20,222.90 1041.52,223.37 1042.84,223.81 1044.16,224.22 1045.48,224.60 1046.80,224.96 1048.12,225.28 1049.44,225.58 1050.76,225.86 1052.08,226.10 1053.40,226.31 1054.72,226.49 1056.04,226.65 1057.36,226.77 1058.68,226.86 1060.00,226.93 1061.32,226.96 1062.64,226.97 1063.96,226.94 1065.28,226.89 1066.60,226.81 1067.92,226.70 1069.24,226.56 1070.56,226.39 1071.88,226.20 1073.20,225.97 1074.52,225.73 1075.84,225.45 1077.16,225.16 1078.48,224.83 1079.80,224.49 1081.12,224.12 1082.44,223.72 1083.76,223.31 1085.08,222.88 1086.40,222.42 1087.72,221.95 1089.04,221.46 1090.36,220.95 1091.68,220.42 1093.00,219.88 1094.32,219.33 1095.64,218.76 1096.96,218.18 1098.28,217.59 1099.60,216.99 1100.92,216.38 1102.24,215.76 1103.56,215.14 1104.88,214.51 1106.20,213.88 1107.52,213.24 1108.84,212.60 1110.16,211.95 1111.48,211.31 1112.80,210.67 1114.12,210.03 1115.44,209.39 1116.76,208.76 1118.08,208.13 1119.40,207.51 1120.72,206.90 1122.04,206.29 1123.36,205.69 1124.68,205.10 1126.00,204.53 1127.32,203.96 1128.64,203.41 1129.96,202.87 1131.28,202.34 1132.60,201.84 1133.92,201.34 1135.24,200.86 1136.56,200.41 1137.88,199.96 1139.20,199.54 1140.52,199.14 1141.84,198.75 1143.16,198.39 1144.48,198.05 1145.80,197.72 1147.12,197.42 1148.44,197.15 1149.76,196.89 1151.08,196.66 1152.40,196.45 1153.72,196.26 1155.04,196.10 1156.36,195.96 1157.68,195.84 1159.00,195.75 1160.32,195.68 1161.64,195.63 1162.96,195.61 1164.28,195.61 1165.60,195.64 1166.92,195.69 1168.24,195.76 1169.56,195.85" fill="none" stroke="#E69F00" stroke-width="2.6" stroke-opacity="0.95"/>
<polyline points="70.00,348.97 71.32,344.72 72.64,340.36 73.96,335.90 75.28,331.36 76.60,326.73 77.92,322.04 79.24,317.28 80.56,312.48 81.88,307.64 83.20,302.77 84.52,297.87 85.84,292.96 87.16,288.03 88.48,283.09 89.80,278.15 91.12,273.22 92.44,268.29 93.76,263.37 95.08,258.46 96.40,253.57 97.72,248.69 99.04,243.84 100.36,239.00 101.68,234.19 103.00,229.40 104.32,224.64 105.64,219.90 106.96,215.19 108.28,210.50 109.60,205.84 110.92,201.22 112.24,196.62 113.56,192.05 114.88,187.51 116.20,183.00 117.52,178.53 118.84,174.09 120.16,169.68 121.48,165.31 122.80,160.98 124.12,156.69 125.44,152.44 126.76,148.23 128.08,144.08 129.40,139.97 130.72,135.91 132.04,131.91 133.36,127.97 134.68,124.09 136.00,120.28 137.32,116.54 138.64,112.88 139.96,109.30 141.28,105.80 142.60,102.40 143.92,99.09 145.24,95.88 146.56,92.78 147.88,89.79 149.20,86.92 150.52,84.18 151.84,81.57 153.16,79.09 154.48,76.75 155.80,74.55 157.12,72.51 158.44,70.62 159.76,68.89 161.08,67.33 162.40,65.93 163.72,64.71 165.04,63.66 166.36,62.78 167.68,62.08 169.00,61.56 170.32,61.21 171.64,61.05 172.96,61.06 174.28,61.26 175.60,61.62 176.92,62.16 178.24,62.88 179.56,63.76 180.88,64.80 182.20,66.00 183.52,67.36 184.84,68.86 186.16,70.52 187.48,72.31 188.80,74.23 190.12,76.28 191.44,78.45 192.76,80.73 194.08,83.13 195.40,85.62 196.72,88.21 198.04,90.89 199.36,93.65 200.68,96.48 202.00,99.39 203.32,102.36 204.64,105.39 205.96,108.47 207.28,111.60 208.60,114.77 209.92,117.98 211.24,121.22 212.56,124.48 213.88,127.78 215.20,131.09 216.52,134.42 217.84,137.76 219.16,141.11 220.48,144.47 221.80,147.83 223.12,151.20 224.44,154.56 225.76,157.92 227.08,161.28 228.40,164.63 229.72,167.98 231.04,171.31 232.36,174.63 233.68,177.95 235.00,181.24 236.32,184.53 237.64,187.80 238.96,191.06 240.28,194.30 241.60,197.52 242.92,200.73 244.24,203.92 245.56,207.09 246.88,210.24 248.20,213.37 249.52,216.49 250.84,219.58 252.16,222.65 253.48,225.71 254.80,228.74 256.12,231.75 257.44,234.73 258.76,237.70 260.08,240.64 261.40,243.55 262.72,246.44 264.04,249.31 265.36,252.14 266.68,254.95 268.00,257.73 269.32,260.48 270.64,263.20 271.96,265.88 273.28,268.53 274.60,271.14 275.92,273.72 277.24,276.26 278.56,278.75 279.88,281.20 281.20,283.61 282.52,285.98 283.84,288.29 285.16,290.55 286.48,292.76 287.80,294.92 289.12,297.02 290.44,299.06 291.76,301.03 293.08,302.95 294.40,304.80 295.72,306.58 297.04,308.29 298.36,309.92 299.68,311.49 301.00,312.97 302.32,314.38 303.64,315.71 304.96,316.95 306.28,318.12 307.60,319.19 308.92,320.18 310.24,321.08 311.56,321.89 312.88,322.61 314.20,323.24 315.52,323.78 316.84,324.22 318.16,324.57 319.48,324.83 320.80,325.00 322.12,325.07 323.44,325.05 324.76,324.94 326.08,324.74 327.40,324.44 328.72,324.06 330.04,323.59 331.36,323.04 332.68,322.40 334.00,321.67 335.32,320.87 336.64,319.99 337.96,319.03 339.28,318.00 340.60,316.89 341.92,315.71 343.24,314.47 344.56,313.16 345.88,311.79 347.20,310.36 348.52,308.88 349.84,307.34 351.16,305.74 352.48,304.10 353.80,302.41 355.12,300.68 356.44,298.91 357.76,297.10 359.08,295.25 360.40,293.38 361.72,291.46 363.04,289.52 364.36,287.56 365.68,285.57 367.00,283.56 368.32,281.52 369.64,279.47 370.96,277.41 372.28,275.33 373.60,273.23 374.92,271.13 376.24,269.02 377.56,266.90 378.88,264.77 380.20,262.64 381.52,260.50 382.84,258.36 384.16,256.22 385.48,254.08 386.80,251.94 388.12,249.80 389.44,247.67 390.76,245.54 392.08,243.41 393.40,241.29 394.72,239.17 396.04,237.06 397.36,234.95 398.68,232.85 400.00,230.77 401.32,228.68 402.64,226.61 403.96,224.55 405.28,222.49 406.60,220.45 407.92,218.41 409.24,216.39 410.56,214.38 411.88,212.38 413.20,210.39 414.52,208.41 415.84,206.44 417.16,204.49 418.48,202.55 419.80,200.62 421.12,198.70 422.44,196.80 423.76,194.91 425.08,193.04 426.40,191.18 427.72,189.33 429.04,187.50 430.36,185.69 431.68,183.89 433.00,182.11 434.32,180.34 435.64,178.59 436.96,176.86 438.28,175.15 439.60,173.45 440.92,171.77 442.24,170.11 443.56,168.48 444.88,166.86 446.20,165.26 447.52,163.69 448.84,162.13 450.16,160.60 451.48,159.10 452.80,157.61 454.12,156.15 455.44,154.72 456.76,153.31 458.08,151.93 459.40,150.58 460.72,149.26 462.04,147.96 463.36,146.69 464.68,145.46 466.00,144.25 467.32,143.08 468.64,141.94 469.96,140.83 471.28,139.75 472.60,138.71 473.92,137.71 475.24,136.74 476.56,135.81 477.88,134.91 479.20,134.06 480.52,133.24 481.84,132.46 483.16,131.72 484.48,131.02 485.80,130.36 487.12,129.74 488.44,129.17 489.76,128.63 491.08,128.14 492.40,127.69 493.72,127.28 495.04,126.92 496.36,126.59 497.68,126.32 499.00,126.08 500.32,125.89 501.64,125.74 502.96,125.63 504.28,125.57 505.60,125.55 506.92,125.57 508.24,125.63 509.56,125.74 510.88,125.89 512.20,126.07 513.52,126.30 514.84,126.57 516.16,126.88 517.48,127.23 518.80,127.61 520.12,128.04 521.44,128.50 522.76,128.99 524.08,129.53 525.40,130.09 526.72,130.69 528.04,131.33 529.36,132.00 530.68,132.69 532.00,133.42 533.32,134.18 534.64,134.97 535.96,135.78 537.28,136.62 538.60,137.49 539.92,138.38 541.24,139.30 542.56,140.24 543.88,141.20 545.20,142.18 546.52,143.18 547.84,144.20 549.16,145.25 550.48,146.30 551.80,147.38 553.12,148.47 554.44,149.57 555.76,150.69 557.08,151.83 558.40,152.97 559.72,154.13 561.04,155.30 562.36,156.47 563.68,157.66 565.00,158.86 566.32,160.06 567.64,161.27 568.96,162.49 570.28,163.71 571.60,164.94 572.92,166.17 574.24,167.41 575.56,168.65 576.88,169.90 578.20,171.14 579.52,172.39 580.84,173.64 582.16,174.89 583.48,176.14 584.80,177.40 586.12,178.65 587.44,179.90 588.76,181.15 590.08,182.40 591.40,183.65 592.72,184.89 594.04,186.14 595.36,187.38 596.68,188.61 598.00,189.85 599.32,191.08 600.64,192.30 601.96,193.53 603.28,194.75 604.60,195.96 605.92,197.17 607.24,198.37 608.56,199.57 609.88,200.77 611.20,201.96 612.52,203.14 613.84,204.32 615.16,205.49 616.48,206.65 617.80,207.81 619.12,208.96 620.44,210.10 621.76,211.24 623.08,212.37 624.40,213.49 625.72,214.61 627.04,215.72 628.36,216.82 629.68,217.91 631.00,219.00 632.32,220.07 633.64,221.14 634.96,222.20 636.28,223.25 637.60,224.29 638.92,225.32 640.24,226.35 641.56,227.36 642.88,228.37 644.20,229.36 645.52,230.34 646.84,231.32 648.16,232.28 649.48,233.24 650.80,234.18 652.12,235.11 653.44,236.04 654.76,236.95 656.08,237.85 657.40,238.73 658.72,239.61 660.04,240.48 661.36,241.33 662.68,242.17 664.00,242.99 665.32,243.81 666.64,244.61 667.96,245.40 669.28,246.17 670.60,246.94 671.92,247.69 673.24,248.42 674.56,249.14 675.88,249.85 677.20,250.54 678.52,251.21 679.84,251.88 681.16,252.52 682.48,253.15 683.80,253.77 685.12,254.37 686.44,254.95 687.76,255.52 689.08,256.08 690.40,256.61 691.72,257.13 693.04,257.63 694.36,258.12 695.68,258.59 697.00,259.04 698.32,259.48 699.64,259.89 700.96,260.29 702.28,260.68 703.60,261.04 704.92,261.39 706.24,261.72 707.56,262.03 708.88,262.32 710.20,262.60 711.52,262.86 712.84,263.09 714.16,263.32 715.48,263.52 716.80,263.70 718.12,263.87 719.44,264.02 720.76,264.15 722.08,264.26 723.40,264.35 724.72,264.43 726.04,264.49 727.36,264.53 728.68,264.55 730.00,264.56 731.32,264.54 732.64,264.51 733.96,264.46 735.28,264.40 736.60,264.32 737.92,264.22 739.24,264.10 740.56,263.97 741.88,263.82 743.20,263.65 744.52,263.47 745.84,263.28 747.16,263.06 748.48,262.84 749.80,262.59 751.12,262.33 752.44,262.06 753.76,261.77 755.08,261.47 756.40,261.15 757.72,260.82 759.04,260.48 760.36,260.13 761.68,259.76 763.00,259.37 764.32,258.98 765.64,258.57 766.96,258.15 768.28,257.72 769.60,257.28 770.92,256.83 772.24,256.37 773.56,255.90 774.88,255.41 776.20,254.92 777.52,254.42 778.84,253.90 780.16,253.38 781.48,252.85 782.80,252.32 784.12,251.77 785.44,251.22 786.76,250.66 788.08,250.09 789.40,249.51 790.72,248.93 792.04,248.34 793.36,247.75 794.68,247.15 796.00,246.54 797.32,245.93 798.64,245.31 799.96,244.69 801.28,244.06 802.60,243.43 803.92,242.80 805.24,242.16 806.56,241.52 807.88,240.87 809.20,240.22 810.52,239.57 811.84,238.92 813.16,238.26 814.48,237.60 815.80,236.94 817.12,236.27 818.44,235.61 819.76,234.94 821.08,234.27 822.40,233.60 823.72,232.93 825.04,232.26 826.36,231.59 827.68,230.92 829.00,230.25 830.32,229.57 831.64,228.90 832.96,228.23 834.28,227.56 835.60,226.89 836.92,226.22 838.24,225.55 839.56,224.88 840.88,224.21 842.20,223.54 843.52,222.88 844.84,222.21 846.16,221.55 847.48,220.89 848.80,220.23 850.12,219.57 851.44,218.92 852.76,218.27 854.08,217.62 855.40,216.97 856.72,216.32 858.04,215.68 859.36,215.04 860.68,214.40 862.00,213.77 863.32,213.14 864.64,212.51 865.96,211.89 867.28,211.26 868.60,210.65 869.92,210.03 871.24,209.42 872.56,208.81 873.88,208.21 875.20,207.61 876.52,207.01 877.84,206.42 879.16,205.83 880.48,205.25 881.80,204.67 883.12,204.10 884.44,203.53 885.76,202.96 887.08,202.40 888.40,201.84 889.72,201.29 891.04,200.74 892.36,200.20 893.68,199.66 895.00,199.13 896.32,198.60 897.64,198.08 898.96,197.56 900.28,197.05 901.60,196.54 902.92,196.04 904.24,195.55 905.56,195.06 906.88,194.57 908.20,194.10 909.52,193.62 910.84,193.16 912.16,192.70 913.48,192.24 914.80,191.79 916.12,191.35 917.44,190.91 918.76,190.48 920.08,190.06 921.40,189.64 922.72,189.23 924.04,188.83 925.36,188.43 926.68,188.04 928.00,187.65 929.32,187.27 930.64,186.90 931.96,186.54 933.28,186.18 934.60,185.83 935.92,185.48 937.24,185.15 938.56,184.82 939.88,184.49 941.20,184.18 942.52,183.87 943.84,183.57 945.16,183.28 946.48,182.99 947.80,182.71 949.12,182.44 950.44,182.17 951.76,181.92 953.08,181.67 954.40,181.42 955.72,181.19 957.04,180.96 958.36,180.74 959.68,180.53 961.00,180.33 962.32,180.13 963.64,179.94 964.96,179.76 966.28,179.58 967.60,179.42 968.92,179.26 970.24,179.11 971.56,178.96 972.88,178.83 974.20,178.70 975.52,178.58 976.84,178.47 978.16,178.36 979.48,178.26 980.80,178.17 982.12,178.09 983.44,178.02 984.76,177.95 986.08,177.89 987.40,177.84 988.72,177.79 990.04,177.76 991.36,177.73 992.68,177.70 994.00,177.69 995.32,177.68 996.64,177.68 997.96,177.68 999.28,177.70 1000.60,177.72 1001.92,177.75 1003.24,177.78 1004.56,177.82 1005.88,177.87 1007.20,177.93 1008.52,177.99 1009.84,178.06 1011.16,178.13 1012.48,178.22 1013.80,178.30 1015.12,178.40 1016.44,178.50 1017.76,178.61 1019.08,178.72 1020.40,178.84 1021.72,178.97 1023.04,179.10 1024.36,179.24 1025.68,179.38 1027.00,179.53 1028.32,179.69 1029.64,179.85 1030.96,180.02 1032.28,180.19 1033.60,180.37 1034.92,180.55 1036.24,180.74 1037.56,180.93 1038.88,181.13 1040.20,181.34 1041.52,181.54 1042.84,181.76 1044.16,181.97 1045.48,182.20 1046.80,182.42 1048.12,182.66 1049.44,182.89 1050.76,183.13 1052.08,183.37 1053.40,183.62 1054.72,183.87 1056.04,184.13 1057.36,184.39 1058.68,184.65 1060.00,184.92 1061.32,185.19 1062.64,185.47 1063.96,185.74 1065.28,186.02 1066.60,186.31 1067.92,186.59 1069.24,186.88 1070.56,187.17 1071.88,187.47 1073.20,187.77 1074.52,188.07 1075.84,188.37 1077.16,188.68 1078.48,188.98 1079.80,189.29 1081.12,189.61 1082.44,189.92 1083.76,190.24 1085.08,190.55 1086.40,190.87 1087.72,191.19 1089.04,191.52 1090.36,191.84 1091.68,192.17 1093.00,192.50 1094.32,192.83 1095.64,193.16 1096.96,193.49 1098.28,193.82 1099.60,194.15 1100.92,194.49 1102.24,194.82 1103.56,195.16 1104.88,195.49 1106.20,195.83 1107.52,196.17 1108.84,196.51 1110.16,196.85 1111.48,197.19 1112.80,197.52 1114.12,197.86 1115.44,198.20 1116.76,198.54 1118.08,198.88 1119.40,199.22 1120.72,199.56 1122.04,199.90 1123.36,200.24 1124.68,200.58 1126.00,200.92 1127.32,201.25 1128.64,201.59 1129.96,201.93 1131.28,202.26 1132.60,202.60 1133.92,202.93 1135.24,203.27 1136.56,203.60 1137.88,203.93 1139.20,204.26 1140.52,204.59 1141.84,204.92 1143.16,205.25 1144.48,205.58 1145.80,205.90 1147.12,206.23 1148.44,206.55 1149.76,206.87 1151.08,207.19 1152.40,207.51 1153.72,207.83 1155.04,208.14 1156.36,208.45 1157.68,208.77 1159.00,209.08 1160.32,209.38 1161.64,209.69 1162.96,210.00 1164.28,210.30 1165.60,210.60 1166.92,210.90 1168.24,211.19 1169.56,211.49" fill="none" stroke="#0072B2" stroke-width="2.4" stroke-opacity="0.95" stroke-dasharray="2 4"/>
<polyline points="70.00,348.97 71.32,344.72 72.64,340.36 73.96,335.90 75.28,331.36 76.60,326.73 77.92,322.04 79.24,317.28 80.56,312.48 81.88,307.64 83.20,302.77 84.52,297.87 85.84,292.96 87.16,288.03 88.48,283.09 89.80,278.15 91.12,273.22 92.44,268.29 93.76,263.37 95.08,258.46 96.40,253.57 97.72,248.69 99.04,243.84 100.36,239.00 101.68,234.19 103.00,229.40 104.32,224.64 105.64,219.90 106.96,215.19 108.28,210.50 109.60,205.84 110.92,201.22 112.24,196.62 113.56,192.05 114.88,187.51 116.20,183.00 117.52,178.53 118.84,174.09 120.16,169.68 121.48,165.31 122.80,160.98 124.12,156.69 125.44,152.44 126.76,148.23 128.08,144.08 129.40,139.97 130.72,135.91 132.04,131.91 133.36,127.97 134.68,124.09 136.00,120.28 137.32,116.54 138.64,112.88 139.96,109.30 141.28,105.80 142.60,102.40 143.92,99.09 145.24,95.88 146.56,92.78 147.88,89.79 149.20,86.92 150.52,84.18 151.84,81.57 153.16,79.09 154.48,76.75 155.80,74.55 157.12,72.51 158.44,70.62 159.76,68.89 161.08,67.33 162.40,65.93 163.72,64.71 165.04,63.66 166.36,62.78 167.68,62.08 169.00,61.56 170.32,61.21 171.64,61.05 172.96,61.06 174.28,61.26 175.60,61.62 176.92,62.16 178.24,62.88 179.56,63.76 180.88,64.80 182.20,66.00 183.52,67.36 184.84,68.86 186.16,70.52 187.48,72.31 188.80,74.23 190.12,76.28 191.44,78.45 192.76,80.73 194.08,83.13 195.40,85.62 196.72,88.21 198.04,90.89 199.36,93.65 200.68,96.48 202.00,99.39 203.32,102.36 204.64,105.39 205.96,108.47 207.28,111.60 208.60,114.77 209.92,117.98 211.24,121.22 212.56,124.48 213.88,127.78 215.20,131.09 216.52,134.42 217.84,137.76 219.16,141.11 220.48,144.47 221.80,147.83 223.12,151.20 224.44,154.56 225.76,157.92 227.08,161.28 228.40,164.63 229.72,167.98 231.04,171.31 232.36,174.63 233.68,177.95 235.00,181.24 236.32,184.53 237.64,187.80 238.96,191.06 240.28,194.30 241.60,197.52 242.92,200.73 244.24,203.92 245.56,207.09 246.88,210.24 248.20,213.37 249.52,216.49 250.84,219.58 252.16,222.65 253.48,225.71 254.80,228.74 256.12,231.75 257.44,234.73 258.76,237.70 260.08,240.64 261.40,243.55 262.72,246.44 264.04,249.31 265.36,252.14 266.68,254.95 268.00,257.73 269.32,260.48 270.64,263.20 271.96,265.88 273.28,268.53 274.60,271.14 275.92,273.72 277.24,276.26 278.56,278.75 279.88,281.20 281.20,283.61 282.52,285.98 283.84,288.29 285.16,290.55 286.48,292.76 287.80,294.92 289.12,297.02 290.44,299.06 291.76,301.03 293.08,302.95 294.40,304.80 295.72,306.58 297.04,308.29 298.36,309.92 299.68,311.49 301.00,312.97 302.32,314.38 303.64,315.71 304.96,316.95 306.28,318.12 307.60,319.19 308.92,320.18 310.24,321.08 311.56,321.89 312.88,322.61 314.20,323.24 315.52,323.78 316.84,324.22 318.16,324.57 319.48,324.83 320.80,325.00 322.12,325.07 323.44,325.05 324.76,324.94 326.08,324.74 327.40,324.44 328.72,324.06 330.04,323.59 331.36,323.04 332.68,322.40 334.00,321.67 335.32,320.87 336.64,319.99 337.96,319.03 339.28,318.00 340.60,316.89 341.92,315.71 343.24,314.47 344.56,313.16 345.88,311.79 347.20,310.36 348.52,308.88 349.84,307.34 351.16,305.74 352.48,304.10 353.80,302.41 355.12,300.68 356.44,298.91 357.76,297.10 359.08,295.25 360.40,293.38 361.72,291.46 363.04,289.52 364.36,287.56 365.68,285.57 367.00,283.56 368.32,281.52 369.64,279.47 370.96,277.41 372.28,275.33 373.60,273.23 374.92,271.13 376.24,269.02 377.56,266.90 378.88,264.77 380.20,262.64 381.52,260.50 382.84,258.36 384.16,256.22 385.48,254.08 386.80,251.94 388.12,249.80 389.44,247.67 390.76,245.54 392.08,243.41 393.40,241.29 394.72,239.17 396.04,237.06 397.36,234.95 398.68,232.85 400.00,230.77 401.32,228.68 402.64,226.61 403.96,224.55 405.28,222.49 406.60,220.45 407.92,218.41 409.24,216.39 410.56,214.38 411.88,212.38 413.20,210.39 414.52,208.41 415.84,206.44 417.16,204.49 418.48,202.55 419.80,200.62 421.12,198.70 422.44,196.80 423.76,194.91 425.08,193.04 426.40,191.18 427.72,189.33 429.04,187.50 430.36,185.69 431.68,183.89 433.00,182.11 434.32,180.34 435.64,178.59 436.96,176.86 438.28,175.15 439.60,173.45 440.92,171.77 442.24,170.11 443.56,168.48 444.88,166.86 446.20,165.26 447.52,163.69 448.84,162.13 450.16,160.60 451.48,159.10 452.80,157.61 454.12,156.15 455.44,154.72 456.76,153.31 458.08,151.93 459.40,150.58 460.72,149.26 462.04,147.96 463.36,146.69 464.68,145.46 466.00,144.25 467.32,143.08 468.64,141.94 469.96,140.83 471.28,139.75 472.60,138.71 473.92,137.71 475.24,136.74 476.56,135.81 477.88,134.91 479.20,134.06 480.52,133.24 481.84,132.46 483.16,131.72 484.48,131.02 485.80,130.36 487.12,129.74 488.44,129.17 489.76,128.63 491.08,128.14 492.40,127.69 493.72,127.28 495.04,126.92 496.36,126.59 497.68,126.32 499.00,126.08 500.32,125.89 501.64,125.74 502.96,125.63 504.28,125.57 505.60,125.55 506.92,125.57 508.24,125.63 509.56,125.74 510.88,125.89 512.20,126.07 513.52,126.30 514.84,126.57 516.16,126.88 517.48,127.23 518.80,127.61 520.12,128.04 521.44,128.50 522.76,128.99 524.08,129.53 525.40,130.09 526.72,130.69 528.04,131.33 529.36,132.00 530.68,132.69 532.00,133.42 533.32,134.18 534.64,134.97 535.96,135.78 537.28,136.62 538.60,137.49 539.92,138.38 541.24,139.30 542.56,140.24 543.88,141.20 545.20,142.18 546.52,143.18 547.84,144.20 549.16,145.25 550.48,146.30 551.80,147.38 553.12,148.47 554.44,149.57 555.76,150.69 557.08,151.83 558.40,152.97 559.72,154.13 561.04,155.30 562.36,156.47 563.68,157.66 565.00,158.86 566.32,160.06 567.64,161.27 568.96,162.49 570.28,163.71 571.60,164.94 572.92,166.17 574.24,167.41 575.56,168.65 576.88,169.90 578.20,171.14 579.52,172.39 580.84,173.64 582.16,174.89 583.48,176.14 584.80,177.40 586.12,178.65 587.44,179.90 588.76,181.15 590.08,182.40 591.40,183.65 592.72,184.89 594.04,186.14 595.36,187.38 596.68,188.61 598.00,189.85 599.32,191.08 600.64,192.30 601.96,193.53 603.28,194.75 604.60,195.96 605.92,197.17 607.24,198.37 608.56,199.57 609.88,200.77 611.20,201.96 612.52,203.14 613.84,204.32 615.16,205.49 616.48,206.65 617.80,207.81 619.12,208.96 620.44,210.10 621.76,211.24 623.08,212.37 624.40,213.49 625.72,214.61 627.04,215.72 628.36,216.82 629.68,217.91 631.00,219.00 632.32,220.07 633.64,221.14 634.96,222.20 636.28,223.25 637.60,224.29 638.92,225.32 640.24,226.35 641.56,227.36 642.88,228.37 644.20,229.36 645.52,230.34 646.84,231.32 648.16,232.28 649.48,233.24 650.80,234.18 652.12,235.11 653.44,236.04 654.76,236.95 656.08,237.85 657.40,238.73 658.72,239.61 660.04,240.48 661.36,241.33 662.68,242.17 664.00,242.99 665.32,243.81 666.64,244.61 667.96,245.40 669.28,246.17 670.60,246.94 671.92,247.69 673.24,248.42 674.56,249.14 675.88,249.85 677.20,250.54 678.52,251.21 679.84,251.88 681.16,252.52 682.48,253.15 683.80,253.77 685.12,254.37 686.44,254.95 687.76,255.52 689.08,256.08 690.40,256.61 691.72,257.13 693.04,257.63 694.36,258.12 695.68,258.59 697.00,259.04 698.32,259.48 699.64,259.89 700.96,260.29 702.28,260.68 703.60,261.04 704.92,261.39 706.24,261.72 707.56,262.03 708.88,262.32 710.20,262.60 711.52,262.86 712.84,263.09 714.16,263.32 715.48,263.52 716.80,263.70 718.12,263.87 719.44,264.02 720.76,264.15 722.08,264.26 723.40,264.35 724.72,264.43 726.04,264.49 727.36,264.53 728.68,264.55 730.00,264.56 731.32,264.54 732.64,264.51 733.96,264.46 735.28,264.40 736.60,264.32 737.92,264.22 739.24,264.10 740.56,263.97 741.88,263.82 743.20,263.65 744.52,263.47 745.84,263.28 747.16,263.06 748.48,262.84 749.80,262.59 751.12,262.33 752.44,262.06 753.76,261.77 755.08,261.47 756.40,261.15 757.72,260.82 759.04,260.48 760.36,260.13 761.68,259.76 763.00,259.37 764.32,258.98 765.64,258.57 766.96,258.15 768.28,257.72 769.60,257.28 770.92,256.83 772.24,256.37 773.56,255.90 774.88,255.41 776.20,254.92 777.52,254.42 778.84,253.90 780.16,253.38 781.48,252.85 782.80,252.32 784.12,251.77 785.44,251.22 786.76,250.66 788.08,250.09 789.40,249.51 790.72,248.93 792.04,248.34 793.36,247.75 794.68,247.15 796.00,246.54 797.32,245.93 798.64,245.31 799.96,244.69 801.28,244.06 802.60,243.43 803.92,242.80 805.24,242.16 806.56,241.52 807.88,240.87 809.20,240.22 810.52,239.57 811.84,238.92 813.16,238.26 814.48,237.60 815.80,236.94 817.12,236.27 818.44,235.61 819.76,234.94 821.08,234.27 822.40,233.60 823.72,232.93 825.04,232.26 826.36,231.59 827.68,230.92 829.00,230.25 830.32,229.57 831.64,228.90 832.96,228.23 834.28,227.56 835.60,226.89 836.92,226.22 838.24,225.55 839.56,224.88 840.88,224.21 842.20,223.54 843.52,222.88 844.84,222.21 846.16,221.55 847.48,220.89 848.80,220.23 850.12,219.57 851.44,218.92 852.76,218.27 854.08,217.62 855.40,216.97 856.72,216.32 858.04,215.68 859.36,215.04 860.68,214.40 862.00,213.77 863.32,213.14 864.64,212.51 865.96,211.89 867.28,211.26 868.60,210.65 869.92,210.03 871.24,209.42 872.56,208.81 873.88,208.21 875.20,207.61 876.52,207.01 877.84,206.42 879.16,205.83 880.48,205.25 881.80,204.67 883.12,204.10 884.44,203.53 885.76,202.96 887.08,202.40 888.40,201.84 889.72,201.29 891.04,200.74 892.36,200.20 893.68,199.66 895.00,199.13 896.32,198.60 897.64,198.08 898.96,197.56 900.28,197.05 901.60,196.54 902.92,196.04 904.24,195.55 905.56,195.06 906.88,194.57 908.20,194.10 909.52,193.62 910.84,193.16 912.16,192.70 913.48,192.24 914.80,191.79 916.12,191.35 917.44,190.91 918.76,190.48 920.08,190.06 921.40,189.64 922.72,189.23 924.04,188.83 925.36,188.43 926.68,188.04 928.00,187.65 929.32,187.27 930.64,186.90 931.96,186.54 933.28,186.18 934.60,185.83 935.92,185.48 937.24,185.15 938.56,184.82 939.88,184.49 941.20,184.18 942.52,183.87 943.84,183.57 945.16,183.28 946.48,182.99 947.80,182.71 949.12,182.44 950.44,182.17 951.76,181.92 953.08,181.67 954.40,181.42 955.72,181.19 957.04,180.96 958.36,180.74 959.68,180.53 961.00,180.33 962.32,180.13 963.64,179.94 964.96,179.76 966.28,179.58 967.60,179.42 968.92,179.26 970.24,179.11 971.56,178.96 972.88,178.83 974.20,178.70 975.52,178.58 976.84,178.47 978.16,178.36 979.48,178.26 980.80,178.17 982.12,178.09 983.44,178.02 984.76,177.95 986.08,177.89 987.40,177.84 988.72,177.79 990.04,177.76 991.36,177.73 992.68,177.70 994.00,177.69 995.32,177.68 996.64,177.68 997.96,177.68 999.28,177.70 1000.60,177.72 1001.92,177.75 1003.24,177.78 1004.56,177.82 1005.88,177.87 1007.20,177.93 1008.52,177.99 1009.84,178.06 1011.16,178.13 1012.48,178.22 1013.80,178.30 1015.12,178.40 1016.44,178.50 1017.76,178.61 1019.08,178.72 1020.40,178.84 1021.72,178.97 1023.04,179.10 1024.36,179.24 1025.68,179.38 1027.00,179.53 1028.32,179.69 1029.64,179.85 1030.96,180.02 1032.28,180.19 1033.60,180.37 1034.92,180.55 1036.24,180.74 1037.56,180.93 1038.88,181.13 1040.20,181.34 1041.52,181.54 1042.84,181.76 1044.16,181.97 1045.48,182.20 1046.80,182.42 1048.12,182.66 1049.44,182.89 1050.76,183.13 1052.08,183.37 1053.40,183.62 1054.72,183.87 1056.04,184.13 1057.36,184.39 1058.68,184.65 1060.00,184.92 1061.32,185.19 1062.64,185.47 1063.96,185.74 1065.28,186.02 1066.60,186.31 1067.92,186.59 1069.24,186.88 1070.56,187.17 1071.88,187.47 1073.20,187.77 1074.52,188.07 1075.84,188.37 1077.16,188.68 1078.48,188.98 1079.80,189.29 1081.12,189.61 1082.44,189.92 1083.76,190.24 1085.08,190.55 1086.40,190.87 1087.72,191.19 1089.04,191.52 1090.36,191.84 1091.68,192.17 1093.00,192.50 1094.32,192.83 1095.64,193.16 1096.96,193.49 1098.28,193.82 1099.60,194.15 1100.92,194.49 1102.24,194.82 1103.56,195.16 1104.88,195.49 1106.20,195.83 1107.52,196.17 1108.84,196.51 1110.16,196.85 1111.48,197.19 1112.80,197.52 1114.12,197.86 1115.44,198.20 1116.76,198.54 1118.08,198.88 1119.40,199.22 1120.72,199.56 1122.04,199.90 1123.36,200.24 1124.68,200.58 1126.00,200.92 1127.32,201.25 1128.64,201.59 1129.96,201.93 1131.28,202.26 1132.60,202.60 1133.92,202.93 1135.24,203.27 1136.56,203.60 1137.88,203.93 1139.20,204.26 1140.52,204.59 1141.84,204.92 1143.16,205.25 1144.48,205.58 1145.80,205.90 1147.12,206.23 1148.44,206.55 1149.76,206.87 1151.08,207.19 1152.40,207.51 1153.72,207.83 1155.04,208.14 1156.36,208.45 1157.68,208.77 1159.00,209.08 1160.32,209.38 1161.64,209.69 1162.96,210.00 1164.28,210.30 1165.60,210.60 1166.92,210.90 1168.24,211.19 1169.56,211.49" fill="none" stroke="#CC79A7" stroke-width="2.4" stroke-opacity="0.95" stroke-dasharray="10 3 2 3"/>
<polyline points="70.00,348.97 71.32,344.72 72.64,340.36 73.96,335.90 75.28,331.36 76.60,326.73 77.92,322.04 79.24,317.28 80.56,312.48 81.88,307.64 83.20,302.77 84.52,297.87 85.84,292.96 87.16,288.03 88.48,283.09 89.80,278.15 91.12,273.22 92.44,268.29 93.76,263.37 95.08,258.46 96.40,253.57 97.72,248.69 99.04,243.84 100.36,239.00 101.68,234.19 103.00,229.40 104.32,224.64 105.64,219.90 106.96,215.19 108.28,210.50 109.60,205.84 110.92,201.22 112.24,196.62 113.56,192.05 114.88,187.51 116.20,183.00 117.52,178.53 118.84,174.09 120.16,169.68 121.48,165.31 122.80,160.98 124.12,156.69 125.44,152.44 126.76,148.23 128.08,144.08 129.40,139.97 130.72,135.91 132.04,131.91 133.36,127.97 134.68,124.09 136.00,120.28 137.32,116.54 138.64,112.88 139.96,109.30 141.28,105.80 142.60,102.40 143.92,99.09 145.24,95.88 146.56,92.78 147.88,89.79 149.20,86.92 150.52,84.18 151.84,81.57 153.16,79.09 154.48,76.75 155.80,74.55 157.12,72.51 158.44,70.62 159.76,68.89 161.08,67.33 162.40,65.93 163.72,64.71 165.04,63.66 166.36,62.78 167.68,62.08 169.00,61.56 170.32,61.21 171.64,61.05 172.96,61.06 174.28,61.26 175.60,61.62 176.92,62.16 178.24,62.88 179.56,63.76 180.88,64.80 182.20,66.00 183.52,67.36 184.84,68.86 186.16,70.52 187.48,72.31 188.80,74.23 190.12,76.28 191.44,78.45 192.76,80.73 194.08,83.13 195.40,85.62 196.72,88.21 198.04,90.89 199.36,93.65 200.68,96.48 202.00,99.39 203.32,102.36 204.64,105.39 205.96,108.47 207.28,111.60 208.60,114.77 209.92,117.98 211.24,121.22 212.56,124.48 213.88,127.78 215.20,131.09 216.52,134.42 217.84,137.76 219.16,141.11 220.48,144.47 221.80,147.83 223.12,151.20 224.44,154.56 225.76,157.92 227.08,161.28 228.40,164.63 229.72,167.98 231.04,171.31 232.36,174.63 233.68,177.95 235.00,181.24 236.32,184.53 237.64,187.80 238.96,191.06 240.28,194.30 241.60,197.52 242.92,200.73 244.24,203.92 245.56,207.09 246.88,210.24 248.20,213.37 249.52,216.49 250.84,219.58 252.16,222.65 253.48,225.71 254.80,228.74 256.12,231.75 257.44,234.73 258.76,237.70 260.08,240.64 261.40,243.55 262.72,246.44 264.04,249.31 265.36,252.14 266.68,254.95 268.00,257.73 269.32,260.48 270.64,263.20 271.96,265.88 273.28,268.53 274.60,271.14 275.92,273.72 277.24,276.26 278.56,278.75 279.88,281.20 281.20,283.61 282.52,285.98 283.84,288.29 285.16,290.55 286.48,292.76 287.80,294.92 289.12,297.02 290.44,299.06 291.76,301.03 293.08,302.95 294.40,304.80 295.72,306.58 297.04,308.29 298.36,309.92 299.68,311.49 301.00,312.97 302.32,314.38 303.64,315.71 304.96,316.95 306.28,318.12 307.60,319.19 308.92,320.18 310.24,321.08 311.56,321.89 312.88,322.61 314.20,323.24 315.52,323.78 316.84,324.22 318.16,324.57 319.48,324.83 320.80,325.00 322.12,325.07 323.44,325.05 324.76,324.94 326.08,324.74 327.40,324.44 328.72,324.06 330.04,323.59 331.36,323.04 332.68,322.40 334.00,321.67 335.32,320.87 336.64,319.99 337.96,319.03 339.28,318.00 340.60,316.89 341.92,315.71 343.24,314.47 344.56,313.16 345.88,311.79 347.20,310.36 348.52,308.88 349.84,307.34 351.16,305.74 352.48,304.10 353.80,302.41 355.12,300.68 356.44,298.91 357.76,297.10 359.08,295.25 360.40,293.38 361.72,291.46 363.04,289.52 364.36,287.56 365.68,285.57 367.00,283.56 368.32,281.52 369.64,279.47 370.96,277.41 372.28,275.33 373.60,273.23 374.92,271.13 376.24,269.02 377.56,266.90 378.88,264.77 380.20,262.64 381.52,260.50 382.84,258.36 384.16,256.22 385.48,254.08 386.80,251.94 388.12,249.80 389.44,247.67 390.76,245.54 392.08,243.41 393.40,241.29 394.72,239.17 396.04,237.06 397.36,234.95 398.68,232.85 400.00,230.77 401.32,228.68 402.64,226.61 403.96,224.55 405.28,222.49 406.60,220.45 407.92,218.41 409.24,216.39 410.56,214.38 411.88,212.38 413.20,210.39 414.52,208.41 415.84,206.44 417.16,204.49 418.48,202.55 419.80,200.62 421.12,198.70 422.44,196.80 423.76,194.91 425.08,193.04 426.40,191.18 427.72,189.33 429.04,187.50 430.36,185.69 431.68,183.89 433.00,182.11 434.32,180.34 435.64,178.59 436.96,176.86 438.28,175.15 439.60,173.45 440.92,171.77 442.24,170.11 443.56,168.48 444.88,166.86 446.20,165.26 447.52,163.69 448.84,162.13 450.16,160.60 451.48,159.10 452.80,157.61 454.12,156.15 455.44,154.72 456.76,153.31 458.08,151.93 459.40,150.58 460.72,149.26 462.04,147.96 463.36,146.69 464.68,145.46 466.00,144.25 467.32,143.08 468.64,141.94 469.96,140.83 471.28,139.75 472.60,138.71 473.92,137.71 475.24,136.74 476.56,135.81 477.88,134.91 479.20,134.06 480.52,133.24 481.84,132.46 483.16,131.72 484.48,131.02 485.80,130.36 487.12,129.74 488.44,129.17 489.76,128.63 491.08,128.14 492.40,127.69 493.72,127.28 495.04,126.92 496.36,126.59 497.68,126.32 499.00,126.08 500.32,125.89 501.64,125.74 502.96,125.63 504.28,125.57 505.60,125.55 506.92,125.57 508.24,125.63 509.56,125.74 510.88,125.89 512.20,126.07 513.52,126.30 514.84,126.57 516.16,126.88 517.48,127.23 518.80,127.61 520.12,128.04 521.44,128.50 522.76,128.99 524.08,129.53 525.40,130.09 526.72,130.69 528.04,131.33 529.36,132.00 530.68,132.69 532.00,133.42 533.32,134.18 534.64,134.97 535.96,135.78 537.28,136.62 538.60,137.49 539.92,138.38 541.24,139.30 542.56,140.24 543.88,141.20 545.20,142.18 546.52,143.18 547.84,144.20 549.16,145.25 550.48,146.30 551.80,147.38 553.12,148.47 554.44,149.57 555.76,150.69 557.08,151.83 558.40,152.97 559.72,154.13 561.04,155.30 562.36,156.47 563.68,157.66 565.00,158.86 566.32,160.06 567.64,161.27 568.96,162.49 570.28,163.71 571.60,164.94 572.92,166.17 574.24,167.41 575.56,168.65 576.88,169.90 578.20,171.14 579.52,172.39 580.84,173.64 582.16,174.89 583.48,176.14 584.80,177.40 586.12,178.65 587.44,179.90 588.76,181.15 590.08,182.40 591.40,183.65 592.72,184.89 594.04,186.14 595.36,187.38 596.68,188.61 598.00,189.85 599.32,191.08 600.64,192.30 601.96,193.53 603.28,194.75 604.60,195.96 605.92,197.17 607.24,198.37 608.56,199.57 609.88,200.77 611.20,201.96 612.52,203.14 613.84,204.32 615.16,205.49 616.48,206.65 617.80,207.81 619.12,208.96 620.44,210.10 621.76,211.24 623.08,212.37 624.40,213.49 625.72,214.61 627.04,215.72 628.36,216.82 629.68,217.91 631.00,219.00 632.32,220.07 633.64,221.14 634.96,222.20 636.28,223.25 637.60,224.29 638.92,225.32 640.24,226.35 641.56,227.36 642.88,228.37 644.20,229.36 645.52,230.34 646.84,231.32 648.16,232.28 649.48,233.24 650.80,234.18 652.12,235.11 653.44,236.04 654.76,236.95 656.08,237.85 657.40,238.73 658.72,239.61 660.04,240.48 661.36,241.33 662.68,242.17 664.00,242.99 665.32,243.81 666.64,244.61 667.96,245.40 669.28,246.17 670.60,246.94 671.92,247.69 673.24,248.42 674.56,249.14 675.88,249.85 677.20,250.54 678.52,251.21 679.84,251.88 681.16,252.52 682.48,253.15 683.80,253.77 685.12,254.37 686.44,254.95 687.76,255.52 689.08,256.08 690.40,256.61 691.72,257.13 693.04,257.63 694.36,258.12 695.68,258.59 697.00,259.04 698.32,259.48 699.64,259.89 700.96,260.29 702.28,260.68 703.60,261.04 704.92,261.39 706.24,261.72 707.56,262.03 708.88,262.32 710.20,262.60 711.52,262.86 712.84,263.09 714.16,263.32 715.48,263.52 716.80,263.70 718.12,263.87 719.44,264.02 720.76,264.15 722.08,264.26 723.40,264.35 724.72,264.43 726.04,264.49 727.36,264.53 728.68,264.55 730.00,264.56 731.32,264.54 732.64,264.51 733.96,264.46 735.28,264.40 736.60,264.32 737.92,264.22 739.24,264.10 740.56,263.97 741.88,263.82 743.20,263.65 744.52,263.47 745.84,263.28 747.16,263.06 748.48,262.84 749.80,262.59 751.12,262.33 752.44,262.06 753.76,261.77 755.08,261.47 756.40,261.15 757.72,260.82 759.04,260.48 760.36,260.13 761.68,259.76 763.00,259.37 764.32,258.98 765.64,258.57 766.96,258.15 768.28,257.72 769.60,257.28 770.92,256.83 772.24,256.37 773.56,255.90 774.88,255.41 776.20,254.92 777.52,254.42 778.84,253.90 780.16,253.38 781.48,252.85 782.80,252.32 784.12,251.77 785.44,251.22 786.76,250.66 788.08,250.09 789.40,249.51 790.72,248.93 792.04,248.34 793.36,247.75 794.68,247.15 796.00,246.54 797.32,245.93 798.64,245.31 799.96,244.69 801.28,244.06 802.60,243.43 803.92,242.80 805.24,242.16 806.56,241.52 807.88,240.87 809.20,240.22 810.52,239.57 811.84,238.92 813.16,238.26 814.48,237.60 815.80,236.94 817.12,236.27 818.44,235.61 819.76,234.94 821.08,234.27 822.40,233.60 823.72,232.93 825.04,232.26 826.36,231.59 827.68,230.92 829.00,230.25 830.32,229.57 831.64,228.90 832.96,228.23 834.28,227.56 835.60,226.89 836.92,226.22 838.24,225.55 839.56,224.88 840.88,224.21 842.20,223.54 843.52,222.88 844.84,222.21 846.16,221.55 847.48,220.89 848.80,220.23 850.12,219.57 851.44,218.92 852.76,218.27 854.08,217.62 855.40,216.97 856.72,216.32 858.04,215.68 859.36,215.04 860.68,214.40 862.00,213.77 863.32,213.14 864.64,212.51 865.96,211.89 867.28,211.26 868.60,210.65 869.92,210.03 871.24,209.42 872.56,208.81 873.88,208.21 875.20,207.61 876.52,207.01 877.84,206.42 879.16,205.83 880.48,205.25 881.80,204.67 883.12,204.10 884.44,203.53 885.76,202.96 887.08,202.40 888.40,201.84 889.72,201.29 891.04,200.74 892.36,200.20 893.68,199.66 895.00,199.13 896.32,198.60 897.64,198.08 898.96,197.56 900.28,197.05 901.60,196.54 902.92,196.04 904.24,195.55 905.56,195.06 906.88,194.57 908.20,194.10 909.52,193.62 910.84,193.16 912.16,192.70 913.48,192.24 914.80,191.79 916.12,191.35 917.44,190.91 918.76,190.48 920.08,190.06 921.40,189.64 922.72,189.23 924.04,188.83 925.36,188.43 926.68,188.04 928.00,187.65 929.32,187.27 930.64,186.90 931.96,186.54 933.28,186.18 934.60,185.83 935.92,185.48 937.24,185.15 938.56,184.82 939.88,184.49 941.20,184.18 942.52,183.87 943.84,183.57 945.16,183.28 946.48,182.99 947.80,182.71 949.12,182.44 950.44,182.17 951.76,181.92 953.08,181.67 954.40,181.42 955.72,181.19 957.04,180.96 958.36,180.74 959.68,180.53 961.00,180.33 962.32,180.13 963.64,179.94 964.96,179.76 966.28,179.58 967.60,179.42 968.92,179.26 970.24,179.11 971.56,178.96 972.88,178.83 974.20,178.70 975.52,178.58 976.84,178.47 978.16,178.36 979.48,178.26 980.80,178.17 982.12,178.09 983.44,178.02 984.76,177.95 986.08,177.89 987.40,177.84 988.72,177.79 990.04,177.76 991.36,177.73 992.68,177.70 994.00,177.69 995.32,177.68 996.64,177.68 997.96,177.68 999.28,177.70 1000.60,177.72 1001.92,177.75 1003.24,177.78 1004.56,177.82 1005.88,177.87 1007.20,177.93 1008.52,177.99 1009.84,178.06 1011.16,178.13 1012.48,178.22 1013.80,178.30 1015.12,178.40 1016.44,178.50 1017.76,178.61 1019.08,178.72 1020.40,178.84 1021.72,178.97 1023.04,179.10 1024.36,179.24 1025.68,179.38 1027.00,179.53 1028.32,179.69 1029.64,179.85 1030.96,180.02 1032.28,180.19 1033.60,180.37 1034.92,180.55 1036.24,180.74 1037.56,180.93 1038.88,181.13 1040.20,181.34 1041.52,181.54 1042.84,181.76 1044.16,181.97 1045.48,182.20 1046.80,182.42 1048.12,182.66 1049.44,182.89 1050.76,183.13 1052.08,183.37 1053.40,183.62 1054.72,183.87 1056.04,184.13 1057.36,184.39 1058.68,184.65 1060.00,184.92 1061.32,185.19 1062.64,185.47 1063.96,185.74 1065.28,186.02 1066.60,186.31 1067.92,186.59 1069.24,186.88 1070.56,187.17 1071.88,187.47 1073.20,187.77 1074.52,188.07 1075.84,188.37 1077.16,188.68 1078.48,188.98 1079.80,189.29 1081.12,189.61 1082.44,189.92 1083.76,190.24 1085.08,190.55 1086.40,190.87 1087.72,191.19 1089.04,191.52 1090.36,191.84 1091.68,192.17 1093.00,192.50 1094.32,192.83 1095.64,193.16 1096.96,193.49 1098.28,193.82 1099.60,194.15 1100.92,194.49 1102.24,194.82 1103.56,195.16 1104.88,195.49 1106.20,195.83 1107.52,196.17 1108.84,196.51 1110.16,196.85 1111.48,197.19 1112.80,197.52 1114.12,197.86 1115.44,198.20 1116.76,198.54 1118.08,198.88 1119.40,199.22 1120.72,199.56 1122.04,199.90 1123.36,200.24 1124.68,200.58 1126.00,200.92 1127.32,201.25 1128.64,201.59 1129.96,201.93 1131.28,202.26 1132.60,202.60 1133.92,202.93 1135.24,203.27 1136.56,203.60 1137.88,203.93 1139.20,204.26 1140.52,204.59 1141.84,204.92 1143.16,205.25 1144.48,205.58 1145.80,205.90 1147.12,206.23 1148.44,206.55 1149.76,206.87 1151.08,207.19 1152.40,207.51 1153.72,207.83 1155.04,208.14 1156.36,208.45 1157.68,208.77 1159.00,209.08 1160.32,209.38 1161.64,209.69 1162.96,210.00 1164.28,210.30 1165.60,210.60 1166.92,210.90 1168.24,211.19 1169.56,211.49" fill="none" stroke="#009E73" stroke-width="2.8" stroke-opacity="1.0" stroke-dasharray="12 5"/>
<line x1="82" y1="48" x2="104" y2="48" stroke="#4D4D4D" stroke-width="3.2" stroke-opacity="0.55"/>
<text x="110" y="52" font-family="Arial" font-size="12">Reference trajectory from full equation</text>
<line x1="82" y1="66" x2="104" y2="66" stroke="#E69F00" stroke-width="2.6" stroke-opacity="0.95"/>
<text x="110" y="70" font-family="Arial" font-size="12">Simplified constant-stiffness model</text>
<line x1="82" y1="84" x2="104" y2="84" stroke="#0072B2" stroke-width="2.4" stroke-opacity="0.95" stroke-dasharray="2 4"/>
<text x="110" y="88" font-family="Arial" font-size="12">Full SINDy vector-field model</text>
<line x1="82" y1="102" x2="104" y2="102" stroke="#CC79A7" stroke-width="2.4" stroke-opacity="0.95" stroke-dasharray="10 3 2 3"/>
<text x="110" y="106" font-family="Arial" font-size="12">Free residual SINDy model</text>
<line x1="82" y1="120" x2="104" y2="120" stroke="#009E73" stroke-width="2.8" stroke-opacity="1.0" stroke-dasharray="12 5"/>
<text x="110" y="124" font-family="Arial" font-size="12">Slot-constrained coefficient SINDy model</text>
</svg>