<svg xmlns="http://www.w3.org/2000/svg" width="1260" height="460" viewBox="0 0 1260 460">
  <rect width="1260" height="460" fill="#ffffff"/>
  <text x="86" y="36" font-family="Noto Sans CJK SC, DejaVu Sans, Arial" font-size="20" fill="#111827">BATT-4c selected dynamic pilot RMSE</text>
  <rect x="86.0" y="70.0" width="820.0" height="320.0" fill="#ffffff" stroke="#d1d5db"/>
  <line x1="86.0" y1="390.0" x2="906.0" y2="390.0" stroke="#6b7280"/>
  <line x1="86.0" y1="70.0" x2="86.0" y2="390.0" stroke="#6b7280"/>
  <text x="25" y="230.0" transform="rotate(-90 25 230.0)" text-anchor="middle" font-family="Noto Sans CJK SC, DejaVu Sans, Arial" font-size="13" fill="#374151">RMSE (mV)</text>
  <rect x="140.50" y="362.75" width="28.00" height="27.25" fill="#6b7280"/><rect x="174.50" y="363.08" width="28.00" height="26.92" fill="#2563eb"/><rect x="208.50" y="363.07" width="28.00" height="26.93" fill="#dc2626"/><text x="188.50" y="420" text-anchor="middle" font-family="Noto Sans CJK SC, DejaVu Sans, Arial" font-size="12" fill="#374151">Train</text><rect x="345.50" y="342.98" width="28.00" height="47.02" fill="#6b7280"/><rect x="379.50" y="343.28" width="28.00" height="46.72" fill="#2563eb"/><rect x="413.50" y="343.28" width="28.00" height="46.72" fill="#dc2626"/><text x="393.50" y="420" text-anchor="middle" font-family="Noto Sans CJK SC, DejaVu Sans, Arial" font-size="12" fill="#374151">Held-out T</text><rect x="550.50" y="374.25" width="28.00" height="15.75" fill="#6b7280"/><rect x="584.50" y="375.90" width="28.00" height="14.10" fill="#2563eb"/><rect x="618.50" y="377.14" width="28.00" height="12.86" fill="#dc2626"/><text x="598.50" y="420" text-anchor="middle" font-family="Noto Sans CJK SC, DejaVu Sans, Arial" font-size="12" fill="#374151">High amp.</text><rect x="755.50" y="104.29" width="28.00" height="285.71" fill="#6b7280"/><rect x="789.50" y="104.47" width="28.00" height="285.53" fill="#2563eb"/><rect x="823.50" y="104.47" width="28.00" height="285.53" fill="#dc2626"/><text x="803.50" y="420" text-anchor="middle" font-family="Noto Sans CJK SC, DejaVu Sans, Arial" font-size="12" fill="#374151">Cell transfer</text>
  <rect x="930" y="78" width="17" height="11" fill="#6b7280"/><text x="956" y="88" font-family="Noto Sans CJK SC, DejaVu Sans, Arial" font-size="11" fill="#111827">BATT-4a2 R0(T)</text><rect x="930" y="104" width="17" height="11" fill="#2563eb"/><text x="956" y="114" font-family="Noto Sans CJK SC, DejaVu Sans, Arial" font-size="11" fill="#111827">BATT-4c q_tau=50s</text><rect x="930" y="130" width="17" height="11" fill="#dc2626"/><text x="956" y="140" font-family="Noto Sans CJK SC, DejaVu Sans, Arial" font-size="11" fill="#111827">BATT-4c q_tau=20s</text>
</svg>
