<svg xmlns="http://www.w3.org/2000/svg" width="1200" height="430" viewBox="0 0 1200 430">
<rect width="100%" height="100%" fill="white"/>
<text x="600" y="24" text-anchor="middle" font-family="Arial" font-size="18">E1b recovered p_c(x1, mu) slices</text>
<line x1="70" y1="372" x2="1170" y2="372" stroke="#333" stroke-width="1"/>
<line x1="70" y1="38" x2="70" y2="372" stroke="#333" stroke-width="1"/>
<text x="620" y="416" text-anchor="middle" font-family="Arial" font-size="13">x1</text>
<text transform="translate(18,205) rotate(-90)" text-anchor="middle" font-family="Arial" font-size="13">p_c(x1, mu)</text>
<line x1="70.00" y1="372" x2="70.00" y2="377" stroke="#333"/>
<text x="70.00" y="392" text-anchor="middle" font-family="Arial" font-size="11">-3.0</text>
<line x1="290.00" y1="372" x2="290.00" y2="377" stroke="#333"/>
<text x="290.00" y="392" text-anchor="middle" font-family="Arial" font-size="11">-1.8</text>
<line x1="510.00" y1="372" x2="510.00" y2="377" stroke="#333"/>
<text x="510.00" y="392" text-anchor="middle" font-family="Arial" font-size="11">-0.6</text>
<line x1="730.00" y1="372" x2="730.00" y2="377" stroke="#333"/>
<text x="730.00" y="392" text-anchor="middle" font-family="Arial" font-size="11">0.6</text>
<line x1="950.00" y1="372" x2="950.00" y2="377" stroke="#333"/>
<text x="950.00" y="392" text-anchor="middle" font-family="Arial" font-size="11">1.8</text>
<line x1="1170.00" y1="372" x2="1170.00" y2="377" stroke="#333"/>
<text x="1170.00" y="392" text-anchor="middle" font-family="Arial" font-size="11">3.0</text>
<line x1="65" y1="372.00" x2="70" y2="372.00" stroke="#333"/>
<text x="62" y="376.00" text-anchor="end" font-family="Arial" font-size="11">-43.60</text>
<line x1="65" y1="288.50" x2="70" y2="288.50" stroke="#333"/>
<text x="62" y="292.50" text-anchor="end" font-family="Arial" font-size="11">-30.55</text>
<line x1="65" y1="205.00" x2="70" y2="205.00" stroke="#333"/>
<text x="62" y="209.00" text-anchor="end" font-family="Arial" font-size="11">-17.50</text>
<line x1="65" y1="121.50" x2="70" y2="121.50" stroke="#333"/>
<text x="62" y="125.50" text-anchor="end" font-family="Arial" font-size="11">-4.45</text>
<line x1="65" y1="38.00" x2="70" y2="38.00" stroke="#333"/>
<text x="62" y="42.00" text-anchor="end" font-family="Arial" font-size="11">8.60</text>
<polyline points="70.00,169.81 71.83,169.23 73.67,168.66 75.50,168.09 77.33,167.52 79.17,166.95 81.00,166.39 82.83,165.82 84.67,165.26 86.50,164.70 88.33,164.15 90.17,163.59 92.00,163.04 93.83,162.48 95.67,161.93 97.50,161.39 99.33,160.84 101.17,160.30 103.00,159.75 104.83,159.21 106.67,158.68 108.50,158.14 110.33,157.60 112.17,157.07 114.00,156.54 115.83,156.01 117.67,155.48 119.50,154.96 121.33,154.44 123.17,153.92 125.00,153.40 126.83,152.88 128.67,152.36 130.50,151.85 132.33,151.34 134.17,150.83 136.00,150.32 137.83,149.82 139.67,149.31 141.50,148.81 143.33,148.31 145.17,147.81 147.00,147.32 148.83,146.82 150.67,146.33 152.50,145.84 154.33,145.35 156.17,144.86 158.00,144.38 159.83,143.90 161.67,143.41 163.50,142.94 165.33,142.46 167.17,141.98 169.00,141.51 170.83,141.04 172.67,140.57 174.50,140.10 176.33,139.64 178.17,139.17 180.00,138.71 181.83,138.25 183.67,137.79 185.50,137.34 187.33,136.88 189.17,136.43 191.00,135.98 192.83,135.53 194.67,135.09 196.50,134.64 198.33,134.20 200.17,133.76 202.00,133.32 203.83,132.89 205.67,132.45 207.50,132.02 209.33,131.59 211.17,131.16 213.00,130.73 214.83,130.31 216.67,129.88 218.50,129.46 220.33,129.04 222.17,128.62 224.00,128.21 225.83,127.79 227.67,127.38 229.50,126.97 231.33,126.57 233.17,126.16 235.00,125.75 236.83,125.35 238.67,124.95 240.50,124.55 242.33,124.16 244.17,123.76 246.00,123.37 247.83,122.98 249.67,122.59 251.50,122.20 253.33,121.82 255.17,121.44 257.00,121.06 258.83,120.68 260.67,120.30 262.50,119.92 264.33,119.55 266.17,119.18 268.00,118.81 269.83,118.44 271.67,118.08 273.50,117.71 275.33,117.35 277.17,116.99 279.00,116.63 280.83,116.28 282.67,115.92 284.50,115.57 286.33,115.22 288.17,114.87 290.00,114.53 291.83,114.18 293.67,113.84 295.50,113.50 297.33,113.16 299.17,112.82 301.00,112.49 302.83,112.15 304.67,111.82 306.50,111.49 308.33,111.17 310.17,110.84 312.00,110.52 313.83,110.20 315.67,109.88 317.50,109.56 319.33,109.24 321.17,108.93 323.00,108.62 324.83,108.31 326.67,108.00 328.50,107.69 330.33,107.39 332.17,107.09 334.00,106.79 335.83,106.49 337.67,106.19 339.50,105.90 341.33,105.60 343.17,105.31 345.00,105.02 346.83,104.74 348.67,104.45 350.50,104.17 352.33,103.89 354.17,103.61 356.00,103.33 357.83,103.06 359.67,102.78 361.50,102.51 363.33,102.24 365.17,101.97 367.00,101.71 368.83,101.44 370.67,101.18 372.50,100.92 374.33,100.66 376.17,100.41 378.00,100.15 379.83,99.90 381.67,99.65 383.50,99.40 385.33,99.15 387.17,98.91 389.00,98.67 390.83,98.43 392.67,98.19 394.50,97.95 396.33,97.71 398.17,97.48 400.00,97.25 401.83,97.02 403.67,96.79 405.50,96.57 407.33,96.34 409.17,96.12 411.00,95.90 412.83,95.68 414.67,95.47 416.50,95.25 418.33,95.04 420.17,94.83 422.00,94.62 423.83,94.42 425.67,94.21 427.50,94.01 429.33,93.81 431.17,93.61 433.00,93.41 434.83,93.22 436.67,93.03 438.50,92.84 440.33,92.65 442.17,92.46 444.00,92.27 445.83,92.09 447.67,91.91 449.50,91.73 451.33,91.55 453.17,91.38 455.00,91.20 456.83,91.03 458.67,90.86 460.50,90.69 462.33,90.53 464.17,90.36 466.00,90.20 467.83,90.04 469.67,89.88 471.50,89.73 473.33,89.57 475.17,89.42 477.00,89.27 478.83,89.12 480.67,88.97 482.50,88.83 484.33,88.68 486.17,88.54 488.00,88.40 489.83,88.27 491.67,88.13 493.50,88.00 495.33,87.87 497.17,87.74 499.00,87.61 500.83,87.48 502.67,87.36 504.50,87.24 506.33,87.12 508.17,87.00 510.00,86.88 511.83,86.77 513.67,86.66 515.50,86.55 517.33,86.44 519.17,86.33 521.00,86.23 522.83,86.13 524.67,86.02 526.50,85.93 528.33,85.83 530.17,85.73 532.00,85.64 533.83,85.55 535.67,85.46 537.50,85.37 539.33,85.29 541.17,85.20 543.00,85.12 544.83,85.04 546.67,84.96 548.50,84.89 550.33,84.82 552.17,84.74 554.00,84.67 555.83,84.60 557.67,84.54 559.50,84.47 561.33,84.41 563.17,84.35 565.00,84.29 566.83,84.24 568.67,84.18 570.50,84.13 572.33,84.08 574.17,84.03 576.00,83.98 577.83,83.94 579.67,83.89 581.50,83.85 583.33,83.81 585.17,83.78 587.00,83.74 588.83,83.71 590.67,83.67 592.50,83.65 594.33,83.62 596.17,83.59 598.00,83.57 599.83,83.55 601.67,83.53 603.50,83.51 605.33,83.49 607.17,83.48 609.00,83.46 610.83,83.45 612.67,83.44 614.50,83.44 616.33,83.43 618.17,83.43 620.00,83.43 621.83,83.43 623.67,83.43 625.50,83.44 627.33,83.44 629.17,83.45 631.00,83.46 632.83,83.48 634.67,83.49 636.50,83.51 638.33,83.53 640.17,83.55 642.00,83.57 643.83,83.59 645.67,83.62 647.50,83.65 649.33,83.67 651.17,83.71 653.00,83.74 654.83,83.78 656.67,83.81 658.50,83.85 660.33,83.89 662.17,83.94 664.00,83.98 665.83,84.03 667.67,84.08 669.50,84.13 671.33,84.18 673.17,84.24 675.00,84.29 676.83,84.35 678.67,84.41 680.50,84.47 682.33,84.54 684.17,84.60 686.00,84.67 687.83,84.74 689.67,84.82 691.50,84.89 693.33,84.96 695.17,85.04 697.00,85.12 698.83,85.20 700.67,85.29 702.50,85.37 704.33,85.46 706.17,85.55 708.00,85.64 709.83,85.73 711.67,85.83 713.50,85.93 715.33,86.02 717.17,86.13 719.00,86.23 720.83,86.33 722.67,86.44 724.50,86.55 726.33,86.66 728.17,86.77 730.00,86.88 731.83,87.00 733.67,87.12 735.50,87.24 737.33,87.36 739.17,87.48 741.00,87.61 742.83,87.74 744.67,87.87 746.50,88.00 748.33,88.13 750.17,88.27 752.00,88.40 753.83,88.54 755.67,88.68 757.50,88.83 759.33,88.97 761.17,89.12 763.00,89.27 764.83,89.42 766.67,89.57 768.50,89.73 770.33,89.88 772.17,90.04 774.00,90.20 775.83,90.36 777.67,90.53 779.50,90.69 781.33,90.86 783.17,91.03 785.00,91.20 786.83,91.38 788.67,91.55 790.50,91.73 792.33,91.91 794.17,92.09 796.00,92.27 797.83,92.46 799.67,92.65 801.50,92.84 803.33,93.03 805.17,93.22 807.00,93.41 808.83,93.61 810.67,93.81 812.50,94.01 814.33,94.21 816.17,94.42 818.00,94.62 819.83,94.83 821.67,95.04 823.50,95.25 825.33,95.47 827.17,95.68 829.00,95.90 830.83,96.12 832.67,96.34 834.50,96.57 836.33,96.79 838.17,97.02 840.00,97.25 841.83,97.48 843.67,97.71 845.50,97.95 847.33,98.19 849.17,98.43 851.00,98.67 852.83,98.91 854.67,99.15 856.50,99.40 858.33,99.65 860.17,99.90 862.00,100.15 863.83,100.41 865.67,100.66 867.50,100.92 869.33,101.18 871.17,101.44 873.00,101.71 874.83,101.97 876.67,102.24 878.50,102.51 880.33,102.78 882.17,103.06 884.00,103.33 885.83,103.61 887.67,103.89 889.50,104.17 891.33,104.45 893.17,104.74 895.00,105.02 896.83,105.31 898.67,105.60 900.50,105.90 902.33,106.19 904.17,106.49 906.00,106.79 907.83,107.09 909.67,107.39 911.50,107.69 913.33,108.00 915.17,108.31 917.00,108.62 918.83,108.93 920.67,109.24 922.50,109.56 924.33,109.88 926.17,110.20 928.00,110.52 929.83,110.84 931.67,111.17 933.50,111.49 935.33,111.82 937.17,112.15 939.00,112.49 940.83,112.82 942.67,113.16 944.50,113.50 946.33,113.84 948.17,114.18 950.00,114.53 951.83,114.87 953.67,115.22 955.50,115.57 957.33,115.92 959.17,116.28 961.00,116.63 962.83,116.99 964.67,117.35 966.50,117.71 968.33,118.08 970.17,118.44 972.00,118.81 973.83,119.18 975.67,119.55 977.50,119.92 979.33,120.30 981.17,120.68 983.00,121.06 984.83,121.44 986.67,121.82 988.50,122.20 990.33,122.59 992.17,122.98 994.00,123.37 995.83,123.76 997.67,124.16 999.50,124.55 1001.33,124.95 1003.17,125.35 1005.00,125.75 1006.83,126.16 1008.67,126.57 1010.50,126.97 1012.33,127.38 1014.17,127.79 1016.00,128.21 1017.83,128.62 1019.67,129.04 1021.50,129.46 1023.33,129.88 1025.17,130.31 1027.00,130.73 1028.83,131.16 1030.67,131.59 1032.50,132.02 1034.33,132.45 1036.17,132.89 1038.00,133.32 1039.83,133.76 1041.67,134.20 1043.50,134.64 1045.33,135.09 1047.17,135.53 1049.00,135.98 1050.83,136.43 1052.67,136.88 1054.50,137.34 1056.33,137.79 1058.17,138.25 1060.00,138.71 1061.83,139.17 1063.67,139.64 1065.50,140.10 1067.33,140.57 1069.17,141.04 1071.00,141.51 1072.83,141.98 1074.67,142.46 1076.50,142.94 1078.33,143.41 1080.17,143.90 1082.00,144.38 1083.83,144.86 1085.67,145.35 1087.50,145.84 1089.33,146.33 1091.17,146.82 1093.00,147.32 1094.83,147.81 1096.67,148.31 1098.50,148.81 1100.33,149.31 1102.17,149.82 1104.00,150.32 1105.83,150.83 1107.67,151.34 1109.50,151.85 1111.33,152.36 1113.17,152.88 1115.00,153.40 1116.83,153.92 1118.67,154.44 1120.50,154.96 1122.33,155.48 1124.17,156.01 1126.00,156.54 1127.83,157.07 1129.67,157.60 1131.50,158.14 1133.33,158.68 1135.17,159.21 1137.00,159.75 1138.83,160.30 1140.67,160.84 1142.50,161.39 1144.33,161.93 1146.17,162.48 1148.00,163.04 1149.83,163.59 1151.67,164.15 1153.50,164.70 1155.33,165.26 1157.17,165.82 1159.00,166.39 1160.83,166.95 1162.67,167.52 1164.50,168.09 1166.33,168.66 1168.17,169.23 1170.00,169.81" fill="none" stroke="#0072B2" stroke-width="3.2" stroke-opacity="0.38"/>
<polyline points="70.00,169.81 71.83,169.23 73.67,168.66 75.50,168.09 77.33,167.52 79.17,166.95 81.00,166.39 82.83,165.82 84.67,165.26 86.50,164.70 88.33,164.15 90.17,163.59 92.00,163.04 93.83,162.48 95.67,161.93 97.50,161.39 99.33,160.84 101.17,160.30 103.00,159.75 104.83,159.21 106.67,158.68 108.50,158.14 110.33,157.60 112.17,157.07 114.00,156.54 115.83,156.01 117.67,155.48 119.50,154.96 121.33,154.44 123.17,153.92 125.00,153.40 126.83,152.88 128.67,152.36 130.50,151.85 132.33,151.34 134.17,150.83 136.00,150.32 137.83,149.82 139.67,149.31 141.50,148.81 143.33,148.31 145.17,147.81 147.00,147.32 148.83,146.82 150.67,146.33 152.50,145.84 154.33,145.35 156.17,144.86 158.00,144.38 159.83,143.90 161.67,143.41 163.50,142.94 165.33,142.46 167.17,141.98 169.00,141.51 170.83,141.04 172.67,140.57 174.50,140.10 176.33,139.64 178.17,139.17 180.00,138.71 181.83,138.25 183.67,137.79 185.50,137.34 187.33,136.88 189.17,136.43 191.00,135.98 192.83,135.53 194.67,135.09 196.50,134.64 198.33,134.20 200.17,133.76 202.00,133.32 203.83,132.89 205.67,132.45 207.50,132.02 209.33,131.59 211.17,131.16 213.00,130.73 214.83,130.31 216.67,129.88 218.50,129.46 220.33,129.04 222.17,128.62 224.00,128.21 225.83,127.79 227.67,127.38 229.50,126.97 231.33,126.57 233.17,126.16 235.00,125.75 236.83,125.35 238.67,124.95 240.50,124.55 242.33,124.16 244.17,123.76 246.00,123.37 247.83,122.98 249.67,122.59 251.50,122.20 253.33,121.82 255.17,121.44 257.00,121.06 258.83,120.68 260.67,120.30 262.50,119.92 264.33,119.55 266.17,119.18 268.00,118.81 269.83,118.44 271.67,118.08 273.50,117.71 275.33,117.35 277.17,116.99 279.00,116.63 280.83,116.28 282.67,115.92 284.50,115.57 286.33,115.22 288.17,114.87 290.00,114.53 291.83,114.18 293.67,113.84 295.50,113.50 297.33,113.16 299.17,112.82 301.00,112.49 302.83,112.15 304.67,111.82 306.50,111.49 308.33,111.17 310.17,110.84 312.00,110.52 313.83,110.20 315.67,109.88 317.50,109.56 319.33,109.24 321.17,108.93 323.00,108.62 324.83,108.31 326.67,108.00 328.50,107.69 330.33,107.39 332.17,107.09 334.00,106.79 335.83,106.49 337.67,106.19 339.50,105.90 341.33,105.60 343.17,105.31 345.00,105.02 346.83,104.74 348.67,104.45 350.50,104.17 352.33,103.89 354.17,103.61 356.00,103.33 357.83,103.06 359.67,102.78 361.50,102.51 363.33,102.24 365.17,101.97 367.00,101.71 368.83,101.44 370.67,101.18 372.50,100.92 374.33,100.66 376.17,100.41 378.00,100.15 379.83,99.90 381.67,99.65 383.50,99.40 385.33,99.15 387.17,98.91 389.00,98.67 390.83,98.43 392.67,98.19 394.50,97.95 396.33,97.71 398.17,97.48 400.00,97.25 401.83,97.02 403.67,96.79 405.50,96.57 407.33,96.34 409.17,96.12 411.00,95.90 412.83,95.68 414.67,95.47 416.50,95.25 418.33,95.04 420.17,94.83 422.00,94.62 423.83,94.42 425.67,94.21 427.50,94.01 429.33,93.81 431.17,93.61 433.00,93.41 434.83,93.22 436.67,93.03 438.50,92.84 440.33,92.65 442.17,92.46 444.00,92.27 445.83,92.09 447.67,91.91 449.50,91.73 451.33,91.55 453.17,91.38 455.00,91.20 456.83,91.03 458.67,90.86 460.50,90.69 462.33,90.53 464.17,90.36 466.00,90.20 467.83,90.04 469.67,89.88 471.50,89.73 473.33,89.57 475.17,89.42 477.00,89.27 478.83,89.12 480.67,88.97 482.50,88.83 484.33,88.68 486.17,88.54 488.00,88.40 489.83,88.27 491.67,88.13 493.50,88.00 495.33,87.87 497.17,87.74 499.00,87.61 500.83,87.48 502.67,87.36 504.50,87.24 506.33,87.12 508.17,87.00 510.00,86.88 511.83,86.77 513.67,86.66 515.50,86.55 517.33,86.44 519.17,86.33 521.00,86.23 522.83,86.13 524.67,86.02 526.50,85.93 528.33,85.83 530.17,85.73 532.00,85.64 533.83,85.55 535.67,85.46 537.50,85.37 539.33,85.29 541.17,85.20 543.00,85.12 544.83,85.04 546.67,84.96 548.50,84.89 550.33,84.82 552.17,84.74 554.00,84.67 555.83,84.60 557.67,84.54 559.50,84.47 561.33,84.41 563.17,84.35 565.00,84.29 566.83,84.24 568.67,84.18 570.50,84.13 572.33,84.08 574.17,84.03 576.00,83.98 577.83,83.94 579.67,83.89 581.50,83.85 583.33,83.81 585.17,83.78 587.00,83.74 588.83,83.71 590.67,83.67 592.50,83.65 594.33,83.62 596.17,83.59 598.00,83.57 599.83,83.55 601.67,83.53 603.50,83.51 605.33,83.49 607.17,83.48 609.00,83.46 610.83,83.45 612.67,83.44 614.50,83.44 616.33,83.43 618.17,83.43 620.00,83.43 621.83,83.43 623.67,83.43 625.50,83.44 627.33,83.44 629.17,83.45 631.00,83.46 632.83,83.48 634.67,83.49 636.50,83.51 638.33,83.53 640.17,83.55 642.00,83.57 643.83,83.59 645.67,83.62 647.50,83.65 649.33,83.67 651.17,83.71 653.00,83.74 654.83,83.78 656.67,83.81 658.50,83.85 660.33,83.89 662.17,83.94 664.00,83.98 665.83,84.03 667.67,84.08 669.50,84.13 671.33,84.18 673.17,84.24 675.00,84.29 676.83,84.35 678.67,84.41 680.50,84.47 682.33,84.54 684.17,84.60 686.00,84.67 687.83,84.74 689.67,84.82 691.50,84.89 693.33,84.96 695.17,85.04 697.00,85.12 698.83,85.20 700.67,85.29 702.50,85.37 704.33,85.46 706.17,85.55 708.00,85.64 709.83,85.73 711.67,85.83 713.50,85.93 715.33,86.02 717.17,86.13 719.00,86.23 720.83,86.33 722.67,86.44 724.50,86.55 726.33,86.66 728.17,86.77 730.00,86.88 731.83,87.00 733.67,87.12 735.50,87.24 737.33,87.36 739.17,87.48 741.00,87.61 742.83,87.74 744.67,87.87 746.50,88.00 748.33,88.13 750.17,88.27 752.00,88.40 753.83,88.54 755.67,88.68 757.50,88.83 759.33,88.97 761.17,89.12 763.00,89.27 764.83,89.42 766.67,89.57 768.50,89.73 770.33,89.88 772.17,90.04 774.00,90.20 775.83,90.36 777.67,90.53 779.50,90.69 781.33,90.86 783.17,91.03 785.00,91.20 786.83,91.38 788.67,91.55 790.50,91.73 792.33,91.91 794.17,92.09 796.00,92.27 797.83,92.46 799.67,92.65 801.50,92.84 803.33,93.03 805.17,93.22 807.00,93.41 808.83,93.61 810.67,93.81 812.50,94.01 814.33,94.21 816.17,94.42 818.00,94.62 819.83,94.83 821.67,95.04 823.50,95.25 825.33,95.47 827.17,95.68 829.00,95.90 830.83,96.12 832.67,96.34 834.50,96.57 836.33,96.79 838.17,97.02 840.00,97.25 841.83,97.48 843.67,97.71 845.50,97.95 847.33,98.19 849.17,98.43 851.00,98.67 852.83,98.91 854.67,99.15 856.50,99.40 858.33,99.65 860.17,99.90 862.00,100.15 863.83,100.41 865.67,100.66 867.50,100.92 869.33,101.18 871.17,101.44 873.00,101.71 874.83,101.97 876.67,102.24 878.50,102.51 880.33,102.78 882.17,103.06 884.00,103.33 885.83,103.61 887.67,103.89 889.50,104.17 891.33,104.45 893.17,104.74 895.00,105.02 896.83,105.31 898.67,105.60 900.50,105.90 902.33,106.19 904.17,106.49 906.00,106.79 907.83,107.09 909.67,107.39 911.50,107.69 913.33,108.00 915.17,108.31 917.00,108.62 918.83,108.93 920.67,109.24 922.50,109.56 924.33,109.88 926.17,110.20 928.00,110.52 929.83,110.84 931.67,111.17 933.50,111.49 935.33,111.82 937.17,112.15 939.00,112.49 940.83,112.82 942.67,113.16 944.50,113.50 946.33,113.84 948.17,114.18 950.00,114.53 951.83,114.87 953.67,115.22 955.50,115.57 957.33,115.92 959.17,116.28 961.00,116.63 962.83,116.99 964.67,117.35 966.50,117.71 968.33,118.08 970.17,118.44 972.00,118.81 973.83,119.18 975.67,119.55 977.50,119.92 979.33,120.30 981.17,120.68 983.00,121.06 984.83,121.44 986.67,121.82 988.50,122.20 990.33,122.59 992.17,122.98 994.00,123.37 995.83,123.76 997.67,124.16 999.50,124.55 1001.33,124.95 1003.17,125.35 1005.00,125.75 1006.83,126.16 1008.67,126.57 1010.50,126.97 1012.33,127.38 1014.17,127.79 1016.00,128.21 1017.83,128.62 1019.67,129.04 1021.50,129.46 1023.33,129.88 1025.17,130.31 1027.00,130.73 1028.83,131.16 1030.67,131.59 1032.50,132.02 1034.33,132.45 1036.17,132.89 1038.00,133.32 1039.83,133.76 1041.67,134.20 1043.50,134.64 1045.33,135.09 1047.17,135.53 1049.00,135.98 1050.83,136.43 1052.67,136.88 1054.50,137.34 1056.33,137.79 1058.17,138.25 1060.00,138.71 1061.83,139.17 1063.67,139.64 1065.50,140.10 1067.33,140.57 1069.17,141.04 1071.00,141.51 1072.83,141.98 1074.67,142.46 1076.50,142.94 1078.33,143.41 1080.17,143.90 1082.00,144.38 1083.83,144.86 1085.67,145.35 1087.50,145.84 1089.33,146.33 1091.17,146.82 1093.00,147.32 1094.83,147.81 1096.67,148.31 1098.50,148.81 1100.33,149.31 1102.17,149.82 1104.00,150.32 1105.83,150.83 1107.67,151.34 1109.50,151.85 1111.33,152.36 1113.17,152.88 1115.00,153.40 1116.83,153.92 1118.67,154.44 1120.50,154.96 1122.33,155.48 1124.17,156.01 1126.00,156.54 1127.83,157.07 1129.67,157.60 1131.50,158.14 1133.33,158.68 1135.17,159.21 1137.00,159.75 1138.83,160.30 1140.67,160.84 1142.50,161.39 1144.33,161.93 1146.17,162.48 1148.00,163.04 1149.83,163.59 1151.67,164.15 1153.50,164.70 1155.33,165.26 1157.17,165.82 1159.00,166.39 1160.83,166.95 1162.67,167.52 1164.50,168.09 1166.33,168.66 1168.17,169.23 1170.00,169.81" fill="none" stroke="#0072B2" stroke-width="2.8" stroke-opacity="1.0" stroke-dasharray="2 4"/>
<polyline points="70.00,246.59 71.83,245.44 73.67,244.29 75.50,243.15 77.33,242.01 79.17,240.88 81.00,239.75 82.83,238.62 84.67,237.50 86.50,236.38 88.33,235.26 90.17,234.15 92.00,233.05 93.83,231.94 95.67,230.84 97.50,229.75 99.33,228.65 101.17,227.57 103.00,226.48 104.83,225.40 106.67,224.32 108.50,223.25 110.33,222.18 112.17,221.12 114.00,220.05 115.83,219.00 117.67,217.94 119.50,216.89 121.33,215.85 123.17,214.80 125.00,213.77 126.83,212.73 128.67,211.70 130.50,210.67 132.33,209.65 134.17,208.63 136.00,207.62 137.83,206.60 139.67,205.60 141.50,204.59 143.33,203.59 145.17,202.60 147.00,201.60 148.83,200.62 150.67,199.63 152.50,198.65 154.33,197.67 156.17,196.70 158.00,195.73 159.83,194.76 161.67,193.80 163.50,192.84 165.33,191.89 167.17,190.94 169.00,189.99 170.83,189.05 172.67,188.11 174.50,187.18 176.33,186.25 178.17,185.32 180.00,184.40 181.83,183.48 183.67,182.56 185.50,181.65 187.33,180.74 189.17,179.84 191.00,178.94 192.83,178.04 194.67,177.15 196.50,176.26 198.33,175.38 200.17,174.49 202.00,173.62 203.83,172.74 205.67,171.87 207.50,171.01 209.33,170.15 211.17,169.29 213.00,168.43 214.83,167.58 216.67,166.74 218.50,165.89 220.33,165.06 222.17,164.22 224.00,163.39 225.83,162.56 227.67,161.74 229.50,160.92 231.33,160.10 233.17,159.29 235.00,158.48 236.83,157.68 238.67,156.88 240.50,156.08 242.33,155.29 244.17,154.50 246.00,153.72 247.83,152.93 249.67,152.16 251.50,151.38 253.33,150.61 255.17,149.85 257.00,149.09 258.83,148.33 260.67,147.57 262.50,146.82 264.33,146.08 266.17,145.33 268.00,144.59 269.83,143.86 271.67,143.13 273.50,142.40 275.33,141.68 277.17,140.96 279.00,140.24 280.83,139.53 282.67,138.82 284.50,138.11 286.33,137.41 288.17,136.72 290.00,136.02 291.83,135.34 293.67,134.65 295.50,133.97 297.33,133.29 299.17,132.62 301.00,131.95 302.83,131.28 304.67,130.62 306.50,129.96 308.33,129.31 310.17,128.66 312.00,128.01 313.83,127.37 315.67,126.73 317.50,126.09 319.33,125.46 321.17,124.83 323.00,124.21 324.83,123.59 326.67,122.97 328.50,122.36 330.33,121.75 332.17,121.15 334.00,120.55 335.83,119.95 337.67,119.36 339.50,118.77 341.33,118.18 343.17,117.60 345.00,117.02 346.83,116.45 348.67,115.88 350.50,115.31 352.33,114.75 354.17,114.19 356.00,113.64 357.83,113.08 359.67,112.54 361.50,111.99 363.33,111.45 365.17,110.92 367.00,110.39 368.83,109.86 370.67,109.34 372.50,108.82 374.33,108.30 376.17,107.79 378.00,107.28 379.83,106.77 381.67,106.27 383.50,105.77 385.33,105.28 387.17,104.79 389.00,104.31 390.83,103.82 392.67,103.35 394.50,102.87 396.33,102.40 398.17,101.94 400.00,101.47 401.83,101.01 403.67,100.56 405.50,100.11 407.33,99.66 409.17,99.22 411.00,98.78 412.83,98.34 414.67,97.91 416.50,97.48 418.33,97.06 420.17,96.64 422.00,96.22 423.83,95.81 425.67,95.40 427.50,94.99 429.33,94.59 431.17,94.20 433.00,93.80 434.83,93.41 436.67,93.03 438.50,92.64 440.33,92.27 442.17,91.89 444.00,91.52 445.83,91.16 447.67,90.79 449.50,90.43 451.33,90.08 453.17,89.73 455.00,89.38 456.83,89.04 458.67,88.70 460.50,88.36 462.33,88.03 464.17,87.70 466.00,87.38 467.83,87.06 469.67,86.74 471.50,86.43 473.33,86.12 475.17,85.81 477.00,85.51 478.83,85.21 480.67,84.92 482.50,84.63 484.33,84.34 486.17,84.06 488.00,83.78 489.83,83.51 491.67,83.24 493.50,82.97 495.33,82.71 497.17,82.45 499.00,82.19 500.83,81.94 502.67,81.69 504.50,81.45 506.33,81.21 508.17,80.97 510.00,80.74 511.83,80.51 513.67,80.29 515.50,80.07 517.33,79.85 519.17,79.64 521.00,79.43 522.83,79.22 524.67,79.02 526.50,78.82 528.33,78.63 530.17,78.44 532.00,78.25 533.83,78.07 535.67,77.89 537.50,77.72 539.33,77.55 541.17,77.38 543.00,77.22 544.83,77.06 546.67,76.90 548.50,76.75 550.33,76.60 552.17,76.46 554.00,76.32 555.83,76.18 557.67,76.05 559.50,75.92 561.33,75.80 563.17,75.68 565.00,75.56 566.83,75.45 568.67,75.34 570.50,75.23 572.33,75.13 574.17,75.03 576.00,74.94 577.83,74.85 579.67,74.76 581.50,74.68 583.33,74.60 585.17,74.52 587.00,74.45 588.83,74.39 590.67,74.32 592.50,74.26 594.33,74.21 596.17,74.16 598.00,74.11 599.83,74.06 601.67,74.02 603.50,73.99 605.33,73.95 607.17,73.93 609.00,73.90 610.83,73.88 612.67,73.86 614.50,73.85 616.33,73.84 618.17,73.83 620.00,73.83 621.83,73.83 623.67,73.84 625.50,73.85 627.33,73.86 629.17,73.88 631.00,73.90 632.83,73.93 634.67,73.95 636.50,73.99 638.33,74.02 640.17,74.06 642.00,74.11 643.83,74.16 645.67,74.21 647.50,74.26 649.33,74.32 651.17,74.39 653.00,74.45 654.83,74.52 656.67,74.60 658.50,74.68 660.33,74.76 662.17,74.85 664.00,74.94 665.83,75.03 667.67,75.13 669.50,75.23 671.33,75.34 673.17,75.45 675.00,75.56 676.83,75.68 678.67,75.80 680.50,75.92 682.33,76.05 684.17,76.18 686.00,76.32 687.83,76.46 689.67,76.60 691.50,76.75 693.33,76.90 695.17,77.06 697.00,77.22 698.83,77.38 700.67,77.55 702.50,77.72 704.33,77.89 706.17,78.07 708.00,78.25 709.83,78.44 711.67,78.63 713.50,78.82 715.33,79.02 717.17,79.22 719.00,79.43 720.83,79.64 722.67,79.85 724.50,80.07 726.33,80.29 728.17,80.51 730.00,80.74 731.83,80.97 733.67,81.21 735.50,81.45 737.33,81.69 739.17,81.94 741.00,82.19 742.83,82.45 744.67,82.71 746.50,82.97 748.33,83.24 750.17,83.51 752.00,83.78 753.83,84.06 755.67,84.34 757.50,84.63 759.33,84.92 761.17,85.21 763.00,85.51 764.83,85.81 766.67,86.12 768.50,86.43 770.33,86.74 772.17,87.06 774.00,87.38 775.83,87.70 777.67,88.03 779.50,88.36 781.33,88.70 783.17,89.04 785.00,89.38 786.83,89.73 788.67,90.08 790.50,90.43 792.33,90.79 794.17,91.16 796.00,91.52 797.83,91.89 799.67,92.27 801.50,92.64 803.33,93.03 805.17,93.41 807.00,93.80 808.83,94.20 810.67,94.59 812.50,94.99 814.33,95.40 816.17,95.81 818.00,96.22 819.83,96.64 821.67,97.06 823.50,97.48 825.33,97.91 827.17,98.34 829.00,98.78 830.83,99.22 832.67,99.66 834.50,100.11 836.33,100.56 838.17,101.01 840.00,101.47 841.83,101.94 843.67,102.40 845.50,102.87 847.33,103.35 849.17,103.82 851.00,104.31 852.83,104.79 854.67,105.28 856.50,105.77 858.33,106.27 860.17,106.77 862.00,107.28 863.83,107.79 865.67,108.30 867.50,108.82 869.33,109.34 871.17,109.86 873.00,110.39 874.83,110.92 876.67,111.45 878.50,111.99 880.33,112.54 882.17,113.08 884.00,113.64 885.83,114.19 887.67,114.75 889.50,115.31 891.33,115.88 893.17,116.45 895.00,117.02 896.83,117.60 898.67,118.18 900.50,118.77 902.33,119.36 904.17,119.95 906.00,120.55 907.83,121.15 909.67,121.75 911.50,122.36 913.33,122.97 915.17,123.59 917.00,124.21 918.83,124.83 920.67,125.46 922.50,126.09 924.33,126.73 926.17,127.37 928.00,128.01 929.83,128.66 931.67,129.31 933.50,129.96 935.33,130.62 937.17,131.28 939.00,131.95 940.83,132.62 942.67,133.29 944.50,133.97 946.33,134.65 948.17,135.34 950.00,136.02 951.83,136.72 953.67,137.41 955.50,138.11 957.33,138.82 959.17,139.53 961.00,140.24 962.83,140.96 964.67,141.68 966.50,142.40 968.33,143.13 970.17,143.86 972.00,144.59 973.83,145.33 975.67,146.08 977.50,146.82 979.33,147.57 981.17,148.33 983.00,149.09 984.83,149.85 986.67,150.61 988.50,151.38 990.33,152.16 992.17,152.93 994.00,153.72 995.83,154.50 997.67,155.29 999.50,156.08 1001.33,156.88 1003.17,157.68 1005.00,158.48 1006.83,159.29 1008.67,160.10 1010.50,160.92 1012.33,161.74 1014.17,162.56 1016.00,163.39 1017.83,164.22 1019.67,165.06 1021.50,165.89 1023.33,166.74 1025.17,167.58 1027.00,168.43 1028.83,169.29 1030.67,170.15 1032.50,171.01 1034.33,171.87 1036.17,172.74 1038.00,173.62 1039.83,174.49 1041.67,175.38 1043.50,176.26 1045.33,177.15 1047.17,178.04 1049.00,178.94 1050.83,179.84 1052.67,180.74 1054.50,181.65 1056.33,182.56 1058.17,183.48 1060.00,184.40 1061.83,185.32 1063.67,186.25 1065.50,187.18 1067.33,188.11 1069.17,189.05 1071.00,189.99 1072.83,190.94 1074.67,191.89 1076.50,192.84 1078.33,193.80 1080.17,194.76 1082.00,195.73 1083.83,196.70 1085.67,197.67 1087.50,198.65 1089.33,199.63 1091.17,200.62 1093.00,201.60 1094.83,202.60 1096.67,203.59 1098.50,204.59 1100.33,205.60 1102.17,206.60 1104.00,207.62 1105.83,208.63 1107.67,209.65 1109.50,210.67 1111.33,211.70 1113.17,212.73 1115.00,213.77 1116.83,214.80 1118.67,215.85 1120.50,216.89 1122.33,217.94 1124.17,219.00 1126.00,220.05 1127.83,221.12 1129.67,222.18 1131.50,223.25 1133.33,224.32 1135.17,225.40 1137.00,226.48 1138.83,227.57 1140.67,228.65 1142.50,229.75 1144.33,230.84 1146.17,231.94 1148.00,233.05 1149.83,234.15 1151.67,235.26 1153.50,236.38 1155.33,237.50 1157.17,238.62 1159.00,239.75 1160.83,240.88 1162.67,242.01 1164.50,243.15 1166.33,244.29 1168.17,245.44 1170.00,246.59" fill="none" stroke="#D55E00" stroke-width="3.2" stroke-opacity="0.38"/>
<polyline points="70.00,246.59 71.83,245.44 73.67,244.29 75.50,243.15 77.33,242.01 79.17,240.88 81.00,239.75 82.83,238.62 84.67,237.50 86.50,236.38 88.33,235.26 90.17,234.15 92.00,233.05 93.83,231.94 95.67,230.84 97.50,229.75 99.33,228.65 101.17,227.57 103.00,226.48 104.83,225.40 106.67,224.32 108.50,223.25 110.33,222.18 112.17,221.12 114.00,220.05 115.83,219.00 117.67,217.94 119.50,216.89 121.33,215.85 123.17,214.80 125.00,213.77 126.83,212.73 128.67,211.70 130.50,210.67 132.33,209.65 134.17,208.63 136.00,207.62 137.83,206.60 139.67,205.60 141.50,204.59 143.33,203.59 145.17,202.60 147.00,201.60 148.83,200.62 150.67,199.63 152.50,198.65 154.33,197.67 156.17,196.70 158.00,195.73 159.83,194.76 161.67,193.80 163.50,192.84 165.33,191.89 167.17,190.94 169.00,189.99 170.83,189.05 172.67,188.11 174.50,187.18 176.33,186.25 178.17,185.32 180.00,184.40 181.83,183.48 183.67,182.56 185.50,181.65 187.33,180.74 189.17,179.84 191.00,178.94 192.83,178.04 194.67,177.15 196.50,176.26 198.33,175.38 200.17,174.49 202.00,173.62 203.83,172.74 205.67,171.87 207.50,171.01 209.33,170.15 211.17,169.29 213.00,168.43 214.83,167.58 216.67,166.74 218.50,165.89 220.33,165.06 222.17,164.22 224.00,163.39 225.83,162.56 227.67,161.74 229.50,160.92 231.33,160.10 233.17,159.29 235.00,158.48 236.83,157.68 238.67,156.88 240.50,156.08 242.33,155.29 244.17,154.50 246.00,153.72 247.83,152.93 249.67,152.16 251.50,151.38 253.33,150.61 255.17,149.85 257.00,149.09 258.83,148.33 260.67,147.57 262.50,146.82 264.33,146.08 266.17,145.33 268.00,144.59 269.83,143.86 271.67,143.13 273.50,142.40 275.33,141.68 277.17,140.96 279.00,140.24 280.83,139.53 282.67,138.82 284.50,138.11 286.33,137.41 288.17,136.72 290.00,136.02 291.83,135.34 293.67,134.65 295.50,133.97 297.33,133.29 299.17,132.62 301.00,131.95 302.83,131.28 304.67,130.62 306.50,129.96 308.33,129.31 310.17,128.66 312.00,128.01 313.83,127.37 315.67,126.73 317.50,126.09 319.33,125.46 321.17,124.83 323.00,124.21 324.83,123.59 326.67,122.97 328.50,122.36 330.33,121.75 332.17,121.15 334.00,120.55 335.83,119.95 337.67,119.36 339.50,118.77 341.33,118.18 343.17,117.60 345.00,117.02 346.83,116.45 348.67,115.88 350.50,115.31 352.33,114.75 354.17,114.19 356.00,113.64 357.83,113.08 359.67,112.54 361.50,111.99 363.33,111.45 365.17,110.92 367.00,110.39 368.83,109.86 370.67,109.34 372.50,108.82 374.33,108.30 376.17,107.79 378.00,107.28 379.83,106.77 381.67,106.27 383.50,105.77 385.33,105.28 387.17,104.79 389.00,104.31 390.83,103.82 392.67,103.35 394.50,102.87 396.33,102.40 398.17,101.94 400.00,101.47 401.83,101.01 403.67,100.56 405.50,100.11 407.33,99.66 409.17,99.22 411.00,98.78 412.83,98.34 414.67,97.91 416.50,97.48 418.33,97.06 420.17,96.64 422.00,96.22 423.83,95.81 425.67,95.40 427.50,94.99 429.33,94.59 431.17,94.20 433.00,93.80 434.83,93.41 436.67,93.03 438.50,92.64 440.33,92.27 442.17,91.89 444.00,91.52 445.83,91.16 447.67,90.79 449.50,90.43 451.33,90.08 453.17,89.73 455.00,89.38 456.83,89.04 458.67,88.70 460.50,88.36 462.33,88.03 464.17,87.70 466.00,87.38 467.83,87.06 469.67,86.74 471.50,86.43 473.33,86.12 475.17,85.81 477.00,85.51 478.83,85.21 480.67,84.92 482.50,84.63 484.33,84.34 486.17,84.06 488.00,83.78 489.83,83.51 491.67,83.24 493.50,82.97 495.33,82.71 497.17,82.45 499.00,82.19 500.83,81.94 502.67,81.69 504.50,81.45 506.33,81.21 508.17,80.97 510.00,80.74 511.83,80.51 513.67,80.29 515.50,80.07 517.33,79.85 519.17,79.64 521.00,79.43 522.83,79.22 524.67,79.02 526.50,78.82 528.33,78.63 530.17,78.44 532.00,78.25 533.83,78.07 535.67,77.89 537.50,77.72 539.33,77.55 541.17,77.38 543.00,77.22 544.83,77.06 546.67,76.90 548.50,76.75 550.33,76.60 552.17,76.46 554.00,76.32 555.83,76.18 557.67,76.05 559.50,75.92 561.33,75.80 563.17,75.68 565.00,75.56 566.83,75.45 568.67,75.34 570.50,75.23 572.33,75.13 574.17,75.03 576.00,74.94 577.83,74.85 579.67,74.76 581.50,74.68 583.33,74.60 585.17,74.52 587.00,74.45 588.83,74.39 590.67,74.32 592.50,74.26 594.33,74.21 596.17,74.16 598.00,74.11 599.83,74.06 601.67,74.02 603.50,73.99 605.33,73.95 607.17,73.93 609.00,73.90 610.83,73.88 612.67,73.86 614.50,73.85 616.33,73.84 618.17,73.83 620.00,73.83 621.83,73.83 623.67,73.84 625.50,73.85 627.33,73.86 629.17,73.88 631.00,73.90 632.83,73.93 634.67,73.95 636.50,73.99 638.33,74.02 640.17,74.06 642.00,74.11 643.83,74.16 645.67,74.21 647.50,74.26 649.33,74.32 651.17,74.39 653.00,74.45 654.83,74.52 656.67,74.60 658.50,74.68 660.33,74.76 662.17,74.85 664.00,74.94 665.83,75.03 667.67,75.13 669.50,75.23 671.33,75.34 673.17,75.45 675.00,75.56 676.83,75.68 678.67,75.80 680.50,75.92 682.33,76.05 684.17,76.18 686.00,76.32 687.83,76.46 689.67,76.60 691.50,76.75 693.33,76.90 695.17,77.06 697.00,77.22 698.83,77.38 700.67,77.55 702.50,77.72 704.33,77.89 706.17,78.07 708.00,78.25 709.83,78.44 711.67,78.63 713.50,78.82 715.33,79.02 717.17,79.22 719.00,79.43 720.83,79.64 722.67,79.85 724.50,80.07 726.33,80.29 728.17,80.51 730.00,80.74 731.83,80.97 733.67,81.21 735.50,81.45 737.33,81.69 739.17,81.94 741.00,82.19 742.83,82.45 744.67,82.71 746.50,82.97 748.33,83.24 750.17,83.51 752.00,83.78 753.83,84.06 755.67,84.34 757.50,84.63 759.33,84.92 761.17,85.21 763.00,85.51 764.83,85.81 766.67,86.12 768.50,86.43 770.33,86.74 772.17,87.06 774.00,87.38 775.83,87.70 777.67,88.03 779.50,88.36 781.33,88.70 783.17,89.04 785.00,89.38 786.83,89.73 788.67,90.08 790.50,90.43 792.33,90.79 794.17,91.16 796.00,91.52 797.83,91.89 799.67,92.27 801.50,92.64 803.33,93.03 805.17,93.41 807.00,93.80 808.83,94.20 810.67,94.59 812.50,94.99 814.33,95.40 816.17,95.81 818.00,96.22 819.83,96.64 821.67,97.06 823.50,97.48 825.33,97.91 827.17,98.34 829.00,98.78 830.83,99.22 832.67,99.66 834.50,100.11 836.33,100.56 838.17,101.01 840.00,101.47 841.83,101.94 843.67,102.40 845.50,102.87 847.33,103.35 849.17,103.82 851.00,104.31 852.83,104.79 854.67,105.28 856.50,105.77 858.33,106.27 860.17,106.77 862.00,107.28 863.83,107.79 865.67,108.30 867.50,108.82 869.33,109.34 871.17,109.86 873.00,110.39 874.83,110.92 876.67,111.45 878.50,111.99 880.33,112.54 882.17,113.08 884.00,113.64 885.83,114.19 887.67,114.75 889.50,115.31 891.33,115.88 893.17,116.45 895.00,117.02 896.83,117.60 898.67,118.18 900.50,118.77 902.33,119.36 904.17,119.95 906.00,120.55 907.83,121.15 909.67,121.75 911.50,122.36 913.33,122.97 915.17,123.59 917.00,124.21 918.83,124.83 920.67,125.46 922.50,126.09 924.33,126.73 926.17,127.37 928.00,128.01 929.83,128.66 931.67,129.31 933.50,129.96 935.33,130.62 937.17,131.28 939.00,131.95 940.83,132.62 942.67,133.29 944.50,133.97 946.33,134.65 948.17,135.34 950.00,136.02 951.83,136.72 953.67,137.41 955.50,138.11 957.33,138.82 959.17,139.53 961.00,140.24 962.83,140.96 964.67,141.68 966.50,142.40 968.33,143.13 970.17,143.86 972.00,144.59 973.83,145.33 975.67,146.08 977.50,146.82 979.33,147.57 981.17,148.33 983.00,149.09 984.83,149.85 986.67,150.61 988.50,151.38 990.33,152.16 992.17,152.93 994.00,153.72 995.83,154.50 997.67,155.29 999.50,156.08 1001.33,156.88 1003.17,157.68 1005.00,158.48 1006.83,159.29 1008.67,160.10 1010.50,160.92 1012.33,161.74 1014.17,162.56 1016.00,163.39 1017.83,164.22 1019.67,165.06 1021.50,165.89 1023.33,166.74 1025.17,167.58 1027.00,168.43 1028.83,169.29 1030.67,170.15 1032.50,171.01 1034.33,171.87 1036.17,172.74 1038.00,173.62 1039.83,174.49 1041.67,175.38 1043.50,176.26 1045.33,177.15 1047.17,178.04 1049.00,178.94 1050.83,179.84 1052.67,180.74 1054.50,181.65 1056.33,182.56 1058.17,183.48 1060.00,184.40 1061.83,185.32 1063.67,186.25 1065.50,187.18 1067.33,188.11 1069.17,189.05 1071.00,189.99 1072.83,190.94 1074.67,191.89 1076.50,192.84 1078.33,193.80 1080.17,194.76 1082.00,195.73 1083.83,196.70 1085.67,197.67 1087.50,198.65 1089.33,199.63 1091.17,200.62 1093.00,201.60 1094.83,202.60 1096.67,203.59 1098.50,204.59 1100.33,205.60 1102.17,206.60 1104.00,207.62 1105.83,208.63 1107.67,209.65 1109.50,210.67 1111.33,211.70 1113.17,212.73 1115.00,213.77 1116.83,214.80 1118.67,215.85 1120.50,216.89 1122.33,217.94 1124.17,219.00 1126.00,220.05 1127.83,221.12 1129.67,222.18 1131.50,223.25 1133.33,224.32 1135.17,225.40 1137.00,226.48 1138.83,227.57 1140.67,228.65 1142.50,229.75 1144.33,230.84 1146.17,231.94 1148.00,233.05 1149.83,234.15 1151.67,235.26 1153.50,236.38 1155.33,237.50 1157.17,238.62 1159.00,239.75 1160.83,240.88 1162.67,242.01 1164.50,243.15 1166.33,244.29 1168.17,245.44 1170.00,246.59" fill="none" stroke="#D55E00" stroke-width="2.8" stroke-opacity="1.0" stroke-dasharray="10 3 2 3"/>
<polyline points="70.00,348.97 71.83,347.05 73.67,345.14 75.50,343.24 77.33,341.34 79.17,339.45 81.00,337.56 82.83,335.69 84.67,333.81 86.50,331.95 88.33,330.09 90.17,328.24 92.00,326.39 93.83,324.55 95.67,322.72 97.50,320.89 99.33,319.07 101.17,317.26 103.00,315.45 104.83,313.65 106.67,311.85 108.50,310.07 110.33,308.28 112.17,306.51 114.00,304.74 115.83,302.98 117.67,301.22 119.50,299.47 121.33,297.73 123.17,295.99 125.00,294.26 126.83,292.53 128.67,290.82 130.50,289.10 132.33,287.40 134.17,285.70 136.00,284.01 137.83,282.32 139.67,280.64 141.50,278.97 143.33,277.30 145.17,275.64 147.00,273.99 148.83,272.34 150.67,270.70 152.50,269.06 154.33,267.44 156.17,265.81 158.00,264.20 159.83,262.59 161.67,260.99 163.50,259.39 165.33,257.80 167.17,256.22 169.00,254.64 170.83,253.07 172.67,251.50 174.50,249.95 176.33,248.39 178.17,246.85 180.00,245.31 181.83,243.78 183.67,242.25 185.50,240.73 187.33,239.22 189.17,237.71 191.00,236.21 192.83,234.72 194.67,233.23 196.50,231.75 198.33,230.27 200.17,228.81 202.00,227.34 203.83,225.89 205.67,224.44 207.50,223.00 209.33,221.56 211.17,220.13 213.00,218.71 214.83,217.29 216.67,215.88 218.50,214.47 220.33,213.07 222.17,211.68 224.00,210.30 225.83,208.92 227.67,207.55 229.50,206.18 231.33,204.82 233.17,203.47 235.00,202.12 236.83,200.78 238.67,199.45 240.50,198.12 242.33,196.80 244.17,195.48 246.00,194.17 247.83,192.87 249.67,191.58 251.50,190.29 253.33,189.00 255.17,187.73 257.00,186.46 258.83,185.19 260.67,183.94 262.50,182.69 264.33,181.44 266.17,180.20 268.00,178.97 269.83,177.75 271.67,176.53 273.50,175.31 275.33,174.11 277.17,172.91 279.00,171.72 280.83,170.53 282.67,169.35 284.50,168.17 286.33,167.01 288.17,165.84 290.00,164.69 291.83,163.54 293.67,162.40 295.50,161.26 297.33,160.13 299.17,159.01 301.00,157.89 302.83,156.78 304.67,155.68 306.50,154.58 308.33,153.49 310.17,152.41 312.00,151.33 313.83,150.26 315.67,149.19 317.50,148.13 319.33,147.08 321.17,146.03 323.00,145.00 324.83,143.96 326.67,142.93 328.50,141.91 330.33,140.90 332.17,139.89 334.00,138.89 335.83,137.90 337.67,136.91 339.50,135.93 341.33,134.95 343.17,133.98 345.00,133.02 346.83,132.06 348.67,131.11 350.50,130.17 352.33,129.23 354.17,128.30 356.00,127.37 357.83,126.46 359.67,125.54 361.50,124.64 363.33,123.74 365.17,122.85 367.00,121.96 368.83,121.08 370.67,120.21 372.50,119.34 374.33,118.48 376.17,117.63 378.00,116.78 379.83,115.94 381.67,115.10 383.50,114.27 385.33,113.45 387.17,112.63 389.00,111.83 390.83,111.02 392.67,110.23 394.50,109.44 396.33,108.65 398.17,107.87 400.00,107.10 401.83,106.34 403.67,105.58 405.50,104.83 407.33,104.08 409.17,103.34 411.00,102.61 412.83,101.89 414.67,101.17 416.50,100.45 418.33,99.75 420.17,99.04 422.00,98.35 423.83,97.66 425.67,96.98 427.50,96.31 429.33,95.64 431.17,94.98 433.00,94.32 434.83,93.67 436.67,93.03 438.50,92.39 440.33,91.76 442.17,91.14 444.00,90.52 445.83,89.91 447.67,89.30 449.50,88.70 451.33,88.11 453.17,87.53 455.00,86.95 456.83,86.38 458.67,85.81 460.50,85.25 462.33,84.70 464.17,84.15 466.00,83.61 467.83,83.07 469.67,82.55 471.50,82.02 473.33,81.51 475.17,81.00 477.00,80.50 478.83,80.00 480.67,79.51 482.50,79.03 484.33,78.55 486.17,78.08 488.00,77.62 489.83,77.16 491.67,76.71 493.50,76.27 495.33,75.83 497.17,75.40 499.00,74.97 500.83,74.55 502.67,74.14 504.50,73.73 506.33,73.33 508.17,72.94 510.00,72.55 511.83,72.17 513.67,71.80 515.50,71.43 517.33,71.07 519.17,70.71 521.00,70.36 522.83,70.02 524.67,69.69 526.50,69.36 528.33,69.03 530.17,68.72 532.00,68.41 533.83,68.10 535.67,67.80 537.50,67.51 539.33,67.23 541.17,66.95 543.00,66.68 544.83,66.41 546.67,66.15 548.50,65.90 550.33,65.65 552.17,65.41 554.00,65.18 555.83,64.95 557.67,64.73 559.50,64.52 561.33,64.31 563.17,64.11 565.00,63.91 566.83,63.73 568.67,63.54 570.50,63.37 572.33,63.20 574.17,63.03 576.00,62.88 577.83,62.73 579.67,62.58 581.50,62.45 583.33,62.31 585.17,62.19 587.00,62.07 588.83,61.96 590.67,61.85 592.50,61.75 594.33,61.66 596.17,61.58 598.00,61.50 599.83,61.42 601.67,61.35 603.50,61.29 605.33,61.24 607.17,61.19 609.00,61.15 610.83,61.11 612.67,61.09 614.50,61.06 616.33,61.05 618.17,61.04 620.00,61.03 621.83,61.04 623.67,61.05 625.50,61.06 627.33,61.09 629.17,61.11 631.00,61.15 632.83,61.19 634.67,61.24 636.50,61.29 638.33,61.35 640.17,61.42 642.00,61.50 643.83,61.58 645.67,61.66 647.50,61.75 649.33,61.85 651.17,61.96 653.00,62.07 654.83,62.19 656.67,62.31 658.50,62.45 660.33,62.58 662.17,62.73 664.00,62.88 665.83,63.03 667.67,63.20 669.50,63.37 671.33,63.54 673.17,63.73 675.00,63.91 676.83,64.11 678.67,64.31 680.50,64.52 682.33,64.73 684.17,64.95 686.00,65.18 687.83,65.41 689.67,65.65 691.50,65.90 693.33,66.15 695.17,66.41 697.00,66.68 698.83,66.95 700.67,67.23 702.50,67.51 704.33,67.80 706.17,68.10 708.00,68.41 709.83,68.72 711.67,69.03 713.50,69.36 715.33,69.69 717.17,70.02 719.00,70.36 720.83,70.71 722.67,71.07 724.50,71.43 726.33,71.80 728.17,72.17 730.00,72.55 731.83,72.94 733.67,73.33 735.50,73.73 737.33,74.14 739.17,74.55 741.00,74.97 742.83,75.40 744.67,75.83 746.50,76.27 748.33,76.71 750.17,77.16 752.00,77.62 753.83,78.08 755.67,78.55 757.50,79.03 759.33,79.51 761.17,80.00 763.00,80.50 764.83,81.00 766.67,81.51 768.50,82.02 770.33,82.55 772.17,83.07 774.00,83.61 775.83,84.15 777.67,84.70 779.50,85.25 781.33,85.81 783.17,86.38 785.00,86.95 786.83,87.53 788.67,88.11 790.50,88.70 792.33,89.30 794.17,89.91 796.00,90.52 797.83,91.14 799.67,91.76 801.50,92.39 803.33,93.03 805.17,93.67 807.00,94.32 808.83,94.98 810.67,95.64 812.50,96.31 814.33,96.98 816.17,97.66 818.00,98.35 819.83,99.04 821.67,99.75 823.50,100.45 825.33,101.17 827.17,101.89 829.00,102.61 830.83,103.34 832.67,104.08 834.50,104.83 836.33,105.58 838.17,106.34 840.00,107.10 841.83,107.87 843.67,108.65 845.50,109.44 847.33,110.23 849.17,111.02 851.00,111.83 852.83,112.63 854.67,113.45 856.50,114.27 858.33,115.10 860.17,115.94 862.00,116.78 863.83,117.63 865.67,118.48 867.50,119.34 869.33,120.21 871.17,121.08 873.00,121.96 874.83,122.85 876.67,123.74 878.50,124.64 880.33,125.54 882.17,126.46 884.00,127.37 885.83,128.30 887.67,129.23 889.50,130.17 891.33,131.11 893.17,132.06 895.00,133.02 896.83,133.98 898.67,134.95 900.50,135.93 902.33,136.91 904.17,137.90 906.00,138.89 907.83,139.89 909.67,140.90 911.50,141.91 913.33,142.93 915.17,143.96 917.00,145.00 918.83,146.03 920.67,147.08 922.50,148.13 924.33,149.19 926.17,150.26 928.00,151.33 929.83,152.41 931.67,153.49 933.50,154.58 935.33,155.68 937.17,156.78 939.00,157.89 940.83,159.01 942.67,160.13 944.50,161.26 946.33,162.40 948.17,163.54 950.00,164.69 951.83,165.84 953.67,167.01 955.50,168.17 957.33,169.35 959.17,170.53 961.00,171.72 962.83,172.91 964.67,174.11 966.50,175.31 968.33,176.53 970.17,177.75 972.00,178.97 973.83,180.20 975.67,181.44 977.50,182.69 979.33,183.94 981.17,185.19 983.00,186.46 984.83,187.73 986.67,189.00 988.50,190.29 990.33,191.58 992.17,192.87 994.00,194.17 995.83,195.48 997.67,196.80 999.50,198.12 1001.33,199.45 1003.17,200.78 1005.00,202.12 1006.83,203.47 1008.67,204.82 1010.50,206.18 1012.33,207.55 1014.17,208.92 1016.00,210.30 1017.83,211.68 1019.67,213.07 1021.50,214.47 1023.33,215.88 1025.17,217.29 1027.00,218.71 1028.83,220.13 1030.67,221.56 1032.50,223.00 1034.33,224.44 1036.17,225.89 1038.00,227.34 1039.83,228.81 1041.67,230.27 1043.50,231.75 1045.33,233.23 1047.17,234.72 1049.00,236.21 1050.83,237.71 1052.67,239.22 1054.50,240.73 1056.33,242.25 1058.17,243.78 1060.00,245.31 1061.83,246.85 1063.67,248.39 1065.50,249.95 1067.33,251.50 1069.17,253.07 1071.00,254.64 1072.83,256.22 1074.67,257.80 1076.50,259.39 1078.33,260.99 1080.17,262.59 1082.00,264.20 1083.83,265.81 1085.67,267.44 1087.50,269.06 1089.33,270.70 1091.17,272.34 1093.00,273.99 1094.83,275.64 1096.67,277.30 1098.50,278.97 1100.33,280.64 1102.17,282.32 1104.00,284.01 1105.83,285.70 1107.67,287.40 1109.50,289.10 1111.33,290.82 1113.17,292.53 1115.00,294.26 1116.83,295.99 1118.67,297.73 1120.50,299.47 1122.33,301.22 1124.17,302.98 1126.00,304.74 1127.83,306.51 1129.67,308.28 1131.50,310.07 1133.33,311.85 1135.17,313.65 1137.00,315.45 1138.83,317.26 1140.67,319.07 1142.50,320.89 1144.33,322.72 1146.17,324.55 1148.00,326.39 1149.83,328.24 1151.67,330.09 1153.50,331.95 1155.33,333.81 1157.17,335.69 1159.00,337.56 1160.83,339.45 1162.67,341.34 1164.50,343.24 1166.33,345.14 1168.17,347.05 1170.00,348.97" fill="none" stroke="#009E73" stroke-width="3.2" stroke-opacity="0.38"/>
<polyline points="70.00,348.97 71.83,347.05 73.67,345.14 75.50,343.24 77.33,341.34 79.17,339.45 81.00,337.56 82.83,335.69 84.67,333.81 86.50,331.95 88.33,330.09 90.17,328.24 92.00,326.39 93.83,324.55 95.67,322.72 97.50,320.89 99.33,319.07 101.17,317.26 103.00,315.45 104.83,313.65 106.67,311.85 108.50,310.07 110.33,308.28 112.17,306.51 114.00,304.74 115.83,302.98 117.67,301.22 119.50,299.47 121.33,297.73 123.17,295.99 125.00,294.26 126.83,292.53 128.67,290.82 130.50,289.10 132.33,287.40 134.17,285.70 136.00,284.01 137.83,282.32 139.67,280.64 141.50,278.97 143.33,277.30 145.17,275.64 147.00,273.99 148.83,272.34 150.67,270.70 152.50,269.06 154.33,267.44 156.17,265.81 158.00,264.20 159.83,262.59 161.67,260.99 163.50,259.39 165.33,257.80 167.17,256.22 169.00,254.64 170.83,253.07 172.67,251.50 174.50,249.95 176.33,248.39 178.17,246.85 180.00,245.31 181.83,243.78 183.67,242.25 185.50,240.73 187.33,239.22 189.17,237.71 191.00,236.21 192.83,234.72 194.67,233.23 196.50,231.75 198.33,230.27 200.17,228.81 202.00,227.34 203.83,225.89 205.67,224.44 207.50,223.00 209.33,221.56 211.17,220.13 213.00,218.71 214.83,217.29 216.67,215.88 218.50,214.47 220.33,213.07 222.17,211.68 224.00,210.30 225.83,208.92 227.67,207.55 229.50,206.18 231.33,204.82 233.17,203.47 235.00,202.12 236.83,200.78 238.67,199.45 240.50,198.12 242.33,196.80 244.17,195.48 246.00,194.17 247.83,192.87 249.67,191.58 251.50,190.29 253.33,189.00 255.17,187.73 257.00,186.46 258.83,185.19 260.67,183.94 262.50,182.69 264.33,181.44 266.17,180.20 268.00,178.97 269.83,177.75 271.67,176.53 273.50,175.31 275.33,174.11 277.17,172.91 279.00,171.72 280.83,170.53 282.67,169.35 284.50,168.17 286.33,167.01 288.17,165.84 290.00,164.69 291.83,163.54 293.67,162.40 295.50,161.26 297.33,160.13 299.17,159.01 301.00,157.89 302.83,156.78 304.67,155.68 306.50,154.58 308.33,153.49 310.17,152.41 312.00,151.33 313.83,150.26 315.67,149.19 317.50,148.13 319.33,147.08 321.17,146.03 323.00,145.00 324.83,143.96 326.67,142.93 328.50,141.91 330.33,140.90 332.17,139.89 334.00,138.89 335.83,137.90 337.67,136.91 339.50,135.93 341.33,134.95 343.17,133.98 345.00,133.02 346.83,132.06 348.67,131.11 350.50,130.17 352.33,129.23 354.17,128.30 356.00,127.37 357.83,126.46 359.67,125.54 361.50,124.64 363.33,123.74 365.17,122.85 367.00,121.96 368.83,121.08 370.67,120.21 372.50,119.34 374.33,118.48 376.17,117.63 378.00,116.78 379.83,115.94 381.67,115.10 383.50,114.27 385.33,113.45 387.17,112.63 389.00,111.83 390.83,111.02 392.67,110.23 394.50,109.44 396.33,108.65 398.17,107.87 400.00,107.10 401.83,106.34 403.67,105.58 405.50,104.83 407.33,104.08 409.17,103.34 411.00,102.61 412.83,101.89 414.67,101.17 416.50,100.45 418.33,99.75 420.17,99.04 422.00,98.35 423.83,97.66 425.67,96.98 427.50,96.31 429.33,95.64 431.17,94.98 433.00,94.32 434.83,93.67 436.67,93.03 438.50,92.39 440.33,91.76 442.17,91.14 444.00,90.52 445.83,89.91 447.67,89.30 449.50,88.70 451.33,88.11 453.17,87.53 455.00,86.95 456.83,86.38 458.67,85.81 460.50,85.25 462.33,84.70 464.17,84.15 466.00,83.61 467.83,83.07 469.67,82.55 471.50,82.02 473.33,81.51 475.17,81.00 477.00,80.50 478.83,80.00 480.67,79.51 482.50,79.03 484.33,78.55 486.17,78.08 488.00,77.62 489.83,77.16 491.67,76.71 493.50,76.27 495.33,75.83 497.17,75.40 499.00,74.97 500.83,74.55 502.67,74.14 504.50,73.73 506.33,73.33 508.17,72.94 510.00,72.55 511.83,72.17 513.67,71.80 515.50,71.43 517.33,71.07 519.17,70.71 521.00,70.36 522.83,70.02 524.67,69.69 526.50,69.36 528.33,69.03 530.17,68.72 532.00,68.41 533.83,68.10 535.67,67.80 537.50,67.51 539.33,67.23 541.17,66.95 543.00,66.68 544.83,66.41 546.67,66.15 548.50,65.90 550.33,65.65 552.17,65.41 554.00,65.18 555.83,64.95 557.67,64.73 559.50,64.52 561.33,64.31 563.17,64.11 565.00,63.91 566.83,63.73 568.67,63.54 570.50,63.37 572.33,63.20 574.17,63.03 576.00,62.88 577.83,62.73 579.67,62.58 581.50,62.45 583.33,62.31 585.17,62.19 587.00,62.07 588.83,61.96 590.67,61.85 592.50,61.75 594.33,61.66 596.17,61.58 598.00,61.50 599.83,61.42 601.67,61.35 603.50,61.29 605.33,61.24 607.17,61.19 609.00,61.15 610.83,61.11 612.67,61.09 614.50,61.06 616.33,61.05 618.17,61.04 620.00,61.03 621.83,61.04 623.67,61.05 625.50,61.06 627.33,61.09 629.17,61.11 631.00,61.15 632.83,61.19 634.67,61.24 636.50,61.29 638.33,61.35 640.17,61.42 642.00,61.50 643.83,61.58 645.67,61.66 647.50,61.75 649.33,61.85 651.17,61.96 653.00,62.07 654.83,62.19 656.67,62.31 658.50,62.45 660.33,62.58 662.17,62.73 664.00,62.88 665.83,63.03 667.67,63.20 669.50,63.37 671.33,63.54 673.17,63.73 675.00,63.91 676.83,64.11 678.67,64.31 680.50,64.52 682.33,64.73 684.17,64.95 686.00,65.18 687.83,65.41 689.67,65.65 691.50,65.90 693.33,66.15 695.17,66.41 697.00,66.68 698.83,66.95 700.67,67.23 702.50,67.51 704.33,67.80 706.17,68.10 708.00,68.41 709.83,68.72 711.67,69.03 713.50,69.36 715.33,69.69 717.17,70.02 719.00,70.36 720.83,70.71 722.67,71.07 724.50,71.43 726.33,71.80 728.17,72.17 730.00,72.55 731.83,72.94 733.67,73.33 735.50,73.73 737.33,74.14 739.17,74.55 741.00,74.97 742.83,75.40 744.67,75.83 746.50,76.27 748.33,76.71 750.17,77.16 752.00,77.62 753.83,78.08 755.67,78.55 757.50,79.03 759.33,79.51 761.17,80.00 763.00,80.50 764.83,81.00 766.67,81.51 768.50,82.02 770.33,82.55 772.17,83.07 774.00,83.61 775.83,84.15 777.67,84.70 779.50,85.25 781.33,85.81 783.17,86.38 785.00,86.95 786.83,87.53 788.67,88.11 790.50,88.70 792.33,89.30 794.17,89.91 796.00,90.52 797.83,91.14 799.67,91.76 801.50,92.39 803.33,93.03 805.17,93.67 807.00,94.32 808.83,94.98 810.67,95.64 812.50,96.31 814.33,96.98 816.17,97.66 818.00,98.35 819.83,99.04 821.67,99.75 823.50,100.45 825.33,101.17 827.17,101.89 829.00,102.61 830.83,103.34 832.67,104.08 834.50,104.83 836.33,105.58 838.17,106.34 840.00,107.10 841.83,107.87 843.67,108.65 845.50,109.44 847.33,110.23 849.17,111.02 851.00,111.83 852.83,112.63 854.67,113.45 856.50,114.27 858.33,115.10 860.17,115.94 862.00,116.78 863.83,117.63 865.67,118.48 867.50,119.34 869.33,120.21 871.17,121.08 873.00,121.96 874.83,122.85 876.67,123.74 878.50,124.64 880.33,125.54 882.17,126.46 884.00,127.37 885.83,128.30 887.67,129.23 889.50,130.17 891.33,131.11 893.17,132.06 895.00,133.02 896.83,133.98 898.67,134.95 900.50,135.93 902.33,136.91 904.17,137.90 906.00,138.89 907.83,139.89 909.67,140.90 911.50,141.91 913.33,142.93 915.17,143.96 917.00,145.00 918.83,146.03 920.67,147.08 922.50,148.13 924.33,149.19 926.17,150.26 928.00,151.33 929.83,152.41 931.67,153.49 933.50,154.58 935.33,155.68 937.17,156.78 939.00,157.89 940.83,159.01 942.67,160.13 944.50,161.26 946.33,162.40 948.17,163.54 950.00,164.69 951.83,165.84 953.67,167.01 955.50,168.17 957.33,169.35 959.17,170.53 961.00,171.72 962.83,172.91 964.67,174.11 966.50,175.31 968.33,176.53 970.17,177.75 972.00,178.97 973.83,180.20 975.67,181.44 977.50,182.69 979.33,183.94 981.17,185.19 983.00,186.46 984.83,187.73 986.67,189.00 988.50,190.29 990.33,191.58 992.17,192.87 994.00,194.17 995.83,195.48 997.67,196.80 999.50,198.12 1001.33,199.45 1003.17,200.78 1005.00,202.12 1006.83,203.47 1008.67,204.82 1010.50,206.18 1012.33,207.55 1014.17,208.92 1016.00,210.30 1017.83,211.68 1019.67,213.07 1021.50,214.47 1023.33,215.88 1025.17,217.29 1027.00,218.71 1028.83,220.13 1030.67,221.56 1032.50,223.00 1034.33,224.44 1036.17,225.89 1038.00,227.34 1039.83,228.81 1041.67,230.27 1043.50,231.75 1045.33,233.23 1047.17,234.72 1049.00,236.21 1050.83,237.71 1052.67,239.22 1054.50,240.73 1056.33,242.25 1058.17,243.78 1060.00,245.31 1061.83,246.85 1063.67,248.39 1065.50,249.95 1067.33,251.50 1069.17,253.07 1071.00,254.64 1072.83,256.22 1074.67,257.80 1076.50,259.39 1078.33,260.99 1080.17,262.59 1082.00,264.20 1083.83,265.81 1085.67,267.44 1087.50,269.06 1089.33,270.70 1091.17,272.34 1093.00,273.99 1094.83,275.64 1096.67,277.30 1098.50,278.97 1100.33,280.64 1102.17,282.32 1104.00,284.01 1105.83,285.70 1107.67,287.40 1109.50,289.10 1111.33,290.82 1113.17,292.53 1115.00,294.26 1116.83,295.99 1118.67,297.73 1120.50,299.47 1122.33,301.22 1124.17,302.98 1126.00,304.74 1127.83,306.51 1129.67,308.28 1131.50,310.07 1133.33,311.85 1135.17,313.65 1137.00,315.45 1138.83,317.26 1140.67,319.07 1142.50,320.89 1144.33,322.72 1146.17,324.55 1148.00,326.39 1149.83,328.24 1151.67,330.09 1153.50,331.95 1155.33,333.81 1157.17,335.69 1159.00,337.56 1160.83,339.45 1162.67,341.34 1164.50,343.24 1166.33,345.14 1168.17,347.05 1170.00,348.97" fill="none" stroke="#009E73" stroke-width="2.8" stroke-opacity="1.0" stroke-dasharray="12 5"/>
<line x1="82" y1="48" x2="104" y2="48" stroke="#0072B2" stroke-width="3.2" stroke-opacity="0.38"/>
<text x="110" y="52" font-family="Arial" font-size="12">Reference coefficient from full equation, mu=1.5</text>
<line x1="82" y1="66" x2="104" y2="66" stroke="#0072B2" stroke-width="2.8" stroke-opacity="1.0" stroke-dasharray="2 4"/>
<text x="110" y="70" font-family="Arial" font-size="12">Slot-constrained coefficient SINDy model, mu=1.5</text>
<line x1="82" y1="84" x2="104" y2="84" stroke="#D55E00" stroke-width="3.2" stroke-opacity="0.38"/>
<text x="110" y="88" font-family="Arial" font-size="12">Reference coefficient from full equation, mu=3</text>
<line x1="82" y1="102" x2="104" y2="102" stroke="#D55E00" stroke-width="2.8" stroke-opacity="1.0" stroke-dasharray="10 3 2 3"/>
<text x="110" y="106" font-family="Arial" font-size="12">Slot-constrained coefficient SINDy model, mu=3</text>
<line x1="82" y1="120" x2="104" y2="120" stroke="#009E73" stroke-width="3.2" stroke-opacity="0.38"/>
<text x="110" y="124" font-family="Arial" font-size="12">Reference coefficient from full equation, mu=5</text>
<line x1="82" y1="138" x2="104" y2="138" stroke="#009E73" stroke-width="2.8" stroke-opacity="1.0" stroke-dasharray="12 5"/>
<text x="110" y="142" font-family="Arial" font-size="12">Slot-constrained coefficient SINDy model, mu=5</text>
</svg>