<svg xmlns="http://www.w3.org/2000/svg" width="1200" height="430" viewBox="0 0 1200 430">
<rect width="100%" height="100%" fill="white"/>
<text x="600" y="24" text-anchor="middle" font-family="Arial" font-size="18">E1a 恢复的阻尼系数函数 p_c(x1)</text>
<line x1="70" y1="372" x2="1170" y2="372" stroke="#333" stroke-width="1"/>
<line x1="70" y1="38" x2="70" y2="372" stroke="#333" stroke-width="1"/>
<text x="620" y="416" text-anchor="middle" font-family="Arial" font-size="13">状态 x1</text>
<text transform="translate(18,205) rotate(-90)" text-anchor="middle" font-family="Arial" font-size="13">阻尼系数 p_c(x1)</text>
<line x1="70.00" y1="372" x2="70.00" y2="377" stroke="#333"/>
<text x="70.00" y="392" text-anchor="middle" font-family="Arial" font-size="11">-3.0</text>
<line x1="290.00" y1="372" x2="290.00" y2="377" stroke="#333"/>
<text x="290.00" y="392" text-anchor="middle" font-family="Arial" font-size="11">-1.8</text>
<line x1="510.00" y1="372" x2="510.00" y2="377" stroke="#333"/>
<text x="510.00" y="392" text-anchor="middle" font-family="Arial" font-size="11">-0.6</text>
<line x1="730.00" y1="372" x2="730.00" y2="377" stroke="#333"/>
<text x="730.00" y="392" text-anchor="middle" font-family="Arial" font-size="11">0.6</text>
<line x1="950.00" y1="372" x2="950.00" y2="377" stroke="#333"/>
<text x="950.00" y="392" text-anchor="middle" font-family="Arial" font-size="11">1.8</text>
<line x1="1170.00" y1="372" x2="1170.00" y2="377" stroke="#333"/>
<text x="1170.00" y="392" text-anchor="middle" font-family="Arial" font-size="11">3.0</text>
<line x1="65" y1="372.00" x2="70" y2="372.00" stroke="#333"/>
<text x="62" y="376.00" text-anchor="end" font-family="Arial" font-size="11">-17.44</text>
<line x1="65" y1="288.50" x2="70" y2="288.50" stroke="#333"/>
<text x="62" y="292.50" text-anchor="end" font-family="Arial" font-size="11">-12.22</text>
<line x1="65" y1="205.00" x2="70" y2="205.00" stroke="#333"/>
<text x="62" y="209.00" text-anchor="end" font-family="Arial" font-size="11">-7.00</text>
<line x1="65" y1="121.50" x2="70" y2="121.50" stroke="#333"/>
<text x="62" y="125.50" text-anchor="end" font-family="Arial" font-size="11">-1.78</text>
<line x1="65" y1="38.00" x2="70" y2="38.00" stroke="#333"/>
<text x="62" y="42.00" text-anchor="end" font-family="Arial" font-size="11">3.44</text>
<polyline points="70.00,348.97 71.83,347.05 73.67,345.14 75.50,343.24 77.33,341.34 79.17,339.45 81.00,337.56 82.83,335.69 84.67,333.81 86.50,331.95 88.33,330.09 90.17,328.24 92.00,326.39 93.83,324.55 95.67,322.72 97.50,320.89 99.33,319.07 101.17,317.26 103.00,315.45 104.83,313.65 106.67,311.85 108.50,310.07 110.33,308.28 112.17,306.51 114.00,304.74 115.83,302.98 117.67,301.22 119.50,299.47 121.33,297.73 123.17,295.99 125.00,294.26 126.83,292.53 128.67,290.82 130.50,289.10 132.33,287.40 134.17,285.70 136.00,284.01 137.83,282.32 139.67,280.64 141.50,278.97 143.33,277.30 145.17,275.64 147.00,273.99 148.83,272.34 150.67,270.70 152.50,269.06 154.33,267.44 156.17,265.81 158.00,264.20 159.83,262.59 161.67,260.99 163.50,259.39 165.33,257.80 167.17,256.22 169.00,254.64 170.83,253.07 172.67,251.50 174.50,249.95 176.33,248.39 178.17,246.85 180.00,245.31 181.83,243.78 183.67,242.25 185.50,240.73 187.33,239.22 189.17,237.71 191.00,236.21 192.83,234.72 194.67,233.23 196.50,231.75 198.33,230.27 200.17,228.81 202.00,227.34 203.83,225.89 205.67,224.44 207.50,223.00 209.33,221.56 211.17,220.13 213.00,218.71 214.83,217.29 216.67,215.88 218.50,214.47 220.33,213.07 222.17,211.68 224.00,210.30 225.83,208.92 227.67,207.55 229.50,206.18 231.33,204.82 233.17,203.47 235.00,202.12 236.83,200.78 238.67,199.45 240.50,198.12 242.33,196.80 244.17,195.48 246.00,194.17 247.83,192.87 249.67,191.58 251.50,190.29 253.33,189.00 255.17,187.73 257.00,186.46 258.83,185.19 260.67,183.94 262.50,182.69 264.33,181.44 266.17,180.20 268.00,178.97 269.83,177.75 271.67,176.53 273.50,175.31 275.33,174.11 277.17,172.91 279.00,171.72 280.83,170.53 282.67,169.35 284.50,168.17 286.33,167.01 288.17,165.84 290.00,164.69 291.83,163.54 293.67,162.40 295.50,161.26 297.33,160.13 299.17,159.01 301.00,157.89 302.83,156.78 304.67,155.68 306.50,154.58 308.33,153.49 310.17,152.41 312.00,151.33 313.83,150.26 315.67,149.19 317.50,148.13 319.33,147.08 321.17,146.03 323.00,145.00 324.83,143.96 326.67,142.93 328.50,141.91 330.33,140.90 332.17,139.89 334.00,138.89 335.83,137.90 337.67,136.91 339.50,135.93 341.33,134.95 343.17,133.98 345.00,133.02 346.83,132.06 348.67,131.11 350.50,130.17 352.33,129.23 354.17,128.30 356.00,127.37 357.83,126.46 359.67,125.54 361.50,124.64 363.33,123.74 365.17,122.85 367.00,121.96 368.83,121.08 370.67,120.21 372.50,119.34 374.33,118.48 376.17,117.63 378.00,116.78 379.83,115.94 381.67,115.10 383.50,114.27 385.33,113.45 387.17,112.63 389.00,111.83 390.83,111.02 392.67,110.23 394.50,109.44 396.33,108.65 398.17,107.87 400.00,107.10 401.83,106.34 403.67,105.58 405.50,104.83 407.33,104.08 409.17,103.34 411.00,102.61 412.83,101.89 414.67,101.17 416.50,100.45 418.33,99.75 420.17,99.04 422.00,98.35 423.83,97.66 425.67,96.98 427.50,96.31 429.33,95.64 431.17,94.98 433.00,94.32 434.83,93.67 436.67,93.03 438.50,92.39 440.33,91.76 442.17,91.14 444.00,90.52 445.83,89.91 447.67,89.30 449.50,88.70 451.33,88.11 453.17,87.53 455.00,86.95 456.83,86.38 458.67,85.81 460.50,85.25 462.33,84.70 464.17,84.15 466.00,83.61 467.83,83.07 469.67,82.55 471.50,82.02 473.33,81.51 475.17,81.00 477.00,80.50 478.83,80.00 480.67,79.51 482.50,79.03 484.33,78.55 486.17,78.08 488.00,77.62 489.83,77.16 491.67,76.71 493.50,76.27 495.33,75.83 497.17,75.40 499.00,74.97 500.83,74.55 502.67,74.14 504.50,73.73 506.33,73.33 508.17,72.94 510.00,72.55 511.83,72.17 513.67,71.80 515.50,71.43 517.33,71.07 519.17,70.71 521.00,70.36 522.83,70.02 524.67,69.69 526.50,69.36 528.33,69.03 530.17,68.72 532.00,68.41 533.83,68.10 535.67,67.80 537.50,67.51 539.33,67.23 541.17,66.95 543.00,66.68 544.83,66.41 546.67,66.15 548.50,65.90 550.33,65.65 552.17,65.41 554.00,65.18 555.83,64.95 557.67,64.73 559.50,64.52 561.33,64.31 563.17,64.11 565.00,63.91 566.83,63.73 568.67,63.54 570.50,63.37 572.33,63.20 574.17,63.03 576.00,62.88 577.83,62.73 579.67,62.58 581.50,62.45 583.33,62.31 585.17,62.19 587.00,62.07 588.83,61.96 590.67,61.85 592.50,61.75 594.33,61.66 596.17,61.58 598.00,61.50 599.83,61.42 601.67,61.35 603.50,61.29 605.33,61.24 607.17,61.19 609.00,61.15 610.83,61.11 612.67,61.09 614.50,61.06 616.33,61.05 618.17,61.04 620.00,61.03 621.83,61.04 623.67,61.05 625.50,61.06 627.33,61.09 629.17,61.11 631.00,61.15 632.83,61.19 634.67,61.24 636.50,61.29 638.33,61.35 640.17,61.42 642.00,61.50 643.83,61.58 645.67,61.66 647.50,61.75 649.33,61.85 651.17,61.96 653.00,62.07 654.83,62.19 656.67,62.31 658.50,62.45 660.33,62.58 662.17,62.73 664.00,62.88 665.83,63.03 667.67,63.20 669.50,63.37 671.33,63.54 673.17,63.73 675.00,63.91 676.83,64.11 678.67,64.31 680.50,64.52 682.33,64.73 684.17,64.95 686.00,65.18 687.83,65.41 689.67,65.65 691.50,65.90 693.33,66.15 695.17,66.41 697.00,66.68 698.83,66.95 700.67,67.23 702.50,67.51 704.33,67.80 706.17,68.10 708.00,68.41 709.83,68.72 711.67,69.03 713.50,69.36 715.33,69.69 717.17,70.02 719.00,70.36 720.83,70.71 722.67,71.07 724.50,71.43 726.33,71.80 728.17,72.17 730.00,72.55 731.83,72.94 733.67,73.33 735.50,73.73 737.33,74.14 739.17,74.55 741.00,74.97 742.83,75.40 744.67,75.83 746.50,76.27 748.33,76.71 750.17,77.16 752.00,77.62 753.83,78.08 755.67,78.55 757.50,79.03 759.33,79.51 761.17,80.00 763.00,80.50 764.83,81.00 766.67,81.51 768.50,82.02 770.33,82.55 772.17,83.07 774.00,83.61 775.83,84.15 777.67,84.70 779.50,85.25 781.33,85.81 783.17,86.38 785.00,86.95 786.83,87.53 788.67,88.11 790.50,88.70 792.33,89.30 794.17,89.91 796.00,90.52 797.83,91.14 799.67,91.76 801.50,92.39 803.33,93.03 805.17,93.67 807.00,94.32 808.83,94.98 810.67,95.64 812.50,96.31 814.33,96.98 816.17,97.66 818.00,98.35 819.83,99.04 821.67,99.75 823.50,100.45 825.33,101.17 827.17,101.89 829.00,102.61 830.83,103.34 832.67,104.08 834.50,104.83 836.33,105.58 838.17,106.34 840.00,107.10 841.83,107.87 843.67,108.65 845.50,109.44 847.33,110.23 849.17,111.02 851.00,111.83 852.83,112.63 854.67,113.45 856.50,114.27 858.33,115.10 860.17,115.94 862.00,116.78 863.83,117.63 865.67,118.48 867.50,119.34 869.33,120.21 871.17,121.08 873.00,121.96 874.83,122.85 876.67,123.74 878.50,124.64 880.33,125.54 882.17,126.46 884.00,127.37 885.83,128.30 887.67,129.23 889.50,130.17 891.33,131.11 893.17,132.06 895.00,133.02 896.83,133.98 898.67,134.95 900.50,135.93 902.33,136.91 904.17,137.90 906.00,138.89 907.83,139.89 909.67,140.90 911.50,141.91 913.33,142.93 915.17,143.96 917.00,145.00 918.83,146.03 920.67,147.08 922.50,148.13 924.33,149.19 926.17,150.26 928.00,151.33 929.83,152.41 931.67,153.49 933.50,154.58 935.33,155.68 937.17,156.78 939.00,157.89 940.83,159.01 942.67,160.13 944.50,161.26 946.33,162.40 948.17,163.54 950.00,164.69 951.83,165.84 953.67,167.01 955.50,168.17 957.33,169.35 959.17,170.53 961.00,171.72 962.83,172.91 964.67,174.11 966.50,175.31 968.33,176.53 970.17,177.75 972.00,178.97 973.83,180.20 975.67,181.44 977.50,182.69 979.33,183.94 981.17,185.19 983.00,186.46 984.83,187.73 986.67,189.00 988.50,190.29 990.33,191.58 992.17,192.87 994.00,194.17 995.83,195.48 997.67,196.80 999.50,198.12 1001.33,199.45 1003.17,200.78 1005.00,202.12 1006.83,203.47 1008.67,204.82 1010.50,206.18 1012.33,207.55 1014.17,208.92 1016.00,210.30 1017.83,211.68 1019.67,213.07 1021.50,214.47 1023.33,215.88 1025.17,217.29 1027.00,218.71 1028.83,220.13 1030.67,221.56 1032.50,223.00 1034.33,224.44 1036.17,225.89 1038.00,227.34 1039.83,228.81 1041.67,230.27 1043.50,231.75 1045.33,233.23 1047.17,234.72 1049.00,236.21 1050.83,237.71 1052.67,239.22 1054.50,240.73 1056.33,242.25 1058.17,243.78 1060.00,245.31 1061.83,246.85 1063.67,248.39 1065.50,249.95 1067.33,251.50 1069.17,253.07 1071.00,254.64 1072.83,256.22 1074.67,257.80 1076.50,259.39 1078.33,260.99 1080.17,262.59 1082.00,264.20 1083.83,265.81 1085.67,267.44 1087.50,269.06 1089.33,270.70 1091.17,272.34 1093.00,273.99 1094.83,275.64 1096.67,277.30 1098.50,278.97 1100.33,280.64 1102.17,282.32 1104.00,284.01 1105.83,285.70 1107.67,287.40 1109.50,289.10 1111.33,290.82 1113.17,292.53 1115.00,294.26 1116.83,295.99 1118.67,297.73 1120.50,299.47 1122.33,301.22 1124.17,302.98 1126.00,304.74 1127.83,306.51 1129.67,308.28 1131.50,310.07 1133.33,311.85 1135.17,313.65 1137.00,315.45 1138.83,317.26 1140.67,319.07 1142.50,320.89 1144.33,322.72 1146.17,324.55 1148.00,326.39 1149.83,328.24 1151.67,330.09 1153.50,331.95 1155.33,333.81 1157.17,335.69 1159.00,337.56 1160.83,339.45 1162.67,341.34 1164.50,343.24 1166.33,345.14 1168.17,347.05 1170.00,348.97" fill="none" stroke="#4D4D4D" stroke-width="3.2" stroke-opacity="0.55"/>
<polyline points="70.00,348.97 71.83,347.05 73.67,345.14 75.50,343.24 77.33,341.34 79.17,339.45 81.00,337.56 82.83,335.69 84.67,333.81 86.50,331.95 88.33,330.09 90.17,328.24 92.00,326.39 93.83,324.55 95.67,322.72 97.50,320.89 99.33,319.07 101.17,317.26 103.00,315.45 104.83,313.65 106.67,311.85 108.50,310.07 110.33,308.28 112.17,306.51 114.00,304.74 115.83,302.98 117.67,301.22 119.50,299.47 121.33,297.73 123.17,295.99 125.00,294.26 126.83,292.53 128.67,290.82 130.50,289.10 132.33,287.40 134.17,285.70 136.00,284.01 137.83,282.32 139.67,280.64 141.50,278.97 143.33,277.30 145.17,275.64 147.00,273.99 148.83,272.34 150.67,270.70 152.50,269.06 154.33,267.44 156.17,265.81 158.00,264.20 159.83,262.59 161.67,260.99 163.50,259.39 165.33,257.80 167.17,256.22 169.00,254.64 170.83,253.07 172.67,251.50 174.50,249.95 176.33,248.39 178.17,246.85 180.00,245.31 181.83,243.78 183.67,242.25 185.50,240.73 187.33,239.22 189.17,237.71 191.00,236.21 192.83,234.72 194.67,233.23 196.50,231.75 198.33,230.27 200.17,228.81 202.00,227.34 203.83,225.89 205.67,224.44 207.50,223.00 209.33,221.56 211.17,220.13 213.00,218.71 214.83,217.29 216.67,215.88 218.50,214.47 220.33,213.07 222.17,211.68 224.00,210.30 225.83,208.92 227.67,207.55 229.50,206.18 231.33,204.82 233.17,203.47 235.00,202.12 236.83,200.78 238.67,199.45 240.50,198.12 242.33,196.80 244.17,195.48 246.00,194.17 247.83,192.87 249.67,191.58 251.50,190.29 253.33,189.00 255.17,187.73 257.00,186.46 258.83,185.19 260.67,183.94 262.50,182.69 264.33,181.44 266.17,180.20 268.00,178.97 269.83,177.75 271.67,176.53 273.50,175.31 275.33,174.11 277.17,172.91 279.00,171.72 280.83,170.53 282.67,169.35 284.50,168.17 286.33,167.01 288.17,165.84 290.00,164.69 291.83,163.54 293.67,162.40 295.50,161.26 297.33,160.13 299.17,159.01 301.00,157.89 302.83,156.78 304.67,155.68 306.50,154.58 308.33,153.49 310.17,152.41 312.00,151.33 313.83,150.26 315.67,149.19 317.50,148.13 319.33,147.08 321.17,146.03 323.00,145.00 324.83,143.96 326.67,142.93 328.50,141.91 330.33,140.90 332.17,139.89 334.00,138.89 335.83,137.90 337.67,136.91 339.50,135.93 341.33,134.95 343.17,133.98 345.00,133.02 346.83,132.06 348.67,131.11 350.50,130.17 352.33,129.23 354.17,128.30 356.00,127.37 357.83,126.46 359.67,125.54 361.50,124.64 363.33,123.74 365.17,122.85 367.00,121.96 368.83,121.08 370.67,120.21 372.50,119.34 374.33,118.48 376.17,117.63 378.00,116.78 379.83,115.94 381.67,115.10 383.50,114.27 385.33,113.45 387.17,112.63 389.00,111.83 390.83,111.02 392.67,110.23 394.50,109.44 396.33,108.65 398.17,107.87 400.00,107.10 401.83,106.34 403.67,105.58 405.50,104.83 407.33,104.08 409.17,103.34 411.00,102.61 412.83,101.89 414.67,101.17 416.50,100.45 418.33,99.75 420.17,99.04 422.00,98.35 423.83,97.66 425.67,96.98 427.50,96.31 429.33,95.64 431.17,94.98 433.00,94.32 434.83,93.67 436.67,93.03 438.50,92.39 440.33,91.76 442.17,91.14 444.00,90.52 445.83,89.91 447.67,89.30 449.50,88.70 451.33,88.11 453.17,87.53 455.00,86.95 456.83,86.38 458.67,85.81 460.50,85.25 462.33,84.70 464.17,84.15 466.00,83.61 467.83,83.07 469.67,82.55 471.50,82.02 473.33,81.51 475.17,81.00 477.00,80.50 478.83,80.00 480.67,79.51 482.50,79.03 484.33,78.55 486.17,78.08 488.00,77.62 489.83,77.16 491.67,76.71 493.50,76.27 495.33,75.83 497.17,75.40 499.00,74.97 500.83,74.55 502.67,74.14 504.50,73.73 506.33,73.33 508.17,72.94 510.00,72.55 511.83,72.17 513.67,71.80 515.50,71.43 517.33,71.07 519.17,70.71 521.00,70.36 522.83,70.02 524.67,69.69 526.50,69.36 528.33,69.03 530.17,68.72 532.00,68.41 533.83,68.10 535.67,67.80 537.50,67.51 539.33,67.23 541.17,66.95 543.00,66.68 544.83,66.41 546.67,66.15 548.50,65.90 550.33,65.65 552.17,65.41 554.00,65.18 555.83,64.95 557.67,64.73 559.50,64.52 561.33,64.31 563.17,64.11 565.00,63.91 566.83,63.73 568.67,63.54 570.50,63.37 572.33,63.20 574.17,63.03 576.00,62.88 577.83,62.73 579.67,62.58 581.50,62.45 583.33,62.31 585.17,62.19 587.00,62.07 588.83,61.96 590.67,61.85 592.50,61.75 594.33,61.66 596.17,61.58 598.00,61.50 599.83,61.42 601.67,61.35 603.50,61.29 605.33,61.24 607.17,61.19 609.00,61.15 610.83,61.11 612.67,61.09 614.50,61.06 616.33,61.05 618.17,61.04 620.00,61.03 621.83,61.04 623.67,61.05 625.50,61.06 627.33,61.09 629.17,61.11 631.00,61.15 632.83,61.19 634.67,61.24 636.50,61.29 638.33,61.35 640.17,61.42 642.00,61.50 643.83,61.58 645.67,61.66 647.50,61.75 649.33,61.85 651.17,61.96 653.00,62.07 654.83,62.19 656.67,62.31 658.50,62.45 660.33,62.58 662.17,62.73 664.00,62.88 665.83,63.03 667.67,63.20 669.50,63.37 671.33,63.54 673.17,63.73 675.00,63.91 676.83,64.11 678.67,64.31 680.50,64.52 682.33,64.73 684.17,64.95 686.00,65.18 687.83,65.41 689.67,65.65 691.50,65.90 693.33,66.15 695.17,66.41 697.00,66.68 698.83,66.95 700.67,67.23 702.50,67.51 704.33,67.80 706.17,68.10 708.00,68.41 709.83,68.72 711.67,69.03 713.50,69.36 715.33,69.69 717.17,70.02 719.00,70.36 720.83,70.71 722.67,71.07 724.50,71.43 726.33,71.80 728.17,72.17 730.00,72.55 731.83,72.94 733.67,73.33 735.50,73.73 737.33,74.14 739.17,74.55 741.00,74.97 742.83,75.40 744.67,75.83 746.50,76.27 748.33,76.71 750.17,77.16 752.00,77.62 753.83,78.08 755.67,78.55 757.50,79.03 759.33,79.51 761.17,80.00 763.00,80.50 764.83,81.00 766.67,81.51 768.50,82.02 770.33,82.55 772.17,83.07 774.00,83.61 775.83,84.15 777.67,84.70 779.50,85.25 781.33,85.81 783.17,86.38 785.00,86.95 786.83,87.53 788.67,88.11 790.50,88.70 792.33,89.30 794.17,89.91 796.00,90.52 797.83,91.14 799.67,91.76 801.50,92.39 803.33,93.03 805.17,93.67 807.00,94.32 808.83,94.98 810.67,95.64 812.50,96.31 814.33,96.98 816.17,97.66 818.00,98.35 819.83,99.04 821.67,99.75 823.50,100.45 825.33,101.17 827.17,101.89 829.00,102.61 830.83,103.34 832.67,104.08 834.50,104.83 836.33,105.58 838.17,106.34 840.00,107.10 841.83,107.87 843.67,108.65 845.50,109.44 847.33,110.23 849.17,111.02 851.00,111.83 852.83,112.63 854.67,113.45 856.50,114.27 858.33,115.10 860.17,115.94 862.00,116.78 863.83,117.63 865.67,118.48 867.50,119.34 869.33,120.21 871.17,121.08 873.00,121.96 874.83,122.85 876.67,123.74 878.50,124.64 880.33,125.54 882.17,126.46 884.00,127.37 885.83,128.30 887.67,129.23 889.50,130.17 891.33,131.11 893.17,132.06 895.00,133.02 896.83,133.98 898.67,134.95 900.50,135.93 902.33,136.91 904.17,137.90 906.00,138.89 907.83,139.89 909.67,140.90 911.50,141.91 913.33,142.93 915.17,143.96 917.00,145.00 918.83,146.03 920.67,147.08 922.50,148.13 924.33,149.19 926.17,150.26 928.00,151.33 929.83,152.41 931.67,153.49 933.50,154.58 935.33,155.68 937.17,156.78 939.00,157.89 940.83,159.01 942.67,160.13 944.50,161.26 946.33,162.40 948.17,163.54 950.00,164.69 951.83,165.84 953.67,167.01 955.50,168.17 957.33,169.35 959.17,170.53 961.00,171.72 962.83,172.91 964.67,174.11 966.50,175.31 968.33,176.53 970.17,177.75 972.00,178.97 973.83,180.20 975.67,181.44 977.50,182.69 979.33,183.94 981.17,185.19 983.00,186.46 984.83,187.73 986.67,189.00 988.50,190.29 990.33,191.58 992.17,192.87 994.00,194.17 995.83,195.48 997.67,196.80 999.50,198.12 1001.33,199.45 1003.17,200.78 1005.00,202.12 1006.83,203.47 1008.67,204.82 1010.50,206.18 1012.33,207.55 1014.17,208.92 1016.00,210.30 1017.83,211.68 1019.67,213.07 1021.50,214.47 1023.33,215.88 1025.17,217.29 1027.00,218.71 1028.83,220.13 1030.67,221.56 1032.50,223.00 1034.33,224.44 1036.17,225.89 1038.00,227.34 1039.83,228.81 1041.67,230.27 1043.50,231.75 1045.33,233.23 1047.17,234.72 1049.00,236.21 1050.83,237.71 1052.67,239.22 1054.50,240.73 1056.33,242.25 1058.17,243.78 1060.00,245.31 1061.83,246.85 1063.67,248.39 1065.50,249.95 1067.33,251.50 1069.17,253.07 1071.00,254.64 1072.83,256.22 1074.67,257.80 1076.50,259.39 1078.33,260.99 1080.17,262.59 1082.00,264.20 1083.83,265.81 1085.67,267.44 1087.50,269.06 1089.33,270.70 1091.17,272.34 1093.00,273.99 1094.83,275.64 1096.67,277.30 1098.50,278.97 1100.33,280.64 1102.17,282.32 1104.00,284.01 1105.83,285.70 1107.67,287.40 1109.50,289.10 1111.33,290.82 1113.17,292.53 1115.00,294.26 1116.83,295.99 1118.67,297.73 1120.50,299.47 1122.33,301.22 1124.17,302.98 1126.00,304.74 1127.83,306.51 1129.67,308.28 1131.50,310.07 1133.33,311.85 1135.17,313.65 1137.00,315.45 1138.83,317.26 1140.67,319.07 1142.50,320.89 1144.33,322.72 1146.17,324.55 1148.00,326.39 1149.83,328.24 1151.67,330.09 1153.50,331.95 1155.33,333.81 1157.17,335.69 1159.00,337.56 1160.83,339.45 1162.67,341.34 1164.50,343.24 1166.33,345.14 1168.17,347.05 1170.00,348.97" fill="none" stroke="#009E73" stroke-width="2.8" stroke-opacity="1.0" stroke-dasharray="12 5"/>
<line x1="82" y1="48" x2="104" y2="48" stroke="#4D4D4D" stroke-width="3.2" stroke-opacity="0.55"/>
<text x="110" y="52" font-family="Arial" font-size="12">完整方程参考阻尼系数</text>
<line x1="82" y1="66" x2="104" y2="66" stroke="#009E73" stroke-width="2.8" stroke-opacity="1.0" stroke-dasharray="12 5"/>
<text x="110" y="70" font-family="Arial" font-size="12">系数槽约束 SINDy 模型</text>
</svg>