<svg xmlns="http://www.w3.org/2000/svg" width="1060" height="460" viewBox="0 0 1060 460">
  <rect width="1060" height="460" fill="#ffffff"/>
  <text x="86" y="36" font-family="Noto Sans CJK SC, DejaVu Sans, Arial" font-size="20" fill="#111827">BATT-3c current-sign RMSE comparison</text>
  <rect x="86.0" y="70.0" width="760.0" height="320.0" fill="#ffffff" stroke="#d1d5db"/>
  <line x1="86.0" y1="390.0" x2="846.0" y2="390.0" stroke="#6b7280"/>
  <line x1="86.0" y1="70.0" x2="86.0" y2="390.0" stroke="#6b7280"/>
  <text x="25" y="230.0" transform="rotate(-90 25 230.0)" text-anchor="middle" font-family="Noto Sans CJK SC, DejaVu Sans, Arial" font-size="13" fill="#374151">RMSE (mV)</text>
  <rect x="125.50" y="350.81" width="19.00" height="39.19" fill="#6b7280"/><rect x="148.50" y="350.82" width="19.00" height="39.18" fill="#2563eb"/><rect x="171.50" y="350.52" width="19.00" height="39.48" fill="#1d4ed8"/><rect x="194.50" y="355.15" width="19.00" height="34.85" fill="#dc2626"/><rect x="217.50" y="355.68" width="19.00" height="34.32" fill="#7c3aed"/><text x="181.00" y="420" text-anchor="middle" font-family="Noto Sans CJK SC, DejaVu Sans, Arial" font-size="12" fill="#374151">Train</text><rect x="315.50" y="330.20" width="19.00" height="59.80" fill="#6b7280"/><rect x="338.50" y="330.20" width="19.00" height="59.80" fill="#2563eb"/><rect x="361.50" y="329.80" width="19.00" height="60.20" fill="#1d4ed8"/><rect x="384.50" y="337.34" width="19.00" height="52.66" fill="#dc2626"/><rect x="407.50" y="338.11" width="19.00" height="51.89" fill="#7c3aed"/><text x="371.00" y="420" text-anchor="middle" font-family="Noto Sans CJK SC, DejaVu Sans, Arial" font-size="12" fill="#374151">Held-out T</text><rect x="505.50" y="372.21" width="19.00" height="17.79" fill="#6b7280"/><rect x="528.50" y="372.21" width="19.00" height="17.79" fill="#2563eb"/><rect x="551.50" y="372.62" width="19.00" height="17.38" fill="#1d4ed8"/><rect x="574.50" y="362.76" width="19.00" height="27.24" fill="#dc2626"/><rect x="597.50" y="367.00" width="19.00" height="23.00" fill="#7c3aed"/><text x="561.00" y="420" text-anchor="middle" font-family="Noto Sans CJK SC, DejaVu Sans, Arial" font-size="12" fill="#374151">High amp.</text><rect x="695.50" y="104.29" width="19.00" height="285.71" fill="#6b7280"/><rect x="718.50" y="104.29" width="19.00" height="285.71" fill="#2563eb"/><rect x="741.50" y="104.32" width="19.00" height="285.68" fill="#1d4ed8"/><rect x="764.50" y="104.56" width="19.00" height="285.44" fill="#dc2626"/><rect x="787.50" y="104.84" width="19.00" height="285.16" fill="#7c3aed"/><text x="751.00" y="420" text-anchor="middle" font-family="Noto Sans CJK SC, DejaVu Sans, Arial" font-size="12" fill="#374151">Cell transfer</text>
  <rect x="858" y="80" width="17" height="11" fill="#6b7280"/><text x="883" y="90" font-family="Noto Sans CJK SC, DejaVu Sans, Arial" font-size="11" fill="#111827">discharge OCV</text><rect x="858" y="104" width="17" height="11" fill="#2563eb"/><text x="883" y="114" font-family="Noto Sans CJK SC, DejaVu Sans, Arial" font-size="11" fill="#111827">ohmic, -raw</text><rect x="858" y="128" width="17" height="11" fill="#1d4ed8"/><text x="883" y="138" font-family="Noto Sans CJK SC, DejaVu Sans, Arial" font-size="11" fill="#111827">ECM, -raw</text><rect x="858" y="152" width="17" height="11" fill="#dc2626"/><text x="883" y="162" font-family="Noto Sans CJK SC, DejaVu Sans, Arial" font-size="11" fill="#111827">ohmic, raw</text><rect x="858" y="176" width="17" height="11" fill="#7c3aed"/><text x="883" y="186" font-family="Noto Sans CJK SC, DejaVu Sans, Arial" font-size="11" fill="#111827">ECM, raw</text>
</svg>
