<svg xmlns="http://www.w3.org/2000/svg" width="1120" height="450" viewBox="0 0 1120 450">
  <rect width="1120" height="450" fill="#ffffff"/>
  <text x="82" y="34" font-family="Noto Sans CJK SC, DejaVu Sans, Arial" font-size="20" fill="#111827">BATT-4a 恢复的 R0 函数剖面</text>
  <text x="82.0" y="57" font-family="Noto Sans CJK SC, DejaVu Sans, Arial" font-size="14" fill="#111827">R0 随 SOC 变化</text>
  <text x="610.0" y="57" font-family="Noto Sans CJK SC, DejaVu Sans, Arial" font-size="14" fill="#111827">R0 随 |I| 变化</text>
  <rect x="82.0" y="70.0" width="430.0" height="280.0" fill="#ffffff" stroke="#d1d5db"/>
  <rect x="610.0" y="70.0" width="430.0" height="280.0" fill="#ffffff" stroke="#d1d5db"/>
  <line x1="82.0" y1="350.0" x2="512.0" y2="350.0" stroke="#6b7280"/>
  <line x1="82.0" y1="70.0" x2="82.0" y2="350.0" stroke="#6b7280"/>
  <line x1="610.0" y1="350.0" x2="1040.0" y2="350.0" stroke="#6b7280"/>
  <line x1="610.0" y1="70.0" x2="610.0" y2="350.0" stroke="#6b7280"/>
  <text x="25" y="210.0" transform="rotate(-90 25 210.0)" text-anchor="middle" font-family="Noto Sans CJK SC, DejaVu Sans, Arial" font-size="13" fill="#374151">R0 (欧姆)</text>
  <text x="297.0" y="372" text-anchor="middle" font-family="Noto Sans CJK SC, DejaVu Sans, Arial" font-size="13" fill="#374151">SOC</text>
  <text x="825.0" y="372" text-anchor="middle" font-family="Noto Sans CJK SC, DejaVu Sans, Arial" font-size="13" fill="#374151">|I| (A)</text>
  <polyline points="82.00,77.21 84.70,77.21 87.41,77.21 90.11,77.21 92.82,77.21 95.52,77.21 98.23,77.21 100.93,77.21 103.64,77.21 106.34,77.21 109.04,77.21 111.75,77.21 114.45,77.21 117.16,77.21 119.86,77.21 122.57,77.21 125.27,77.21 127.97,77.21 130.68,77.21 133.38,77.21 136.09,77.21 138.79,77.21 141.50,77.21 144.20,77.21 146.91,77.21 149.61,77.21 152.31,77.21 155.02,77.21 157.72,77.21 160.43,77.21 163.13,77.21 165.84,77.21 168.54,77.21 171.25,77.21 173.95,77.21 176.65,77.21 179.36,77.21 182.06,77.21 184.77,77.21 187.47,77.21 190.18,77.21 192.88,77.21 195.58,77.21 198.29,77.21 200.99,77.21 203.70,77.21 206.40,77.21 209.11,77.21 211.81,77.21 214.52,77.21 217.22,77.21 219.92,77.21 222.63,77.21 225.33,77.21 228.04,77.21 230.74,77.21 233.45,77.21 236.15,77.21 238.86,77.21 241.56,77.21 244.26,77.21 246.97,77.21 249.67,77.21 252.38,77.21 255.08,77.21 257.79,77.21 260.49,77.21 263.19,77.21 265.90,77.21 268.60,77.21 271.31,77.21 274.01,77.21 276.72,77.21 279.42,77.21 282.13,77.21 284.83,77.21 287.53,77.21 290.24,77.21 292.94,77.21 295.65,77.21 298.35,77.21 301.06,77.21 303.76,77.21 306.47,77.21 309.17,77.21 311.87,77.21 314.58,77.21 317.28,77.21 319.99,77.21 322.69,77.21 325.40,77.21 328.10,77.21 330.81,77.21 333.51,77.21 336.21,77.21 338.92,77.21 341.62,77.21 344.33,77.21 347.03,77.21 349.74,77.21 352.44,77.21 355.14,77.21 357.85,77.21 360.55,77.21 363.26,77.21 365.96,77.21 368.67,77.21 371.37,77.21 374.08,77.21 376.78,77.21 379.48,77.21 382.19,77.21 384.89,77.21 387.60,77.21 390.30,77.21 393.01,77.21 395.71,77.21 398.42,77.21 401.12,77.21 403.82,77.21 406.53,77.21 409.23,77.21 411.94,77.21 414.64,77.21 417.35,77.21 420.05,77.21 422.75,77.21 425.46,77.21 428.16,77.21 430.87,77.21 433.57,77.21 436.28,77.21 438.98,77.21 441.69,77.21 444.39,77.21 447.09,77.21 449.80,77.21 452.50,77.21 455.21,77.21 457.91,77.21 460.62,77.21 463.32,77.21 466.03,77.21 468.73,77.21 471.43,77.21 474.14,77.21 476.84,77.21 479.55,77.21 482.25,77.21 484.96,77.21 487.66,77.21 490.36,77.21 493.07,77.21 495.77,77.21 498.48,77.21 501.18,77.21 503.89,77.21 506.59,77.21 509.30,77.21 512.00,77.21" fill="none" stroke="#2563eb" stroke-width="2"/><polyline points="82.00,342.79 84.70,342.79 87.41,342.79 90.11,342.79 92.82,342.79 95.52,342.79 98.23,342.79 100.93,342.79 103.64,342.79 106.34,342.79 109.04,342.79 111.75,342.79 114.45,342.79 117.16,342.79 119.86,342.79 122.57,342.79 125.27,342.79 127.97,342.79 130.68,342.79 133.38,342.79 136.09,342.79 138.79,342.79 141.50,342.79 144.20,342.79 146.91,342.79 149.61,342.79 152.31,342.79 155.02,342.79 157.72,342.79 160.43,342.79 163.13,342.79 165.84,342.79 168.54,342.79 171.25,342.79 173.95,342.79 176.65,342.79 179.36,342.79 182.06,342.79 184.77,342.79 187.47,342.79 190.18,342.79 192.88,342.79 195.58,342.79 198.29,342.79 200.99,342.79 203.70,342.79 206.40,342.79 209.11,342.79 211.81,342.79 214.52,342.79 217.22,342.79 219.92,342.79 222.63,342.79 225.33,342.79 228.04,342.79 230.74,342.79 233.45,342.79 236.15,342.79 238.86,342.79 241.56,342.79 244.26,342.79 246.97,342.79 249.67,342.79 252.38,342.79 255.08,342.79 257.79,342.79 260.49,342.79 263.19,342.79 265.90,342.79 268.60,342.79 271.31,342.79 274.01,342.79 276.72,342.79 279.42,342.79 282.13,342.79 284.83,342.79 287.53,342.79 290.24,342.79 292.94,342.79 295.65,342.79 298.35,342.79 301.06,342.79 303.76,342.79 306.47,342.79 309.17,342.79 311.87,342.79 314.58,342.79 317.28,342.79 319.99,342.79 322.69,342.79 325.40,342.79 328.10,342.79 330.81,342.79 333.51,342.79 336.21,342.79 338.92,342.79 341.62,342.79 344.33,342.79 347.03,342.79 349.74,342.79 352.44,342.79 355.14,342.79 357.85,342.79 360.55,342.79 363.26,342.79 365.96,342.79 368.67,342.79 371.37,342.79 374.08,342.79 376.78,342.79 379.48,342.79 382.19,342.79 384.89,342.79 387.60,342.79 390.30,342.79 393.01,342.79 395.71,342.79 398.42,342.79 401.12,342.79 403.82,342.79 406.53,342.79 409.23,342.79 411.94,342.79 414.64,342.79 417.35,342.79 420.05,342.79 422.75,342.79 425.46,342.79 428.16,342.79 430.87,342.79 433.57,342.79 436.28,342.79 438.98,342.79 441.69,342.79 444.39,342.79 447.09,342.79 449.80,342.79 452.50,342.79 455.21,342.79 457.91,342.79 460.62,342.79 463.32,342.79 466.03,342.79 468.73,342.79 471.43,342.79 474.14,342.79 476.84,342.79 479.55,342.79 482.25,342.79 484.96,342.79 487.66,342.79 490.36,342.79 493.07,342.79 495.77,342.79 498.48,342.79 501.18,342.79 503.89,342.79 506.59,342.79 509.30,342.79 512.00,342.79" fill="none" stroke="#dc2626" stroke-width="2"/><polyline points="82.00,308.45 84.70,308.45 87.41,308.45 90.11,308.45 92.82,308.45 95.52,308.45 98.23,308.45 100.93,308.45 103.64,308.45 106.34,308.45 109.04,308.45 111.75,308.45 114.45,308.45 117.16,308.45 119.86,308.45 122.57,308.45 125.27,308.45 127.97,308.45 130.68,308.45 133.38,308.45 136.09,308.45 138.79,308.45 141.50,308.45 144.20,308.45 146.91,308.45 149.61,308.45 152.31,308.45 155.02,308.45 157.72,308.45 160.43,308.45 163.13,308.45 165.84,308.45 168.54,308.45 171.25,308.45 173.95,308.45 176.65,308.45 179.36,308.45 182.06,308.45 184.77,308.45 187.47,308.45 190.18,308.45 192.88,308.45 195.58,308.45 198.29,308.45 200.99,308.45 203.70,308.45 206.40,308.45 209.11,308.45 211.81,308.45 214.52,308.45 217.22,308.45 219.92,308.45 222.63,308.45 225.33,308.45 228.04,308.45 230.74,308.45 233.45,308.45 236.15,308.45 238.86,308.45 241.56,308.45 244.26,308.45 246.97,308.45 249.67,308.45 252.38,308.45 255.08,308.45 257.79,308.45 260.49,308.45 263.19,308.45 265.90,308.45 268.60,308.45 271.31,308.45 274.01,308.45 276.72,308.45 279.42,308.45 282.13,308.45 284.83,308.45 287.53,308.45 290.24,308.45 292.94,308.45 295.65,308.45 298.35,308.45 301.06,308.45 303.76,308.45 306.47,308.45 309.17,308.45 311.87,308.45 314.58,308.45 317.28,308.45 319.99,308.45 322.69,308.45 325.40,308.45 328.10,308.45 330.81,308.45 333.51,308.45 336.21,308.45 338.92,308.45 341.62,308.45 344.33,308.45 347.03,308.45 349.74,308.45 352.44,308.45 355.14,308.45 357.85,308.45 360.55,308.45 363.26,308.45 365.96,308.45 368.67,308.45 371.37,308.45 374.08,308.45 376.78,308.45 379.48,308.45 382.19,308.45 384.89,308.45 387.60,308.45 390.30,308.45 393.01,308.45 395.71,308.45 398.42,308.45 401.12,308.45 403.82,308.45 406.53,308.45 409.23,308.45 411.94,308.45 414.64,308.45 417.35,308.45 420.05,308.45 422.75,308.45 425.46,308.45 428.16,308.45 430.87,308.45 433.57,308.45 436.28,308.45 438.98,308.45 441.69,308.45 444.39,308.45 447.09,308.45 449.80,308.45 452.50,308.45 455.21,308.45 457.91,308.45 460.62,308.45 463.32,308.45 466.03,308.45 468.73,308.45 471.43,308.45 474.14,308.45 476.84,308.45 479.55,308.45 482.25,308.45 484.96,308.45 487.66,308.45 490.36,308.45 493.07,308.45 495.77,308.45 498.48,308.45 501.18,308.45 503.89,308.45 506.59,308.45 509.30,308.45 512.00,308.45" fill="none" stroke="#059669" stroke-width="2"/><polyline points="610.00,342.79 612.70,342.79 615.41,342.79 618.11,342.79 620.82,342.79 623.52,342.79 626.23,342.79 628.93,342.79 631.64,342.79 634.34,342.79 637.04,342.79 639.75,342.79 642.45,342.79 645.16,342.79 647.86,342.79 650.57,342.79 653.27,342.79 655.97,342.79 658.68,342.79 661.38,342.79 664.09,342.79 666.79,342.79 669.50,342.79 672.20,342.79 674.91,342.79 677.61,342.79 680.31,342.79 683.02,342.79 685.72,342.79 688.43,342.79 691.13,342.79 693.84,342.79 696.54,342.79 699.25,342.79 701.95,342.79 704.65,342.79 707.36,342.79 710.06,342.79 712.77,342.79 715.47,342.79 718.18,342.79 720.88,342.79 723.58,342.79 726.29,342.79 728.99,342.79 731.70,342.79 734.40,342.79 737.11,342.79 739.81,342.79 742.52,342.79 745.22,342.79 747.92,342.79 750.63,342.79 753.33,342.79 756.04,342.79 758.74,342.79 761.45,342.79 764.15,342.79 766.86,342.79 769.56,342.79 772.26,342.79 774.97,342.79 777.67,342.79 780.38,342.79 783.08,342.79 785.79,342.79 788.49,342.79 791.19,342.79 793.90,342.79 796.60,342.79 799.31,342.79 802.01,342.79 804.72,342.79 807.42,342.79 810.13,342.79 812.83,342.79 815.53,342.79 818.24,342.79 820.94,342.79 823.65,342.79 826.35,342.79 829.06,342.79 831.76,342.79 834.47,342.79 837.17,342.79 839.87,342.79 842.58,342.79 845.28,342.79 847.99,342.79 850.69,342.79 853.40,342.79 856.10,342.79 858.81,342.79 861.51,342.79 864.21,342.79 866.92,342.79 869.62,342.79 872.33,342.79 875.03,342.79 877.74,342.79 880.44,342.79 883.14,342.79 885.85,342.79 888.55,342.79 891.26,342.79 893.96,342.79 896.67,342.79 899.37,342.79 902.08,342.79 904.78,342.79 907.48,342.79 910.19,342.79 912.89,342.79 915.60,342.79 918.30,342.79 921.01,342.79 923.71,342.79 926.42,342.79 929.12,342.79 931.82,342.79 934.53,342.79 937.23,342.79 939.94,342.79 942.64,342.79 945.35,342.79 948.05,342.79 950.75,342.79 953.46,342.79 956.16,342.79 958.87,342.79 961.57,342.79 964.28,342.79 966.98,342.79 969.69,342.79 972.39,342.79 975.09,342.79 977.80,342.79 980.50,342.79 983.21,342.79 985.91,342.79 988.62,342.79 991.32,342.79 994.03,342.79 996.73,342.79 999.43,342.79 1002.14,342.79 1004.84,342.79 1007.55,342.79 1010.25,342.79 1012.96,342.79 1015.66,342.79 1018.36,342.79 1021.07,342.79 1023.77,342.79 1026.48,342.79 1029.18,342.79 1031.89,342.79 1034.59,342.79 1037.30,342.79 1040.00,342.79" fill="none" stroke="#7c3aed" stroke-width="2"/>
  <rect x="82" y="370" width="18" height="11" fill="#2563eb"/><text x="108" y="380" font-family="Noto Sans CJK SC, DejaVu Sans, Arial" font-size="12" fill="#111827">T=-25 C, |I|=1 A</text><rect x="82" y="392" width="18" height="11" fill="#dc2626"/><text x="108" y="402" font-family="Noto Sans CJK SC, DejaVu Sans, Arial" font-size="12" fill="#111827">T=25 C, |I|=1 A</text><rect x="82" y="414" width="18" height="11" fill="#059669"/><text x="108" y="424" font-family="Noto Sans CJK SC, DejaVu Sans, Arial" font-size="12" fill="#111827">T=45 C, |I|=1 A</text><rect x="610" y="370" width="18" height="11" fill="#7c3aed"/><text x="636" y="380" font-family="Noto Sans CJK SC, DejaVu Sans, Arial" font-size="12" fill="#111827">SOC=0.5, T=25 C</text>
</svg>
