<svg xmlns="http://www.w3.org/2000/svg" width="1260" height="460" viewBox="0 0 1260 460">
  <rect width="1260" height="460" fill="#ffffff"/>
  <text x="86" y="36" font-family="Noto Sans CJK SC, DejaVu Sans, Arial" font-size="20" fill="#111827">BATT-4a R0 系数槽 RMSE 对比</text>
  <rect x="86.0" y="70.0" width="820.0" height="320.0" fill="#ffffff" stroke="#d1d5db"/>
  <line x1="86.0" y1="390.0" x2="906.0" y2="390.0" stroke="#6b7280"/>
  <line x1="86.0" y1="70.0" x2="86.0" y2="390.0" stroke="#6b7280"/>
  <text x="25" y="230.0" transform="rotate(-90 25 230.0)" text-anchor="middle" font-family="Noto Sans CJK SC, DejaVu Sans, Arial" font-size="13" fill="#374151">RMSE (mV)</text>
  <rect x="146.50" y="350.81" width="18.00" height="39.19" fill="#6b7280"/><rect x="168.50" y="355.68" width="18.00" height="34.32" fill="#2563eb"/><rect x="190.50" y="362.84" width="18.00" height="27.16" fill="#7c3aed"/><rect x="212.50" y="360.65" width="18.00" height="29.35" fill="#dc2626"/><text x="188.50" y="420" text-anchor="middle" font-family="Noto Sans CJK SC, DejaVu Sans, Arial" font-size="12" fill="#374151">训练</text><rect x="351.50" y="330.20" width="18.00" height="59.80" fill="#6b7280"/><rect x="373.50" y="338.11" width="18.00" height="51.89" fill="#2563eb"/><rect x="395.50" y="342.99" width="18.00" height="47.01" fill="#7c3aed"/><rect x="417.50" y="344.79" width="18.00" height="45.21" fill="#dc2626"/><text x="393.50" y="420" text-anchor="middle" font-family="Noto Sans CJK SC, DejaVu Sans, Arial" font-size="12" fill="#374151">留出温度</text><rect x="556.50" y="372.21" width="18.00" height="17.79" fill="#6b7280"/><rect x="578.50" y="367.00" width="18.00" height="23.00" fill="#2563eb"/><rect x="600.50" y="374.26" width="18.00" height="15.74" fill="#7c3aed"/><rect x="622.50" y="379.27" width="18.00" height="10.73" fill="#dc2626"/><text x="598.50" y="420" text-anchor="middle" font-family="Noto Sans CJK SC, DejaVu Sans, Arial" font-size="12" fill="#374151">高倍率</text><rect x="761.50" y="104.29" width="18.00" height="285.71" fill="#6b7280"/><rect x="783.50" y="104.84" width="18.00" height="285.16" fill="#2563eb"/><rect x="805.50" y="104.34" width="18.00" height="285.66" fill="#7c3aed"/><rect x="827.50" y="104.67" width="18.00" height="285.33" fill="#dc2626"/><text x="803.50" y="420" text-anchor="middle" font-family="Noto Sans CJK SC, DejaVu Sans, Arial" font-size="12" fill="#374151">跨电芯</text>
  <rect x="928" y="74" width="17" height="11" fill="#6b7280"/><text x="953" y="84" font-family="Noto Sans CJK SC, DejaVu Sans, Arial" font-size="11" fill="#111827">BATT-3c 仅放电 OCV</text><rect x="928" y="99" width="17" height="11" fill="#2563eb"/><text x="953" y="109" font-family="Noto Sans CJK SC, DejaVu Sans, Arial" font-size="11" fill="#111827">BATT-3c 常系数 ECM</text><rect x="928" y="124" width="17" height="11" fill="#7c3aed"/><text x="953" y="134" font-family="Noto Sans CJK SC, DejaVu Sans, Arial" font-size="11" fill="#111827">BATT4a_R0_slot_filtered_T_only_STLSQ_dense</text><rect x="928" y="149" width="17" height="11" fill="#dc2626"/><text x="953" y="159" font-family="Noto Sans CJK SC, DejaVu Sans, Arial" font-size="11" fill="#111827">BATT4a_R0_slot_filtered_T_SOC_Isat_STLSQ_t0.05</text>
</svg>
